<svg width="256" height="250" viewBox="0 0 256 250" fill="none" xmlns="http://www.w3.org/2000/svg">
    <style>
        .logo {
            fill: #303B40;
        }
        @media (prefers-color-scheme: dark) {
          .logo {
            fill: #F6BC00;
          }
        }
    </style>
    <path class="logo" d="M255.406 152.362L233.349 55.8787C232.799 53.4427 231.702 51.1631 230.143 49.2117C228.583 47.2602 226.601 45.6878 224.344 44.6128L135.125 1.65359C132.878 0.565373 130.414 0 127.917 0C125.42 0 122.956 0.565373 120.709 1.65359L31.4485 44.6128C29.1924 45.6878 27.2098 47.2602 25.6501 49.2117C24.0904 51.1631 22.9941 53.4427 22.444 55.8787L0.428233 152.362C-0.13585 154.788 -0.142752 157.311 0.408064 159.741C0.95888 162.171 2.05314 164.445 3.60876 166.392L65.5667 243.768C67.1182 245.717 69.0908 247.29 71.3369 248.369C73.5829 249.448 76.0443 250.006 78.5366 250H177.669C180.169 250.012 182.638 249.457 184.892 248.378C187.145 247.299 189.125 245.723 190.681 243.768L252.432 166.392C253.952 164.428 255.009 162.146 255.524 159.717C256.039 157.287 255.998 154.773 255.406 152.362V152.362ZM229.301 153.063C228.934 155.107 227.86 156.958 226.268 158.292C224.675 159.627 222.664 160.361 220.586 160.367C219.776 160.359 218.971 160.248 218.19 160.037L190.144 152.155L164.493 184.385L176.885 211.786C177.802 213.672 178.044 215.816 177.571 217.859C177.097 219.901 175.936 221.72 174.282 223.011C173.225 223.794 172.005 224.331 170.713 224.582C169.421 224.834 168.089 224.794 166.815 224.466C165.54 224.138 164.355 223.529 163.346 222.685C162.337 221.841 161.529 220.782 160.982 219.586L148.301 191.978H107.285L94.6457 219.586C94.0937 220.783 93.2818 221.842 92.2689 222.686C91.256 223.531 90.0675 224.139 88.7898 224.467C87.5122 224.795 86.1774 224.835 84.8825 224.583C83.5877 224.331 82.3652 223.794 81.3041 223.011C79.6566 221.734 78.4989 219.93 78.0251 217.901C77.5513 215.872 77.7902 213.742 78.7018 211.869L91.0934 184.385L65.3602 152.155L37.4378 160.037C36.6424 160.248 35.8237 160.359 35.0008 160.367C32.9221 160.361 30.9113 159.627 29.3188 158.292C27.7262 156.958 26.6527 155.107 26.2853 153.063C25.9698 150.824 26.4901 148.548 27.7471 146.668C29.0041 144.788 30.9099 143.436 33.1008 142.87L61.1058 134.947L70.1516 94.6286L48.6315 78.2868C47.6317 77.5524 46.7978 76.6157 46.1842 75.5379C45.5706 74.4602 45.1911 73.2654 45.0703 72.0313C44.9495 70.7973 45.0902 69.5517 45.4831 68.3756C45.8761 67.1995 46.5126 66.1192 47.3511 65.2051C48.9414 63.5482 51.0941 62.545 53.3867 62.3923C55.6793 62.2396 57.9463 62.9484 59.7427 64.3797L81.7584 80.639L119.47 62.6465V35.4514C119.469 34.2093 119.73 32.9808 120.234 31.8455C120.739 30.7102 121.476 29.6934 122.399 28.861C123.322 28.0285 124.409 27.3989 125.591 27.0129C126.773 26.6269 128.023 26.4931 129.26 26.6202C131.496 26.9333 133.539 28.0562 135.001 29.7756C136.463 31.495 137.242 33.6911 137.19 35.9467V62.6465L174.819 80.639L197.372 64.1321C198.37 63.3948 199.512 62.8756 200.723 62.6082C201.935 62.3409 203.19 62.3315 204.405 62.5807C205.621 62.8298 206.77 63.3319 207.779 64.0543C208.788 64.7766 209.633 65.703 210.259 66.7732C211.34 68.748 211.655 71.051 211.144 73.243C210.634 75.435 209.334 77.3627 207.492 78.6582L181.056 98.1364H180.85C180.17 98.6329 179.417 99.0226 178.619 99.2918H178.289C177.579 99.5052 176.841 99.6164 176.1 99.622H175.645C175.137 99.6647 174.626 99.6647 174.117 99.622H173.745C173.13 99.4899 172.533 99.282 171.969 99.003V99.003L146.401 86.6228C140.784 83.9439 134.638 82.5535 128.413 82.5535C122.188 82.5535 116.042 83.9439 110.424 86.6228L106.748 88.3973C101.066 91.0979 96.0772 95.0597 92.1615 99.9802C88.2458 104.901 85.507 110.65 84.1541 116.789L83.328 120.338C81.9815 126.43 82.0249 132.746 83.455 138.818C84.8851 144.89 87.6651 150.563 91.589 155.415L94.15 158.593C98.0456 163.484 102.995 167.434 108.631 170.149C114.266 172.865 120.442 174.274 126.699 174.274H130.54C136.765 174.281 142.912 172.881 148.519 170.179C154.127 167.478 159.051 163.546 162.923 158.675L172.217 146.997L126.162 134.204C124.966 133.874 123.853 133.296 122.896 132.508C121.938 131.72 121.157 130.739 120.604 129.63C120.051 128.521 119.737 127.307 119.684 126.069C119.631 124.831 119.84 123.595 120.296 122.443C121.185 120.375 122.805 118.705 124.846 117.754C126.888 116.803 129.209 116.635 131.366 117.284L189.07 133.461L222.114 142.829C224.374 143.317 226.367 144.636 227.699 146.524C229.03 148.412 229.602 150.732 229.301 153.022V153.063Z"/>
</svg>
