<?xml version="1.0" encoding="UTF-8"?>
<svg width="652px" height="576px" viewBox="0 0 652 576" version="1.1" xmlns="http://www.w3.org/2000/svg" xmlns:xlink="http://www.w3.org/1999/xlink">
    <title>gefyra_run_action</title>
    <defs>
        <radialGradient cx="49.9972006%" cy="50.0051004%" fx="49.9972006%" fy="50.0051004%" r="120.889904%" gradientTransform="translate(0.499972,0.500051),scale(0.593565,1.000000),rotate(90.000000),translate(-0.499972,-0.500051)" id="radialGradient-1">
            <stop stop-color="#FFEEA4" offset="0%"></stop>
            <stop stop-color="#FFEEA4" offset="13.18%"></stop>
            <stop stop-color="#FDD65D" offset="45.15%"></stop>
            <stop stop-color="#FBC11F" offset="75.93%"></stop>
            <stop stop-color="#FAB907" offset="90.45%"></stop>
            <stop stop-color="#FAB907" offset="100%"></stop>
        </radialGradient>
        <linearGradient x1="64.6689968%" y1="71.6641771%" x2="-22.7246653%" y2="-57.5072716%" id="linearGradient-2">
            <stop stop-color="#B9A44B" offset="0%"></stop>
            <stop stop-color="#F6CB3B" offset="100%"></stop>
        </linearGradient>
        <linearGradient x1="34.0122402%" y1="77.2793496%" x2="120.688131%" y2="-70.3758302%" id="linearGradient-3">
            <stop stop-color="#A58E2B" offset="0%"></stop>
            <stop stop-color="#F7D853" offset="100%"></stop>
        </linearGradient>
        <linearGradient x1="-1.5043306%" y1="50.014886%" x2="294.740736%" y2="50.014886%" id="linearGradient-4">
            <stop stop-color="#F6BC06" offset="0%"></stop>
            <stop stop-color="#F7D853" offset="100%"></stop>
        </linearGradient>
        <linearGradient x1="64.6622565%" y1="71.6735147%" x2="-22.7735514%" y2="-57.5212522%" id="linearGradient-5">
            <stop stop-color="#B9A44B" offset="0%"></stop>
            <stop stop-color="#F6CB3B" offset="100%"></stop>
        </linearGradient>
        <linearGradient x1="33.9911116%" y1="77.2764824%" x2="120.754511%" y2="-70.4670254%" id="linearGradient-6">
            <stop stop-color="#A58E2B" offset="0%"></stop>
            <stop stop-color="#F7D853" offset="100%"></stop>
        </linearGradient>
        <linearGradient x1="-1.49901137%" y1="50.0134979%" x2="294.74837%" y2="50.0134979%" id="linearGradient-7">
            <stop stop-color="#F6BC06" offset="0%"></stop>
            <stop stop-color="#F7D853" offset="100%"></stop>
        </linearGradient>
        <linearGradient x1="64.6276076%" y1="71.6232154%" x2="-22.6420515%" y2="-57.4487427%" id="linearGradient-8">
            <stop stop-color="#B9A44B" offset="0%"></stop>
            <stop stop-color="#F6CB3B" offset="100%"></stop>
        </linearGradient>
        <linearGradient x1="33.9863774%" y1="77.2766279%" x2="120.749777%" y2="-70.4668798%" id="linearGradient-9">
            <stop stop-color="#A58E2B" offset="0%"></stop>
            <stop stop-color="#F7D853" offset="100%"></stop>
        </linearGradient>
        <linearGradient x1="-1.48841111%" y1="50.0170222%" x2="294.758971%" y2="50.0170222%" id="linearGradient-10">
            <stop stop-color="#F6BC06" offset="0%"></stop>
            <stop stop-color="#F7D853" offset="100%"></stop>
        </linearGradient>
        <linearGradient x1="64.6372029%" y1="71.6215044%" x2="-22.7628777%" y2="-57.5509604%" id="linearGradient-11">
            <stop stop-color="#B9A44B" offset="0%"></stop>
            <stop stop-color="#F6CB3B" offset="100%"></stop>
        </linearGradient>
        <linearGradient x1="33.9863171%" y1="77.2916074%" x2="120.667829%" y2="-70.355346%" id="linearGradient-12">
            <stop stop-color="#A58E2B" offset="0%"></stop>
            <stop stop-color="#F7D853" offset="100%"></stop>
        </linearGradient>
        <linearGradient x1="-1.47685103%" y1="49.9806455%" x2="294.693376%" y2="49.9806455%" id="linearGradient-13">
            <stop stop-color="#F6BC06" offset="0%"></stop>
            <stop stop-color="#F7D853" offset="100%"></stop>
        </linearGradient>
        <linearGradient x1="64.6705352%" y1="71.658303%" x2="-22.8167576%" y2="-57.5791278%" id="linearGradient-14">
            <stop stop-color="#B9A44B" offset="0%"></stop>
            <stop stop-color="#F6CB3B" offset="100%"></stop>
        </linearGradient>
        <linearGradient x1="33.9938695%" y1="77.2629277%" x2="120.716528%" y2="-70.3987358%" id="linearGradient-15">
            <stop stop-color="#A58E2B" offset="0%"></stop>
            <stop stop-color="#F7D853" offset="100%"></stop>
        </linearGradient>
        <linearGradient x1="-1.5064307%" y1="49.9964563%" x2="294.624484%" y2="49.9964563%" id="linearGradient-16">
            <stop stop-color="#F6BC06" offset="0%"></stop>
            <stop stop-color="#F7D853" offset="100%"></stop>
        </linearGradient>
        <linearGradient x1="64.644194%" y1="71.6473233%" x2="-22.7243075%" y2="-57.5225721%" id="linearGradient-17">
            <stop stop-color="#B9A44B" offset="0%"></stop>
            <stop stop-color="#F6CB3B" offset="100%"></stop>
        </linearGradient>
        <linearGradient x1="33.9892579%" y1="77.2568753%" x2="120.708571%" y2="-70.4066433%" id="linearGradient-18">
            <stop stop-color="#A58E2B" offset="0%"></stop>
            <stop stop-color="#F7D853" offset="100%"></stop>
        </linearGradient>
        <linearGradient x1="-1.50834419%" y1="49.9766665%" x2="294.730117%" y2="49.9766665%" id="linearGradient-19">
            <stop stop-color="#F6BC06" offset="0%"></stop>
            <stop stop-color="#F7D853" offset="100%"></stop>
        </linearGradient>
        <linearGradient x1="64.7414395%" y1="71.7386%" x2="-104.04551%" y2="-177.735285%" id="linearGradient-20">
            <stop stop-color="#B9A44B" offset="0%"></stop>
            <stop stop-color="#F6CB3B" offset="100%"></stop>
        </linearGradient>
        <linearGradient x1="33.9624528%" y1="77.2475679%" x2="201.082133%" y2="-207.748427%" id="linearGradient-21">
            <stop stop-color="#A58E2B" offset="0%"></stop>
            <stop stop-color="#F7D853" offset="100%"></stop>
        </linearGradient>
        <linearGradient x1="-1.33618254%" y1="50.0358755%" x2="570.408888%" y2="50.0358755%" id="linearGradient-22">
            <stop stop-color="#F6BC06" offset="0%"></stop>
            <stop stop-color="#F7D853" offset="100%"></stop>
        </linearGradient>
        <linearGradient x1="64.7017817%" y1="71.720894%" x2="-104.11795%" y2="-177.752856%" id="linearGradient-23">
            <stop stop-color="#B9A44B" offset="0%"></stop>
            <stop stop-color="#F6CB3B" offset="100%"></stop>
        </linearGradient>
        <linearGradient x1="33.9541102%" y1="77.2662667%" x2="201.632962%" y2="-208.055145%" id="linearGradient-24">
            <stop stop-color="#A58E2B" offset="0%"></stop>
            <stop stop-color="#F7D853" offset="100%"></stop>
        </linearGradient>
        <linearGradient x1="-1.34459726%" y1="49.9651074%" x2="570.363634%" y2="49.9651074%" id="linearGradient-25">
            <stop stop-color="#F6BC06" offset="0%"></stop>
            <stop stop-color="#F7D853" offset="100%"></stop>
        </linearGradient>
        <linearGradient x1="64.7227569%" y1="71.720894%" x2="-104.096974%" y2="-177.752856%" id="linearGradient-26">
            <stop stop-color="#B9A44B" offset="0%"></stop>
            <stop stop-color="#F6CB3B" offset="100%"></stop>
        </linearGradient>
        <linearGradient x1="33.9474368%" y1="77.2489579%" x2="201.626289%" y2="-208.072454%" id="linearGradient-27">
            <stop stop-color="#A58E2B" offset="0%"></stop>
            <stop stop-color="#F7D853" offset="100%"></stop>
        </linearGradient>
        <linearGradient x1="-1.31654848%" y1="49.9651074%" x2="570.391683%" y2="49.9651074%" id="linearGradient-28">
            <stop stop-color="#F6BC06" offset="0%"></stop>
            <stop stop-color="#F7D853" offset="100%"></stop>
        </linearGradient>
        <linearGradient x1="64.7345999%" y1="71.7376214%" x2="-104.093088%" y2="-177.751461%" id="linearGradient-29">
            <stop stop-color="#B9A44B" offset="0%"></stop>
            <stop stop-color="#F6CB3B" offset="100%"></stop>
        </linearGradient>
        <linearGradient x1="33.9657495%" y1="77.2760477%" x2="201.626877%" y2="-208.067063%" id="linearGradient-30">
            <stop stop-color="#A58E2B" offset="0%"></stop>
            <stop stop-color="#F7D853" offset="100%"></stop>
        </linearGradient>
        <linearGradient x1="-1.43076316%" y1="50.0453094%" x2="570.467114%" y2="50.0453094%" id="linearGradient-31">
            <stop stop-color="#F6BC06" offset="0%"></stop>
            <stop stop-color="#F7D853" offset="100%"></stop>
        </linearGradient>
        <linearGradient x1="57.1727617%" y1="66.6063066%" x2="7.65301592%" y2="-47.8620985%" id="linearGradient-32">
            <stop stop-color="#F6BC06" offset="0%"></stop>
            <stop stop-color="#F7D853" offset="100%"></stop>
        </linearGradient>
        <linearGradient x1="59.2854211%" y1="72.8209272%" x2="-11.8351809%" y2="-101.610728%" id="linearGradient-33">
            <stop stop-color="#B9A44B" offset="0%"></stop>
            <stop stop-color="#F6CB3B" offset="100%"></stop>
        </linearGradient>
        <linearGradient x1="62.1427614%" y1="32.0673975%" x2="-38.4403816%" y2="180.764142%" id="linearGradient-34">
            <stop stop-color="#B9A44B" offset="0%"></stop>
            <stop stop-color="#F6CB3B" offset="100%"></stop>
        </linearGradient>
        <linearGradient x1="50.2676133%" y1="38.7016766%" x2="48.3174096%" y2="122.579075%" id="linearGradient-35">
            <stop stop-color="#F6BC06" offset="0%"></stop>
            <stop stop-color="#F7D853" offset="100%"></stop>
        </linearGradient>
        <linearGradient x1="57.2169604%" y1="66.5951496%" x2="7.71214437%" y2="-47.8609496%" id="linearGradient-36">
            <stop stop-color="#F6BC06" offset="0%"></stop>
            <stop stop-color="#F7D853" offset="100%"></stop>
        </linearGradient>
        <linearGradient x1="59.243812%" y1="72.7650046%" x2="-11.7437007%" y2="-101.488567%" id="linearGradient-37">
            <stop stop-color="#B9A44B" offset="0%"></stop>
            <stop stop-color="#F6CB3B" offset="100%"></stop>
        </linearGradient>
        <linearGradient x1="62.1397351%" y1="32.0450037%" x2="-38.3437252%" y2="180.671898%" id="linearGradient-38">
            <stop stop-color="#B9A44B" offset="0%"></stop>
            <stop stop-color="#F6CB3B" offset="100%"></stop>
        </linearGradient>
        <linearGradient x1="50.2857279%" y1="38.7246931%" x2="48.3367329%" y2="122.344847%" id="linearGradient-39">
            <stop stop-color="#F6BC06" offset="0%"></stop>
            <stop stop-color="#F7D853" offset="100%"></stop>
        </linearGradient>
        <linearGradient x1="57.1904802%" y1="66.6264716%" x2="7.70425218%" y2="-47.8264766%" id="linearGradient-40">
            <stop stop-color="#F6BC06" offset="0%"></stop>
            <stop stop-color="#F7D853" offset="100%"></stop>
        </linearGradient>
        <linearGradient x1="59.2791454%" y1="72.7616347%" x2="-11.8114625%" y2="-101.606269%" id="linearGradient-41">
            <stop stop-color="#B9A44B" offset="0%"></stop>
            <stop stop-color="#F6CB3B" offset="100%"></stop>
        </linearGradient>
        <linearGradient x1="62.131786%" y1="32.0156498%" x2="-38.6360192%" y2="180.78917%" id="linearGradient-42">
            <stop stop-color="#B9A44B" offset="0%"></stop>
            <stop stop-color="#F6CB3B" offset="100%"></stop>
        </linearGradient>
        <linearGradient x1="50.1772505%" y1="38.7725356%" x2="48.2306525%" y2="122.170767%" id="linearGradient-43">
            <stop stop-color="#F6BC06" offset="0%"></stop>
            <stop stop-color="#F7D853" offset="100%"></stop>
        </linearGradient>
        <linearGradient x1="64.6765697%" y1="71.7027694%" x2="-104.072644%" y2="-177.642967%" id="linearGradient-44">
            <stop stop-color="#B9A44B" offset="0%"></stop>
            <stop stop-color="#F6CB3B" offset="100%"></stop>
        </linearGradient>
        <linearGradient x1="33.966805%" y1="77.2367679%" x2="201.4867%" y2="-207.910864%" id="linearGradient-45">
            <stop stop-color="#A58E2B" offset="0%"></stop>
            <stop stop-color="#F7D853" offset="100%"></stop>
        </linearGradient>
        <linearGradient x1="-1.42464722%" y1="49.9632671%" x2="570.964242%" y2="49.9632671%" id="linearGradient-46">
            <stop stop-color="#F6BC06" offset="0%"></stop>
            <stop stop-color="#F7D853" offset="100%"></stop>
        </linearGradient>
        <linearGradient x1="57.165924%" y1="66.5696095%" x2="7.70213723%" y2="-47.8391327%" id="linearGradient-47">
            <stop stop-color="#F6BC06" offset="0%"></stop>
            <stop stop-color="#F7D853" offset="100%"></stop>
        </linearGradient>
        <linearGradient x1="59.24232%" y1="72.8207025%" x2="-11.7019799%" y2="-101.435004%" id="linearGradient-48">
            <stop stop-color="#B9A44B" offset="0%"></stop>
            <stop stop-color="#F6CB3B" offset="100%"></stop>
        </linearGradient>
        <linearGradient x1="62.1720652%" y1="32.0201141%" x2="-38.3248852%" y2="180.663368%" id="linearGradient-49">
            <stop stop-color="#2C353F" offset="0%"></stop>
            <stop stop-color="#334048" offset="100%"></stop>
        </linearGradient>
        <linearGradient x1="50.1966079%" y1="38.7191032%" x2="48.2448491%" y2="122.630315%" id="linearGradient-50">
            <stop stop-color="#F6BC06" offset="0%"></stop>
            <stop stop-color="#F7D853" offset="100%"></stop>
        </linearGradient>
        <linearGradient x1="-0.00121235156%" y1="50.022804%" x2="99.9960005%" y2="50.022804%" id="linearGradient-51">
            <stop stop-color="#9B9B9B" offset="0%"></stop>
            <stop stop-color="#DCDCDC" offset="11.36%"></stop>
            <stop stop-color="#DCDCDC" offset="89.55%"></stop>
            <stop stop-color="#F0F0F0" offset="100%"></stop>
        </linearGradient>
        <linearGradient x1="-2.09945946e-05%" y1="50.0062128%" x2="100.00495%" y2="50.0062128%" id="linearGradient-52">
            <stop stop-color="#9B9B9B" offset="0%"></stop>
            <stop stop-color="#DCDCDC" offset="11.36%"></stop>
            <stop stop-color="#DCDCDC" offset="89.55%"></stop>
            <stop stop-color="#F0F0F0" offset="100%"></stop>
        </linearGradient>
        <linearGradient x1="-0.00457544497%" y1="50.0096781%" x2="99.9987122%" y2="50.0096781%" id="linearGradient-53">
            <stop stop-color="#282814" offset="0%"></stop>
            <stop stop-color="#555F69" offset="11.36%"></stop>
            <stop stop-color="#555F69" offset="89.55%"></stop>
            <stop stop-color="#AAAFB4" offset="100%"></stop>
        </linearGradient>
        <linearGradient x1="0.00227722772%" y1="50.0086768%" x2="100.002277%" y2="50.0086768%" id="linearGradient-54">
            <stop stop-color="#FA8700" offset="0%"></stop>
            <stop stop-color="#FAB900" offset="11.36%"></stop>
            <stop stop-color="#FAB900" offset="89.55%"></stop>
            <stop stop-color="#FFE6A0" offset="100%"></stop>
        </linearGradient>
        <linearGradient x1="-0.00207920792%" y1="49.9978308%" x2="99.9979208%" y2="49.9978308%" id="linearGradient-55">
            <stop stop-color="#FA8700" offset="0%"></stop>
            <stop stop-color="#FAB900" offset="11.36%"></stop>
            <stop stop-color="#FAB900" offset="89.55%"></stop>
            <stop stop-color="#FFE6A0" offset="100%"></stop>
        </linearGradient>
        <linearGradient x1="0.00227722772%" y1="50.0045553%" x2="100.002277%" y2="50.0045553%" id="linearGradient-56">
            <stop stop-color="#FA8700" offset="0%"></stop>
            <stop stop-color="#FAB900" offset="11.36%"></stop>
            <stop stop-color="#FAB900" offset="89.55%"></stop>
            <stop stop-color="#FFE6A0" offset="100%"></stop>
        </linearGradient>
    </defs>
    <g id="Page-1" stroke="none" stroke-width="1" fill="none" fill-rule="evenodd">
        <g id="gefyra_run_action">
            <g id="Ebene_4" transform="translate(8.500000, 74.200000)" fill="url(#radialGradient-1)" fill-rule="nonzero">
                <rect id="Rectangle" x="0" y="0" width="640.2" height="380"></rect>
            </g>
            <g id="Ebene_5" fill-rule="nonzero">
                <g id="Group" opacity="0.5" transform="translate(385.500000, 428.500000)">
                    <g>
                        <polygon id="Path" fill="url(#linearGradient-2)" points="60.1 146.8 0 59.7 78.9 5.3 138.9 92.5"></polygon>
                        <polygon id="Path" fill="url(#linearGradient-3)" points="54.5 97.4 109.6 6.6 189 54.8 134 145.6"></polygon>
                        <rect id="Rectangle" fill="url(#linearGradient-4)" x="43.1" y="-5.68434189e-14" width="105.4" height="61.1"></rect>
                    </g>
                </g>
                <g id="Group" opacity="0.5" transform="translate(82.300000, 93.100000)">
                    <g transform="translate(0.000000, -0.000000)">
                        <polygon id="Path" fill="url(#linearGradient-5)" points="44.6 109 -1.42108547e-14 44.3 58.6 3.9 103.2 68.7"></polygon>
                        <polygon id="Path" fill="url(#linearGradient-6)" points="40.5 72.3 81.4 4.9 140.4 40.7 99.5 108.1"></polygon>
                        <rect id="Rectangle" fill="url(#linearGradient-7)" x="32" y="0" width="78.3" height="45.4"></rect>
                    </g>
                </g>
                <g id="Group" opacity="0.5" transform="translate(54.700000, 441.700000)">
                    <g>
                        <polygon id="Path" fill="url(#linearGradient-8)" points="44.6 109.1 0 44.3 58.6 3.9 103.2 68.7"></polygon>
                        <polygon id="Path" fill="url(#linearGradient-9)" points="40.5 72.3 81.4 4.9 140.4 40.7 99.5 108.1"></polygon>
                        <rect id="Rectangle" fill="url(#linearGradient-10)" x="32" y="0" width="78.3" height="45.4"></rect>
                    </g>
                </g>
                <g id="Group" opacity="0.5" transform="translate(180.200000, 298.400000)">
                    <g transform="translate(0.000000, -0.000000)">
                        <polygon id="Path" fill="url(#linearGradient-11)" points="60.3 147.3 2.84217094e-14 59.8 79.1 5.3 139.4 92.8"></polygon>
                        <polygon id="Path" fill="url(#linearGradient-12)" points="54.7 97.7 110 6.5 189.7 54.9 134.4 146"></polygon>
                        <rect id="Rectangle" fill="url(#linearGradient-13)" x="43.2" y="-2.84217094e-14" width="105.8" height="61.3"></rect>
                    </g>
                </g>
                <g id="Group" opacity="0.5" transform="translate(0.000000, 403.300000)">
                    <g>
                        <polygon id="Path" fill="url(#linearGradient-14)" points="69.2 168.8 0 68.6 90.7 6.1 159.8 106.3"></polygon>
                        <polygon id="Path" fill="url(#linearGradient-15)" points="62.7 112 126.1 7.5 217.5 62.9 154.1 167.4"></polygon>
                        <rect id="Rectangle" fill="url(#linearGradient-16)" x="49.6" y="0" width="121.3" height="70.3"></rect>
                    </g>
                </g>
                <g id="Group" opacity="0.5" transform="translate(124.700000, 343.100000)">
                    <g>
                        <polygon id="Path" fill="url(#linearGradient-17)" points="93.3 228.1 1.42108547e-14 92.7 122.5 8.2 215.8 143.7"></polygon>
                        <polygon id="Path" fill="url(#linearGradient-18)" points="84.6 151.3 170.2 10.2 293.7 85.1 208.1 226.2"></polygon>
                        <rect id="Rectangle" fill="url(#linearGradient-19)" x="66.9" y="0" width="163.8" height="94.9"></rect>
                    </g>
                </g>
                <g id="Group" opacity="0.5" transform="translate(431.200000, 363.100000)">
                    <g opacity="0.4513">
                        <g>
                            <polygon id="Path" fill="url(#linearGradient-20)" points="32.4 79 -5.68434189e-14 32.1 42.5 2.8 74.8 49.8"></polygon>
                            <polygon id="Path" fill="url(#linearGradient-21)" points="29.4 52.4 59 3.5 101.8 29.5 72.1 78.4"></polygon>
                            <rect id="Rectangle" fill="url(#linearGradient-22)" x="23.2" y="0" width="56.8" height="32.9"></rect>
                        </g>
                    </g>
                </g>
                <g id="Group" opacity="0.5" transform="translate(533.800000, 414.100000)">
                    <g opacity="0.4513">
                        <g>
                            <polygon id="Path" fill="url(#linearGradient-23)" points="37.4 91.3 0 37.1 49 3.3 86.4 57.5"></polygon>
                            <polygon id="Path" fill="url(#linearGradient-24)" points="33.9 60.5 68.2 4.1 117.6 34 83.3 90.5"></polygon>
                            <rect id="Rectangle" fill="url(#linearGradient-25)" x="26.8" y="0" width="65.6" height="38"></rect>
                        </g>
                    </g>
                </g>
                <g id="Group" opacity="0.78" transform="translate(352.000000, 355.100000)">
                    <g opacity="0.4513">
                        <g>
                            <polygon id="Path" fill="url(#linearGradient-26)" points="37.4 91.3 0 37.1 49.1 3.3 86.4 57.5"></polygon>
                            <polygon id="Path" fill="url(#linearGradient-27)" points="33.9 60.5 68.2 4.1 117.6 34 83.3 90.5"></polygon>
                            <rect id="Rectangle" fill="url(#linearGradient-28)" x="26.8" y="0" width="65.6" height="38"></rect>
                        </g>
                    </g>
                </g>
                <g id="Group" opacity="0.5" transform="translate(14.900000, 109.200000)">
                    <g opacity="0.4513">
                        <g>
                            <polygon id="Path" fill="url(#linearGradient-29)" points="53.7 131.2 -5.32907052e-15 53.3 70.5 4.8 124.1 82.6"></polygon>
                            <polygon id="Path" fill="url(#linearGradient-30)" points="48.7 87 98 5.9 168.9 48.9 119.7 130"></polygon>
                            <rect id="Rectangle" fill="url(#linearGradient-31)" x="38.6" y="0" width="94.2" height="54.6"></rect>
                        </g>
                    </g>
                </g>
                <g id="Group" opacity="0.22" transform="translate(332.600000, -0.000000)">
                    <g id="Path">
                        <polygon fill="url(#linearGradient-32)" points="71.8 230.1 0 67.8 153 0 224.9 162.4"></polygon>
                        <polygon fill="url(#linearGradient-33)" points="61.9 208.4 12.7 97.1 102.5 57.4 151.8 168.7"></polygon>
                        <polygon fill="url(#linearGradient-34)" points="222.5 114 153.4 214.3 62.7 151.8 131.9 51.5"></polygon>
                        <polygon fill="url(#linearGradient-35)" points="173.8 45.4 172.8 117.1 51.1 115.4 52.1 43.7"></polygon>
                    </g>
                </g>
                <g id="Group" opacity="0.2" transform="translate(408.400000, 371.500000)">
                    <g id="Path">
                        <polygon fill="url(#linearGradient-36)" points="46.6 149.2 0 43.9 99.3 5.68434189e-14 145.8 105.3"></polygon>
                        <polygon fill="url(#linearGradient-37)" points="40.2 135.2 8.3 63 66.5 37.2 98.5 109.4"></polygon>
                        <polygon fill="url(#linearGradient-38)" points="144.3 73.9 99.5 139 40.7 98.5 85.5 33.4"></polygon>
                        <polygon fill="url(#linearGradient-39)" points="112.7 29.5 112.1 75.9 33.1 74.8 33.8 28.4"></polygon>
                    </g>
                </g>
                <g id="Group" opacity="0.35" transform="translate(66.200000, 327.400000)">
                    <g id="Path">
                        <polygon fill="url(#linearGradient-40)" points="28.3 90.8 -1.42108547e-14 26.8 60.4 -5.68434189e-14 88.7 64.1"></polygon>
                        <polygon fill="url(#linearGradient-41)" points="24.4 82.3 5 38.4 40.5 22.7 59.9 66.6"></polygon>
                        <polygon fill="url(#linearGradient-42)" points="87.8 45 60.5 84.6 24.7 59.9 52 20.4"></polygon>
                        <polygon fill="url(#linearGradient-43)" points="68.4 18 68 46.2 19.9 45.6 20.3 17.3"></polygon>
                    </g>
                </g>
                <g id="Group" opacity="0.5" transform="translate(393.400000, 82.000000)">
                    <g opacity="0.4513">
                        <g>
                            <polygon id="Path" fill="url(#linearGradient-44)" points="32.9 80.3 0 32.6 43.1 2.9 76 50.6"></polygon>
                            <polygon id="Path" fill="url(#linearGradient-45)" points="29.8 53.2 59.9 3.6 103.4 29.9 73.2 79.6"></polygon>
                            <rect id="Rectangle" fill="url(#linearGradient-46)" x="23.6" y="-4.4408921e-15" width="57.6" height="33.4"></rect>
                        </g>
                    </g>
                </g>
                <g id="Group" opacity="0.5" transform="translate(214.300000, 189.300000)">
                    <g id="Path">
                        <polygon fill="url(#linearGradient-47)" points="35 112.1 0 33 74.5 2.84217094e-14 109.5 79.1"></polygon>
                        <polygon fill="url(#linearGradient-48)" points="30.1 101.5 6.2 47.3 49.9 27.9 73.9 82.1"></polygon>
                        <polygon fill="url(#linearGradient-49)" points="108.3 55.5 74.7 104.4 30.5 73.9 64.2 25.1"></polygon>
                        <polygon fill="url(#linearGradient-50)" points="84.6 22.1 84.1 57 24.9 56.2 25.3 21.3"></polygon>
                    </g>
                </g>
            </g>
            <g id="Ebene_1_00000095336299552625870920000004773431930302372245_" transform="translate(22.500000, 86.200000)">
                <rect id="Rectangle" fill="url(#linearGradient-51)" fill-rule="nonzero" x="228.1" y="0" width="384" height="64.6"></rect>
                <path d="M239,5.2 C233.3,5.2 228.6,9.9 228.6,15.6 L228.6,345 C228.6,350.7 233.3,355.4 239,355.4 L601.1,355.4 C606.8,355.4 611.5,350.7 611.5,345 L611.5,15.6 C611.5,9.9 606.8,5.2 601.1,5.2 L239,5.2 Z" id="Path" fill="#FFFFFF" fill-rule="nonzero"></path>
                <path d="M239,5.2 C233.3,5.2 228.6,9.9 228.6,15.6 L228.6,345 C228.6,350.7 233.3,355.4 239,355.4 L601.1,355.4 C606.8,355.4 611.5,350.7 611.5,345 L611.5,15.6 C611.5,9.9 606.8,5.2 601.1,5.2 L239,5.2 Z" id="Path" stroke="#2A3A44" stroke-width="1.159"></path>
                <path d="M239,4.6 C233,4.6 228,9.5 228,15.6 L228,55 L612,55 L612,15.6 C612,9.6 607.1,4.6 601,4.6 L239,4.6 Z" id="Path" fill="#2A3A44" fill-rule="nonzero"></path>
                <rect id="Rectangle" fill="url(#linearGradient-52)" fill-rule="nonzero" x="0.1" y="69" width="185" height="64.6"></rect>
                <path d="M11,74.2 C5.3,74.2 0.6,78.9 0.6,84.6 L0.6,247 C0.6,252.7 5.3,257.4 11,257.4 L174.1,257.4 C179.8,257.4 184.5,252.7 184.5,247 L184.5,84.6 C184.5,78.9 179.8,74.2 174.1,74.2 L11,74.2 Z" id="Path" fill="#FFFFFF" fill-rule="nonzero"></path>
                <path d="M11,74.2 C5.3,74.2 0.6,78.9 0.6,84.6 L0.6,247 C0.6,252.7 5.3,257.4 11,257.4 L174.1,257.4 C179.8,257.4 184.5,252.7 184.5,247 L184.5,84.6 C184.5,78.9 179.8,74.2 174.1,74.2 L11,74.2 Z" id="Path" stroke="#2A3A44" stroke-width="1.159"></path>
                <path d="M11,73.6 C5,73.6 0,78.5 0,84.6 L0,124 L185,124 L185,84.6 C185,78.6 180.1,73.6 174,73.6 L11,73.6 Z" id="Path" fill="#2A3A44" fill-rule="nonzero"></path>
                <g id="Group" transform="translate(257.325000, 14.375000)" fill="#FFFFFF" fill-rule="nonzero">
                    <path d="M46.075,16.125 C46.375,15.825 46.675,15.525 46.975,15.125 C47.275,14.825 47.575,14.425 47.875,14.125 C48.175,13.725 48.475,13.425 48.675,13.125 C48.875,12.825 49.175,12.525 49.375,12.325 L52.775,12.325 C52.075,13.125 51.475,13.925 50.775,14.625 C50.175,15.325 49.475,16.125 48.675,16.825 C49.075,17.225 49.475,17.625 49.875,18.125 C50.275,18.625 50.675,19.125 51.075,19.625 C51.475,20.125 51.775,20.625 52.175,21.225 C52.475,21.725 52.775,22.225 52.975,22.625 L49.675,22.625 C49.475,22.225 49.175,21.925 48.975,21.525 C48.675,21.125 48.475,20.725 48.075,20.325 C47.775,19.925 47.475,19.525 47.075,19.125 C46.775,18.725 46.475,18.425 46.075,18.125 L46.075,22.625 L43.175,22.625 L43.175,8.025 L46.075,7.525 L46.075,16.125" id="Path"></path>
                    <path d="M63.075,22.325 C62.475,22.525 61.775,22.625 61.175,22.725 C60.375,22.825 59.575,22.925 58.675,22.925 C57.975,22.925 57.175,22.825 56.475,22.525 C55.375,22.125 54.575,21.125 54.375,20.025 C54.275,19.425 54.175,18.725 54.175,18.125 L54.175,12.425 L57.075,12.425 L57.075,17.825 C57.075,18.725 57.175,19.425 57.475,19.825 C57.675,20.225 58.175,20.425 58.875,20.425 C59.075,20.425 59.375,20.425 59.575,20.425 C59.775,20.425 59.975,20.425 60.175,20.325 L60.175,12.425 L63.075,12.425 L63.075,22.325 Z" id="Path"></path>
                    <path d="M75.375,17.525 C75.375,18.325 75.275,19.025 74.975,19.725 C74.775,20.325 74.375,20.925 73.975,21.425 C73.475,21.925 72.975,22.225 72.275,22.525 C71.575,22.825 70.775,22.925 69.975,22.925 C69.575,22.925 69.275,22.925 68.875,22.825 C68.475,22.825 68.175,22.725 67.775,22.725 C67.375,22.725 67.075,22.625 66.675,22.525 C66.375,22.425 66.075,22.425 65.775,22.325 L65.775,8.025 L68.675,7.525 L68.675,12.625 C68.975,12.525 69.375,12.425 69.675,12.325 C70.075,12.225 70.475,12.225 70.775,12.225 C71.475,12.225 72.075,12.325 72.675,12.625 C73.175,12.825 73.675,13.225 74.075,13.725 C74.475,14.225 74.775,14.825 74.975,15.425 C75.275,16.125 75.275,16.825 75.375,17.525 M72.375,17.525 C72.375,15.625 71.675,14.725 70.275,14.725 C69.975,14.725 69.675,14.725 69.375,14.825 C69.175,14.925 68.875,15.025 68.675,15.125 L68.675,20.425 C68.775,20.425 68.975,20.425 69.175,20.525 C69.375,20.525 69.675,20.525 69.875,20.525 C70.575,20.525 71.275,20.225 71.675,19.725 C72.175,19.025 72.375,18.225 72.375,17.525" id="Shape"></path>
                    <path d="M83.875,16.525 C83.875,16.325 83.775,16.025 83.775,15.825 C83.675,15.625 83.575,15.425 83.475,15.225 C83.175,14.825 82.575,14.525 82.075,14.625 C81.775,14.625 81.475,14.725 81.175,14.825 C80.975,14.925 80.775,15.025 80.575,15.225 C80.375,15.425 80.275,15.625 80.175,15.825 C80.075,16.025 80.075,16.325 79.975,16.525 L83.875,16.525 M77.075,17.625 C77.075,16.825 77.175,16.025 77.475,15.225 C77.775,14.625 78.075,14.025 78.575,13.525 C78.975,13.025 79.575,12.725 80.175,12.525 C80.775,12.325 81.375,12.125 81.975,12.125 C83.275,12.025 84.475,12.525 85.375,13.425 C86.275,14.325 86.675,15.625 86.675,17.325 C86.675,17.525 86.675,17.725 86.675,17.925 C86.675,18.125 86.675,18.325 86.675,18.425 L80.075,18.425 C80.175,19.025 80.475,19.525 80.975,19.825 C81.575,20.225 82.275,20.425 82.975,20.325 C83.475,20.325 83.975,20.325 84.575,20.225 C84.975,20.125 85.475,20.025 85.875,19.825 L86.275,22.225 C86.175,22.325 85.875,22.325 85.675,22.425 C85.375,22.525 85.075,22.625 84.775,22.625 C84.475,22.725 84.075,22.725 83.775,22.725 C83.375,22.725 83.075,22.825 82.675,22.825 C81.875,22.825 81.075,22.725 80.275,22.425 C79.675,22.125 79.075,21.825 78.575,21.325 C78.175,20.825 77.775,20.225 77.575,19.625 C77.175,19.125 77.075,18.425 77.075,17.625" id="Shape"></path>
                    <path d="M95.175,15.025 C94.875,14.925 94.575,14.925 94.275,14.825 C93.875,14.725 93.475,14.725 93.175,14.725 C92.975,14.725 92.675,14.725 92.475,14.825 C92.275,14.825 92.075,14.925 91.875,14.925 L91.875,22.725 L88.975,22.725 L88.975,12.925 C89.575,12.725 90.175,12.525 90.775,12.425 C91.575,12.225 92.375,12.125 93.175,12.225 C93.375,12.225 93.575,12.225 93.775,12.225 C93.975,12.225 94.275,12.225 94.475,12.325 C94.675,12.325 94.875,12.425 95.175,12.425 C95.375,12.425 95.575,12.525 95.775,12.525 L95.175,15.025 Z" id="Path"></path>
                    <path d="M97.175,12.825 C98.575,12.425 100.075,12.225 101.575,12.225 C102.275,12.225 103.075,12.325 103.775,12.625 C104.275,12.825 104.775,13.125 105.175,13.625 C105.475,14.025 105.775,14.625 105.875,15.125 C105.975,15.725 106.075,16.425 106.075,17.025 L106.075,22.825 L103.175,22.825 L103.175,17.425 C103.175,16.525 103.075,15.825 102.775,15.425 C102.575,15.025 102.075,14.825 101.375,14.825 C101.175,14.825 100.875,14.825 100.675,14.825 C100.475,14.825 100.275,14.825 100.075,14.925 L100.075,22.825 L97.175,22.825 L97.175,12.825 L97.175,12.825 Z" id="Path"></path>
                    <path d="M115.075,16.525 C115.075,16.325 114.975,16.025 114.975,15.825 C114.875,15.625 114.775,15.425 114.675,15.225 C114.375,14.825 113.775,14.525 113.275,14.625 C112.975,14.625 112.675,14.725 112.375,14.825 C112.175,14.925 111.975,15.025 111.775,15.225 C111.575,15.425 111.475,15.625 111.375,15.825 C111.275,16.025 111.275,16.325 111.175,16.525 L115.075,16.525 M108.175,17.625 C108.175,16.825 108.275,16.025 108.575,15.225 C108.875,14.625 109.175,14.025 109.675,13.525 C110.075,13.025 110.675,12.725 111.275,12.525 C111.875,12.325 112.475,12.125 113.075,12.125 C114.375,12.025 115.575,12.525 116.475,13.425 C117.375,14.325 117.775,15.625 117.775,17.325 C117.775,17.525 117.775,17.725 117.775,17.925 C117.775,18.125 117.775,18.325 117.775,18.425 L111.175,18.425 C111.275,19.025 111.575,19.525 112.075,19.825 C112.675,20.225 113.375,20.425 114.075,20.325 C114.575,20.325 115.075,20.325 115.675,20.225 C116.075,20.125 116.575,20.025 116.975,19.825 L117.375,22.225 C117.275,22.325 116.975,22.325 116.775,22.425 C116.475,22.525 116.175,22.625 115.875,22.625 C115.575,22.725 115.175,22.725 114.875,22.725 C114.475,22.725 114.175,22.825 113.775,22.825 C112.975,22.825 112.175,22.725 111.375,22.425 C110.775,22.125 110.175,21.825 109.675,21.325 C109.275,20.825 108.875,20.225 108.675,19.625 C108.275,19.125 108.175,18.425 108.175,17.625" id="Shape"></path>
                    <path d="M119.975,9.925 L122.875,9.425 L122.875,12.425 L126.375,12.425 L126.375,14.825 L122.875,14.825 L122.875,18.425 C122.875,18.925 122.975,19.425 123.175,19.925 C123.375,20.325 123.875,20.425 124.475,20.425 C124.775,20.425 125.075,20.425 125.475,20.325 C125.775,20.225 126.075,20.225 126.375,20.125 L126.775,22.425 C126.375,22.625 125.975,22.725 125.575,22.825 C125.075,22.925 124.475,23.025 123.975,22.925 C123.275,22.925 122.575,22.825 121.975,22.625 C121.475,22.425 121.075,22.125 120.775,21.725 C120.475,21.325 120.175,20.825 120.075,20.325 C119.975,19.725 119.875,19.125 119.875,18.525 L119.875,9.925 L119.975,9.925 Z" id="Path"></path>
                    <path d="M134.675,16.525 C134.675,16.325 134.575,16.025 134.575,15.825 C134.475,15.625 134.375,15.425 134.275,15.225 C133.975,14.825 133.375,14.525 132.875,14.625 C132.575,14.625 132.275,14.725 131.975,14.825 C131.775,14.925 131.575,15.025 131.375,15.225 C131.175,15.425 131.075,15.625 130.975,15.825 C130.875,16.025 130.875,16.325 130.775,16.525 L134.675,16.525 M127.875,17.625 C127.875,16.825 127.975,16.025 128.275,15.225 C128.575,14.625 128.875,14.025 129.375,13.525 C129.775,13.025 130.375,12.725 130.975,12.525 C131.575,12.325 132.175,12.125 132.775,12.125 C134.075,12.025 135.275,12.525 136.175,13.425 C137.075,14.325 137.475,15.625 137.475,17.325 C137.475,17.525 137.475,17.725 137.475,17.925 C137.475,18.125 137.475,18.325 137.475,18.425 L130.875,18.425 C130.975,19.025 131.275,19.525 131.775,19.825 C132.375,20.225 133.075,20.425 133.775,20.325 C134.275,20.325 134.775,20.325 135.375,20.225 C135.775,20.125 136.275,20.025 136.675,19.825 L137.075,22.225 C136.975,22.325 136.675,22.325 136.475,22.425 C136.175,22.525 135.875,22.625 135.575,22.625 C135.275,22.725 134.875,22.725 134.575,22.725 C134.175,22.725 133.875,22.825 133.475,22.825 C132.675,22.825 131.875,22.725 131.075,22.425 C130.475,22.125 129.875,21.825 129.375,21.325 C128.975,20.825 128.575,20.225 128.375,19.625 C127.975,19.125 127.875,18.425 127.875,17.625" id="Shape"></path>
                    <path d="M142.675,20.625 C143.075,20.625 143.475,20.625 143.775,20.525 C143.975,20.425 144.075,20.125 144.075,19.925 C144.075,19.725 143.975,19.525 143.675,19.325 C143.275,19.125 142.775,18.825 142.375,18.725 C141.875,18.525 141.475,18.325 141.175,18.225 C140.875,18.025 140.475,17.825 140.275,17.625 C139.975,17.325 139.775,17.025 139.675,16.725 C139.475,16.325 139.475,15.925 139.475,15.425 C139.475,14.525 139.875,13.725 140.575,13.125 C141.275,12.525 142.275,12.225 143.475,12.225 C144.075,12.225 144.675,12.325 145.275,12.425 C145.775,12.525 146.175,12.625 146.575,12.825 L146.075,15.125 C145.675,15.025 145.375,14.925 144.975,14.825 C144.575,14.725 144.075,14.625 143.675,14.725 C142.775,14.725 142.375,14.925 142.375,15.425 C142.375,15.525 142.375,15.625 142.475,15.725 C142.575,15.825 142.575,15.925 142.675,16.025 C142.775,16.125 142.975,16.225 143.175,16.325 C143.375,16.425 143.675,16.525 143.975,16.625 C144.475,16.825 145.075,17.025 145.575,17.325 C145.975,17.525 146.275,17.725 146.575,18.025 C146.775,18.225 146.975,18.625 147.075,18.925 C147.175,19.325 147.275,19.725 147.175,20.025 C147.175,20.925 146.775,21.825 146.075,22.325 C145.375,22.825 144.275,23.125 142.875,23.125 C142.075,23.125 141.375,23.025 140.575,22.925 C140.175,22.825 139.775,22.725 139.375,22.525 L139.875,20.125 C140.375,20.325 140.875,20.425 141.375,20.625 C141.675,20.525 142.175,20.625 142.675,20.625" id="Path"></path>
                    <path d="M15.375,16.825 L16.375,17.325 L17.375,16.825 L17.575,15.825 L16.875,15.025 L15.775,15.025 L15.075,15.825 L15.375,16.825 Z M12.875,15.825 C13.175,15.725 13.375,15.425 13.275,15.125 C13.275,15.025 13.175,14.925 13.075,14.825 L13.075,14.825 L10.475,12.425 C9.675,13.725 9.375,15.225 9.475,16.825 L12.875,15.825 L12.875,15.825 Z M14.375,13.225 C14.675,13.425 14.975,13.325 15.175,13.125 C15.275,13.025 15.275,12.925 15.275,12.825 L15.275,12.825 L15.475,9.325 C15.275,9.325 14.975,9.425 14.775,9.425 C13.475,9.725 12.375,10.325 11.475,11.225 L14.375,13.225 L14.375,13.225 Z M17.375,12.725 C17.375,13.025 17.675,13.325 17.975,13.325 C18.075,13.325 18.175,13.325 18.275,13.225 L18.275,13.225 L21.175,11.225 C20.075,10.125 18.675,9.525 17.175,9.325 L17.375,12.725 L17.375,12.725 Z M22.275,12.425 L19.675,14.725 L19.675,14.725 C19.475,14.925 19.375,15.325 19.575,15.525 C19.675,15.625 19.775,15.725 19.875,15.725 L19.875,15.725 L23.275,16.725 C23.375,15.325 23.075,13.725 22.275,12.425 Z M16.875,19.625 C16.675,19.325 16.375,19.225 16.075,19.425 C15.975,19.525 15.875,19.525 15.875,19.625 L15.875,19.625 L14.175,22.725 C15.375,23.125 16.675,23.225 17.975,22.925 C18.175,22.825 18.475,22.825 18.675,22.725 L16.875,19.625 L16.875,19.625 Z M13.975,18.325 C13.875,18.025 13.675,17.825 13.375,17.825 L13.275,17.825 L13.275,17.825 L9.775,18.425 C10.275,19.825 11.275,21.125 12.575,21.925 L13.875,18.725 L13.875,18.725 C13.975,18.525 14.075,18.425 13.975,18.325 M19.375,17.825 L19.275,17.825 C19.175,17.825 19.075,17.825 19.075,17.925 C18.775,18.025 18.675,18.425 18.775,18.725 L18.775,18.725 L20.175,22.025 C21.475,21.225 22.475,19.925 22.975,18.525 L19.375,17.825 L19.375,17.825 Z" id="Shape"></path>
                    <path d="M20.775,23.625 C20.775,23.725 20.875,23.825 20.875,23.925 C20.775,24.025 20.775,24.225 20.775,24.325 C20.975,24.725 21.175,25.025 21.375,25.425 C21.475,25.625 21.575,25.725 21.775,25.925 C21.775,26.025 21.875,26.025 21.875,26.125 C22.075,26.425 21.975,26.825 21.675,27.025 C21.375,27.225 20.975,27.125 20.775,26.825 C20.775,26.825 20.775,26.725 20.675,26.725 C20.675,26.625 20.575,26.625 20.575,26.525 C20.475,26.325 20.475,26.125 20.375,25.925 C20.275,25.525 20.075,25.125 19.875,24.825 C19.775,24.725 19.675,24.625 19.575,24.625 C19.575,24.625 19.475,24.425 19.475,24.325 C17.475,25.125 15.275,25.025 13.275,24.325 L13.075,24.625 C12.975,24.625 12.875,24.725 12.775,24.725 C12.575,25.125 12.375,25.525 12.275,25.925 C12.175,26.125 12.175,26.325 12.075,26.525 C12.075,26.525 11.975,26.625 11.975,26.725 L11.975,26.725 L11.975,26.725 C11.875,27.125 11.475,27.225 11.075,27.125 C10.775,27.025 10.575,26.625 10.675,26.225 C10.675,26.225 10.675,26.125 10.775,26.125 C10.775,26.025 10.875,26.025 10.875,25.925 C10.975,25.725 11.075,25.525 11.275,25.425 C11.475,25.125 11.675,24.725 11.875,24.325 C11.875,24.225 11.875,24.025 11.775,23.925 L11.875,23.625 C10.075,22.525 8.675,20.825 7.975,18.825 L7.675,18.825 C7.575,18.725 7.475,18.725 7.275,18.725 C6.875,18.825 6.475,18.925 6.075,19.025 C5.875,19.125 5.675,19.225 5.475,19.225 C5.475,19.225 5.375,19.225 5.275,19.225 L5.275,19.225 L5.275,19.225 C4.875,19.325 4.575,19.125 4.475,18.825 C4.375,18.425 4.575,18.125 4.875,18.025 L4.975,18.025 L4.975,18.025 L4.975,18.025 C5.075,18.025 5.075,18.025 5.175,18.025 C5.375,18.025 5.575,18.025 5.775,17.925 C6.175,17.925 6.575,17.825 6.975,17.725 C7.075,17.625 7.175,17.525 7.275,17.425 L7.575,17.325 C7.275,15.225 7.775,13.025 8.975,11.325 L8.775,11.125 C8.775,11.025 8.675,10.825 8.675,10.725 C8.375,10.425 8.075,10.225 7.675,10.025 C7.475,9.925 7.275,9.825 7.075,9.725 L6.975,9.625 L6.975,9.625 C6.675,9.425 6.575,8.925 6.775,8.625 C6.875,8.425 7.075,8.425 7.275,8.425 C7.475,8.425 7.575,8.525 7.775,8.625 L7.875,8.725 C8.075,8.825 8.175,9.025 8.275,9.225 C8.575,9.525 8.875,9.825 9.175,10.025 C9.275,10.125 9.475,10.125 9.575,10.025 C9.575,10.025 9.775,10.125 9.775,10.225 C10.975,9.025 12.475,8.125 14.175,7.725 C14.575,7.625 14.975,7.525 15.375,7.525 L15.375,7.225 C15.475,7.125 15.575,7.025 15.575,6.925 C15.575,6.525 15.575,6.125 15.475,5.725 C15.475,5.525 15.375,5.325 15.375,5.125 C15.375,5.125 15.375,5.025 15.375,4.925 L15.375,4.925 C15.375,4.525 15.575,4.225 15.975,4.225 C16.375,4.225 16.675,4.425 16.675,4.825 L16.675,4.925 C16.675,5.025 16.675,5.025 16.675,5.125 C16.675,5.325 16.675,5.525 16.575,5.725 C16.475,6.125 16.475,6.525 16.475,6.925 C16.475,7.025 16.575,7.225 16.675,7.225 C16.675,7.225 16.675,7.425 16.675,7.525 C18.775,7.725 20.775,8.625 22.275,10.225 L22.575,10.025 C22.675,10.025 22.875,10.025 22.975,10.025 C23.275,9.825 23.575,9.525 23.875,9.225 C23.975,9.025 24.175,8.925 24.275,8.725 L24.375,8.625 C24.675,8.325 25.075,8.325 25.375,8.625 C25.675,8.925 25.675,9.325 25.375,9.625 L25.275,9.725 L25.175,9.825 C24.975,9.925 24.775,10.025 24.575,10.125 C24.175,10.325 23.875,10.525 23.575,10.825 C23.475,10.925 23.475,11.025 23.475,11.225 C23.475,11.225 23.275,11.325 23.275,11.425 C24.475,13.225 24.975,15.325 24.675,17.425 L24.975,17.525 C25.075,17.625 25.175,17.725 25.275,17.825 C25.675,17.925 26.075,18.025 26.475,18.025 C26.675,18.025 26.875,18.025 27.075,18.125 C27.175,18.125 27.175,18.125 27.275,18.125 C27.675,18.125 27.875,18.525 27.875,18.925 C27.875,19.325 27.475,19.525 27.075,19.525 L26.975,19.525 L26.975,19.525 L26.975,19.525 C26.875,19.525 26.875,19.525 26.775,19.525 C26.575,19.425 26.375,19.425 26.175,19.325 C25.775,19.125 25.375,19.025 24.975,19.025 C24.875,19.025 24.675,19.025 24.575,19.125 C24.475,19.125 24.375,19.125 24.275,19.125 C23.975,20.725 22.675,22.525 20.775,23.625 Z M32.375,18.925 L29.575,6.925 C29.375,6.325 28.975,5.725 28.375,5.525 L17.175,0.225 C16.575,-0.075 15.875,-0.075 15.275,0.225 L4.075,5.525 C3.475,5.825 3.075,6.325 2.875,6.925 L0.075,18.925 C-0.025,19.225 -0.025,19.525 0.075,19.825 C0.075,19.925 0.075,20.025 0.175,20.125 C0.275,20.325 0.275,20.425 0.375,20.525 C0.375,20.625 0.475,20.625 0.475,20.725 L8.175,30.325 L8.275,30.425 C8.375,30.525 8.575,30.625 8.675,30.725 C8.875,30.825 9.075,30.925 9.275,31.025 C9.475,31.025 9.675,31.125 9.775,31.125 L9.875,31.125 L22.175,31.125 C22.275,31.125 22.275,31.125 22.375,31.125 C22.475,31.125 22.575,31.125 22.675,31.025 C22.775,31.025 22.775,31.025 22.875,30.925 C22.975,30.925 22.975,30.925 23.075,30.825 C23.175,30.825 23.275,30.725 23.275,30.725 C23.475,30.625 23.675,30.425 23.775,30.225 L23.975,29.925 L31.475,20.625 C31.575,20.425 31.775,20.225 31.775,20.025 C31.775,19.925 31.875,19.825 31.875,19.725 C32.475,19.525 32.475,19.225 32.375,18.925 L32.375,18.925 Z" id="Shape"></path>
                </g>
            </g>
            <g id="Ebene_2_00000046340349409466023620000003924872180519321495_" transform="translate(34.500000, 111.000000)">
                <rect id="Rectangle" fill="url(#linearGradient-53)" fill-rule="nonzero" x="267.6" y="48.5" width="275.3" height="131.3"></rect>
                <path d="M277.8,53.8 C272.5,53.8 268.1,58.1 268.1,63.5 L268.1,298.6 C268.1,303.9 272.4,308.3 277.8,308.3 L532.7,308.3 C538,308.3 542.4,304 542.4,298.6 L542.4,63.5 C542.4,58.2 538.1,53.8 532.7,53.8 C532.7,53.8 277.8,53.8 277.8,53.8 Z" id="Path" fill="#2A3A44" fill-rule="nonzero"></path>
                <path d="M277.8,53.8 C272.5,53.8 268.1,58.1 268.1,63.5 L268.1,298.6 C268.1,303.9 272.4,308.3 277.8,308.3 L532.7,308.3 C538,308.3 542.4,304 542.4,298.6 L542.4,63.5 C542.4,58.2 538.1,53.8 532.7,53.8 C532.7,53.8 277.8,53.8 277.8,53.8 Z" id="Path" stroke="#2A3A44" stroke-width="1.08"></path>
                <g id="Group" transform="translate(359.100000, 281.800000)" fill="#FFFFFF" fill-rule="nonzero">
                    <polygon id="Path" points="11 13.5 8.2 13.5 2.8 4.6 2.8 13.5 0 13.5 0 0 2.8 0 8.2 8.9 8.2 0 11 0"></polygon>
                    <path d="M19.1,13.5 C19,13.3 18.9,13 18.8,12.6 C18.1,13.3 17.3,13.7 16.3,13.7 C15.3,13.7 14.5,13.4 13.9,12.8 C13.3,12.2 12.9,11.5 12.9,10.6 C12.9,9.5 13.3,8.7 14.1,8.2 C14.9,7.6 16,7.3 17.5,7.3 L18.7,7.3 L18.7,6.7 C18.7,6.2 18.6,5.9 18.3,5.6 C18.1,5.3 17.7,5.2 17.2,5.2 C16.7,5.2 16.4,5.3 16.1,5.5 C15.8,5.7 15.7,6 15.7,6.4 L13,6.4 C13,5.8 13.2,5.3 13.5,4.8 C13.9,4.3 14.4,3.9 15,3.6 C15.7,3.3 16.4,3.2 17.2,3.2 C18.4,3.2 19.4,3.5 20.1,4.1 C20.8,4.7 21.2,5.6 21.2,6.7 L21.2,11.1 C21.2,12.1 21.3,12.8 21.6,13.3 L21.6,13.5 L19.1,13.5 L19.1,13.5 Z M16.9,11.6 C17.3,11.6 17.7,11.5 18,11.3 C18.3,11.1 18.6,10.9 18.7,10.6 L18.7,8.9 L17.7,8.9 C16.4,8.9 15.6,9.4 15.6,10.3 L15.6,10.5 C15.6,10.8 15.7,11.1 16,11.3 C16.2,11.5 16.5,11.6 16.9,11.6 Z" id="Shape"></path>
                    <path d="M26,3.4 L26.1,4.5 C26.8,3.6 27.8,3.2 29,3.2 C30.3,3.2 31.2,3.7 31.7,4.7 C32.4,3.7 33.4,3.2 34.7,3.2 C35.8,3.2 36.6,3.5 37.1,4.2 C37.6,4.9 37.9,5.8 37.9,7.1 L37.9,13.5 L35.2,13.5 L35.2,7.1 C35.2,6.5 35.1,6.1 34.9,5.9 C34.7,5.6 34.3,5.5 33.7,5.5 C32.9,5.5 32.3,5.9 32,6.7 L32,13.6 L29.3,13.6 L29.3,7.2 C29.3,6.6 29.2,6.2 29,5.9 C28.8,5.6 28.4,5.5 27.8,5.5 C27,5.5 26.5,5.8 26.1,6.4 L26.1,13.5 L23.4,13.5 L23.4,3.5 L26,3.5 L26,3.4 L26,3.4 Z" id="Path"></path>
                    <path d="M44.5,13.7 C43,13.7 41.8,13.2 40.9,12.3 C40,11.4 39.5,10.2 39.5,8.7 L39.5,8.4 C39.5,7.4 39.7,6.5 40.1,5.7 C40.5,4.9 41,4.3 41.8,3.9 C42.5,3.5 43.3,3.3 44.2,3.3 C45.6,3.3 46.7,3.7 47.4,4.6 C48.2,5.5 48.6,6.7 48.6,8.3 L48.6,9.4 L42.2,9.4 C42.3,10.1 42.5,10.6 43,11 C43.4,11.4 44,11.6 44.7,11.6 C45.7,11.6 46.5,11.2 47.1,10.5 L48.4,12 C48,12.6 47.5,13 46.8,13.3 C46.1,13.5 45.4,13.7 44.5,13.7 Z M44.2,5.4 C43.7,5.4 43.2,5.6 42.9,5.9 C42.6,6.3 42.4,6.8 42.3,7.4 L46,7.4 L46,7.2 C46,6.6 45.8,6.1 45.5,5.8 C45.2,5.5 44.8,5.4 44.2,5.4 Z" id="Shape"></path>
                    <path d="M55.6,10.7 C55.6,10.4 55.4,10.1 55.1,9.9 C54.8,9.7 54.3,9.5 53.5,9.4 C51.1,8.9 49.9,7.9 49.9,6.4 C49.9,5.5 50.3,4.8 51,4.2 C51.7,3.6 52.7,3.3 53.9,3.3 C55.2,3.3 56.2,3.6 57,4.2 C57.8,4.8 58.1,5.6 58.1,6.5 L55.4,6.5 C55.4,6.1 55.3,5.8 55,5.5 C54.8,5.2 54.4,5.1 53.8,5.1 C53.3,5.1 53,5.2 52.8,5.4 C52.6,5.6 52.4,5.9 52.4,6.2 C52.4,6.5 52.5,6.7 52.8,6.9 C53.1,7.1 53.6,7.2 54.2,7.4 C54.9,7.5 55.4,7.7 55.9,7.9 C57.3,8.4 58,9.3 58,10.6 C58,11.5 57.6,12.3 56.8,12.8 C56,13.4 55,13.6 53.8,13.6 C53,13.6 52.2,13.4 51.6,13.1 C51,12.8 50.4,12.4 50.1,11.9 C49.8,11.4 49.5,10.8 49.5,10.2 L52,10.2 C52,10.7 52.2,11 52.5,11.3 C52.8,11.6 53.3,11.7 53.8,11.7 C54.3,11.7 54.7,11.6 55,11.4 C55.5,11.3 55.6,11 55.6,10.7 Z" id="Path"></path>
                    <path d="M69,8.6 C69,10.1 68.6,11.4 67.9,12.3 C67.2,13.2 66.3,13.7 65.1,13.7 C64.1,13.7 63.3,13.3 62.6,12.6 L62.6,17.3 L59.9,17.3 L59.9,3.4 L62.4,3.4 L62.5,4.4 C63.1,3.6 64,3.2 65,3.2 C66.2,3.2 67.2,3.7 67.9,4.6 C68.6,5.5 68.9,6.8 68.9,8.4 L68.9,8.6 L69,8.6 Z M66.3,8.4 C66.3,7.5 66.1,6.7 65.8,6.2 C65.5,5.7 65,5.4 64.4,5.4 C63.6,5.4 63,5.7 62.7,6.4 L62.7,10.5 C63,11.2 63.6,11.5 64.5,11.5 C65.7,11.5 66.3,10.5 66.3,8.4 Z" id="Shape"></path>
                    <path d="M76.5,13.5 C76.4,13.3 76.3,13 76.2,12.6 C75.5,13.3 74.7,13.7 73.7,13.7 C72.7,13.7 71.9,13.4 71.3,12.8 C70.7,12.2 70.3,11.5 70.3,10.6 C70.3,9.5 70.7,8.7 71.5,8.2 C72.3,7.6 73.4,7.3 74.9,7.3 L76.1,7.3 L76.1,6.7 C76.1,6.2 76,5.9 75.7,5.6 C75.5,5.3 75.1,5.2 74.6,5.2 C74.1,5.2 73.8,5.3 73.5,5.5 C73.2,5.7 73.1,6 73.1,6.4 L70.4,6.4 C70.4,5.8 70.6,5.3 70.9,4.8 C71.3,4.3 71.8,3.9 72.4,3.6 C73.1,3.3 73.8,3.2 74.6,3.2 C75.8,3.2 76.8,3.5 77.5,4.1 C78.2,4.7 78.6,5.6 78.6,6.7 L78.6,11.1 C78.6,12.1 78.7,12.8 79,13.3 L79,13.5 L76.5,13.5 L76.5,13.5 Z M74.3,11.6 C74.7,11.6 75.1,11.5 75.4,11.3 C75.7,11.1 76,10.9 76.1,10.6 L76.1,8.9 L75.1,8.9 C73.8,8.9 73,9.4 73,10.3 L73,10.5 C73,10.8 73.1,11.1 73.4,11.3 C73.5,11.5 73.9,11.6 74.3,11.6 Z" id="Shape"></path>
                    <path d="M85,11.5 C85.5,11.5 85.9,11.4 86.2,11.1 C86.5,10.8 86.7,10.5 86.7,10 L89.2,10 C89.2,10.7 89,11.3 88.6,11.9 C88.2,12.5 87.7,12.9 87.1,13.2 C86.5,13.5 85.8,13.7 85,13.7 C83.6,13.7 82.4,13.2 81.6,12.3 C80.8,11.4 80.4,10.1 80.4,8.5 L80.4,8.3 C80.4,6.8 80.8,5.5 81.6,4.6 C82.4,3.7 83.6,3.2 85,3.2 C86.3,3.2 87.3,3.6 88,4.3 C88.8,5 89.1,6 89.2,7.2 L86.7,7.2 C86.7,6.7 86.5,6.3 86.2,5.9 C85.9,5.6 85.5,5.4 85,5.4 C84.4,5.4 83.9,5.6 83.6,6.1 C83.3,6.6 83.1,7.3 83.1,8.3 L83.1,8.6 C83.1,9.6 83.3,10.4 83.6,10.8 C83.9,11.2 84.4,11.5 85,11.5 Z" id="Path"></path>
                    <path d="M95.4,13.7 C93.9,13.7 92.7,13.2 91.8,12.3 C90.9,11.4 90.4,10.2 90.4,8.7 L90.4,8.4 C90.4,7.4 90.6,6.5 91,5.7 C91.4,4.9 91.9,4.3 92.7,3.9 C93.4,3.5 94.2,3.3 95.1,3.3 C96.5,3.3 97.6,3.7 98.3,4.6 C99.1,5.5 99.5,6.7 99.5,8.3 L99.5,9.4 L93.1,9.4 C93.2,10.1 93.4,10.6 93.9,11 C94.3,11.4 94.9,11.6 95.6,11.6 C96.6,11.6 97.4,11.2 98,10.5 L99.3,12 C98.9,12.6 98.4,13 97.7,13.3 C97,13.5 96.2,13.7 95.4,13.7 Z M95.1,5.4 C94.6,5.4 94.1,5.6 93.8,5.9 C93.5,6.3 93.3,6.8 93.2,7.4 L96.9,7.4 L96.9,7.2 C96.9,6.6 96.7,6.1 96.4,5.8 C96.1,5.5 95.6,5.4 95.1,5.4 Z" id="Shape"></path>
                </g>
                <line x1="8.6" y1="166.7" x2="396.8" y2="166.7" id="Path" stroke="#FAB900" stroke-width="4"></line>
                <path d="M8.6,171.5 C11.3,171.5 13.4,169.4 13.4,166.7 C13.4,164 11.3,161.9 8.6,161.9 C5.9,161.9 3.8,164 3.8,166.7 C3.8,169.4 6,171.5 8.6,171.5" id="Path" fill="#FAB900" fill-rule="nonzero"></path>
                <rect id="Rectangle" fill="url(#linearGradient-54)" fill-rule="nonzero" x="294.8" y="61.6" width="101" height="46.1"></rect>
                <path d="M305,65.4 C299.7,65.4 295.3,69.7 295.3,75.1 L295.3,134.4 C295.3,139.7 299.6,144.1 305,144.1 L385.6,144.1 C390.9,144.1 395.3,139.8 395.3,134.4 L395.3,75.1 C395.3,69.8 391,65.4 385.6,65.4 L305,65.4 Z" id="Path" fill="#FBEAA6" fill-rule="nonzero"></path>
                <path d="M305,65.4 C299.7,65.4 295.3,69.7 295.3,75.1 L295.3,134.4 C295.3,139.7 299.6,144.1 305,144.1 L385.6,144.1 C390.9,144.1 395.3,139.8 395.3,134.4 L395.3,75.1 C395.3,69.8 391,65.4 385.6,65.4 L305,65.4 Z" id="Path" stroke="#FAB900" stroke-width="1.08"></path>
                <g id="Group" transform="translate(305.700000, 87.900000)" fill="#2A3A44" fill-rule="nonzero">
                    <path d="M0,14.2 L0,0.7 L4.2,0.7 C5.4,0.7 6.4,1 7.4,1.5 C8.3,2 9.1,2.8 9.6,3.8 C10.1,4.8 10.4,5.9 10.4,7.2 L10.4,7.8 C10.4,9.1 10.1,10.2 9.6,11.1 C9.1,12.1 8.4,12.8 7.4,13.4 C6.4,14 5.4,14.2 4.2,14.2 L0,14.2 L0,14.2 Z M2.7,3 L2.7,12 L4,12 C5.1,12 5.9,11.6 6.5,10.9 C7.1,10.2 7.4,9.2 7.4,7.8 L7.4,7.1 C7.4,5.7 7.1,4.7 6.5,4 C5.9,3.3 5.1,2.9 4,2.9 L2.7,2.9 L2.7,3 Z" id="Shape"></path>
                    <path d="M17.9,14.2 C17.8,14 17.7,13.7 17.6,13.3 C16.9,14 16.1,14.4 15.1,14.4 C14.1,14.4 13.3,14.1 12.7,13.5 C12.1,12.9 11.7,12.2 11.7,11.3 C11.7,10.2 12.1,9.4 12.9,8.9 C13.7,8.3 14.8,8 16.3,8 L17.5,8 L17.5,7.4 C17.5,6.9 17.4,6.6 17.1,6.3 C16.9,6 16.5,5.9 16,5.9 C15.5,5.9 15.2,6 14.9,6.2 C14.6,6.4 14.5,6.7 14.5,7.1 L11.8,7.1 C11.8,6.5 12,6 12.3,5.5 C12.7,5 13.2,4.6 13.8,4.3 C14.5,4 15.2,3.9 16,3.9 C17.2,3.9 18.2,4.2 18.9,4.8 C19.6,5.4 20,6.3 20,7.4 L20,11.8 C20,12.8 20.1,13.5 20.4,14 L20.4,14.2 L17.9,14.2 L17.9,14.2 Z M15.7,12.4 C16.1,12.4 16.5,12.3 16.8,12.1 C17.1,11.9 17.4,11.7 17.5,11.4 L17.5,9.7 L16.5,9.7 C15.2,9.7 14.4,10.2 14.4,11.1 L14.4,11.3 C14.4,11.6 14.5,11.9 14.8,12.1 C15,12.2 15.3,12.4 15.7,12.4 Z" id="Shape"></path>
                    <path d="M25.5,1.7 L25.5,4.2 L27.2,4.2 L27.2,6.2 L25.5,6.2 L25.5,11.2 C25.5,11.6 25.6,11.8 25.7,12 C25.8,12.2 26.1,12.2 26.5,12.2 C26.8,12.2 27.1,12.2 27.3,12.1 L27.3,14.1 C26.8,14.3 26.2,14.3 25.7,14.3 C23.8,14.3 22.9,13.4 22.8,11.5 L22.8,6.1 L21.3,6.1 L21.3,4.1 L22.8,4.1 L22.8,1.6 L25.5,1.6 L25.5,1.7 Z" id="Path"></path>
                    <path d="M34.6,14.2 C34.5,14 34.4,13.7 34.3,13.3 C33.6,14 32.8,14.4 31.8,14.4 C30.8,14.4 30,14.1 29.4,13.5 C28.8,12.9 28.4,12.2 28.4,11.3 C28.4,10.2 28.8,9.4 29.6,8.9 C30.4,8.3 31.5,8 33,8 L34.2,8 L34.2,7.4 C34.2,6.9 34.1,6.6 33.8,6.3 C33.6,6 33.2,5.9 32.7,5.9 C32.2,5.9 31.9,6 31.6,6.2 C31.3,6.4 31.2,6.7 31.2,7.1 L28.5,7.1 C28.5,6.5 28.7,6 29,5.5 C29.4,5 29.9,4.6 30.5,4.3 C31.2,4 31.9,3.9 32.7,3.9 C33.9,3.9 34.9,4.2 35.6,4.8 C36.3,5.4 36.7,6.3 36.7,7.4 L36.7,11.8 C36.7,12.8 36.8,13.5 37.1,14 L37.1,14.2 L34.6,14.2 L34.6,14.2 Z M32.3,12.4 C32.7,12.4 33.1,12.3 33.4,12.1 C33.7,11.9 34,11.7 34.1,11.4 L34.1,9.7 L33.1,9.7 C31.8,9.7 31,10.2 31,11.1 L31,11.3 C31,11.6 31.1,11.9 31.4,12.1 C31.6,12.2 31.9,12.4 32.3,12.4 Z" id="Shape"></path>
                    <path d="M48,9.3 C48,10.9 47.7,12.2 47,13.1 C46.3,14 45.4,14.4 44.1,14.4 C43,14.4 42.1,14 41.5,13.1 L41.4,14.2 L39,14.2 L39,1.42108547e-14 L41.7,1.42108547e-14 L41.7,5.1 C42.3,4.4 43.1,4 44.1,4 C45.3,4 46.3,4.5 47,5.3 C47.7,6.2 48,7.5 48,9.1 L48,9.3 L48,9.3 Z M45.3,9.1 C45.3,8.1 45.1,7.3 44.8,6.9 C44.5,6.4 44,6.2 43.4,6.2 C42.5,6.2 42,6.5 41.6,7.2 L41.6,11.2 C41.9,11.9 42.5,12.3 43.4,12.3 C44.3,12.3 44.8,11.9 45.1,11 C45.2,10.6 45.3,9.9 45.3,9.1 Z" id="Shape"></path>
                    <path d="M55.4,14.2 C55.3,14 55.2,13.7 55.1,13.3 C54.4,14 53.6,14.4 52.6,14.4 C51.6,14.4 50.8,14.1 50.2,13.5 C49.6,12.9 49.2,12.2 49.2,11.3 C49.2,10.2 49.6,9.4 50.4,8.9 C51.2,8.3 52.3,8 53.8,8 L55,8 L55,7.4 C55,6.9 54.9,6.6 54.6,6.3 C54.4,6 54,5.9 53.5,5.9 C53,5.9 52.7,6 52.4,6.2 C52.1,6.4 52,6.7 52,7.1 L49.3,7.1 C49.3,6.5 49.5,6 49.8,5.5 C50.2,5 50.7,4.6 51.3,4.3 C52,4 52.7,3.9 53.5,3.9 C54.7,3.9 55.7,4.2 56.4,4.8 C57.1,5.4 57.5,6.3 57.5,7.4 L57.5,11.8 C57.5,12.8 57.6,13.5 57.9,14 L57.9,14.2 L55.4,14.2 L55.4,14.2 Z M53.2,12.4 C53.6,12.4 54,12.3 54.3,12.1 C54.6,11.9 54.9,11.7 55,11.4 L55,9.7 L54,9.7 C52.7,9.7 51.9,10.2 51.9,11.1 L51.9,11.3 C51.9,11.6 52,11.9 52.3,12.1 C52.5,12.2 52.8,12.4 53.2,12.4 Z" id="Shape"></path>
                    <path d="M65.2,11.4 C65.2,11.1 65,10.8 64.7,10.6 C64.4,10.4 63.9,10.2 63.1,10.1 C60.7,9.6 59.5,8.6 59.5,7.1 C59.5,6.2 59.9,5.5 60.6,4.9 C61.3,4.3 62.3,4 63.5,4 C64.8,4 65.8,4.3 66.6,4.9 C67.4,5.5 67.7,6.3 67.7,7.2 L65,7.2 C65,6.8 64.9,6.5 64.6,6.2 C64.4,5.9 64,5.8 63.4,5.8 C62.9,5.8 62.6,5.9 62.4,6.1 C62.2,6.3 62,6.6 62,6.9 C62,7.2 62.1,7.4 62.4,7.6 C62.7,7.8 63.2,7.9 63.8,8.1 C64.5,8.2 65,8.4 65.5,8.6 C66.9,9.1 67.6,10 67.6,11.3 C67.6,12.2 67.2,13 66.4,13.5 C65.6,14.1 64.6,14.3 63.4,14.3 C62.6,14.3 61.8,14.2 61.2,13.8 C60.5,13.5 60,13.1 59.7,12.6 C59.3,12.1 59.1,11.5 59.1,10.9 L61.6,10.9 C61.6,11.4 61.8,11.7 62.1,12 C62.4,12.3 62.9,12.4 63.4,12.4 C63.9,12.4 64.3,12.3 64.6,12.1 C65.1,12 65.2,11.8 65.2,11.4 Z" id="Path"></path>
                    <path d="M74.2,14.4 C72.7,14.4 71.5,13.9 70.6,13 C69.7,12.1 69.2,10.9 69.2,9.4 L69.2,9.1 C69.2,8.1 69.4,7.2 69.8,6.4 C70.2,5.6 70.7,5 71.5,4.6 C72.2,4.2 73,4 73.9,4 C75.3,4 76.4,4.4 77.1,5.3 C77.9,6.2 78.3,7.4 78.3,9 L78.3,10.1 L71.9,10.1 C72,10.8 72.2,11.3 72.7,11.7 C73.1,12.1 73.7,12.3 74.4,12.3 C75.4,12.3 76.2,11.9 76.8,11.2 L78.1,12.7 C77.7,13.3 77.2,13.7 76.5,14 C75.8,14.2 75,14.4 74.2,14.4 Z M73.9,6.2 C73.4,6.2 72.9,6.4 72.6,6.7 C72.3,7.1 72.1,7.6 72,8.2 L75.7,8.2 L75.7,8 C75.7,7.4 75.5,6.9 75.2,6.6 C74.9,6.3 74.5,6.2 73.9,6.2 Z" id="Shape"></path>
                </g>
                <g id="Group" transform="translate(328.900000, 111.400000)" fill="#2A3A44" fill-rule="nonzero">
                    <polygon id="Path" points="2.7 7.8 8 9.7 8 12.3 0 8.9 0 6.7 8 3.3 8 5.9"></polygon>
                    <path d="M18,10.7 L13.1,10.7 L12.2,13.5 L9.2,13.5 L14.2,0 L16.8,0 L21.9,13.5 L18.9,13.5 L18,10.7 Z M13.8,8.5 L17.2,8.5 L15.5,3.4 L13.8,8.5 Z" id="Shape"></path>
                    <polygon id="Path" points="28.4 7.8 23 5.9 23 3.3 31.1 6.7 31.1 8.9 23 12.3 23 9.7"></polygon>
                </g>
                <rect id="Rectangle" fill="url(#linearGradient-55)" fill-rule="nonzero" x="32" y="123.8" width="101" height="46.1"></rect>
                <path d="M42.2,127.7 C36.9,127.7 32.5,132 32.5,137.4 L32.5,196.7 C32.5,202 36.8,206.4 42.2,206.4 L122.8,206.4 C128.1,206.4 132.5,202.1 132.5,196.7 L132.5,137.4 C132.5,132.1 128.2,127.7 122.8,127.7 L42.2,127.7 Z" id="Path" fill="#FBEAA6" fill-rule="nonzero"></path>
                <path d="M42.2,127.7 C36.9,127.7 32.5,132 32.5,137.4 L32.5,196.7 C32.5,202 36.8,206.4 42.2,206.4 L122.8,206.4 C128.1,206.4 132.5,202.1 132.5,196.7 L132.5,137.4 C132.5,132.1 128.2,127.7 122.8,127.7 L42.2,127.7 Z" id="Path" stroke="#FAB900" stroke-width="1.08"></path>
                <g id="Group" transform="translate(64.600000, 150.900000)" fill="#2A3A44" fill-rule="nonzero">
                    <path d="M8.8,10.7 L3.9,10.7 L3,13.5 L0,13.5 L5,0 L7.6,0 L12.7,13.5 L9.7,13.5 L8.8,10.7 Z M4.7,8.4 L8.1,8.4 L6.4,3.3 L4.7,8.4 Z" id="Shape"></path>
                    <path d="M22.8,8.6 C22.8,10.1 22.4,11.4 21.7,12.3 C21,13.2 20.1,13.7 18.9,13.7 C17.9,13.7 17.1,13.3 16.4,12.6 L16.4,17.3 L13.7,17.3 L13.7,3.4 L16.2,3.4 L16.3,4.4 C16.9,3.6 17.8,3.2 18.8,3.2 C20,3.2 21,3.7 21.7,4.6 C22.4,5.5 22.7,6.8 22.7,8.4 L22.8,8.6 L22.8,8.6 Z M20.1,8.4 C20.1,7.5 19.9,6.7 19.6,6.2 C19.3,5.7 18.8,5.4 18.2,5.4 C17.4,5.4 16.8,5.7 16.5,6.4 L16.5,10.5 C16.8,11.2 17.4,11.5 18.3,11.5 C19.5,11.5 20.1,10.5 20.1,8.4 Z" id="Shape"></path>
                    <path d="M33.5,8.6 C33.5,10.1 33.1,11.4 32.4,12.3 C31.7,13.2 30.8,13.7 29.6,13.7 C28.6,13.7 27.8,13.3 27.1,12.6 L27.1,17.3 L24.4,17.3 L24.4,3.4 L26.9,3.4 L27,4.4 C27.6,3.6 28.5,3.2 29.5,3.2 C30.7,3.2 31.7,3.7 32.4,4.6 C33.1,5.5 33.4,6.8 33.4,8.4 L33.5,8.6 L33.5,8.6 Z M30.8,8.4 C30.8,7.5 30.6,6.7 30.3,6.2 C30,5.7 29.5,5.4 28.9,5.4 C28.1,5.4 27.5,5.7 27.2,6.4 L27.2,10.5 C27.5,11.2 28.1,11.5 29,11.5 C30.2,11.5 30.8,10.5 30.8,8.4 Z" id="Shape"></path>
                </g>
                <g id="Group" transform="translate(40.800000, 173.100000)" fill="#2A3A44" fill-rule="nonzero">
                    <path d="M11,9.6 C10.9,11.1 10.4,12.2 9.4,13 C8.4,13.8 7.2,14.3 5.6,14.3 C3.9,14.3 2.5,13.7 1.5,12.6 C0.5,11.4 0,9.8 0,7.8 L0,7 C0,5.7 0.2,4.6 0.7,3.6 C1.2,2.6 1.8,1.9 2.7,1.3 C3.6,0.8 4.5,0.5 5.7,0.5 C7.3,0.5 8.5,0.9 9.5,1.8 C10.5,2.6 11,3.8 11.2,5.3 L8.2,5.3 C8.1,4.4 7.9,3.8 7.5,3.4 C7.1,3 6.4,2.8 5.6,2.8 C4.7,2.8 4,3.1 3.5,3.8 C3,4.5 2.8,5.5 2.8,6.9 L2.8,7.9 C2.8,9.4 3,10.4 3.5,11.1 C3.9,11.8 4.6,12.1 5.6,12.1 C6.5,12.1 7.1,11.9 7.5,11.5 C7.9,11.1 8.2,10.5 8.2,9.7 L11,9.6 L11,9.6 Z" id="Path"></path>
                    <path d="M12.2,9 C12.2,8 12.4,7.1 12.8,6.3 C13.2,5.5 13.7,4.9 14.5,4.5 C15.2,4.1 16.1,3.9 17,3.9 C18.4,3.9 19.5,4.3 20.3,5.1 C21.2,5.9 21.6,7.1 21.7,8.5 L21.7,9.2 C21.7,10.7 21.3,12 20.4,12.9 C19.5,13.8 18.4,14.3 16.9,14.3 C15.4,14.3 14.3,13.8 13.4,12.9 C12.5,12 12.1,10.7 12.1,9.1 L12.1,9 L12.2,9 L12.2,9 Z M14.9,9.2 C14.9,10.2 15.1,10.9 15.4,11.4 C15.8,11.9 16.3,12.2 16.9,12.2 C17.5,12.2 18.1,12 18.4,11.5 C18.8,11 18.9,10.2 18.9,9.1 C18.9,8.2 18.7,7.4 18.4,6.9 C18,6.4 17.5,6.1 16.9,6.1 C16.2,6.1 15.7,6.4 15.4,6.9 C15.1,7.3 14.9,8.1 14.9,9.2 Z" id="Shape"></path>
                    <path d="M25.9,4 L26,5.2 C26.7,4.3 27.7,3.9 28.9,3.9 C30,3.9 30.8,4.2 31.3,4.8 C31.8,5.4 32.1,6.4 32.1,7.6 L32.1,14.1 L29.4,14.1 L29.4,7.7 C29.4,7.1 29.3,6.7 29,6.5 C28.8,6.2 28.3,6.1 27.8,6.1 C27,6.1 26.5,6.4 26.1,7.1 L26.1,14.2 L23.4,14.2 L23.4,4.2 L25.9,4.2 L25.9,4 L25.9,4 Z" id="Path"></path>
                    <path d="M37.3,1.6 L37.3,4.1 L39,4.1 L39,6.1 L37.3,6.1 L37.3,11.1 C37.3,11.5 37.4,11.7 37.5,11.9 C37.6,12.1 37.9,12.1 38.3,12.1 C38.6,12.1 38.9,12.1 39.1,12 L39.1,14 C38.6,14.2 38,14.2 37.5,14.2 C35.6,14.2 34.7,13.3 34.6,11.4 L34.6,6 L33.1,6 L33.1,4 L34.6,4 L34.6,1.5 L37.3,1.5 L37.3,1.6 Z" id="Path"></path>
                    <path d="M46.3,14.1 C46.2,13.9 46.1,13.6 46,13.2 C45.4,13.9 44.5,14.3 43.5,14.3 C42.5,14.3 41.7,14 41.1,13.4 C40.5,12.8 40.1,12.1 40.1,11.2 C40.1,10.1 40.5,9.3 41.3,8.8 C42.1,8.2 43.2,7.9 44.7,7.9 L45.9,7.9 L45.9,7.3 C45.9,6.8 45.8,6.5 45.5,6.2 C45.3,5.9 44.9,5.8 44.4,5.8 C43.9,5.8 43.6,5.9 43.3,6.1 C43,6.3 42.9,6.6 42.9,7 L40.2,7 C40.2,6.4 40.4,5.9 40.7,5.4 C41.1,4.9 41.6,4.5 42.2,4.2 C42.9,3.9 43.6,3.8 44.4,3.8 C45.6,3.8 46.6,4.1 47.3,4.7 C48,5.3 48.4,6.2 48.4,7.3 L48.4,11.7 C48.4,12.7 48.5,13.4 48.8,13.9 L48.8,14.1 L46.3,14.1 L46.3,14.1 Z M44.1,12.2 C44.5,12.2 44.9,12.1 45.2,11.9 C45.5,11.7 45.8,11.5 45.9,11.2 L45.9,9.5 L44.9,9.5 C43.6,9.5 42.8,10 42.8,10.9 L42.8,11.1 C42.8,11.4 42.9,11.7 43.2,11.9 C43.3,12.1 43.7,12.2 44.1,12.2 Z" id="Shape"></path>
                    <path d="M50.6,1.4 C50.6,1 50.7,0.7 51,0.4 C51.3,0.1 51.6,2.84217094e-14 52.1,2.84217094e-14 C52.6,2.84217094e-14 52.9,0.1 53.2,0.4 C53.5,0.7 53.6,1 53.6,1.4 C53.6,1.8 53.5,2.1 53.2,2.4 C52.9,2.7 52.6,2.8 52.1,2.8 C51.6,2.8 51.3,2.7 51,2.4 C50.8,2.2 50.6,1.9 50.6,1.4 Z M53.5,14.1 L50.8,14.1 L50.8,4.1 L53.5,4.1 L53.5,14.1 Z" id="Shape"></path>
                    <path d="M58.2,4 L58.3,5.2 C59,4.3 60,3.9 61.2,3.9 C62.3,3.9 63.1,4.2 63.6,4.8 C64.1,5.4 64.4,6.4 64.4,7.6 L64.4,14.1 L61.7,14.1 L61.7,7.7 C61.7,7.1 61.6,6.7 61.3,6.5 C61.1,6.2 60.6,6.1 60.1,6.1 C59.3,6.1 58.8,6.4 58.4,7.1 L58.4,14.2 L55.7,14.2 L55.7,4.2 L58.2,4.2 L58.2,4 L58.2,4 Z" id="Path"></path>
                    <path d="M70.9,14.3 C69.4,14.3 68.2,13.8 67.3,12.9 C66.4,12 65.9,10.8 65.9,9.3 L65.9,9 C65.9,8 66.1,7.1 66.5,6.3 C66.9,5.5 67.4,4.9 68.2,4.5 C68.9,4.1 69.7,3.9 70.6,3.9 C72,3.9 73.1,4.3 73.8,5.2 C74.6,6.1 75,7.3 75,8.9 L75,10 L68.6,10 C68.7,10.7 68.9,11.2 69.4,11.6 C69.8,12 70.4,12.2 71.1,12.2 C72.1,12.2 72.9,11.8 73.5,11.1 L74.8,12.6 C74.4,13.2 73.9,13.6 73.2,13.9 C72.5,14.2 71.8,14.3 70.9,14.3 Z M70.6,6 C70.1,6 69.6,6.2 69.3,6.5 C69,6.9 68.8,7.4 68.7,8 L72.4,8 L72.4,7.8 C72.4,7.2 72.2,6.7 71.9,6.4 C71.6,6.2 71.2,6 70.6,6 Z" id="Shape"></path>
                    <path d="M82.2,6.6 C81.8,6.6 81.5,6.5 81.2,6.5 C80.2,6.5 79.5,6.8 79.2,7.5 L79.2,14.1 L76.5,14.1 L76.5,4.1 L79,4.1 L79.1,5.3 C79.6,4.4 80.4,3.9 81.3,3.9 C81.6,3.9 81.9,3.9 82.1,4 L82.2,6.6 Z" id="Path"></path>
                </g>
                <rect id="Rectangle" fill="url(#linearGradient-56)" fill-rule="nonzero" x="294.8" y="190.5" width="101" height="46.1"></rect>
                <path d="M305,194.4 C299.7,194.4 295.3,198.7 295.3,204.1 L295.3,263.4 C295.3,268.7 299.6,273.1 305,273.1 L385.6,273.1 C390.9,273.1 395.3,268.8 395.3,263.4 L395.3,204.1 C395.3,198.8 391,194.4 385.6,194.4 L305,194.4 L305,194.4 Z" id="Path" fill="#FBEAA6" fill-rule="nonzero"></path>
                <path d="M305,194.4 C299.7,194.4 295.3,198.7 295.3,204.1 L295.3,263.4 C295.3,268.7 299.6,273.1 305,273.1 L385.6,273.1 C390.9,273.1 395.3,268.8 395.3,263.4 L395.3,204.1 C395.3,198.8 391,194.4 385.6,194.4 L305,194.4 L305,194.4 Z" id="Path" stroke="#FAB900" stroke-width="1.08"></path>
                <g id="Group" transform="translate(329.200000, 217.600000)" fill="#2A3A44" fill-rule="nonzero">
                    <path d="M8.8,10.7 L3.9,10.7 L3,13.5 L0,13.5 L5,8.52651283e-14 L7.6,8.52651283e-14 L12.7,13.5 L9.7,13.5 L8.8,10.7 Z M4.7,8.4 L8.1,8.4 L6.4,3.3 L4.7,8.4 Z" id="Shape"></path>
                    <path d="M16.8,8.7 L16.8,13.5 L14,13.5 L14,8.52651283e-14 L19.3,8.52651283e-14 C20.3,8.52651283e-14 21.2,0.2 22,0.6 C22.8,1 23.4,1.5 23.8,2.2 C24.2,2.9 24.4,3.7 24.4,4.5 C24.4,5.8 23.9,6.9 23,7.6 C22.1,8.4 20.8,8.7 19.2,8.7 L16.8,8.7 L16.8,8.7 Z M16.8,6.5 L19.3,6.5 C20,6.5 20.6,6.3 21,6 C21.4,5.7 21.6,5.2 21.6,4.5 C21.6,3.8 21.4,3.3 21,2.9 C20.6,2.5 20.1,2.3 19.4,2.3 L16.8,2.3 L16.8,6.5 Z" id="Shape"></path>
                    <polygon id="Path" points="29.2 13.5 26.4 13.5 26.4 2.84217094e-14 29.2 2.84217094e-14"></polygon>
                </g>
                <g id="Group" transform="translate(328.900000, 240.400000)" fill="#2A3A44" fill-rule="nonzero">
                    <polygon id="Path" points="2.7 7.8 8 9.7 8 12.3 0 8.9 0 6.7 8 3.3 8 5.9"></polygon>
                    <path d="M18,10.7 L13.1,10.7 L12.2,13.5 L9.2,13.5 L14.2,0 L16.8,0 L21.9,13.5 L18.9,13.5 L18,10.7 Z M13.8,8.4 L17.2,8.4 L15.5,3.3 L13.8,8.4 Z" id="Shape"></path>
                    <polygon id="Path" points="28.4 7.7 23 5.8 23 3.2 31.1 6.6 31.1 8.8 23 12.2 23 9.6"></polygon>
                </g>
                <rect id="Rectangle" fill="url(#linearGradient-54)" fill-rule="nonzero" x="423.8" y="61.6" width="101" height="46.1"></rect>
                <path d="M434,65.4 C428.7,65.4 424.3,69.7 424.3,75.1 L424.3,134.4 C424.3,139.7 428.6,144.1 434,144.1 L514.6,144.1 C519.9,144.1 524.3,139.8 524.3,134.4 L524.3,75.1 C524.3,69.8 520,65.4 514.6,65.4 L434,65.4 Z" id="Path" fill="#FBEAA6" fill-rule="nonzero"></path>
                <path d="M434,65.4 C428.7,65.4 424.3,69.7 424.3,75.1 L424.3,134.4 C424.3,139.7 428.6,144.1 434,144.1 L514.6,144.1 C519.9,144.1 524.3,139.8 524.3,134.4 L524.3,75.1 C524.3,69.8 520,65.4 514.6,65.4 L434,65.4 Z" id="Path" stroke="#FAB900" stroke-width="1.08"></path>
                <g id="Group" transform="translate(447.600000, 87.800000)" fill="#2A3A44" fill-rule="nonzero">
                    <path d="M11,9.8 C10.9,11.3 10.4,12.4 9.4,13.2 C8.4,14 7.2,14.5 5.6,14.5 C3.9,14.5 2.5,13.9 1.5,12.8 C0.5,11.6 5.68434189e-14,10 5.68434189e-14,8 L5.68434189e-14,7.2 C5.68434189e-14,5.9 0.2,4.8 0.7,3.8 C1.2,2.8 1.8,2.1 2.7,1.5 C3.6,1 4.5,0.7 5.7,0.7 C7.3,0.7 8.5,1.1 9.5,2 C10.5,2.8 11,4 11.2,5.5 L8.4,5.5 C8.3,4.6 8.1,4 7.7,3.6 C7.3,3.2 6.6,3 5.8,3 C4.9,3 4.2,3.3 3.7,4 C3.2,4.7 3,5.7 3,7.1 L3,8.1 C3,9.6 3.2,10.6 3.7,11.3 C4.1,12 4.8,12.3 5.8,12.3 C6.7,12.3 7.3,12.1 7.7,11.7 C8.1,11.3 8.4,10.7 8.4,9.9 L11,9.9 L11,9.8 Z" id="Path"></path>
                    <path d="M18.4,14.3 C18.3,14.1 18.2,13.8 18.1,13.4 C17.4,14.1 16.6,14.5 15.6,14.5 C14.6,14.5 13.8,14.2 13.2,13.6 C12.6,13 12.2,12.3 12.2,11.4 C12.2,10.3 12.6,9.5 13.4,9 C14.2,8.4 15.3,8.1 16.8,8.1 L18,8.1 L18,7.5 C18,7 17.9,6.7 17.6,6.4 C17.4,6.1 17,6 16.5,6 C16,6 15.7,6.1 15.4,6.3 C15.1,6.5 15,6.8 15,7.2 L12.3,7.2 C12.3,6.6 12.5,6.1 12.8,5.6 C13.2,5.1 13.7,4.7 14.3,4.4 C15,4.1 15.7,4 16.5,4 C17.7,4 18.7,4.3 19.4,4.9 C20.1,5.5 20.5,6.4 20.5,7.5 L20.5,11.9 C20.5,12.9 20.6,13.6 20.9,14.1 L20.9,14.3 L18.4,14.3 L18.4,14.3 Z M16.2,12.5 C16.6,12.5 17,12.4 17.3,12.2 C17.6,12 17.9,11.8 18,11.5 L18,9.8 L17,9.8 C15.7,9.8 14.9,10.3 14.9,11.2 L14.9,11.4 C14.9,11.7 15,12 15.3,12.2 C15.5,12.3 15.8,12.5 16.2,12.5 Z" id="Shape"></path>
                    <path d="M27,12.3 C27.5,12.3 27.9,12.2 28.2,11.9 C28.5,11.6 28.7,11.3 28.7,10.8 L31.2,10.8 C31.2,11.5 31,12.1 30.6,12.7 C30.2,13.3 29.7,13.7 29.1,14 C28.5,14.3 27.8,14.5 27,14.5 C25.6,14.5 24.4,14 23.6,13.1 C22.8,12.2 22.4,10.9 22.4,9.3 L22.4,9.1 C22.4,7.6 22.8,6.3 23.6,5.4 C24.4,4.5 25.6,4 27,4 C28.3,4 29.3,4.4 30,5.1 C30.8,5.8 31.1,6.8 31.2,8 L28.7,8 C28.7,7.5 28.5,7.1 28.2,6.7 C27.9,6.4 27.5,6.2 27,6.2 C26.4,6.2 25.9,6.4 25.6,6.9 C25.3,7.4 25.1,8.1 25.1,9.1 L25.1,9.4 C25.1,10.4 25.3,11.2 25.6,11.6 C25.9,12 26.4,12.3 27,12.3 Z" id="Path"></path>
                    <path d="M35.3,5.4 C36,4.5 36.9,4.1 38,4.1 C40.2,4.1 41.3,5.4 41.3,7.9 L41.3,14.3 L38.6,14.3 L38.6,7.9 C38.6,7.3 38.5,6.9 38.2,6.6 C38,6.3 37.5,6.2 37,6.2 C36.2,6.2 35.6,6.5 35.3,7.1 L35.3,14.2 L32.6,14.2 L32.6,-2.84217094e-14 L35.3,-2.84217094e-14 L35.3,5.4 Z" id="Path"></path>
                    <path d="M48,14.5 C46.5,14.5 45.3,14 44.4,13.1 C43.5,12.2 43,11 43,9.5 L43,9.2 C43,8.2 43.2,7.3 43.6,6.5 C44,5.7 44.5,5.1 45.3,4.7 C46,4.3 46.8,4.1 47.7,4.1 C49.1,4.1 50.2,4.5 50.9,5.4 C51.7,6.3 52.1,7.5 52.1,9.1 L52.1,10.2 L45.7,10.2 C45.8,10.9 46,11.4 46.5,11.8 C46.9,12.2 47.5,12.4 48.2,12.4 C49.2,12.4 50,12 50.6,11.3 L51.9,12.8 C51.5,13.4 51,13.8 50.3,14.1 C49.6,14.3 48.8,14.5 48,14.5 Z M47.7,6.3 C47.2,6.3 46.7,6.5 46.4,6.8 C46.1,7.2 45.9,7.7 45.8,8.3 L49.5,8.3 L49.5,8.1 C49.5,7.5 49.3,7 49,6.7 C48.7,6.4 48.2,6.3 47.7,6.3 Z" id="Shape"></path>
                </g>
                <g id="Group" transform="translate(457.900000, 111.400000)" fill="#2A3A44" fill-rule="nonzero">
                    <polygon id="Path" points="2.7 7.8 8 9.7 8 12.3 -5.68434189e-14 8.9 -5.68434189e-14 6.7 8 3.3 8 5.9"></polygon>
                    <path d="M18,10.7 L13.1,10.7 L12.2,13.5 L9.2,13.5 L14.2,0 L16.8,0 L21.9,13.5 L18.9,13.5 L18,10.7 Z M13.8,8.5 L17.2,8.5 L15.5,3.4 L13.8,8.5 Z" id="Shape"></path>
                    <polygon id="Path" points="28.4 7.8 23 5.9 23 3.3 31.1 6.7 31.1 8.9 23 12.3 23 9.7"></polygon>
                </g>
                <rect id="Rectangle" fill="url(#linearGradient-56)" fill-rule="nonzero" x="423.8" y="190.5" width="101" height="46.1"></rect>
                <path d="M434,194.4 C428.7,194.4 424.3,198.7 424.3,204.1 L424.3,263.4 C424.3,268.7 428.6,273.1 434,273.1 L514.6,273.1 C519.9,273.1 524.3,268.8 524.3,263.4 L524.3,204.1 C524.3,198.8 520,194.4 514.6,194.4 L434,194.4 L434,194.4 Z" id="Path" fill="#FBEAA6" fill-rule="nonzero"></path>
                <path d="M434,194.4 C428.7,194.4 424.3,198.7 424.3,204.1 L424.3,263.4 C424.3,268.7 428.6,273.1 434,273.1 L514.6,273.1 C519.9,273.1 524.3,268.8 524.3,263.4 L524.3,204.1 C524.3,198.8 520,194.4 514.6,194.4 L434,194.4 L434,194.4 Z" id="Path" stroke="#FAB900" stroke-width="1.08"></path>
                <g id="Group" transform="translate(458.200000, 217.600000)" fill="#2A3A44" fill-rule="nonzero">
                    <path d="M8.8,10.7 L3.9,10.7 L3,13.5 L0,13.5 L5,8.52651283e-14 L7.6,8.52651283e-14 L12.7,13.5 L9.7,13.5 L8.8,10.7 Z M4.7,8.4 L8.1,8.4 L6.4,3.3 L4.7,8.4 Z" id="Shape"></path>
                    <path d="M16.8,8.7 L16.8,13.5 L14,13.5 L14,8.52651283e-14 L19.3,8.52651283e-14 C20.3,8.52651283e-14 21.2,0.2 22,0.6 C22.8,1 23.4,1.5 23.8,2.2 C24.2,2.9 24.4,3.7 24.4,4.5 C24.4,5.8 23.9,6.9 23,7.6 C22.1,8.4 20.8,8.7 19.2,8.7 L16.8,8.7 L16.8,8.7 Z M16.8,6.5 L19.3,6.5 C20,6.5 20.6,6.3 21,6 C21.4,5.7 21.6,5.2 21.6,4.5 C21.6,3.8 21.4,3.3 21,2.9 C20.6,2.5 20.1,2.3 19.4,2.3 L16.8,2.3 L16.8,6.5 Z" id="Shape"></path>
                    <polygon id="Path" points="29.2 13.5 26.4 13.5 26.4 2.84217094e-14 29.2 2.84217094e-14"></polygon>
                </g>
                <g id="Group" transform="translate(458.200000, 240.400000)" fill="#2A3A44" fill-rule="nonzero">
                    <polygon id="Path" points="2.7 7.8 8 9.7 8 12.3 -5.68434189e-14 8.9 -5.68434189e-14 6.7 8 3.3 8 5.9"></polygon>
                    <path d="M10.4,13.5 L10.4,0 L15.1,0 C16.7,0 18,0.3 18.8,0.9 C19.6,1.5 20.1,2.4 20.1,3.7 C20.1,4.4 19.9,4.9 19.6,5.4 C19.3,5.9 18.8,6.3 18.2,6.5 C18.9,6.7 19.4,7 19.8,7.5 C20.2,8 20.4,8.7 20.4,9.4 C20.4,10.7 20,11.7 19.2,12.4 C18.4,13.1 17.2,13.4 15.7,13.4 L10.4,13.4 L10.4,13.5 L10.4,13.5 Z M13.1,5.6 L15.2,5.6 C16.6,5.6 17.3,5 17.3,3.9 C17.3,3.3 17.1,2.8 16.8,2.6 C16.4,2.3 15.9,2.2 15.1,2.2 L13.2,2.2 L13.2,5.6 L13.1,5.6 Z M13.1,7.6 L13.1,11.2 L15.5,11.2 C16.2,11.2 16.7,11 17,10.7 C17.4,10.4 17.6,10 17.6,9.4 C17.6,8.2 17,7.5 15.7,7.5 L13.1,7.6 L13.1,7.6 Z" id="Shape"></path>
                    <polygon id="Path" points="27.8 7.7 22.4 5.8 22.4 3.2 30.5 6.6 30.5 8.8 22.4 12.2 22.4 9.6"></polygon>
                </g>
                <g id="Group" transform="translate(422.600000, 0.000000)" fill="#FFFFFF" fill-rule="nonzero">
                    <path d="M0,14.3 L0,0.8 L4.2,0.8 C5.4,0.8 6.4,1.1 7.4,1.6 C8.3,2.1 9.1,2.9 9.6,3.9 C10.1,4.9 10.4,6 10.4,7.3 L10.4,7.9 C10.4,9.2 10.1,10.3 9.6,11.2 C9.1,12.2 8.4,12.9 7.4,13.5 C6.4,14.1 5.4,14.3 4.2,14.3 C4.2,14.3 0,14.3 0,14.3 Z M2.8,3 L2.8,12 L4.1,12 C5.2,12 6,11.6 6.6,10.9 C7.2,10.2 7.5,9.2 7.5,7.8 L7.5,7.2 C7.5,5.8 7.2,4.8 6.6,4.1 C6,3.4 5.2,3 4.1,3 C4.1,3 2.8,3 2.8,3 Z" id="Shape"></path>
                    <path d="M16.8,14.5 C15.3,14.5 14.1,14 13.2,13.1 C12.3,12.2 11.8,11 11.8,9.5 L11.8,9.2 C11.8,8.2 12,7.3 12.4,6.5 C12.8,5.7 13.3,5.1 14.1,4.7 C14.8,4.3 15.6,4.1 16.5,4.1 C17.9,4.1 19,4.5 19.7,5.4 C20.5,6.3 20.9,7.5 20.9,9.1 L20.9,10.2 L14.5,10.2 C14.6,10.9 14.8,11.4 15.3,11.8 C15.7,12.2 16.3,12.4 17,12.4 C18,12.4 18.8,12 19.4,11.3 L20.7,12.8 C20.3,13.4 19.8,13.8 19.1,14.1 C18.4,14.3 17.6,14.5 16.8,14.5 Z M16.5,6.2 C16,6.2 15.5,6.4 15.2,6.7 C14.9,7.1 14.7,7.6 14.6,8.2 L18.3,8.2 L18.3,8 C18.3,7.4 18.1,6.9 17.8,6.6 C17.5,6.3 17.1,6.2 16.5,6.2 Z" id="Shape"></path>
                    <polygon id="Path" points="26.1 11 28 4.2 30.8 4.2 27.4 14.2 24.8 14.2 21.4 4.2 24.2 4.2"></polygon>
                    <path d="M36.6,14.5 C35.1,14.5 33.9,14 33,13.1 C32.1,12.2 31.6,11 31.6,9.5 L31.6,9.2 C31.6,8.2 31.8,7.3 32.2,6.5 C32.6,5.7 33.1,5.1 33.9,4.7 C34.6,4.3 35.4,4.1 36.3,4.1 C37.7,4.1 38.8,4.5 39.5,5.4 C40.3,6.3 40.7,7.5 40.7,9.1 L40.7,10.2 L34.3,10.2 C34.4,10.9 34.6,11.4 35.1,11.8 C35.5,12.2 36.1,12.4 36.8,12.4 C37.8,12.4 38.6,12 39.2,11.3 L40.5,12.8 C40.1,13.4 39.6,13.8 38.9,14.1 C38.2,14.3 37.4,14.5 36.6,14.5 Z M36.3,6.2 C35.8,6.2 35.3,6.4 35,6.7 C34.7,7.1 34.5,7.6 34.4,8.2 L38.1,8.2 L38.1,8 C38.1,7.4 37.9,6.9 37.6,6.6 C37.3,6.3 36.8,6.2 36.3,6.2 Z" id="Shape"></path>
                    <polygon id="Path" points="45 14.3 42.4 14.3 42.4 0 45.1 0 45.1 14.3 45 14.3"></polygon>
                    <path d="M46.8,9.2 C46.8,8.2 47,7.3 47.4,6.5 C47.8,5.7 48.3,5.1 49.1,4.7 C49.8,4.3 50.7,4.1 51.6,4.1 C53,4.1 54.1,4.5 54.9,5.3 C55.8,6.1 56.2,7.3 56.3,8.7 L56.3,9.4 C56.3,10.9 55.9,12.2 55,13.1 C54.1,14 53,14.5 51.5,14.5 C50,14.5 48.9,14 48,13.1 C47.1,12.2 46.7,10.9 46.7,9.3 L46.8,9.2 L46.8,9.2 Z M49.5,9.4 C49.5,10.4 49.7,11.1 50,11.6 C50.4,12.1 50.9,12.4 51.5,12.4 C52.2,12.4 52.7,12.2 53,11.7 C53.4,11.2 53.5,10.4 53.5,9.3 C53.5,8.4 53.3,7.6 53,7.1 C52.6,6.6 52.1,6.3 51.5,6.3 C50.8,6.3 50.3,6.6 50,7.1 C49.7,7.5 49.5,8.3 49.5,9.4 Z" id="Shape"></path>
                    <path d="M67,9.4 C67,10.9 66.6,12.2 65.9,13.1 C65.2,14 64.3,14.5 63.1,14.5 C62.1,14.5 61.3,14.1 60.6,13.4 L60.6,18.1 L57.9,18.1 L57.9,4.2 L60.4,4.2 L60.5,5.2 C61.1,4.4 62,4 63,4 C64.2,4 65.2,4.5 65.9,5.4 C66.6,6.3 66.9,7.6 66.9,9.2 L67,9.4 L67,9.4 Z M64.4,9.2 C64.4,8.3 64.2,7.5 63.9,7 C63.6,6.5 63.1,6.2 62.5,6.2 C61.7,6.2 61.1,6.5 60.8,7.2 L60.8,11.3 C61.1,12 61.7,12.3 62.6,12.3 C63.7,12.3 64.4,11.3 64.4,9.2 Z" id="Shape"></path>
                    <path d="M73.3,14.5 C71.8,14.5 70.6,14 69.7,13.1 C68.8,12.2 68.3,11 68.3,9.5 L68.3,9.2 C68.3,8.2 68.5,7.3 68.9,6.5 C69.3,5.7 69.8,5.1 70.6,4.7 C71.3,4.3 72.1,4.1 73,4.1 C74.4,4.1 75.5,4.5 76.2,5.4 C77,6.3 77.4,7.5 77.4,9.1 L77.4,10.2 L71,10.2 C71.1,10.9 71.3,11.4 71.8,11.8 C72.2,12.2 72.8,12.4 73.5,12.4 C74.5,12.4 75.3,12 75.9,11.3 L77.2,12.8 C76.8,13.4 76.3,13.8 75.6,14.1 C74.9,14.3 74.2,14.5 73.3,14.5 Z M73,6.2 C72.5,6.2 72,6.4 71.7,6.7 C71.4,7.1 71.2,7.6 71.1,8.2 L74.8,8.2 L74.8,8 C74.8,7.4 74.6,6.9 74.3,6.6 C74,6.3 73.6,6.2 73,6.2 Z" id="Shape"></path>
                    <path d="M84.6,6.8 C84.2,6.8 83.9,6.7 83.6,6.7 C82.6,6.7 81.9,7 81.6,7.7 L81.6,14.3 L78.9,14.3 L78.9,4.2 L81.4,4.2 L81.5,5.4 C82,4.5 82.8,4 83.7,4 C84,4 84.3,4 84.5,4.1 L84.6,6.8 Z" id="Path"></path>
                    <path d="M101.4,9.8 C101.3,11.3 100.8,12.4 99.8,13.2 C98.8,14 97.6,14.5 96,14.5 C94.3,14.5 92.9,13.9 91.9,12.8 C90.9,11.6 90.4,10 90.4,8 L90.4,7.2 C90.4,5.9 90.6,4.8 91.1,3.8 C91.6,2.8 92.2,2.1 93.1,1.5 C94,1 94.9,0.7 96.1,0.7 C97.7,0.7 98.9,1.1 99.9,2 C100.9,2.8 101.4,4 101.6,5.5 L98.8,5.5 C98.7,4.6 98.5,4 98.1,3.6 C97.7,3.2 97,3 96.2,3 C95.3,3 94.6,3.3 94.1,4 C93.6,4.7 93.4,5.7 93.4,7.1 L93.4,8.1 C93.4,9.6 93.6,10.6 94.1,11.3 C94.5,12 95.2,12.3 96.2,12.3 C97.1,12.3 97.7,12.1 98.1,11.7 C98.5,11.3 98.8,10.7 98.8,9.9 L101.4,9.9 L101.4,9.8 L101.4,9.8 Z" id="Path"></path>
                    <polygon id="Path" points="105.9 14.3 103.2 14.3 103.2 0 105.9 0"></polygon>
                    <path d="M114.1,13.3 C113.4,14.1 112.5,14.5 111.4,14.5 C110.3,14.5 109.5,14.2 108.9,13.6 C108.3,13 108,12.1 108,10.9 L108,4.2 L110.7,4.2 L110.7,10.7 C110.7,11.7 111.2,12.3 112.1,12.3 C113,12.3 113.6,12 114,11.4 L114,4.2 L116.7,4.2 L116.7,14.2 L114.2,14.2 L114.1,13.3 Z" id="Path"></path>
                    <path d="M124.2,11.5 C124.2,11.2 124,10.9 123.7,10.7 C123.4,10.5 122.9,10.3 122.1,10.2 C119.7,9.7 118.5,8.7 118.5,7.2 C118.5,6.3 118.9,5.6 119.6,5 C120.3,4.4 121.3,4.1 122.5,4.1 C123.8,4.1 124.8,4.4 125.6,5 C126.4,5.6 126.7,6.4 126.7,7.3 L124,7.3 C124,6.9 123.9,6.6 123.6,6.3 C123.4,6 123,5.9 122.4,5.9 C121.9,5.9 121.6,6 121.4,6.2 C121.2,6.4 121,6.7 121,7 C121,7.3 121.1,7.5 121.4,7.7 C121.7,7.9 122.2,8 122.8,8.2 C123.5,8.3 124,8.5 124.5,8.7 C125.9,9.2 126.6,10.1 126.6,11.4 C126.6,12.3 126.2,13.1 125.4,13.6 C124.6,14.2 123.6,14.4 122.4,14.4 C121.6,14.4 120.8,14.3 120.2,13.9 C119.5,13.6 119,13.2 118.7,12.7 C118.3,12.2 118.1,11.6 118.1,11 L120.6,11 C120.6,11.5 120.8,11.8 121.1,12.1 C121.4,12.4 121.9,12.5 122.4,12.5 C122.9,12.5 123.3,12.4 123.6,12.2 C124,12.1 124.2,11.8 124.2,11.5 Z" id="Path"></path>
                    <path d="M131.7,1.8 L131.7,4.2 L133.4,4.2 L133.4,6.2 L131.7,6.2 L131.7,11.2 C131.7,11.6 131.8,11.8 131.9,12 C132,12.2 132.3,12.2 132.7,12.2 C133,12.2 133.3,12.2 133.5,12.1 L133.5,14.1 C133,14.3 132.4,14.3 131.9,14.3 C130,14.3 129.1,13.4 129,11.5 L129,6.2 L127.5,6.2 L127.5,4.2 L129,4.2 L129,1.7 L131.7,1.8 L131.7,1.8 Z" id="Path"></path>
                    <path d="M139.5,14.5 C138,14.5 136.8,14 135.9,13.1 C135,12.2 134.5,11 134.5,9.5 L134.5,9.2 C134.5,8.2 134.7,7.3 135.1,6.5 C135.5,5.7 136,5.1 136.8,4.7 C137.5,4.3 138.3,4.1 139.2,4.1 C140.6,4.1 141.7,4.5 142.4,5.4 C143.2,6.3 143.6,7.5 143.6,9.1 L143.6,10.2 L137.2,10.2 C137.3,10.9 137.5,11.4 138,11.8 C138.4,12.2 139,12.4 139.7,12.4 C140.7,12.4 141.5,12 142.1,11.3 L143.4,12.8 C143,13.4 142.5,13.8 141.8,14.1 C141.1,14.3 140.4,14.5 139.5,14.5 Z M139.2,6.2 C138.7,6.2 138.2,6.4 137.9,6.7 C137.6,7.1 137.4,7.6 137.3,8.2 L141,8.2 L141,8 C141,7.4 140.8,6.9 140.5,6.6 C140.2,6.3 139.8,6.2 139.2,6.2 Z" id="Shape"></path>
                    <path d="M150.8,6.8 C150.4,6.8 150.1,6.7 149.8,6.7 C148.8,6.7 148.1,7 147.8,7.7 L147.8,14.3 L145.1,14.3 L145.1,4.2 L147.6,4.2 L147.7,5.4 C148.2,4.5 149,4 149.9,4 C150.2,4 150.5,4 150.7,4.1 L150.8,6.8 Z" id="Path"></path>
                </g>
                <g id="Group" transform="translate(0.000000, 69.500000)" fill="#FFFFFF" fill-rule="nonzero">
                    <path d="M0,14.4 L0,0.9 L4.2,0.9 C5.4,0.9 6.4,1.2 7.4,1.7 C8.3,2.2 9.1,3 9.6,4 C10.1,5 10.4,6.1 10.4,7.4 L10.4,8 C10.4,9.3 10.1,10.4 9.6,11.3 C9.1,12.3 8.4,13 7.4,13.6 C6.5,14.1 5.4,14.4 4.2,14.4 L0,14.4 L0,14.4 Z M2.7,3.1 L2.7,12.1 L4,12.1 C5.1,12.1 5.9,11.7 6.5,11 C7.1,10.3 7.4,9.3 7.4,7.9 L7.4,7.2 C7.4,5.8 7.1,4.8 6.5,4.1 C5.9,3.4 5.1,3 4,3 L2.7,3.1 L2.7,3.1 Z" id="Shape"></path>
                    <path d="M16.8,14.6 C15.3,14.6 14.1,14.1 13.2,13.2 C12.3,12.3 11.8,11.1 11.8,9.6 L11.8,9.3 C11.8,8.3 12,7.4 12.4,6.6 C12.8,5.8 13.3,5.2 14.1,4.8 C14.8,4.4 15.6,4.2 16.5,4.2 C17.9,4.2 19,4.6 19.7,5.5 C20.5,6.4 20.9,7.6 20.9,9.2 L20.9,10.3 L14.5,10.3 C14.6,11 14.8,11.5 15.3,11.9 C15.7,12.3 16.3,12.5 17,12.5 C18,12.5 18.8,12.1 19.4,11.4 L20.7,12.9 C20.3,13.5 19.8,13.9 19.1,14.2 C18.4,14.4 17.6,14.6 16.8,14.6 Z M16.4,6.3 C15.9,6.3 15.4,6.5 15.1,6.8 C14.8,7.2 14.6,7.7 14.5,8.3 L18.2,8.3 L18.2,8.1 C18.2,7.5 18,7 17.7,6.7 C17.5,6.5 17,6.3 16.4,6.3 Z" id="Shape"></path>
                    <polygon id="Path" points="26 11.1 27.9 4.3 30.7 4.3 27.3 14.3 24.7 14.3 21.3 4.3 24.1 4.3"></polygon>
                    <path d="M36.5,14.6 C35,14.6 33.8,14.1 32.9,13.2 C32,12.3 31.5,11.1 31.5,9.6 L31.5,9.3 C31.5,8.3 31.7,7.4 32.1,6.6 C32.5,5.8 33,5.2 33.8,4.8 C34.5,4.4 35.3,4.2 36.2,4.2 C37.6,4.2 38.7,4.6 39.4,5.5 C40.2,6.4 40.6,7.6 40.6,9.2 L40.6,10.3 L34.2,10.3 C34.3,11 34.5,11.5 35,11.9 C35.4,12.3 36,12.5 36.7,12.5 C37.7,12.5 38.5,12.1 39.1,11.4 L40.4,12.9 C40,13.5 39.5,13.9 38.8,14.2 C38.1,14.4 37.3,14.6 36.5,14.6 Z M36.2,6.3 C35.7,6.3 35.2,6.5 34.9,6.8 C34.6,7.2 34.4,7.7 34.3,8.3 L38,8.3 L38,8.1 C38,7.5 37.8,7 37.5,6.7 C37.2,6.5 36.8,6.3 36.2,6.3 Z" id="Shape"></path>
                    <polygon id="Path" points="45 14.4 42.3 14.4 42.3 0.2 45 0.2"></polygon>
                    <path d="M46.8,9.3 C46.8,8.3 47,7.4 47.4,6.6 C47.8,5.8 48.3,5.2 49.1,4.8 C49.8,4.4 50.7,4.2 51.6,4.2 C53,4.2 54.1,4.6 54.9,5.4 C55.8,6.2 56.2,7.4 56.3,8.8 L56.3,9.5 C56.3,11 55.9,12.3 55,13.2 C54.1,14.1 53,14.6 51.5,14.6 C50,14.6 48.9,14.1 48,13.2 C47.1,12.3 46.7,11 46.7,9.4 L46.7,9.3 L46.8,9.3 L46.8,9.3 Z M49.5,9.5 C49.5,10.5 49.7,11.2 50,11.7 C50.4,12.2 50.9,12.5 51.5,12.5 C52.1,12.5 52.7,12.3 53,11.8 C53.4,11.3 53.5,10.5 53.5,9.4 C53.5,8.5 53.3,7.7 53,7.2 C52.6,6.7 52.1,6.4 51.5,6.4 C50.8,6.4 50.3,6.7 50,7.2 C49.6,7.6 49.5,8.4 49.5,9.5 Z" id="Shape"></path>
                    <path d="M67,9.4 C67,10.9 66.6,12.2 65.9,13.1 C65.2,14 64.3,14.5 63.1,14.5 C62.1,14.5 61.3,14.1 60.6,13.4 L60.6,18.1 L57.9,18.1 L57.9,4.2 L60.4,4.2 L60.5,5.2 C61.1,4.4 62,4 63,4 C64.2,4 65.2,4.5 65.9,5.4 C66.6,6.3 66.9,7.6 66.9,9.2 L67,9.4 L67,9.4 Z M64.3,9.3 C64.3,8.4 64.1,7.6 63.8,7.1 C63.5,6.6 63,6.3 62.4,6.3 C61.6,6.3 61,6.6 60.7,7.3 L60.7,11.4 C61,12.1 61.6,12.4 62.5,12.4 C63.7,12.4 64.3,11.3 64.3,9.3 Z" id="Shape"></path>
                    <path d="M73.3,14.6 C71.8,14.6 70.6,14.1 69.7,13.2 C68.8,12.3 68.3,11.1 68.3,9.6 L68.3,9.3 C68.3,8.3 68.5,7.4 68.9,6.6 C69.3,5.8 69.8,5.2 70.6,4.8 C71.3,4.4 72.1,4.2 73,4.2 C74.4,4.2 75.5,4.6 76.2,5.5 C77,6.4 77.4,7.6 77.4,9.2 L77.4,10.3 L71,10.3 C71.1,11 71.3,11.5 71.8,11.9 C72.2,12.3 72.8,12.5 73.5,12.5 C74.5,12.5 75.3,12.1 75.9,11.4 L77.2,12.9 C76.8,13.5 76.3,13.9 75.6,14.2 C74.9,14.4 74.1,14.6 73.3,14.6 Z M73,6.3 C72.5,6.3 72,6.5 71.7,6.8 C71.4,7.2 71.2,7.7 71.1,8.3 L74.8,8.3 L74.8,8.1 C74.8,7.5 74.6,7 74.3,6.7 C74,6.5 73.5,6.3 73,6.3 Z" id="Shape"></path>
                    <path d="M84.6,6.9 C84.2,6.9 83.9,6.8 83.6,6.8 C82.6,6.8 81.9,7.1 81.6,7.8 L81.6,14.4 L78.9,14.4 L78.9,4.4 L81.4,4.4 L81.5,5.6 C82,4.7 82.8,4.2 83.7,4.2 C84,4.2 84.3,4.2 84.5,4.3 L84.6,6.9 Z" id="Path"></path>
                    <polygon id="Path" points="94.4 0.9 97.9 10.7 101.4 0.9 105.1 0.9 105.1 14.4 102.3 14.4 102.3 10.7 102.6 4.3 99 14.4 97.1 14.4 93.5 4.3 93.8 10.7 93.8 14.4 91 14.4 91 0.9"></polygon>
                    <path d="M113,14.4 C112.9,14.2 112.8,13.9 112.7,13.5 C112.1,14.2 111.2,14.6 110.2,14.6 C109.2,14.6 108.4,14.3 107.8,13.7 C107.2,13.1 106.8,12.4 106.8,11.5 C106.8,10.4 107.2,9.6 108,9.1 C108.8,8.5 109.9,8.2 111.4,8.2 L112.6,8.2 L112.6,7.7 C112.6,7.2 112.5,6.9 112.2,6.6 C112,6.3 111.6,6.2 111.1,6.2 C110.6,6.2 110.3,6.3 110,6.5 C109.7,6.7 109.6,7 109.6,7.4 L107,7.4 C107,6.8 107.2,6.3 107.5,5.8 C107.9,5.3 108.4,4.9 109,4.6 C109.7,4.3 110.4,4.2 111.2,4.2 C112.4,4.2 113.4,4.5 114.1,5.1 C114.8,5.7 115.2,6.6 115.2,7.7 L115.2,12.1 C115.2,13.1 115.3,13.8 115.6,14.3 L115.6,14.5 L113,14.5 L113,14.4 Z M110.8,12.5 C111.2,12.5 111.6,12.4 111.9,12.2 C112.2,12 112.5,11.8 112.6,11.5 L112.6,9.8 L111.6,9.8 C110.3,9.8 109.5,10.3 109.5,11.2 L109.5,11.4 C109.5,11.7 109.6,12 109.9,12.2 C110.1,12.4 110.4,12.5 110.8,12.5 Z" id="Shape"></path>
                    <path d="M121.6,12.4 C122.1,12.4 122.5,12.3 122.8,12 C123.1,11.7 123.3,11.4 123.3,10.9 L125.8,10.9 C125.8,11.6 125.6,12.2 125.2,12.8 C124.8,13.4 124.3,13.8 123.7,14.1 C123.1,14.4 122.4,14.6 121.6,14.6 C120.2,14.6 119,14.1 118.2,13.2 C117.4,12.3 117,11 117,9.4 L117,9.2 C117,7.7 117.4,6.4 118.2,5.5 C119,4.6 120.2,4.1 121.6,4.1 C122.9,4.1 123.9,4.5 124.6,5.2 C125.4,5.9 125.7,6.9 125.8,8.1 L123.3,8.1 C123.3,7.6 123.1,7.2 122.8,6.8 C122.5,6.5 122.1,6.3 121.6,6.3 C121,6.3 120.5,6.5 120.2,7 C119.9,7.5 119.7,8.2 119.7,9.2 L119.7,9.5 C119.7,10.5 119.9,11.3 120.2,11.7 C120.5,12.1 120.9,12.4 121.6,12.4 Z" id="Path"></path>
                    <path d="M129.9,5.4 C130.6,4.5 131.5,4.1 132.6,4.1 C134.8,4.1 135.9,5.4 135.9,7.9 L135.9,14.3 L133.2,14.3 L133.2,7.9 C133.2,7.3 133.1,6.9 132.8,6.6 C132.6,6.3 132.1,6.2 131.6,6.2 C130.8,6.2 130.2,6.5 129.9,7.1 L129.9,14.2 L127.2,14.2 L127.2,0 L129.9,0 L129.9,5.4 L129.9,5.4 Z" id="Path"></path>
                    <path d="M137.9,1.7 C137.9,1.3 138,1 138.3,0.7 C138.6,0.4 138.9,0.3 139.4,0.3 C139.9,0.3 140.2,0.4 140.5,0.7 C140.8,1 140.9,1.3 140.9,1.7 C140.9,2.1 140.8,2.4 140.5,2.7 C140.2,3 139.9,3.1 139.4,3.1 C138.9,3.1 138.6,3 138.3,2.7 C138.1,2.5 137.9,2.1 137.9,1.7 Z M140.8,14.4 L138.1,14.4 L138.1,4.4 L140.8,4.4 L140.8,14.4 Z" id="Shape"></path>
                    <path d="M145.4,4.3 L145.5,5.5 C146.2,4.6 147.2,4.2 148.4,4.2 C149.5,4.2 150.3,4.5 150.8,5.1 C151.3,5.7 151.6,6.7 151.6,7.9 L151.6,14.4 L148.9,14.4 L148.9,8 C148.9,7.4 148.8,7 148.5,6.8 C148.3,6.5 147.8,6.4 147.3,6.4 C146.5,6.4 146,6.7 145.6,7.4 L145.6,14.5 L142.9,14.5 L142.9,4.5 L145.4,4.5 L145.4,4.3 L145.4,4.3 Z" id="Path"></path>
                    <path d="M158.2,14.6 C156.7,14.6 155.5,14.1 154.6,13.2 C153.7,12.3 153.2,11.1 153.2,9.6 L153.2,9.3 C153.2,8.3 153.4,7.4 153.8,6.6 C154.2,5.8 154.7,5.2 155.5,4.8 C156.2,4.4 157,4.2 157.9,4.2 C159.3,4.2 160.4,4.6 161.1,5.5 C161.9,6.4 162.3,7.6 162.3,9.2 L162.3,10.3 L156,10.3 C156.1,11 156.3,11.5 156.8,11.9 C157.2,12.3 157.8,12.5 158.5,12.5 C159.5,12.5 160.3,12.1 160.9,11.4 L162.2,12.9 C161.8,13.5 161.3,13.9 160.6,14.2 C159.8,14.4 159.1,14.6 158.2,14.6 Z M157.9,6.3 C157.4,6.3 156.9,6.5 156.6,6.8 C156.3,7.2 156.1,7.7 156,8.3 L159.7,8.3 L159.7,8.1 C159.7,7.5 159.5,7 159.2,6.7 C158.9,6.5 158.5,6.3 157.9,6.3 Z" id="Shape"></path>
                </g>
                <path d="M396.8,166.7 C396.8,166.7 454.8,166.9 468.8,180.9" id="Path" stroke="#FAB900" stroke-width="4"></path>
                <path d="M475.8,187.8 L468.3,171.6 C468.3,171.6 468.9,180.8 459.7,180.2 L475.8,187.8 Z" id="Path" fill="#FAB900" fill-rule="nonzero"></path>
                <path d="M287.9,166.7 C287.9,166.7 345.9,166.9 359.9,180.9" id="Path" stroke="#FAB900" stroke-width="4"></path>
                <path d="M366.9,187.8 L359.4,171.6 C359.4,171.6 360,180.8 350.8,180.2 L366.9,187.8 Z" id="Path" fill="#FAB900" fill-rule="nonzero"></path>
                <path d="M396.8,166.7 C396.8,166.7 454.8,167.7 468.8,153.7" id="Path" stroke="#FAB900" stroke-width="4"></path>
                <path d="M475.8,146.7 L468.3,162.9 C468.3,162.9 468.9,153.7 459.7,154.3 L475.8,146.7 Z" id="Path" fill="#FAB900" fill-rule="nonzero"></path>
                <path d="M287.9,166.7 C287.9,166.7 345.9,167.7 359.9,153.7" id="Path" stroke="#FAB900" stroke-width="4"></path>
                <path d="M366.9,146.7 L359.4,162.9 C359.4,162.9 360,153.7 350.8,154.3 L366.9,146.7 Z" id="Path" fill="#FAB900" fill-rule="nonzero"></path>
            </g>
            <g id="Ebene_3" transform="translate(172.100000, 261.200000)">
                <line x1="3.5" y1="0.5" x2="149.5" y2="0.5" id="Path" stroke="#FAB900" stroke-width="7" stroke-linecap="round"></line>
                <line x1="3.5" y1="33" x2="149.5" y2="33" id="Path" stroke="#FAB900" stroke-width="7" stroke-linecap="round"></line>
                <g id="Group" opacity="0.24" transform="translate(0.000000, 0.500000)" fill="#FAB900" fill-rule="nonzero">
                    <g id="Rectangle">
                        <rect x="-2.84217094e-14" y="0" width="153" height="32.5"></rect>
                    </g>
                </g>
            </g>
        </g>
    </g>
</svg>