<?xml version="1.0" encoding="UTF-8" standalone="no"?>
<svg
   width="210.883"
   height="204"
   viewBox="0 0 210.883 204"
   fill="none"
   version="1.1"
   id="svg7"
   sodipodi:docname="gefyra_vertical_logoonly.svg"
   inkscape:version="1.3 (0e150ed6c4, 2023-07-21)"
   xmlns:inkscape="http://www.inkscape.org/namespaces/inkscape"
   xmlns:sodipodi="http://sodipodi.sourceforge.net/DTD/sodipodi-0.dtd"
   xmlns="http://www.w3.org/2000/svg"
   xmlns:svg="http://www.w3.org/2000/svg">
  <defs
     id="defs7" />
  <sodipodi:namedview
     id="namedview7"
     pagecolor="#ffffff"
     bordercolor="#000000"
     borderopacity="0.25"
     inkscape:showpageshadow="2"
     inkscape:pageopacity="0.0"
     inkscape:pagecheckerboard="0"
     inkscape:deskcolor="#d1d1d1"
     inkscape:zoom="2.5457143"
     inkscape:cx="163.4119"
     inkscape:cy="112.14927"
     inkscape:window-width="1920"
     inkscape:window-height="1129"
     inkscape:window-x="-8"
     inkscape:window-y="-5"
     inkscape:window-maximized="1"
     inkscape:current-layer="svg7" />
  <path
     d="m 101.653,266.413 c 3.604,-0.098 7.191,0.523 10.553,1.826 2.681,1.096 5.133,2.683 7.231,4.68 1.9,1.778 3.482,3.867 4.68,6.177 1.074,2.074 1.929,4.255 2.551,6.506 0.509,1.797 0.846,3.638 1.006,5.499 0,1.591 0.164,2.691 0.164,3.276 v 5.64 H 85.0849 c 0.0986,1.196 0.3993,2.367 0.8892,3.463 0.6879,1.657 1.6534,3.184 2.855,4.516 1.4294,1.629 3.162,2.964 5.1013,3.931 2.4038,1.162 5.0535,1.725 7.7226,1.639 2.825,0.038 5.645,-0.261 8.4,-0.89 2.205,-0.509 4.371,-1.173 6.482,-1.989 2.029,-0.748 3.968,-1.722 5.78,-2.901 v 12.402 c -0.931,0.902 -2.05,1.589 -3.276,2.012 -1.78,0.741 -3.619,1.328 -5.499,1.755 -2.059,0.468 -4.189,0.89 -6.318,1.217 -1.84,0.32 -3.702,0.492 -5.569,0.515 -1.285,-0.042 -2.5656,-0.151 -3.8382,-0.328 -1.989,-0.295 -3.9418,-0.797 -5.8267,-1.497 -2.2976,-0.858 -4.4946,-1.965 -6.5522,-3.3 -2.3306,-1.504 -4.4012,-3.377 -6.1309,-5.546 -1.9912,-2.549 -3.527,-5.422 -4.5397,-8.494 -1.2736,-3.927 -1.8749,-8.041 -1.7785,-12.168 0.0149,-3.393 0.674,-6.752 1.9423,-9.899 1.2868,-3.33 3.1923,-6.387 5.6161,-9.009 2.5436,-2.744 5.5952,-4.969 8.9858,-6.552 3.8017,-1.731 7.9456,-2.579 12.122,-2.481 z m 14.04,23.775 c -0.231,-2.345 -0.948,-4.616 -2.106,-6.669 -1.055,-1.828 -2.472,-3.42 -4.165,-4.68 -2.232,-1.526 -4.907,-2.267 -7.606,-2.106 -2.792,-0.093 -5.569,0.451 -8.1197,1.591 -1.9365,0.911 -3.671,2.2 -5.1013,3.791 -1.172,1.293 -2.0783,2.804 -2.6676,4.446 -0.458,1.151 -0.7268,2.368 -0.7957,3.604 z"
     class="logo-font"
     id="path1" />
  <path
     d="m 182.478,269.596 15.047,35.101 14.836,-35.101 c 0.148,-0.344 0.393,-0.637 0.705,-0.844 0.311,-0.208 0.676,-0.321 1.05,-0.326 h 12.636 L 193.196,350 h -14.041 l 11.326,-27.776 -22.347,-53.822 h 12.612 c 0.373,0.012 0.735,0.131 1.042,0.342 0.307,0.212 0.547,0.508 0.69,0.852 z"
     class="logo-font"
     id="path2" />
  <path
     d="m 232.438,268.402 h 12.121 v 5.452 c 1.23,-1.501 2.74,-2.748 4.447,-3.673 2.053,-1.054 4.209,-1.893 6.435,-2.504 3.262,-0.841 6.624,-1.227 9.992,-1.147 v 12.098 c -2.234,0.02 -4.463,0.208 -6.669,0.562 -2.339,0.35 -4.631,0.962 -6.833,1.825 -1.964,0.769 -3.754,1.923 -5.266,3.393 -0.692,0.678 -1.236,1.491 -1.598,2.389 -0.363,0.898 -0.535,1.861 -0.508,2.829 v 36.131 h -12.121 z"
     class="logo-font"
     id="path3" />
  <path
     d="m 326.883,268.402 v 57.355 h -12.098 v -8.003 c -2.537,3.282 -5.724,6.007 -9.36,8.003 -3.508,1.867 -7.404,2.89 -11.377,2.987 -3.972,0.098 -7.913,-0.733 -11.509,-2.425 -3.393,-1.618 -6.438,-3.884 -8.962,-6.669 -4.012,-4.569 -6.697,-10.147 -7.766,-16.132 -1.068,-5.985 -0.478,-12.149 1.705,-17.823 1.413,-3.613 3.466,-6.943 6.061,-9.828 2.51,-2.801 5.558,-5.069 8.962,-6.669 3.392,-1.638 7.114,-2.478 10.881,-2.457 4.184,-0.024 8.308,0.989 12.005,2.948 3.663,1.978 6.856,4.724 9.36,8.05 v -9.36 z m -30.421,47.901 c 2.416,0.008 4.806,-0.486 7.021,-1.45 2.164,-0.923 4.127,-2.258 5.78,-3.932 1.64,-1.688 2.957,-3.663 3.884,-5.827 0.957,-2.278 1.45,-4.724 1.45,-7.195 0,-2.471 -0.493,-4.918 -1.45,-7.196 -0.915,-2.191 -2.233,-4.191 -3.884,-5.897 -1.652,-1.681 -3.615,-3.024 -5.78,-3.955 -2.254,-0.942 -4.672,-1.427 -7.114,-1.427 -2.442,0 -4.861,0.485 -7.114,1.427 -2.18,0.941 -4.165,2.283 -5.85,3.955 -1.681,1.692 -3.017,3.695 -3.931,5.897 -0.957,2.278 -1.45,4.725 -1.45,7.196 0,2.471 0.493,4.917 1.45,7.195 0.927,2.175 2.261,4.153 3.931,5.827 1.687,1.665 3.671,2.999 5.85,3.932 2.307,1.044 4.815,1.571 7.348,1.544 z"
     class="logo-font"
     id="path4" />
  <path
     d="m 159.124,268.402 h -6.833 v -5.827 c -0.031,-1.235 0.094,-2.47 0.375,-3.674 0.116,-0.486 0.33,-0.944 0.627,-1.346 0.298,-0.402 0.673,-0.74 1.104,-0.994 1.212,-0.666 2.553,-1.065 3.932,-1.17 2.385,-0.267 4.784,-0.384 7.184,-0.351 v -11.419 c -2.34,0 -5.031,0 -7.956,0.351 -2.859,0.194 -5.662,0.883 -8.284,2.036 -2.638,1.212 -4.901,3.112 -6.552,5.499 -1.961,3.243 -2.891,7.005 -2.668,10.788 v 6.107 h -9.36 v 12.122 h 9.547 v 45.233 h 12.122 v -45.233 h 13.057 l -4.493,-10.928 c -0.151,-0.354 -0.402,-0.655 -0.722,-0.867 -0.32,-0.212 -0.696,-0.326 -1.08,-0.327 z"
     class="logo-font"
     id="path5" />
  <path
     d="m 36.9496,285.976 h -6.7394 l 4.259,10.273 c 0.1487,0.343 0.3935,0.636 0.7048,0.844 0.3114,0.207 0.6761,0.321 1.0502,0.326 h 17.7377 v 12.683 c -1.6778,1.165 -3.5588,2.007 -5.5459,2.48 -2.2092,0.621 -4.4915,0.944 -6.7863,0.96 -3.8558,0.025 -7.6767,-0.731 -11.2322,-2.223 -3.394,-1.441 -6.4831,-3.513 -9.1029,-6.108 -2.6627,-2.676 -4.7696,-5.853 -6.1993,-9.347 -1.4298,-3.494 -2.1541,-7.236 -2.1313,-11.011 -0.0297,-3.811 0.7271,-7.587 2.2231,-11.092 1.4229,-3.41 3.4975,-6.51 6.1075,-9.126 2.6179,-2.609 5.7068,-4.697 9.1029,-6.155 3.8671,-1.693 8.0664,-2.493 12.2853,-2.34 1.7048,0.057 3.399,0.292 5.0546,0.702 1.9028,0.457 3.7654,1.067 5.5694,1.826 1.6382,0.707 3.2054,1.569 4.6801,2.574 1.2193,0.84 2.3486,1.805 3.3697,2.878 l 6.0138,-11.888 c -1.3338,-0.959 -2.8549,-1.989 -4.6801,-3.065 -1.8365,-1.131 -3.7709,-2.094 -5.7799,-2.878 -2.2773,-0.897 -4.6255,-1.601 -7.0202,-2.106 -2.848,-0.587 -5.7504,-0.87 -8.6582,-0.843 -5.5162,-0.04 -10.9813,1.059 -16.0528,3.229 -4.8959,2.082 -9.351,5.076 -13.1277,8.822 -3.76166,3.765 -6.75768,8.223 -8.82206,13.128 C 1.09786,273.603 0,279.06 0,284.572 c 0,5.512 1.09786,10.969 3.22944,16.053 4.16528,9.905 12.04476,17.784 21.94976,21.95 5.0715,2.17 10.5366,3.269 16.0528,3.229 4.757,0.023 9.4903,-0.671 14.0403,-2.059 4.3955,-1.346 8.4772,-3.558 12.0045,-6.506 V 285.976 H 36.8561 Z"
     class="logo-font"
     id="path6" />
  <path
     d="m 197.74981,121.83906 -16.103,-70.4381 c -0.401,-1.7785 -1.202,-3.4427 -2.34,-4.8674 -1.139,-1.4246 -2.586,-2.5726 -4.234,-3.3574 l -65.135,-31.36288 c -1.64,-0.794462 -3.44,-1.207219 -5.262,-1.207219 -1.823,0 -3.622,0.412757 -5.262003,1.207219 l -65.1663,31.36288 c -1.6471,0.7848 -3.0945,1.9328 -4.2332,3.3574 -1.1387,1.4247 -1.939,3.0889 -2.3407,4.8674 l -16.0728,70.4381 c -0.4118,1.772 -0.4169,3.614 -0.0148,5.388 0.4022,1.774 1.2011,3.434 2.3368,4.856 l 45.233,56.489 c 1.133,1.423 2.573,2.571 4.213,3.359 1.639,0.788 3.436,1.195 5.256,1.19 h 72.373003 c 1.824,0.009 3.627,-0.396 5.273,-1.184 1.645,-0.788 3.09,-1.938 4.226,-3.365 l 45.082,-56.489 c 1.11,-1.435 1.882,-3.101 2.257,-4.874 0.376,-1.774 0.347,-3.609 -0.086,-5.37 z m -19.058,0.512 c -0.268,1.493 -1.052,2.844 -2.214,3.818 -1.163,0.975 -2.631,1.511 -4.149,1.515 -0.591,-0.006 -1.178,-0.087 -1.749,-0.241 l -20.475,-5.754 -18.727,23.529 9.047,20.005 c 0.67,1.377 0.847,2.942 0.501,4.433 -0.346,1.491 -1.193,2.819 -2.401,3.762 -0.772,0.571 -1.662,0.963 -2.605,1.147 -0.944,0.184 -1.916,0.155 -2.847,-0.085 -0.93,-0.24 -1.795,-0.684 -2.532,-1.3 -0.737,-0.617 -1.326,-1.39 -1.726,-2.263 l -9.258,-20.155 H 89.612807 l -9.228,20.155 c -0.402,0.874 -0.995,1.647 -1.735,2.264 -0.739,0.616 -1.607,1.06 -2.54,1.3 -0.932,0.239 -1.907,0.268 -2.852,0.084 -0.946,-0.184 -1.838,-0.576 -2.613,-1.147 -1.202,-0.933 -2.048,-2.25 -2.394,-3.731 -0.345,-1.481 -0.171,-3.036 0.494,-4.404 l 9.047,-20.065 -18.787,-23.529 -20.3848,5.754 c -0.5807,0.154 -1.1784,0.235 -1.7792,0.241 -1.5175,-0.004 -2.9855,-0.54 -4.1482,-1.515 -1.1626,-0.974 -1.9463,-2.325 -2.2146,-3.818 -0.2304,-1.634 0.1495,-3.296 1.0672,-4.669 0.9177,-1.372 2.309,-2.359 3.9085,-2.772 l 20.4451,-5.7846 6.604,-29.4347 -15.711,-11.9305 c -0.73,-0.5362 -1.338,-1.22 -1.786,-2.0069 -0.448,-0.7868 -0.725,-1.6591 -0.814,-2.56 -0.088,-0.9009 0.015,-1.8103 0.302,-2.6689 0.287,-0.8586 0.751,-1.6473 1.364,-2.3147 1.161,-1.2096 2.732,-1.942 4.406,-2.0535 1.674,-0.1115 3.329,0.406 4.64,1.451 l 16.073,11.8702 27.532,-13.1356 v -19.8541 c -0.001,-0.9068 0.189,-1.8037 0.558,-2.6325 0.368,-0.8289 0.907,-1.5712 1.580003,-2.1789 0.674,-0.6078 1.468,-1.0674 2.331,-1.3492 0.862,-0.2818 1.775,-0.3795 2.678,-0.2867 1.632,0.2285 3.124,1.0483 4.192,2.3036 1.067,1.2553 1.636,2.8586 1.598,4.5053 v 19.4925 l 27.471,13.1356 16.465,-12.051 c 0.728,-0.5383 1.562,-0.9174 2.447,-1.1125 0.884,-0.1952 1.8,-0.2021 2.688,-0.0202 0.887,0.1819 1.726,0.5485 2.463,1.0758 0.736,0.5274 1.353,1.2037 1.81,1.9851 0.789,1.4417 1.019,3.123 0.647,4.7233 -0.373,1.6003 -1.322,3.0076 -2.667,3.9534 l -19.299,14.2203 h -0.151 c -0.497,0.3625 -1.046,0.6469 -1.629,0.8435 h -0.241 c -0.518,0.1558 -1.057,0.237 -1.598,0.2411 h -0.332 c -0.371,0.0311 -0.744,0.0311 -1.116,0 h -0.271 c -0.449,-0.0964 -0.885,-0.2482 -1.297,-0.4519 v 0 l -18.666,-9.0383 c -4.101,-1.9558 -8.588,-2.9708 -13.132,-2.9708 -4.545,0 -9.032003,1.015 -13.133003,2.9708 l -2.684,1.2955 c -4.148,1.9716 -7.79,4.8639 -10.649,8.4562 -2.859,3.5923 -4.858,7.7896 -5.846,12.2716 l -0.603,2.5909 c -0.983,4.4471 -0.951,9.0582 0.093,13.4918 1.044,4.433 3.073,8.574 5.938,12.117 l 1.87,2.32 c 2.844,3.57 6.457,6.454 10.571,8.437 4.115,1.982 8.623,3.011 13.191003,3.011 h 2.805 c 4.544,0.004 9.032,-1.018 13.126,-2.99 4.094,-1.972 7.688,-4.843 10.515,-8.398 l 6.785,-8.526 -33.623,-9.3399 c -0.873,-0.241 -1.685,-0.6629 -2.384,-1.2382 -0.699,-0.5753 -1.269003,-1.2911 -1.673003,-2.101 -0.404,-0.8099 -0.633,-1.6957 -0.672,-2.5997 -0.038,-0.904 0.114,-1.8061 0.447,-2.6475 0.649,-1.5099 1.831003,-2.7284 3.322003,-3.423 1.49,-0.6946 3.185,-0.8167 4.76,-0.3429 l 42.127,11.81 24.124,6.8392 c 1.65,0.356 3.105,1.319 4.077,2.697 0.972,1.379 1.39,3.072 1.17,4.744 z"
     fill="#f6bc00"
     id="path7" />
</svg>
