<?xml version="1.0" encoding="UTF-8"?><svg id="a" xmlns="http://www.w3.org/2000/svg" xmlns:xlink="http://www.w3.org/1999/xlink" viewBox="0 0 640 380"><defs><style>.ht{fill:url(#j);}.hu{clip-path:url(#ct);}.hv{clip-path:url(#gb);}.hw{stroke-width:1.16px;}.hw,.hx,.hy,.hz,.ia,.ib,.ic,.id,.ie,.if,.ig{fill:none;}.hw,.ia{stroke:#2a3a44;}.ih{fill:url(#eq);}.hx{stroke-dasharray:0 0 0 0 0 0 0 8.91;}.hx,.hy,.hz,.ib,.ic,.ie,.if,.ig{stroke:#fab900;}.hx,.hy,.ib,.ic,.ie,.if{stroke-linecap:round;}.hx,.hy,.ib,.ic,.if{stroke-linejoin:round;}.hx,.hy,.ib,.ic,.if,.ig{stroke-width:4px;}.ii{fill:url(#ds);}.ij{clip-path:url(#hq);}.ik{clip-path:url(#go);}.il{fill:url(#am);}.im{clip-path:url(#dx);}.in{clip-path:url(#ai);}.io{clip-path:url(#fk);}.ip{fill:#fff;}.iq{fill:url(#dz);}.ir{fill:#2a3a44;}.is{fill:url(#dh);}.it{opacity:.65;}.hy{stroke-dasharray:0 0 0 0 0 0 0 .61;}.iu{clip-path:url(#bh);}.iv{clip-path:url(#cm);}.iw{clip-path:url(#es);}.ix{clip-path:url(#bd);}.iy{clip-path:url(#gd);}.iz{clip-path:url(#fp);}.ja{clip-path:url(#bk);}.jb{clip-path:url(#fm);}.jc{clip-path:url(#hr);}.jd{clip-path:url(#ft);}.je{clip-path:url(#t);}.jf{clip-path:url(#hp);}.jg{clip-path:url(#bf);}.jh{clip-path:url(#cz);}.ji{opacity:.5;}.jj{fill:url(#l);}.jk{clip-path:url(#ga);}.jl{clip-path:url(#ei);}.hz,.ia{stroke-width:1.08px;}.jm{clip-path:url(#bi);}.jn{fill:url(#at);}.jo{fill:url(#be);}.jp{clip-path:url(#bu);}.jq{fill:url(#af);}.jr{clip-path:url(#g);}.js{opacity:.24;}.jt{clip-path:url(#aq);}.ju{clip-path:url(#z);}.jv{clip-path:url(#ar);}.jw{fill:url(#ex);}.jx{clip-path:url(#fx);}.jy{clip-path:url(#hd);}.jz{clip-path:url(#cf);}.ka{clip-path:url(#dm);}.kb{clip-path:url(#gr);}.kc{fill:url(#dq);}.kd{clip-path:url(#ee);}.ke{clip-path:url(#bl);}.kf{clip-path:url(#gf);}.kg{clip-path:url(#r);}.kh{fill:url(#s);}.ki{clip-path:url(#dc);}.kj{clip-path:url(#p);}.kk{clip-path:url(#dw);}.kl{clip-path:url(#hn);}.km{fill:url(#eo);}.kn{clip-path:url(#gj);}.ko{clip-path:url(#ea);}.kp{clip-path:url(#aj);}.kq{clip-path:url(#fi);}.kr{fill:url(#ev);}.ks{clip-path:url(#cp);}.kt{fill:url(#fb);}.ku{clip-path:url(#az);}.kv{clip-path:url(#dk);}.kw{clip-path:url(#cx);}.kx{fill:url(#df);}.ky{clip-path:url(#ac);}.kz{clip-path:url(#bm);}.la{fill:url(#fj);}.lb{clip-path:url(#gc);}.lc{clip-path:url(#aa);}.ld{fill:url(#cu);}.le{clip-path:url(#v);}.lf{clip-path:url(#hm);}.lg{clip-path:url(#m);}.lh{clip-path:url(#x);}.li{clip-path:url(#i);}.lj{clip-path:url(#hs);}.lk{clip-path:url(#cg);}.ll{fill:url(#cl);}.lm{clip-path:url(#hi);}.ln{fill:url(#n);}.lo{clip-path:url(#ek);}.lp{clip-path:url(#he);}.lq{clip-path:url(#ap);}.lr{fill:url(#gk);}.ls{clip-path:url(#ey);}.lt{fill:url(#dd);}.lu{clip-path:url(#ck);}.lv{clip-path:url(#bq);}.lw{fill:url(#cn);}.lx{clip-path:url(#ho);}.ly{clip-path:url(#el);}.lz{fill:url(#ad);}.ma{clip-path:url(#fa);}.mb{clip-path:url(#fh);}.mc{clip-path:url(#ay);}.md{fill:url(#ez);}.me{clip-path:url(#eu);}.mf{fill:url(#bc);}.mg{fill:url(#fe);}.mh{clip-path:url(#ff);}.mi{clip-path:url(#dg);}.mj{clip-path:url(#f);}.mk{fill:url(#eb);}.ml{clip-path:url(#fz);}.mm{opacity:.35;}.mn{fill:url(#av);}.mo{clip-path:url(#dn);}.mp{fill:#fbeaa6;}.mq{clip-path:url(#as);}.mr{clip-path:url(#ch);}.ms{clip-path:url(#gs);}.mt{fill:url(#em);}.mu{opacity:.22;}.mv{clip-path:url(#ec);}.mw{opacity:.6;}.mx{clip-path:url(#ci);}.my{clip-path:url(#fy);}.mz{clip-path:url(#an);}.na{clip-path:url(#gx);}.nb{clip-path:url(#dt);}.nc{clip-path:url(#o);}.nd{clip-path:url(#fg);}.ne{clip-path:url(#dy);}.nf{fill:url(#br);}.ng{fill:url(#do);}.nh{fill:url(#cj);}.ni{fill:url(#by);}.nj{fill:url(#fq);}.nk{clip-path:url(#cr);}.nl{fill:url(#gu);}.nm{clip-path:url(#de);}.nn{clip-path:url(#gl);}.no{fill:url(#d);}.np{clip-path:url(#q);}.nq{clip-path:url(#dv);}.nr{clip-path:url(#hh);}.ns{clip-path:url(#k);}.nt{clip-path:url(#gm);}.nu{fill:#fab900;}.nv{clip-path:url(#dr);}.nw{fill:url(#bn);}.ic{stroke-dasharray:0 0 0 0 0 0 0 7.95;}.nx{clip-path:url(#bv);}.ny{fill:url(#cc);}.nz{clip-path:url(#db);}.oa{clip-path:url(#cq);}.ob{clip-path:url(#hc);}.oc{clip-path:url(#ew);}.od{fill:url(#bg);}.oe{fill:url(#bp);}.of{clip-path:url(#gp);}.og{clip-path:url(#gi);}.oh{clip-path:url(#fn);}.oi{fill:url(#u);}.oj{fill:url(#cy);}.ok{clip-path:url(#cd);}.ol{clip-path:url(#fv);}.om{fill:url(#ef);}.on{clip-path:url(#c);}.oo{clip-path:url(#bw);}.op{clip-path:url(#fs);}.oq{clip-path:url(#bs);}.or{clip-path:url(#bt);}.os{clip-path:url(#ep);}.ot{clip-path:url(#eg);}.ou{clip-path:url(#gz);}.ov{clip-path:url(#fd);}.ow{clip-path:url(#au);}.ox{clip-path:url(#ba);}.oy{clip-path:url(#hj);}.oz{clip-path:url(#bb);}.pa{clip-path:url(#fw);}.pb{clip-path:url(#cv);}.pc{fill:url(#ca);}.pd{clip-path:url(#en);}.pe{clip-path:url(#ae);}.pf{clip-path:url(#ej);}.pg{fill:url(#ge);}.ph{clip-path:url(#bo);}.pi{fill:url(#cw);}.pj{clip-path:url(#hg);}.pk{fill:url(#du);}.ie{stroke-width:7px;}.pl{clip-path:url(#ah);}.pm{fill:url(#w);}.pn{clip-path:url(#dp);}.po{clip-path:url(#fl);}.pp{clip-path:url(#gv);}.pq{fill:url(#ao);}.pr{opacity:.2;}.ps{clip-path:url(#hl);}.pt{fill:url(#ax);}.pu{clip-path:url(#co);}.pv{clip-path:url(#hb);}.pw{clip-path:url(#ag);}.px{clip-path:url(#er);}.py{clip-path:url(#aw);}.pz{clip-path:url(#et);}.qa{clip-path:url(#gy);}.qb{clip-path:url(#fu);}.qc{clip-path:url(#da);}.qd{clip-path:url(#bj);}.qe{clip-path:url(#h);}.qf{clip-path:url(#fr);}.qg{fill:url(#ab);}.qh{fill:url(#dj);}.qi{clip-path:url(#y);}.qj{clip-path:url(#gw);}.qk{clip-path:url(#cs);}.if{stroke-dasharray:0 0 0 0 0 0 0 8.32;}.ql{fill:url(#hf);}.qm{clip-path:url(#gh);}.qn{clip-path:url(#ce);}.qo{clip-path:url(#eh);}.qp{fill:url(#ha);}.qq{clip-path:url(#bz);}.qr{clip-path:url(#di);}.qs{opacity:.45;}.qt{clip-path:url(#gt);}.qu{clip-path:url(#bx);}.qv{opacity:.78;}.qw{fill:url(#gn);}.qx{clip-path:url(#gg);}.qy{clip-path:url(#al);}.qz{clip-path:url(#cb);}.ra{fill:url(#ak);}.rb{clip-path:url(#gq);}.rc{fill:url(#ed);}.rd{clip-path:url(#dl);}</style><clipPath id="c"><rect class="id" x=".24" y=".06" width="640.17" height="380"/></clipPath><radialGradient id="d" cx="1.3" cy="-1" fx="1.3" fy="-1" r="1" gradientTransform="translate(-453.52 -408.04) rotate(90) scale(459.34 773.82)" gradientUnits="userSpaceOnUse"><stop offset="0" stop-color="#ffeea4"/><stop offset=".13" stop-color="#ffeea4"/><stop offset=".45" stop-color="#fcd65d"/><stop offset=".76" stop-color="#fac11f"/><stop offset=".9" stop-color="#fab907"/><stop offset="1" stop-color="#fab907"/></radialGradient><clipPath id="f"><rect class="id" x="44.24" y="-52.91" width="576.56" height="506"/></clipPath><clipPath id="g"><rect class="id" x="44.24" y="-52.91" width="576.56" height="506"/></clipPath><clipPath id="h"><rect class="id" x="414.24" y="323.92" width="123.41" height="130.18"/></clipPath><clipPath id="i"><polygon class="id" points="423.24 422.35 475.95 453.1 475.95 392.01 423.24 360.86 423.24 422.35"/></clipPath><linearGradient id="j" x1=".62" y1="-1.02" x2="1.62" y2="-1.02" gradientTransform="translate(675.26 582.22) rotate(-90) scale(221.99)" gradientUnits="userSpaceOnUse"><stop offset="0" stop-color="#b9a44b"/><stop offset="1" stop-color="#f6cb3b"/></linearGradient><clipPath id="k"><polygon class="id" points="475.55 392.01 475.55 453.1 528.25 422.35 528.25 360.86 475.55 392.01"/></clipPath><linearGradient id="l" x1=".84" y1="-.68" x2="1.84" y2="-.68" gradientTransform="translate(256.73 570.98) scale(240.06)" gradientUnits="userSpaceOnUse"><stop offset="0" stop-color="#a58e2b"/><stop offset="1" stop-color="#f7d853"/></linearGradient><clipPath id="m"><polygon class="id" points="423.24 360.86 475.95 392.01 528.65 360.86 475.95 330.92 423.24 360.86"/></clipPath><linearGradient id="n" x1="1.14" y1="-.77" x2="2.14" y2="-.77" gradientTransform="translate(66.15 602.51) scale(312.24)" gradientUnits="userSpaceOnUse"><stop offset="0" stop-color="#f6bc06"/><stop offset="1" stop-color="#f7d853"/></linearGradient><clipPath id="o"><rect class="id" x="44.24" y="-52.91" width="576.56" height="506"/></clipPath><clipPath id="p"><rect class="id" x="44.24" y="-52.91" width="576.56" height="506"/></clipPath><clipPath id="q"><rect class="id" x="99.93" y="-11.53" width="96.31" height="98.77"/></clipPath><clipPath id="r"><polygon class="id" points="108.93 17.72 108.93 63.4 148.09 86.24 148.09 40.85 108.93 17.72"/></clipPath><linearGradient id="s" x1=".49" y1="-1.03" x2="1.49" y2="-1.03" gradientTransform="translate(299.11 160.61) rotate(-90) scale(164.91)" gradientUnits="userSpaceOnUse"><stop offset="0" stop-color="#b9a44b"/><stop offset="1" stop-color="#f6cb3b"/></linearGradient><clipPath id="t"><polygon class="id" points="147.79 40.85 147.79 86.24 186.94 63.4 186.94 17.72 147.79 40.85"/></clipPath><linearGradient id="u" x1=".78" y1="-.59" x2="1.78" y2="-.59" gradientTransform="translate(-4.69 157.82) scale(178.33)" gradientUnits="userSpaceOnUse"><stop offset="0" stop-color="#a58e2b"/><stop offset="1" stop-color="#f7d853"/></linearGradient><clipPath id="v"><polygon class="id" points="108.93 17.72 148.09 40.85 187.24 17.72 148.09 -4.53 108.93 17.72"/></clipPath><linearGradient id="w" x1="1.19" y1="-.69" x2="2.19" y2="-.69" gradientTransform="translate(-167.46 178.69) scale(231.96)" gradientUnits="userSpaceOnUse"><stop offset="0" stop-color="#f6bc06"/><stop offset="1" stop-color="#f7d853"/></linearGradient><clipPath id="x"><rect class="id" x="44.24" y="-52.91" width="576.56" height="506"/></clipPath><clipPath id="y"><rect class="id" x="44.24" y="-52.91" width="576.56" height="506"/></clipPath><clipPath id="z"><rect class="id" x="72.34" y="337.08" width="96.31" height="98.77"/></clipPath><clipPath id="aa"><polygon class="id" points="81.34 412 120.49 434.84 120.49 389.46 81.34 366.32 81.34 412"/></clipPath><linearGradient id="ab" x1=".49" y1="-1.03" x2="1.49" y2="-1.03" gradientTransform="translate(271.54 509.2) rotate(-90) scale(164.91)" gradientUnits="userSpaceOnUse"><stop offset="0" stop-color="#b9a44b"/><stop offset="1" stop-color="#f6cb3b"/></linearGradient><clipPath id="ac"><polygon class="id" points="120.2 389.46 120.2 434.84 120.2 434.84 159.35 412 159.35 366.32 120.2 389.46"/></clipPath><linearGradient id="ad" x1=".78" y1="-.59" x2="1.78" y2="-.59" gradientTransform="translate(-32.26 506.42) scale(178.33)" gradientUnits="userSpaceOnUse"><stop offset="0" stop-color="#a58e2b"/><stop offset="1" stop-color="#f7d853"/></linearGradient><clipPath id="ae"><polygon class="id" points="81.34 366.32 120.49 389.46 159.65 366.32 120.49 344.08 81.34 366.32"/></clipPath><linearGradient id="af" x1="1.19" y1="-.69" x2="2.19" y2="-.69" gradientTransform="translate(-195.06 527.3) scale(231.96)" gradientUnits="userSpaceOnUse"><stop offset="0" stop-color="#f6bc06"/><stop offset="1" stop-color="#f7d853"/></linearGradient><clipPath id="ag"><rect class="id" x="44.24" y="-52.91" width="576.56" height="506"/></clipPath><clipPath id="ah"><rect class="id" x="44.24" y="-52.91" width="576.56" height="506"/></clipPath><clipPath id="ai"><rect class="id" x="209.05" y="193.74" width="123.78" height="130.61"/></clipPath><clipPath id="aj"><polygon class="id" points="218.05 292.5 270.94 323.35 270.94 323.35 270.94 262.05 218.05 230.79 218.05 292.5"/></clipPath><linearGradient id="ak" x1=".62" y1="-1.03" x2="1.62" y2="-1.03" gradientTransform="translate(473.3 453.24) rotate(-90) scale(222.77)" gradientUnits="userSpaceOnUse"><stop offset="0" stop-color="#b9a44b"/><stop offset="1" stop-color="#f6cb3b"/></linearGradient><clipPath id="al"><polygon class="id" points="270.54 262.05 270.54 323.35 270.54 323.35 323.43 292.5 323.43 230.79 270.54 262.05"/></clipPath><linearGradient id="am" x1=".84" y1="-.68" x2="1.84" y2="-.68" gradientTransform="translate(50.82 441.99) scale(240.91)" gradientUnits="userSpaceOnUse"><stop offset="0" stop-color="#a58e2b"/><stop offset="1" stop-color="#f7d853"/></linearGradient><clipPath id="an"><polygon class="id" points="218.05 230.79 270.94 262.05 323.84 230.79 270.94 200.74 218.05 230.79"/></clipPath><linearGradient id="ao" x1="1.14" y1="-.77" x2="2.14" y2="-.77" gradientTransform="translate(-140.15 471.93) scale(313.35)" gradientUnits="userSpaceOnUse"><stop offset="0" stop-color="#f6bc06"/><stop offset="1" stop-color="#f7d853"/></linearGradient><clipPath id="ap"><rect class="id" x="44.24" y="-52.91" width="576.56" height="506"/></clipPath><clipPath id="aq"><rect class="id" x="44.24" y="-52.91" width="576.56" height="506"/></clipPath><clipPath id="ar"><rect class="id" x="35.24" y="298.64" width="139.26" height="148.56"/></clipPath><clipPath id="as"><polygon class="id" points="44.24 410.83 104.87 446.2 104.87 375.92 44.24 340.09 44.24 410.83"/></clipPath><linearGradient id="at" x1=".67" y1="-1.01" x2="1.67" y2="-1.01" gradientTransform="translate(333.26 607.39) rotate(-90) scale(255.38)" gradientUnits="userSpaceOnUse"><stop offset="0" stop-color="#b9a44b"/><stop offset="1" stop-color="#f6cb3b"/></linearGradient><clipPath id="au"><polygon class="id" points="104.41 375.92 104.41 446.2 165.05 410.83 165.05 340.09 104.41 375.92"/></clipPath><linearGradient id="av" x1=".86" y1="-.73" x2="1.86" y2="-.73" gradientTransform="translate(-153.2 595.87) scale(276.16)" gradientUnits="userSpaceOnUse"><stop offset="0" stop-color="#a58e2b"/><stop offset="1" stop-color="#f7d853"/></linearGradient><clipPath id="aw"><polygon class="id" points="44.24 340.09 104.87 375.92 165.5 340.09 104.87 305.64 44.24 340.09"/></clipPath><linearGradient id="ax" x1="1.12" y1="-.8" x2="2.12" y2="-.8" gradientTransform="translate(-360.06 626.69) scale(359.21)" gradientUnits="userSpaceOnUse"><stop offset="0" stop-color="#f6bc06"/><stop offset="1" stop-color="#f7d853"/></linearGradient><clipPath id="ay"><rect class="id" x="44.24" y="-52.91" width="576.56" height="506"/></clipPath><clipPath id="az"><rect class="id" x="44.24" y="-52.91" width="576.56" height="506"/></clipPath><clipPath id="ba"><rect class="id" x="177.24" y="238.47" width="181.81" height="197.87"/></clipPath><clipPath id="bb"><polygon class="id" points="186.24 387.56 268.15 435.34 268.15 340.41 186.24 292.01 186.24 387.56"/></clipPath><linearGradient id="bc" x1=".76" y1="-1.01" x2="1.76" y2="-1.01" gradientTransform="translate(575.87 682.54) rotate(-90) scale(344.98)" gradientUnits="userSpaceOnUse"><stop offset="0" stop-color="#b9a44b"/><stop offset="1" stop-color="#f6cb3b"/></linearGradient><clipPath id="bd"><polygon class="id" points="267.53 340.41 267.53 435.34 267.53 435.34 349.43 387.56 349.43 292.01 267.53 340.41"/></clipPath><linearGradient id="be" x1=".89" y1="-.8" x2="1.89" y2="-.8" gradientTransform="translate(-94.23 661.27) scale(373.06)" gradientUnits="userSpaceOnUse"><stop offset="0" stop-color="#a58e2b"/><stop offset="1" stop-color="#f7d853"/></linearGradient><clipPath id="bf"><polygon class="id" points="186.24 292.01 268.15 340.41 350.05 292.01 268.15 245.47 186.24 292.01"/></clipPath><linearGradient id="bg" x1="1.09" y1="-.85" x2="2.09" y2="-.85" gradientTransform="translate(-344.74 705.54) scale(485.24)" gradientUnits="userSpaceOnUse"><stop offset="0" stop-color="#f6bc06"/><stop offset="1" stop-color="#f7d853"/></linearGradient><clipPath id="bh"><rect class="id" x="44.24" y="-52.91" width="576.56" height="506"/></clipPath><clipPath id="bi"><rect class="id" x="44.24" y="-52.91" width="576.56" height="506"/></clipPath><clipPath id="bj"><rect class="id" x="440.03" y="258.47" width="74.77" height="73.8"/></clipPath><clipPath id="bk"><rect class="id" x="449.03" y="265.47" width="56.77" height="65.8"/></clipPath><clipPath id="bl"><rect class="id" x="449.03" y="265.47" width="56.77" height="65.8"/></clipPath><clipPath id="bm"><polygon class="id" points="449.03 281.6 449.03 314.71 477.42 331.27 477.42 298.37 449.03 281.6"/></clipPath><linearGradient id="bn" x1=".64" y1="-1.02" x2="1.64" y2="-1.02" gradientTransform="translate(698.6 473.47) rotate(-90) scale(230.88)" gradientUnits="userSpaceOnUse"><stop offset="0" stop-color="#b9a44b"/><stop offset="1" stop-color="#f6cb3b"/></linearGradient><clipPath id="bo"><polygon class="id" points="477.2 298.37 477.2 331.27 477.2 331.27 505.59 314.71 505.59 281.6 477.2 298.37"/></clipPath><linearGradient id="bp" x1=".84" y1="-.7" x2="1.84" y2="-.7" gradientTransform="translate(257.07 481.66) scale(249.67)" gradientUnits="userSpaceOnUse"><stop offset="0" stop-color="#a58e2b"/><stop offset="1" stop-color="#f7d853"/></linearGradient><clipPath id="bq"><polygon class="id" points="449.03 281.6 477.42 298.37 505.8 281.6 477.42 265.47 449.03 281.6"/></clipPath><linearGradient id="br" x1="1.13" y1="-.78" x2="2.13" y2="-.78" gradientTransform="translate(80.25 535.03) scale(324.75)" gradientUnits="userSpaceOnUse"><stop offset="0" stop-color="#f6bc06"/><stop offset="1" stop-color="#f7d853"/></linearGradient><clipPath id="bs"><rect class="id" x="44.24" y="-52.91" width="576.56" height="506"/></clipPath><clipPath id="bt"><rect class="id" x="44.24" y="-52.91" width="576.56" height="506"/></clipPath><clipPath id="bu"><rect class="id" x="546.24" y="309.47" width="83.56" height="83.99"/></clipPath><clipPath id="bv"><rect class="id" x="555.24" y="316.47" width="65.56" height="75.99"/></clipPath><clipPath id="bw"><rect class="id" x="555.24" y="316.47" width="65.56" height="75.99"/></clipPath><clipPath id="bx"><polygon class="id" points="555.24 373.34 588.02 392.46 588.02 354.46 555.24 335.09 555.24 373.34"/></clipPath><linearGradient id="by" x1=".69" y1="-1.02" x2="1.69" y2="-1.02" gradientTransform="translate(843.77 569.64) rotate(-90) scale(266.63)" gradientUnits="userSpaceOnUse"><stop offset="0" stop-color="#b9a44b"/><stop offset="1" stop-color="#f6cb3b"/></linearGradient><clipPath id="bz"><polygon class="id" points="587.77 354.46 587.77 392.46 620.55 373.34 620.55 335.09 587.77 354.46"/></clipPath><linearGradient id="ca" x1=".86" y1="-.75" x2="1.86" y2="-.75" gradientTransform="translate(327.47 578.66) scale(288.33)" gradientUnits="userSpaceOnUse"><stop offset="0" stop-color="#a58e2b"/><stop offset="1" stop-color="#f7d853"/></linearGradient><clipPath id="cb"><polygon class="id" points="555.24 335.09 588.02 354.46 620.8 335.09 588.02 316.47 555.24 335.09"/></clipPath><linearGradient id="cc" x1="1.12" y1="-.81" x2="2.12" y2="-.81" gradientTransform="translate(136.05 638.61) scale(375.04)" gradientUnits="userSpaceOnUse"><stop offset="0" stop-color="#f6bc06"/><stop offset="1" stop-color="#f7d853"/></linearGradient><clipPath id="cd"><rect class="id" x="44.24" y="-52.91" width="576.56" height="506"/></clipPath><clipPath id="ce"><rect class="id" x="44.24" y="-52.91" width="576.56" height="506"/></clipPath><clipPath id="cf"><rect class="id" x="364.46" y="250.47" width="83.56" height="83.99"/></clipPath><clipPath id="cg"><rect class="id" x="373.46" y="257.47" width="65.56" height="75.99"/></clipPath><clipPath id="ch"><rect class="id" x="373.46" y="257.47" width="65.56" height="75.99"/></clipPath><clipPath id="ci"><polygon class="id" points="373.46 276.09 373.46 314.34 406.24 333.46 406.24 295.46 373.46 276.09 373.46 276.09"/></clipPath><linearGradient id="cj" x1=".69" y1="-1.02" x2="1.69" y2="-1.02" gradientTransform="translate(662 510.68) rotate(-90) scale(266.63)" gradientUnits="userSpaceOnUse"><stop offset="0" stop-color="#b9a44b"/><stop offset="1" stop-color="#f6cb3b"/></linearGradient><clipPath id="ck"><polygon class="id" points="405.99 295.46 405.99 333.46 438.77 314.34 438.77 276.09 405.99 295.46"/></clipPath><linearGradient id="cl" x1=".86" y1="-.75" x2="1.86" y2="-.75" gradientTransform="translate(145.67 519.67) scale(288.33)" gradientUnits="userSpaceOnUse"><stop offset="0" stop-color="#a58e2b"/><stop offset="1" stop-color="#f7d853"/></linearGradient><clipPath id="cm"><polygon class="id" points="373.46 276.09 406.24 295.46 439.02 276.09 406.24 257.47 373.46 276.09"/></clipPath><linearGradient id="cn" x1="1.12" y1="-.81" x2="2.12" y2="-.81" gradientTransform="translate(-45.73 579.61) scale(375.04)" gradientUnits="userSpaceOnUse"><stop offset="0" stop-color="#f6bc06"/><stop offset="1" stop-color="#f7d853"/></linearGradient><clipPath id="co"><rect class="id" x="44.24" y="-52.91" width="576.56" height="506"/></clipPath><clipPath id="cp"><rect class="id" x="44.24" y="-52.91" width="576.56" height="506"/></clipPath><clipPath id="cq"><rect class="id" x="39.07" y="4.6" width="112.17" height="117.16"/></clipPath><clipPath id="cr"><rect class="id" x="48.07" y="11.6" width="94.17" height="109.16"/></clipPath><clipPath id="cs"><rect class="id" x="48.07" y="11.6" width="94.17" height="109.16"/></clipPath><clipPath id="ct"><polygon class="id" points="48.07 93.28 95.15 120.75 95.15 66.17 48.07 38.35 48.07 93.28"/></clipPath><linearGradient id="cu" x1=".78" y1="-1.02" x2="1.78" y2="-1.02" gradientTransform="translate(460.66 412.05) rotate(-90) scale(383)" gradientUnits="userSpaceOnUse"><stop offset="0" stop-color="#b9a44b"/><stop offset="1" stop-color="#f6cb3b"/></linearGradient><clipPath id="cv"><polygon class="id" points="94.8 66.17 94.8 120.75 94.8 120.75 141.88 93.28 141.88 38.35 94.8 66.17"/></clipPath><linearGradient id="cw" x1=".91" y1="-.82" x2="1.91" y2="-.82" gradientTransform="translate(-296.22 417.79) scale(414.18)" gradientUnits="userSpaceOnUse"><stop offset="0" stop-color="#a58e2b"/><stop offset="1" stop-color="#f7d853"/></linearGradient><clipPath id="cx"><polygon class="id" points="48.07 38.35 95.15 66.17 142.24 38.35 95.15 11.6 48.07 38.35"/></clipPath><linearGradient id="cy" x1="1.08" y1="-.86" x2="2.08" y2="-.86" gradientTransform="translate(-535.21 504.7) scale(538.73)" gradientUnits="userSpaceOnUse"><stop offset="0" stop-color="#f6bc06"/><stop offset="1" stop-color="#f7d853"/></linearGradient><clipPath id="cz"><rect class="id" x="44.24" y="-52.91" width="576.56" height="506"/></clipPath><clipPath id="da"><rect class="id" x="44.24" y="-52.91" width="576.56" height="506"/></clipPath><clipPath id="db"><rect class="id" x="370.24" y="-59.91" width="138.79" height="149.38"/></clipPath><clipPath id="dc"><polygon class="id" points="379.24 -18.59 379.24 52.1 439.63 87.78 500.03 52.1 500.03 -18.59 439.63 -52.91 379.24 -18.59"/></clipPath><linearGradient id="dd" x1=".71" y1="-.96" x2="1.71" y2="-.96" gradientTransform="translate(716.94 263.84) rotate(-90) scale(288.04)" xlink:href="#ax"/><clipPath id="de"><polygon class="id" points="379.24 -17.91 379.24 52.78 439.63 88.47 439.63 18.47 379.24 -17.91"/></clipPath><linearGradient id="df" x1=".71" y1="-.96" x2="1.71" y2="-.96" gradientTransform="translate(686.33 277.61) rotate(-90) scale(288.04)" xlink:href="#at"/><clipPath id="dg"><polygon class="id" points="439.63 18.47 439.63 88.47 500.03 52.78 500.03 -17.91 439.63 18.47"/></clipPath><linearGradient id="dh" x1="1.12" y1="-1.26" x2="2.12" y2="-1.26" gradientTransform="translate(834.08 -336.25) rotate(-180) scale(293.99)" xlink:href="#at"/><clipPath id="di"><polygon class="id" points="379.24 -17.91 439.63 17.78 500.03 -17.91 439.63 -52.22 379.24 -17.91"/></clipPath><linearGradient id="dj" x1="1.42" y1="-1.26" x2="2.42" y2="-1.26" gradientTransform="translate(706.4 -233.54) rotate(-180) scale(172.06)" xlink:href="#ax"/><clipPath id="dk"><rect class="id" x="44.24" y="-52.91" width="576.56" height="506"/></clipPath><clipPath id="dl"><rect class="id" x="44.24" y="-52.91" width="576.56" height="506"/></clipPath><clipPath id="dm"><rect class="id" x="427.79" y="295.89" width="96.31" height="99.66"/></clipPath><clipPath id="dn"><polygon class="id" points="436.79 325.14 436.79 370.97 475.95 394.1 515.1 370.97 515.1 325.14 475.95 302.89 436.79 325.14"/></clipPath><linearGradient id="do" x1=".55" y1="-.94" x2="1.55" y2="-.94" gradientTransform="translate(651.7 478.95) rotate(-90) scale(186.75)" gradientUnits="userSpaceOnUse"><stop offset="0" stop-color="#2c353f"/><stop offset="1" stop-color="#334048"/></linearGradient><clipPath id="dp"><polygon class="id" points="436.79 371.41 475.95 394.55 475.95 349.16 436.79 325.58 436.79 371.41"/></clipPath><linearGradient id="dq" x1=".55" y1="-.94" x2="1.55" y2="-.94" gradientTransform="translate(631.86 487.87) rotate(-90) scale(186.75)" xlink:href="#at"/><clipPath id="dr"><polygon class="id" points="475.95 349.16 475.95 394.55 515.1 371.41 515.1 325.58 475.95 349.16"/></clipPath><linearGradient id="ds" x1="1.18" y1="-1.4" x2="2.18" y2="-1.4" gradientTransform="translate(743.93 93.53) rotate(-180) scale(190.61)" xlink:href="#at"/><clipPath id="dt"><polygon class="id" points="436.79 325.58 475.95 348.72 515.1 325.58 475.95 303.33 436.79 325.58"/></clipPath><linearGradient id="du" x1="1.64" y1="-1.41" x2="2.64" y2="-1.41" gradientTransform="translate(674.04 168.69) rotate(-180) scale(111.55)" gradientUnits="userSpaceOnUse"><stop offset="0" stop-color="#2c353f"/><stop offset="1" stop-color="#334048"/></linearGradient><clipPath id="dv"><rect class="id" x="44.24" y="-52.91" width="576.56" height="506"/></clipPath><clipPath id="dw"><rect class="id" x="44.24" y="-52.91" width="576.56" height="506"/></clipPath><clipPath id="dx"><rect class="id" x="72.34" y="240.47" width="65.66" height="63.78"/></clipPath><clipPath id="dy"><polygon class="id" points="81.34 261.01 81.34 288.9 105.17 302.98 129 288.9 129 261.01 105.17 247.47 81.34 261.01"/></clipPath><linearGradient id="dz" x1=".27" y1="-.9" x2="1.27" y2="-.9" gradientTransform="translate(207.13 321.95) rotate(-90) scale(113.65)" xlink:href="#ax"/><clipPath id="ea"><polygon class="id" points="81.34 289.17 105.17 303.25 105.17 275.63 81.34 261.28 81.34 289.17"/></clipPath><linearGradient id="eb" x1=".27" y1="-.9" x2="1.27" y2="-.9" gradientTransform="translate(195.04 327.37) rotate(-90) scale(113.65)" xlink:href="#at"/><clipPath id="ec"><polygon class="id" points="105.17 275.63 105.17 303.25 129 289.17 129 261.28 105.17 275.63"/></clipPath><linearGradient id="ed" x1="1.3" y1="-1.64" x2="2.3" y2="-1.64" gradientTransform="translate(281.9 91.43) rotate(-180) scale(116)" xlink:href="#at"/><clipPath id="ee"><polygon class="id" points="81.34 261.28 105.17 275.36 129 261.28 105.17 247.74 81.34 261.28"/></clipPath><linearGradient id="ef" x1="2.05" y1="-1.63" x2="3.05" y2="-1.63" gradientTransform="translate(253.69 150.68) rotate(-180) scale(67.89)" xlink:href="#ax"/><clipPath id="eg"><rect class="id" x="44.24" y="-52.91" width="576.56" height="506"/></clipPath><clipPath id="eh"><rect class="id" x="44.24" y="-52.91" width="576.56" height="506"/></clipPath><clipPath id="ei"><rect class="id" x="402.6" y="-22.62" width="75.63" height="74.8"/></clipPath><clipPath id="ej"><rect class="id" x="411.6" y="-15.62" width="57.63" height="66.8"/></clipPath><clipPath id="ek"><rect class="id" x="411.6" y="-15.62" width="57.63" height="66.8"/></clipPath><clipPath id="el"><polygon class="id" points="411.6 .75 411.6 34.37 440.41 51.18 440.41 51.18 440.41 17.78 411.6 .75"/></clipPath><linearGradient id="em" x1=".64" y1="-1.03" x2="1.64" y2="-1.03" gradientTransform="translate(666.96 196.86) rotate(-90) scale(234.39)" gradientUnits="userSpaceOnUse"><stop offset="0" stop-color="#b9a44b"/><stop offset="1" stop-color="#f6cb3b"/></linearGradient><clipPath id="en"><polygon class="id" points="440.2 17.78 440.2 51.18 469.01 34.37 469.01 .75 440.2 17.78"/></clipPath><linearGradient id="eo" x1=".85" y1="-.71" x2="1.85" y2="-.71" gradientTransform="translate(216.08 205.62) scale(253.47)" gradientUnits="userSpaceOnUse"><stop offset="0" stop-color="#a58e2b"/><stop offset="1" stop-color="#f7d853"/></linearGradient><clipPath id="ep"><polygon class="id" points="411.6 .75 440.41 17.78 469.23 .75 440.41 -15.62 411.6 .75"/></clipPath><linearGradient id="eq" x1="1.13" y1="-.78" x2="2.13" y2="-.78" gradientTransform="translate(37.86 257.14) scale(329.7)" gradientUnits="userSpaceOnUse"><stop offset="0" stop-color="#f6bc06"/><stop offset="1" stop-color="#f7d853"/></linearGradient><clipPath id="er"><rect class="id" x="44.24" y="-52.91" width="576.56" height="506"/></clipPath><clipPath id="es"><rect class="id" x="44.24" y="-52.91" width="576.56" height="506"/></clipPath><clipPath id="et"><rect class="id" x="225.24" y="106.47" width="76.81" height="76.84"/></clipPath><clipPath id="eu"><polygon class="id" points="234.24 130.18 234.24 164.6 263.65 181.97 293.05 164.6 293.05 130.18 263.65 113.47 234.24 130.18"/></clipPath><linearGradient id="ev" x1=".41" y1="-.94" x2="1.41" y2="-.94" gradientTransform="translate(394.89 224.92) rotate(-90) scale(140.25)" gradientUnits="userSpaceOnUse"><stop offset="0" stop-color="#2c353f"/><stop offset="1" stop-color="#334048"/></linearGradient><clipPath id="ew"><polygon class="id" points="234.24 130.51 234.24 164.93 263.65 182.31 263.65 148.22 234.24 130.51"/></clipPath><linearGradient id="ex" x1=".41" y1="-.93" x2="1.41" y2="-.93" gradientTransform="translate(379.99 231.6) rotate(-90) scale(140.25)" gradientUnits="userSpaceOnUse"><stop offset="0" stop-color="#2c353f"/><stop offset="1" stop-color="#334048"/></linearGradient><clipPath id="ey"><polygon class="id" points="263.65 148.22 263.65 182.31 293.05 164.93 293.05 130.51 263.65 148.22"/></clipPath><linearGradient id="ez" x1="1.24" y1="-1.54" x2="2.24" y2="-1.54" gradientTransform="translate(473.59 -64.24) rotate(-180) scale(143.15)" gradientUnits="userSpaceOnUse"><stop offset="0" stop-color="#2c353f"/><stop offset="1" stop-color="#334048"/></linearGradient><clipPath id="fa"><polygon class="id" points="234.24 130.51 263.65 147.89 293.05 130.51 263.65 113.8 234.24 130.51"/></clipPath><linearGradient id="fb" x1="1.85" y1="-1.53" x2="2.85" y2="-1.53" gradientTransform="translate(430.2 2.67) rotate(-180) scale(83.78)" gradientUnits="userSpaceOnUse"><stop offset="0" stop-color="#2c353f"/><stop offset="1" stop-color="#334048"/></linearGradient><clipPath id="fd"><rect class="id" x="205.31" y="12.06" width="421.03" height="64.61" rx="10.95" ry="10.95"/></clipPath><linearGradient id="fe" x1="1.03" y1="-1.11" x2="2.03" y2="-1.11" gradientTransform="translate(-229.03 509.77) scale(421.03)" gradientUnits="userSpaceOnUse"><stop offset="0" stop-color="#9b9b9b"/><stop offset=".11" stop-color="#dcdcdc"/><stop offset=".9" stop-color="#dcdcdc"/><stop offset="1" stop-color="#f0f0f0"/></linearGradient><clipPath id="ff"><rect class="id" x="14.31" y="12.06" width="612.03" height="356"/></clipPath><clipPath id="fg"><rect class="id" x="14.31" y="12.06" width="612.03" height="356"/></clipPath><clipPath id="fh"><rect class="id" x="14.31" y="12.06" width="612.03" height="356"/></clipPath><clipPath id="fi"><rect class="id" x="14.31" y="81.06" width="154" height="64.62" rx="10.95" ry="10.95"/></clipPath><linearGradient id="fj" x1="1.09" y1="-1.29" x2="2.09" y2="-1.29" gradientTransform="translate(-153 312.61) scale(154)" gradientUnits="userSpaceOnUse"><stop offset="0" stop-color="#9b9b9b"/><stop offset=".11" stop-color="#dcdcdc"/><stop offset=".9" stop-color="#dcdcdc"/><stop offset="1" stop-color="#f0f0f0"/></linearGradient><clipPath id="fk"><rect class="id" x="14.31" y="12.06" width="612.03" height="356"/></clipPath><clipPath id="fl"><rect class="id" x="14.31" y="12.06" width="612.03" height="356"/></clipPath><clipPath id="fm"><rect class="id" x="14.31" y="12.06" width="612.03" height="356"/></clipPath><clipPath id="fn"><rect class="id" x="218.31" y="26.13" width="147.48" height="31.55"/></clipPath><clipPath id="fp"><rect class="id" x="238.22" y="78.69" width="381" height="134.15" rx="10.2" ry="10.2"/></clipPath><linearGradient id="fq" x1="1.05" y1="-1.27" x2="2.05" y2="-1.27" gradientTransform="translate(-162.5 630.08) scale(381)" gradientUnits="userSpaceOnUse"><stop offset="0" stop-color="#282814"/><stop offset=".11" stop-color="#555f69"/><stop offset=".9" stop-color="#555f69"/><stop offset="1" stop-color="#aaafb4"/></linearGradient><clipPath id="fr"><rect class="id" x="20.72" y="36.51" width="631.5" height="308.18"/></clipPath><clipPath id="fs"><rect class="id" x="20.72" y="36.51" width="631.5" height="308.18"/></clipPath><clipPath id="ft"><rect class="id" x="20.72" y="36.51" width="631.5" height="308.18"/></clipPath><clipPath id="fu"><rect class="id" x="20.72" y="36.51" width="631.5" height="308.18"/></clipPath><clipPath id="fv"><rect class="id" x="20.72" y="36.51" width="631.5" height="308.18"/></clipPath><clipPath id="fw"><rect class="id" x="20.72" y="36.51" width="631.5" height="308.18"/></clipPath><clipPath id="fx"><rect class="id" x="20.72" y="36.51" width="631.5" height="308.18"/></clipPath><clipPath id="fy"><rect class="id" x="20.72" y="36.51" width="631.5" height="308.18"/></clipPath><clipPath id="fz"><rect class="id" x="20.72" y="36.51" width="631.5" height="308.18"/></clipPath><clipPath id="ga"><rect class="id" x="20.72" y="36.51" width="631.5" height="308.18"/></clipPath><clipPath id="gb"><rect class="id" x="20.72" y="36.51" width="631.5" height="308.18"/></clipPath><clipPath id="gc"><rect class="id" x="233.85" y="68.69" width="130" height="103"/></clipPath><clipPath id="gd"><rect class="id" x="258.85" y="87.69" width="80" height="46.11" rx="10.2" ry="10.2"/></clipPath><linearGradient id="ge" x1="1.25" y1="-1.74" x2="2.25" y2="-1.74" gradientTransform="translate(159.13 250.1) scale(80)" gradientUnits="userSpaceOnUse"><stop offset="0" stop-color="#fa8700"/><stop offset=".11" stop-color="#fab900"/><stop offset=".9" stop-color="#fab900"/><stop offset="1" stop-color="#ffe6a0"/></linearGradient><clipPath id="gf"><rect class="id" x="20.72" y="36.51" width="631.5" height="308.18"/></clipPath><clipPath id="gg"><rect class="id" x="20.72" y="36.51" width="631.5" height="308.18"/></clipPath><clipPath id="gh"><rect class="id" x="20.72" y="36.51" width="631.5" height="308.18"/></clipPath><clipPath id="gi"><rect class="id" x="233.85" y="220.69" width="130" height="103"/></clipPath><clipPath id="gj"><rect class="id" x="258.85" y="239.69" width="80" height="46.11" rx="10.2" ry="10.2"/></clipPath><linearGradient id="gk" x1="1.25" y1="-1.74" x2="2.25" y2="-1.74" gradientTransform="translate(159.13 402.1) scale(80)" gradientUnits="userSpaceOnUse"><stop offset="0" stop-color="#fa8700"/><stop offset=".11" stop-color="#fab900"/><stop offset=".9" stop-color="#fab900"/><stop offset="1" stop-color="#ffe6a0"/></linearGradient><clipPath id="gl"><rect class="id" x="20.72" y="36.51" width="631.5" height="308.18"/></clipPath><clipPath id="gm"><path class="id" d="m338.48,199.05c0,16.77,13.42,30.36,29.98,30.36s29.98-13.59,29.98-30.36-13.42-30.36-29.98-30.36-29.98,13.59-29.98,30.36"/></clipPath><linearGradient id="gn" x1="1.33" y1="-2.14" x2="2.33" y2="-2.14" gradientTransform="translate(258.8 327.14) scale(59.96)" gradientUnits="userSpaceOnUse"><stop offset="0" stop-color="#fa8700"/><stop offset=".35" stop-color="#fab900"/><stop offset=".68" stop-color="#fab900"/><stop offset="1" stop-color="#ffe6a0"/></linearGradient><clipPath id="go"><rect class="id" x="20.72" y="36.51" width="631.5" height="308.18"/></clipPath><clipPath id="gp"><rect class="id" x="20.72" y="36.51" width="631.5" height="308.18"/></clipPath><clipPath id="gq"><rect class="id" x="20.72" y="36.51" width="631.5" height="308.18"/></clipPath><clipPath id="gr"><rect class="id" x="20.72" y="36.51" width="631.5" height="308.18"/></clipPath><clipPath id="gs"><rect class="id" x="20.72" y="36.51" width="631.5" height="308.18"/></clipPath><clipPath id="gt"><path class="id" d="m425.42,162.69h49.6c5.63,0,10.2,4.57,10.2,10.2v25.71c0,5.63-4.57,10.2-10.2,10.2h-49.6c-5.63,0-10.2-4.57-10.2-10.2v-25.71c0-5.63,4.57-10.2,10.2-10.2h0Z"/></clipPath><linearGradient id="gu" x1="1.28" y1="-1.85" x2="2.28" y2="-1.85" gradientTransform="translate(325.5 315.1) scale(70)" gradientUnits="userSpaceOnUse"><stop offset="0" stop-color="#fa8700"/><stop offset=".11" stop-color="#fab900"/><stop offset=".9" stop-color="#fab900"/><stop offset="1" stop-color="#ffe6a0"/></linearGradient><clipPath id="gv"><rect class="id" x="20.72" y="36.51" width="631.5" height="308.18"/></clipPath><clipPath id="gw"><rect class="id" x="20.72" y="36.51" width="631.5" height="308.18"/></clipPath><clipPath id="gx"><rect class="id" x="20.72" y="36.51" width="631.5" height="308.18"/></clipPath><clipPath id="gy"><rect class="id" x="20.72" y="36.51" width="631.5" height="308.18"/></clipPath><clipPath id="gz"><path class="id" d="m527.42,147.69h56.6c5.63,0,10.2,4.57,10.2,10.2v25.71c0,5.63-4.57,10.2-10.2,10.2h-56.6c-5.63,0-10.2-4.57-10.2-10.2v-25.71c0-5.63,4.57-10.2,10.2-10.2h0Z"/></clipPath><linearGradient id="ha" x1="1.26" y1="-1.77" x2="2.26" y2="-1.77" gradientTransform="translate(420.5 307.09) scale(77)" gradientUnits="userSpaceOnUse"><stop offset="0" stop-color="#fa8700"/><stop offset=".11" stop-color="#fab900"/><stop offset=".9" stop-color="#fab900"/><stop offset="1" stop-color="#ffe6a0"/></linearGradient><clipPath id="hb"><rect class="id" x="20.72" y="36.51" width="631.5" height="308.18"/></clipPath><clipPath id="hc"><rect class="id" x="20.72" y="36.51" width="631.5" height="308.18"/></clipPath><clipPath id="hd"><rect class="id" x="20.72" y="36.51" width="631.5" height="308.18"/></clipPath><clipPath id="he"><path class="id" d="m56.42,162.69h60.6c5.63,0,10.2,4.57,10.2,10.2v25.71c0,5.63-4.57,10.2-10.2,10.2h-60.6c-5.63,0-10.2-4.57-10.2-10.2v-25.71c0-5.63,4.57-10.2,10.2-10.2h0Z"/></clipPath><linearGradient id="hf" x1="1.24" y1="-1.73" x2="2.24" y2="-1.73" gradientTransform="translate(-54.5 326.09) scale(81)" gradientUnits="userSpaceOnUse"><stop offset="0" stop-color="#fa8700"/><stop offset=".11" stop-color="#fab900"/><stop offset=".9" stop-color="#fab900"/><stop offset="1" stop-color="#ffe6a0"/></linearGradient><clipPath id="hg"><rect class="id" x="20.72" y="36.51" width="631.5" height="308.18"/></clipPath><clipPath id="hh"><rect class="id" x="20.72" y="36.51" width="631.5" height="308.18"/></clipPath><clipPath id="hi"><rect class="id" x="20.72" y="36.51" width="631.5" height="308.18"/></clipPath><clipPath id="hj"><rect class="id" x="20.72" y="36.51" width="631.5" height="308.18"/></clipPath><clipPath id="hl"><rect class="id" x="127.65" y="170.74" width="186.1" height="69.7"/></clipPath><clipPath id="hm"><rect class="id" x="127.65" y="170.74" width="186.1" height="69.7"/></clipPath><clipPath id="hn"><rect class="id" x="127.65" y="170.74" width="186.1" height="69.7"/></clipPath><clipPath id="ho"><rect class="id" x="127.65" y="170.74" width="186.1" height="69.7"/></clipPath><clipPath id="hp"><rect class="id" x="128.65" y="178.59" width="140" height="49"/></clipPath><clipPath id="hq"><rect class="id" x="127.65" y="170.74" width="186.1" height="69.7"/></clipPath><clipPath id="hr"><rect class="id" x="127.65" y="170.74" width="186.1" height="69.7"/></clipPath><clipPath id="hs"><rect class="id" x="110.65" y="165.59" width="222.1" height="75.85"/></clipPath></defs><g id="b"><g class="on"><rect class="no" x=".24" y=".06" width="640.17" height="380"/></g></g><g id="e"><g class="mj"><g class="jr"><g class="ji"><g class="qe"><g><g class="li"><rect class="ht" x="401.72" y="354.01" width="95.74" height="105.85" transform="translate(-151.53 327.06) rotate(-34.58)"/></g><g class="ns"><rect class="jj" x="448.79" y="360.5" width="106.19" height="92.9" transform="translate(-106.35 625.01) rotate(-58.76)"/></g><g class="lg"><rect class="ln" x="423.24" y="330.92" width="105.41" height="61.09"/></g></g></g></g></g></g><g class="nc"><g class="kj"><g class="ji"><g class="np"><g><g class="kg"><rect class="kh" x="92.95" y="12.65" width="71.12" height="78.64" transform="translate(-6.79 82.12) rotate(-34.58)"/></g><g class="je"><rect class="oi" x="127.92" y="17.46" width="78.89" height="69.02" transform="translate(36.13 168.11) rotate(-58.76)"/></g><g class="le"><rect class="pm" x="108.93" y="-4.53" width="78.31" height="45.38"/></g></g></g></g></g></g><g class="lh"><g class="qi"><g class="ji"><g class="ju"><g><g class="lc"><rect class="qg" x="65.38" y="361.24" width="71.12" height="78.64" transform="translate(-209.51 128.05) rotate(-34.58)"/></g><g class="ky"><rect class="lz" x="100.34" y="366.06" width="78.89" height="69.02" transform="translate(-275.2 312.34) rotate(-58.76)"/></g><g class="pe"><rect class="jq" x="81.34" y="344.08" width="78.31" height="45.38"/></g></g></g></g></g></g><g class="pw"><g class="pl"><g class="ji"><g class="in"><g><g class="kp"><rect class="ra" x="196.47" y="223.93" width="96.08" height="106.23" transform="translate(-114.04 187.72) rotate(-34.58)"/></g><g class="qy"><rect class="il" x="243.7" y="230.44" width="106.57" height="93.23" transform="translate(-93.92 387.29) rotate(-58.76)"/></g><g class="mz"><rect class="pq" x="218.05" y="200.74" width="105.78" height="61.31"/></g></g></g></g></g></g><g class="lq"><g class="jt"><g class="ji"><g class="jv"><g><g class="mq"><rect class="jn" x="19.51" y="332.24" width="110.14" height="121.77" transform="translate(-209.94 111.78) rotate(-34.58)"/></g><g class="ow"><rect class="mn" x="73.65" y="339.68" width="122.17" height="106.87" transform="translate(-271.26 304.44) rotate(-58.76)"/></g><g class="py"><rect class="pt" x="44.24" y="305.64" width="121.26" height="70.28"/></g></g></g></g></g></g><g class="mc"><g class="ku"><g class="ji"><g class="ox"><g><g class="oz"><rect class="mf" x="152.81" y="281.4" width="148.78" height="164.5" transform="translate(-166.25 193.19) rotate(-34.58)"/></g><g class="ix"><rect class="jo" x="225.96" y="291.47" width="165.03" height="144.37" transform="translate(-162.43 438.8) rotate(-58.76)"/></g><g class="jg"><rect class="od" x="186.24" y="245.47" width="163.81" height="94.94"/></g></g></g></g></g></g><g class="iu"><g class="jm"><g class="ji"><g class="qd"><g class="ja"><g class="qs"><g class="ke"><g><g class="kz"><rect class="nw" x="437.44" y="277.89" width="51.56" height="57.01" transform="translate(-92.06 317.04) rotate(-34.58)"/></g><g class="ph"><rect class="oe" x="462.79" y="281.4" width="57.19" height="50.03" transform="translate(-25.44 567.63) rotate(-58.76)"/></g><g class="lv"><rect class="nf" x="449.03" y="265.47" width="56.77" height="32.9"/></g></g></g></g></g></g></g></g></g><g class="oq"><g class="or"><g class="ji"><g class="jp"><g class="nx"><g class="qs"><g class="oo"><g><g class="qu"><rect class="ni" x="541.86" y="330.81" width="59.55" height="65.84" transform="translate(-105.45 388.69) rotate(-34.58)"/></g><g class="qq"><rect class="pc" x="571.12" y="334.85" width="66.05" height="57.78" transform="translate(-20.18 691.64) rotate(-58.76)"/></g><g class="qz"><rect class="ny" x="555.24" y="316.47" width="65.56" height="37.99"/></g></g></g></g></g></g></g></g></g><g class="ok"><g class="qn"><g class="qv"><g class="jz"><g class="lk"><g class="qs"><g class="mr"><g><g class="mx"><rect class="nh" x="360.09" y="271.82" width="59.54" height="65.84" transform="translate(-104.09 275.1) rotate(-34.58)"/></g><g class="lu"><rect class="ll" x="389.35" y="275.87" width="66.05" height="57.78" transform="translate(-57.25 507.84) rotate(-58.76)"/></g><g class="iv"><rect class="lw" x="373.46" y="257.47" width="65.56" height="38"/></g></g></g></g></g></g></g></g></g><g class="pu"><g class="ks"><g class="ji"><g class="oa"><g class="nk"><g class="qs"><g class="qk"><g><g class="hu"><rect class="ld" x="28.84" y="32.27" width="85.53" height="94.57" transform="translate(-32.5 54.69) rotate(-34.58)"/></g><g class="pb"><rect class="pi" x="70.9" y="38.05" width="94.87" height="83" transform="translate(-11.05 139.47) rotate(-58.76)"/></g><g class="kw"><rect class="oj" x="48.07" y="11.6" width="94.17" height="54.58"/></g></g></g></g></g></g></g></g></g><g class="jh"><g class="qc"><g class="mu"><g class="nz"><g><g class="ki"><rect class="lt" x="355.95" y="-71.3" width="167.39" height="177.54" transform="translate(30.53 179.4) rotate(-23.87)"/></g><g class="nm"><rect class="kx" x="360.31" y="-25.55" width="98.28" height="121.72" transform="translate(20.73 168.71) rotate(-23.87)"/></g><g class="mi"><rect class="is" x="408.89" y="-19.77" width="121.86" height="110.09" transform="translate(174.19 402.13) rotate(-55.43)"/></g><g class="qr"><rect class="qh" x="403.83" y="-78.1" width="71.67" height="121.75" transform="translate(450.75 422.64) rotate(-89.2)"/></g></g></g></g></g></g><g class="kv"><g class="rd"><g class="pr"><g class="ka"><g><g class="mo"><rect class="ng" x="421.67" y="290.98" width="108.53" height="115.11" transform="translate(-100.33 222.41) rotate(-23.87)"/></g><g class="pn"><rect class="kc" x="424.5" y="320.66" width="63.72" height="78.91" transform="translate(-106.69 215.47) rotate(-23.87)"/></g><g class="nv"><rect class="ii" x="456.02" y="324.36" width="79.01" height="71.38" transform="translate(-82.12 563.78) rotate(-55.43)"/></g><g class="nb"><rect class="pk" x="452.74" y="286.57" width="46.47" height="78.94" transform="translate(143.32 797.42) rotate(-89.2)"/></g></g></g></g></g></g><g class="nq"><g class="kk"><g class="mm"><g class="im"><g><g class="ne"><rect class="iq" x="72.14" y="240.22" width="66.05" height="70.05" transform="translate(-102.39 66.1) rotate(-23.87)"/></g><g class="ko"><rect class="mk" x="73.85" y="258.27" width="38.78" height="48.02" transform="translate(-106.25 61.88) rotate(-23.87)"/></g><g class="mv"><rect class="rc" x="93.05" y="260.53" width="48.08" height="43.44" transform="translate(-181.76 218.51) rotate(-55.43)"/></g><g class="kd"><rect class="om" x="91.03" y="237.54" width="28.28" height="48.04" transform="translate(-157.83 363.07) rotate(-89.2)"/></g></g></g></g></g></g><g class="ot"><g class="qo"><g class="ji"><g class="jl"><g class="pf"><g class="qs"><g class="lo"><g><g class="ly"><rect class="mt" x="399.82" y="-3" width="52.35" height="57.88" transform="translate(60.54 246.36) rotate(-34.58)"/></g><g class="pd"><rect class="km" x="425.56" y=".57" width="58.06" height="50.79" transform="translate(196.63 401.17) rotate(-58.76)"/></g><g class="os"><rect class="ih" x="411.6" y="-15.62" width="57.63" height="33.4"/></g></g></g></g></g></g></g></g></g><g class="px"><g class="iw"><g class="ji"><g class="pz"><g><g class="me"><rect class="kr" x="222.89" y="104.53" width="81.51" height="86.45" transform="translate(-37.24 119.32) rotate(-23.87)"/></g><g class="oc"><rect class="jw" x="225.02" y="126.8" width="47.85" height="59.27" transform="translate(-42.01 114.12) rotate(-23.87)"/></g><g class="ls"><rect class="md" x="248.68" y="129.6" width="59.34" height="53.61" transform="translate(-8.38 296.86) rotate(-55.43)"/></g><g class="ma"><rect class="kt" x="246.21" y="101.21" width="34.9" height="59.28" transform="translate(129.14 392.66) rotate(-89.2)"/></g></g></g></g></g></g></g><g id="fc"><g class="ov"><rect class="mg" x="205.31" y="12.06" width="421.03" height="64.62"/></g><g class="mh"><rect class="ip" x="205.89" y="17.24" width="419.87" height="350.24" rx="10.37" ry="10.37"/></g><g class="nd"><rect class="hw" x="205.89" y="17.24" width="419.87" height="350.24" rx="10.37" ry="10.37"/></g><g class="mb"><path class="ir" d="m216.26,16.66c-6.05,0-10.95,4.9-10.95,10.95v39.46h421.03V27.61c0-6.05-4.9-10.95-10.95-10.95H216.26Z"/></g><g class="kq"><rect class="la" x="14.31" y="81.06" width="154" height="64.62"/></g><g class="io"><path class="ip" d="m25.26,86.24h132.1c5.72,0,10.37,4.65,10.37,10.37v162.5c0,5.73-4.65,10.37-10.37,10.37H25.26c-5.72,0-10.37-4.65-10.37-10.37V96.61c0-5.72,4.65-10.37,10.37-10.37Z"/></g><g class="po"><path class="hw" d="m25.26,86.24h132.1c5.72,0,10.37,4.65,10.37,10.37v162.5c0,5.73-4.65,10.37-10.37,10.37H25.26c-5.72,0-10.37-4.65-10.37-10.37V96.61c0-5.72,4.65-10.37,10.37-10.37Z"/></g><g class="jb"><path class="ir" d="m25.26,85.66c-6.05,0-10.95,4.9-10.95,10.95v39.46h154v-39.46c0-6.05-4.9-10.95-10.95-10.95,0,0-132.1,0-132.1,0Z"/></g><g class="oh"><g><path class="ip" d="m264.27,42.51c.28-.32.57-.64.89-.96.3-.33.59-.66.89-.99.28-.35.57-.67.82-.96.25-.28.5-.57.67-.78h3.44c-.68.78-1.35,1.56-2.02,2.27-.64.71-1.35,1.45-2.13,2.24.43.4.83.83,1.21,1.28.43.5.82.99,1.21,1.49.39.5.74,1.02,1.06,1.56.32.53.6.99.82,1.42h-3.34c-.21-.36-.46-.71-.71-1.1-.26-.43-.54-.85-.85-1.24-.29-.43-.61-.83-.96-1.21-.28-.35-.6-.68-.96-.96v4.47h-2.91v-14.66l2.91-.46v8.59"/><path class="ip" d="m281.23,48.73c-.63.18-1.27.31-1.92.39-.81.13-1.63.19-2.45.18-.75.03-1.5-.09-2.2-.36-1.08-.41-1.86-1.35-2.06-2.48-.14-.63-.22-1.27-.21-1.92v-5.71h2.91v5.36c0,.92.11,1.6.35,2.02.25.43.71.64,1.38.64.23,0,.45,0,.67-.04.25-.04.43-.04.64-.07v-7.91h2.91l-.04,9.9h.02Z"/><path class="ip" d="m293.51,43.93c.02.76-.11,1.52-.36,2.24-.21.64-.57,1.22-1.03,1.7-.48.47-1.05.84-1.67,1.1-.73.25-1.5.37-2.27.35-.35,0-.71-.04-1.1-.07-.39-.04-.74-.07-1.14-.11-.36-.04-.71-.11-1.07-.18-.3-.05-.6-.14-.89-.25v-14.34l2.91-.46v5.11c.33-.14.68-.25,1.03-.32.38-.07.76-.11,1.14-.11.66,0,1.31.12,1.92.39.55.24,1.04.6,1.42,1.07.41.5.7,1.08.85,1.7.16.71.24,1.44.25,2.17m-2.95-.07c0-1.88-.67-2.8-2.06-2.8-.3,0-.6.04-.89.11-.25.06-.49.16-.71.28v5.29c.14.04.32.04.53.07.21,0,.46.04.71.04.7.03,1.37-.27,1.81-.82.42-.64.64-1.4.6-2.17"/><path class="ip" d="m302.1,42.9c0-.24-.06-.48-.14-.71-.07-.23-.18-.45-.32-.64-.34-.43-.87-.67-1.42-.64-.29,0-.58.06-.85.18-.22.09-.42.24-.57.43-.16.19-.28.4-.36.64-.08.23-.14.47-.18.71h3.83m-6.85,1.17c-.02-.81.13-1.62.43-2.38.26-.63.63-1.21,1.1-1.7.44-.46.97-.81,1.56-1.03.59-.24,1.21-.36,1.85-.35,1.29-.06,2.54.43,3.44,1.35.85.89,1.28,2.2,1.28,3.9,0,.19,0,.38-.04.57,0,.18-.04.36-.04.53h-6.6c.06.58.37,1.1.85,1.42.59.38,1.29.57,1.99.53.52,0,1.05-.04,1.56-.14.44-.07.86-.19,1.28-.36l.39,2.38c-.14.07-.36.14-.64.25-.29.1-.58.16-.89.18-.34.07-.68.12-1.03.14-.36.04-.74.07-1.1.07-.83.02-1.64-.13-2.41-.43-.64-.25-1.21-.63-1.7-1.1-.44-.5-.78-1.08-.99-1.7-.19-.69-.28-1.41-.29-2.13"/><path class="ip" d="m313.32,41.38c-.3-.09-.61-.15-.92-.18-.37-.07-.75-.11-1.14-.11-.23,0-.45.04-.67.07-.19.03-.38.06-.57.11v7.84h-2.91v-9.76c.6-.21,1.22-.37,1.85-.5.78-.18,1.58-.26,2.38-.25.19,0,.38,0,.57.04.23,0,.45.03.67.07.21.04.43.07.67.11.21.04.43.11.57.14l-.5,2.41h0Z"/><path class="ip" d="m315.37,39.18c1.42-.38,2.89-.57,4.37-.57.74-.03,1.47.09,2.16.36.54.18,1.02.51,1.38.96.33.44.58.95.71,1.49.15.63.22,1.27.21,1.92v5.79h-2.91v-5.43c0-.92-.11-1.6-.35-1.99-.25-.39-.71-.57-1.38-.57-.23,0-.45,0-.67.04-.21,0-.43.03-.64.07v7.92h-2.88v-9.99Z"/><path class="ip" d="m333.23,42.9c0-.24-.06-.48-.14-.71-.07-.23-.18-.45-.32-.64-.34-.43-.87-.67-1.42-.64-.29,0-.58.06-.85.18-.22.09-.42.24-.57.43-.16.19-.28.4-.36.64-.08.23-.13.47-.18.71h3.83m-6.85,1.17c-.02-.81.13-1.62.43-2.38.26-.63.63-1.21,1.1-1.7.44-.46.97-.81,1.56-1.03.58-.24,1.21-.36,1.85-.35,1.29-.06,2.54.43,3.44,1.35.85.89,1.28,2.2,1.28,3.9,0,.19,0,.38-.04.57,0,.18-.04.36-.04.53h-6.6c.06.58.37,1.1.85,1.42.59.38,1.29.57,1.99.53.52,0,1.05-.04,1.56-.14.44-.07.86-.19,1.28-.36l.39,2.38c-.14.07-.36.14-.64.25-.29.1-.58.16-.89.18-.34.07-.68.12-1.03.14-.36.04-.74.07-1.1.07-.83.02-1.64-.13-2.41-.43-.63-.25-1.21-.63-1.7-1.1-.44-.5-.78-1.08-.99-1.7-.19-.69-.28-1.41-.28-2.13"/><path class="ip" d="m338.2,36.27l2.91-.46v3.02h3.48v2.41h-3.48v3.62c-.02.5.09,1.01.32,1.45.21.36.67.53,1.31.53.32,0,.64-.03.96-.07.31-.06.62-.14.92-.25l.43,2.27c-.38.16-.77.28-1.17.36-.52.11-1.06.16-1.6.14-.68.02-1.35-.09-1.99-.32-.48-.19-.9-.5-1.24-.89-.33-.42-.56-.9-.68-1.42-.12-.6-.18-1.2-.18-1.81v-8.59"/><path class="ip" d="m352.89,42.9c0-.24-.06-.48-.14-.71-.07-.23-.18-.45-.32-.64-.34-.43-.87-.67-1.42-.64-.29,0-.58.06-.85.18-.22.09-.42.24-.57.43-.16.19-.28.4-.35.64-.08.23-.14.47-.18.71h3.83m-6.81,1.17c-.02-.81.13-1.62.43-2.38.26-.63.63-1.21,1.1-1.7.44-.46.97-.81,1.56-1.03.58-.24,1.21-.36,1.85-.35,1.29-.06,2.54.43,3.44,1.35.85.89,1.28,2.2,1.28,3.9,0,.19,0,.38-.04.57,0,.18-.04.36-.04.53h-6.6c.06.58.37,1.1.85,1.42.59.38,1.29.57,1.99.53.52,0,1.05-.04,1.56-.14.44-.07.86-.19,1.28-.36l.39,2.38c-.14.07-.36.14-.64.25-.29.1-.58.16-.89.18-.34.07-.68.12-1.03.14-.36.04-.74.07-1.1.07-.83.02-1.64-.13-2.41-.43-.63-.25-1.21-.63-1.7-1.1-.44-.5-.78-1.08-.99-1.7-.2-.69-.3-1.41-.28-2.13"/><path class="ip" d="m360.87,46.99c.38.03.77-.02,1.14-.14.22-.12.34-.36.32-.6,0-.25-.14-.43-.43-.6-.41-.25-.86-.45-1.31-.6-.46-.18-.89-.35-1.24-.53-.34-.16-.65-.38-.92-.64-.26-.26-.47-.58-.6-.92-.15-.41-.22-.84-.21-1.28-.04-.89.36-1.74,1.06-2.27.71-.57,1.7-.85,2.95-.85.61,0,1.21.06,1.81.18.46.07.91.19,1.35.36l-.5,2.27c-.36-.11-.71-.21-1.1-.32-.43-.11-.87-.15-1.31-.14-.92,0-1.35.25-1.35.75,0,.11.03.22.07.32.05.12.14.22.25.28.11.07.28.18.46.28.21.11.46.18.78.32.55.2,1.08.43,1.6.71.37.17.7.43.96.74.24.24.42.55.5.89.11.37.15.75.14,1.14.05.91-.38,1.79-1.14,2.31-.74.53-1.81.78-3.23.78-.76.02-1.53-.06-2.27-.25-.43-.09-.84-.22-1.24-.39l.5-2.38c.5.19,1.01.35,1.53.46.48.1.97.15,1.46.14"/><path class="ip" d="m233.59,43.24l.97.46.97-.46.24-1.04-.67-.84h-1.08l-.67.83.24,1.05h0Zm-2.55-1.03c.31-.09.5-.41.41-.72-.03-.11-.09-.21-.18-.29h0l-2.63-2.37c-.8,1.31-1.15,2.84-.98,4.36l3.37-.97h0Zm1.54-2.67c.26.19.63.13.82-.13.07-.09.11-.2.11-.32h0l.2-3.52c-.24.03-.48.07-.71.12-1.25.28-2.4.91-3.32,1.81l2.88,2.04h.01Zm3.03-.47c0,.33.29.58.62.56.12,0,.23-.04.32-.11h0l2.86-2.02c-1.09-1.07-2.5-1.74-4.01-1.93l.2,3.51h0Zm4.85-.27l-2.61,2.34h0c-.24.22-.27.6-.06.84.08.09.18.15.29.18h0l3.38.99c.15-1.52-.21-3.05-1.01-4.35h0Zm-5.38,7.14c-.15-.29-.51-.39-.8-.24-.1.05-.19.14-.24.24h0l-1.7,3.07c1.22.41,2.52.48,3.78.19.23-.05.46-.12.68-.19l-1.7-3.08h-.02Zm-2.89-1.26c-.06-.26-.29-.45-.57-.46h-.12l-3.45.58c.52,1.43,1.5,2.66,2.78,3.48l1.34-3.23h0c.05-.13.06-.26.03-.38m5.42-.46s-.09,0-.14,0c-.08,0-.15.02-.23.06-.28.14-.41.48-.28.77h0l1.35,3.27c1.29-.83,2.28-2.06,2.79-3.51l-3.48-.59h-.01Z"/><path class="ip" d="m238.99,49.96c.03.09.07.18.11.27-.07.12-.09.26-.05.39.16.37.36.73.59,1.06.13.17.25.35.36.53.03.05.06.13.09.18.19.32.09.73-.23.92-.32.19-.73.09-.92-.23-.02-.04-.04-.08-.06-.12-.03-.05-.06-.12-.08-.17-.08-.2-.14-.4-.2-.61-.12-.39-.27-.77-.46-1.13-.08-.11-.21-.18-.34-.21-.02-.04-.1-.18-.14-.26-1.99.75-4.19.75-6.18-.02l-.15.27c-.11.02-.21.07-.29.14-.23.37-.4.78-.52,1.2-.05.21-.12.41-.19.61-.02.05-.06.12-.08.17h0c-.12.35-.51.53-.86.41s-.53-.51-.41-.86c0-.04.04-.08.06-.12.02-.05.06-.13.08-.18.11-.18.23-.36.36-.54.24-.34.44-.71.61-1.09.02-.13,0-.26-.06-.38l.12-.29c-1.83-1.08-3.2-2.8-3.86-4.82l-.29.05c-.11-.08-.25-.13-.38-.13-.4.08-.79.19-1.17.34-.2.09-.4.17-.6.23-.05,0-.12.03-.17.04h-.02c-.35.12-.73-.07-.85-.43-.12-.35.08-.73.43-.85l.12-.03h0c.06,0,.13-.03.18-.04.21-.03.43-.05.64-.05.41-.03.81-.09,1.2-.2.12-.07.21-.17.29-.29l.28-.08c-.3-2.11.18-4.26,1.37-6.04l-.21-.19c0-.14-.06-.27-.13-.39-.31-.27-.64-.5-1-.7-.19-.1-.38-.21-.55-.33-.04-.03-.09-.08-.14-.11h0c-.32-.23-.39-.68-.16-.99.13-.16.33-.25.53-.24.17,0,.33.07.47.18.04.04.11.08.15.12.16.15.3.3.44.47.27.3.58.57.9.82.12.07.26.08.4.04.04.03.17.12.24.17,1.18-1.25,2.7-2.12,4.37-2.5.4-.09.8-.15,1.21-.19l.02-.28c.1-.09.18-.21.22-.35,0-.41,0-.81-.07-1.21-.04-.21-.07-.42-.09-.64v-.19c-.04-.37.23-.7.6-.74.37-.04.7.23.74.6v.33c-.02.21-.05.43-.09.64-.07.4-.09.81-.08,1.21.03.14.1.26.22.33,0,.05,0,.21.02.3,2.12.19,4.09,1.15,5.55,2.68l.26-.18c.14.02.28,0,.41-.04.33-.24.63-.52.9-.82.14-.16.29-.32.44-.47.04-.03.1-.08.15-.12.26-.26.69-.26.95,0s.26.69,0,.95c-.03.03-.07.06-.11.09-.04.04-.1.09-.15.12-.18.12-.36.23-.56.32-.35.2-.69.43-1,.7-.09.11-.13.24-.12.38-.04.03-.17.15-.24.21,1.19,1.77,1.68,3.91,1.39,6.02l.27.08c.07.12.17.22.29.29.39.11.79.17,1.2.2.21,0,.43.02.64.05.06,0,.14.03.2.05.37.05.63.39.58.75-.05.37-.39.63-.75.58-.04,0-.08,0-.12-.03h-.02c-.05,0-.12-.02-.17-.04-.21-.07-.4-.14-.6-.23-.38-.15-.77-.27-1.17-.34-.14,0-.27.05-.38.14-.1-.02-.19-.04-.29-.05-.65,2.04-2.02,3.76-3.86,4.85l-.03.06Zm11.6-4.67l-2.76-12c-.15-.63-.57-1.16-1.16-1.44l-11.18-5.34c-.59-.28-1.27-.28-1.86,0l-11.18,5.34c-.58.28-1.01.81-1.16,1.44l-2.76,12c-.07.3-.07.62,0,.92.02.09.05.18.08.27.05.15.12.3.21.43.04.06.08.11.12.17l7.74,9.62s.07.08.11.12c.12.13.26.24.41.34.19.12.4.21.61.27.18.05.36.07.54.07h12.41c.07,0,.15,0,.22-.02.11,0,.21-.03.32-.06.07-.02.15-.04.22-.07.06-.02.11-.04.17-.07.08-.04.16-.08.23-.13.19-.12.37-.28.51-.45l.24-.29,7.5-9.33c.14-.18.26-.38.33-.6.03-.09.06-.18.08-.27.07-.3.07-.62,0-.92h0Z"/></g></g></g><g id="fo"><g class="iz"><rect class="nj" x="238.22" y="78.69" width="381" height="134.15"/></g><g class="qf"><path class="ir" d="m248.42,84.14h360.6c5.33,0,9.66,4.33,9.66,9.66v240.69c0,5.33-4.33,9.66-9.66,9.66H248.42c-5.33,0-9.66-4.33-9.66-9.66V93.8c0-5.33,4.33-9.66,9.66-9.66Z"/></g><g class="op"><path class="ia" d="m248.42,84.14h360.6c5.33,0,9.66,4.33,9.66,9.66v240.69c0,5.33-4.33,9.66-9.66,9.66H248.42c-5.33,0-9.66-4.33-9.66-9.66V93.8c0-5.33,4.33-9.66,9.66-9.66Z"/></g><g class="jd"><line class="ig" x1="25.52" y1="202.46" x2="57.72" y2="202.46"/></g><g class="qb"><path class="nu" d="m25.52,207.26c2.65,0,4.8-2.15,4.8-4.8s-2.15-4.8-4.8-4.8-4.8,2.15-4.8,4.8,2.15,4.8,4.8,4.8"/></g><g class="ol"><path class="ip" d="m480.86,323.51c.31.33.47.79.48,1.38v.21h-3.73c.09-.67.31-1.19.64-1.55.33-.36.76-.54,1.29-.54.57,0,1.01.16,1.32.49m1.27,7.28c.69-.32,1.23-.76,1.63-1.33l-1.32-1.47c-.58.75-1.39,1.12-2.42,1.12-.67,0-1.22-.2-1.66-.59s-.7-.92-.78-1.58h6.39v-1.09c0-1.59-.4-2.82-1.18-3.68-.79-.87-1.87-1.3-3.24-1.3-.92,0-1.73.22-2.44.65s-1.27,1.04-1.66,1.84-.58,1.7-.58,2.7v.26c0,1.5.46,2.71,1.39,3.61.92.9,2.12,1.35,3.6,1.35.83,0,1.6-.16,2.28-.48m-14.07-2.36c-.32-.45-.47-1.19-.47-2.23v-.28c0-1.02.16-1.76.48-2.22s.79-.68,1.42-.68c.51,0,.92.16,1.23.49s.47.75.48,1.27h2.51c-.01-1.19-.4-2.14-1.15-2.85-.76-.72-1.76-1.07-3.02-1.07-1.43,0-2.56.46-3.39,1.38-.82.92-1.23,2.16-1.23,3.7v.18c0,1.61.41,2.87,1.24,3.78s1.96,1.37,3.39,1.37c.77,0,1.47-.16,2.1-.47s1.13-.75,1.5-1.32c.36-.56.55-1.19.56-1.87h-2.51c-.01.45-.17.81-.48,1.09-.31.27-.71.41-1.21.41-.64,0-1.12-.23-1.44-.68m-10.29.46c-.23-.22-.35-.49-.35-.82v-.16c.1-.93.81-1.39,2.15-1.39h1v1.73c-.16.3-.41.53-.74.71s-.7.26-1.1.26-.73-.11-.96-.32m5.89,2.19v-.16c-.26-.49-.39-1.21-.4-2.16v-4.35c0-1.12-.36-2-1.09-2.62s-1.71-.93-2.95-.93c-.82,0-1.55.14-2.21.42s-1.16.67-1.52,1.16-.54,1.03-.54,1.61h2.68c0-.38.13-.67.39-.89s.61-.32,1.06-.32c.51,0,.89.14,1.13.42s.36.65.36,1.11v.57h-1.23c-1.49,0-2.63.29-3.42.86-.79.57-1.18,1.39-1.18,2.45,0,.87.32,1.58.97,2.15s1.46.85,2.45.85c1.04,0,1.88-.36,2.53-1.09.06.36.15.66.27.9h2.71v.02Zm-14.8-1.98c-.84,0-1.42-.33-1.75-.99v-4.11c.32-.64.89-.97,1.74-.97.63,0,1.11.25,1.44.76s.5,1.23.5,2.16c0,2.1-.64,3.14-1.92,3.14m4.6-3.09c0-1.61-.34-2.87-1.03-3.78-.69-.92-1.65-1.37-2.89-1.37-1.05,0-1.89.39-2.54,1.17l-.09-.98h-2.49v13.9h2.68v-4.73c.62.7,1.44,1.06,2.46,1.06,1.19,0,2.14-.47,2.84-1.4s1.05-2.17,1.05-3.71v-.16Zm-13.75,3.06c-.26.2-.65.29-1.16.29-.55,0-.99-.13-1.32-.38-.33-.25-.5-.62-.53-1.1h-2.54c0,.61.19,1.17.56,1.69s.88.93,1.54,1.23c.65.3,1.4.45,2.24.45,1.24,0,2.26-.28,3.04-.85.79-.56,1.18-1.31,1.18-2.22,0-1.28-.71-2.18-2.12-2.7-.46-.17-1.02-.32-1.69-.45s-1.14-.29-1.42-.47-.42-.42-.42-.72c0-.32.12-.57.37-.78.25-.2.6-.31,1.05-.31.53,0,.91.13,1.16.38s.37.57.37.95h2.68c0-.96-.38-1.74-1.14-2.34s-1.78-.9-3.06-.9c-1.19,0-2.16.3-2.9.9s-1.11,1.34-1.11,2.23c0,1.53,1.19,2.54,3.58,3.04.72.15,1.24.32,1.56.5.33.19.49.45.49.78s-.13.57-.39.76m-9.68-5.56c.31.33.47.79.48,1.38v.21h-3.73c.09-.67.3-1.19.64-1.55.33-.36.76-.54,1.29-.54.57,0,1.01.16,1.32.49m1.27,7.28c.69-.32,1.23-.76,1.63-1.33l-1.32-1.47c-.58.75-1.39,1.12-2.42,1.12-.67,0-1.22-.2-1.66-.59-.44-.4-.7-.92-.78-1.58h6.39v-1.09c0-1.59-.39-2.82-1.18-3.68-.79-.87-1.87-1.3-3.24-1.3-.92,0-1.73.22-2.45.65-.71.43-1.27,1.04-1.66,1.84s-.58,1.7-.58,2.7v.26c0,1.5.46,2.71,1.39,3.61.92.9,2.12,1.35,3.6,1.35.84,0,1.6-.16,2.28-.48m-23.35-9.75v10.04h2.68v-7.1c.34-.63.89-.95,1.65-.95.55,0,.94.13,1.17.39s.34.68.34,1.26v6.39h2.68v-6.89c.3-.77.86-1.15,1.66-1.15.56,0,.96.13,1.18.4.22.26.33.68.33,1.25v6.4h2.69v-6.41c0-1.27-.27-2.23-.8-2.86-.53-.63-1.34-.95-2.43-.95-1.3,0-2.31.51-3.02,1.53-.48-1.02-1.37-1.53-2.66-1.53-1.21,0-2.17.44-2.89,1.31l-.08-1.12h-2.51.01Zm-7.55,7.84c-.23-.22-.35-.49-.35-.82v-.16c.1-.93.81-1.39,2.15-1.39h1v1.73c-.16.3-.41.53-.74.71s-.7.26-1.1.26-.73-.11-.96-.32m5.89,2.19v-.16c-.26-.49-.39-1.21-.4-2.16v-4.35c0-1.12-.36-2-1.09-2.62s-1.71-.93-2.95-.93c-.82,0-1.55.14-2.21.42s-1.16.67-1.52,1.16-.54,1.03-.54,1.61h2.68c0-.38.13-.67.39-.89s.61-.32,1.06-.32c.51,0,.89.14,1.13.42s.36.65.36,1.11v.57h-1.23c-1.49,0-2.63.29-3.42.86-.79.57-1.18,1.39-1.18,2.45,0,.87.32,1.58.97,2.15s1.46.85,2.45.85c1.04,0,1.88-.36,2.53-1.09.06.36.15.66.27.9h2.71v.02Zm-10.79-13.51h-2.77v8.91l-5.43-8.91h-2.78v13.51h2.78v-8.89l5.42,8.89h2.78v-13.51h0Z"/></g><line class="ig" x1="142.06" y1="202.46" x2="462.22" y2="202.46"/><g class="pa"><path class="nu" d="m132.22,202.46l16.77,6.1s-6.92-6.1,0-12.21l-16.77,6.1h0Z"/></g><line class="ig" x1="494.06" y1="202.46" x2="532.22" y2="202.46"/><g class="jx"><path class="nu" d="m484.22,202.46l16.77,6.1s-6.92-6.1,0-12.21l-16.77,6.1h0Z"/></g><g class="my"><line class="ig" x1="605.06" y1="202.46" x2="640.08" y2="202.46"/></g><g class="ml"><path class="nu" d="m595.22,202.46l16.77,6.1s-6.92-6.1,0-12.21l-16.77,6.1h0Z"/></g><g class="jk"><g class="hv"><g class="it"><g class="lb"><g><g class="iy"><rect class="pg" x="258.85" y="87.69" width="80" height="46.11"/></g><rect class="mp" x="259.39" y="91.51" width="78.92" height="78.64" rx="9.66" ry="9.66"/><rect class="hz" x="259.39" y="91.51" width="78.92" height="78.64" rx="9.66" ry="9.66"/></g></g></g></g></g><path class="ir" d="m304.3,144.43v2.18l6.81-2.86v-1.84l-6.81-2.85v2.17l4.54,1.59-4.54,1.61h0Zm-6.33-5.26l1.43,4.26h-2.84l1.41-4.26Zm2.85,8.5h2.49l-4.26-11.38h-2.17l-4.23,11.38h2.49l.78-2.34h4.11l.79,2.34h0Zm-9.22-6.43v-2.19l-6.73,2.85v1.84l6.73,2.85v-2.19l-4.45-1.57,4.45-1.6h0Z"/><g class="kf"><path class="ir" d="m328.72,122.09c.26.28.4.66.41,1.17v.18h-3.14c.08-.57.26-1,.54-1.3s.64-.45,1.09-.45c.48,0,.85.14,1.11.41m1.07,6.13c.58-.27,1.04-.64,1.38-1.12l-1.11-1.24c-.49.63-1.17.95-2.04.95-.56,0-1.03-.17-1.4-.5s-.59-.78-.66-1.33h5.38v-.92c0-1.34-.33-2.37-1-3.1-.66-.73-1.58-1.09-2.73-1.09-.77,0-1.46.18-2.06.54s-1.07.88-1.39,1.55c-.33.67-.49,1.43-.49,2.28v.22c0,1.26.39,2.28,1.17,3.04s1.79,1.14,3.03,1.14c.7,0,1.34-.13,1.92-.4m-9.79-1.45c-.22.16-.55.25-.98.25-.46,0-.83-.11-1.11-.32s-.42-.52-.44-.92h-2.14c0,.51.16.99.47,1.43s.74.79,1.29,1.04c.55.25,1.18.38,1.89.38,1.05,0,1.9-.24,2.56-.71.66-.48.99-1.1.99-1.87,0-1.08-.6-1.84-1.79-2.27-.38-.14-.86-.27-1.42-.38-.56-.11-.96-.25-1.2-.4-.24-.15-.35-.36-.35-.61,0-.27.1-.48.31-.66.21-.17.5-.26.88-.26.44,0,.77.11.98.32.21.21.31.48.31.8h2.26c0-.81-.32-1.46-.97-1.97-.64-.51-1.5-.76-2.57-.76-1.01,0-1.82.25-2.44.75s-.93,1.13-.93,1.88c0,1.29,1,2.14,3.02,2.56.6.12,1.04.27,1.32.43.27.16.41.38.41.65s-.11.48-.33.65m-10.6-.15c-.2-.18-.3-.41-.3-.69v-.13c.08-.78.68-1.17,1.81-1.17h.84v1.45c-.14.25-.34.45-.62.6s-.59.22-.92.22-.61-.09-.81-.27m4.96,1.84v-.13c-.22-.41-.33-1.02-.34-1.82v-3.66c0-.95-.31-1.68-.92-2.21-.61-.52-1.44-.79-2.48-.79-.69,0-1.31.12-1.86.35s-.98.56-1.28.98c-.3.42-.45.87-.45,1.36h2.26c0-.32.11-.57.32-.75.22-.18.52-.27.9-.27.43,0,.75.12.95.35.2.23.3.55.3.94v.48h-1.04c-1.26,0-2.22.25-2.88.73s-1,1.17-1,2.06c0,.73.27,1.33.82,1.81.55.48,1.23.72,2.06.72.88,0,1.59-.3,2.13-.91.05.3.12.56.23.76h2.28Zm-10.99-2.74c-.23.72-.71,1.08-1.44,1.08s-1.22-.3-1.5-.89v-3.34c.27-.59.77-.88,1.48-.88.54,0,.94.2,1.21.59s.41,1.02.41,1.87c0,.7-.05,1.23-.16,1.57m2.42-1.53c0-1.38-.29-2.44-.88-3.2-.59-.76-1.39-1.14-2.42-1.14-.85,0-1.53.3-2.05.91v-4.31h-2.26v12h2.03l.1-.9c.55.7,1.28,1.05,2.19,1.05,1.04,0,1.84-.38,2.42-1.14.58-.76.87-1.81.87-3.17v-.12.02Zm-13.98,2.43c-.2-.18-.3-.41-.3-.69v-.13c.08-.78.68-1.17,1.81-1.17h.84v1.45c-.13.25-.34.45-.62.6s-.59.22-.92.22-.61-.09-.81-.27m4.96,1.84v-.13c-.22-.41-.33-1.02-.34-1.82v-3.66c0-.95-.31-1.68-.92-2.21-.61-.52-1.44-.79-2.48-.79-.69,0-1.31.12-1.86.35s-.98.56-1.28.98c-.3.42-.45.87-.45,1.36h2.26c0-.32.11-.57.33-.75s.51-.27.89-.27c.43,0,.75.12.95.35.2.23.3.55.3.94v.48h-1.04c-1.26,0-2.22.25-2.88.73s-1,1.17-1,2.06c0,.73.27,1.33.82,1.81.55.48,1.23.72,2.06.72.88,0,1.59-.3,2.13-.91.05.3.12.56.23.76h2.28Zm-12.14-10.53v2.08h-1.23v1.66h1.23v4.56c.03,1.6.84,2.4,2.42,2.4.47,0,.92-.07,1.37-.2v-1.71c-.19.04-.41.06-.66.06-.34,0-.57-.07-.69-.2-.12-.14-.18-.36-.18-.67v-4.22h1.44v-1.66h-1.44v-2.08h-2.26v-.02Zm-6.81,8.69c-.2-.18-.3-.41-.3-.69v-.13c.08-.78.68-1.17,1.81-1.17h.84v1.45c-.14.25-.34.45-.62.6s-.59.22-.92.22-.62-.09-.81-.27m4.96,1.84v-.13c-.22-.41-.33-1.02-.34-1.82v-3.66c0-.95-.31-1.68-.92-2.21-.61-.52-1.44-.79-2.48-.79-.69,0-1.31.12-1.86.35-.55.24-.98.56-1.28.98-.3.42-.45.87-.45,1.36h2.26c0-.32.11-.57.32-.75.22-.18.51-.27.9-.27.43,0,.75.12.95.35.2.23.3.55.3.94v.48h-1.04c-1.26,0-2.21.25-2.88.73-.66.48-1,1.17-1,2.06,0,.73.27,1.33.82,1.81.54.48,1.23.72,2.06.72.88,0,1.59-.3,2.13-.91.05.3.12.56.23.76h2.28Zm-13.93-9.48c.92,0,1.62.3,2.1.9s.72,1.47.72,2.63v.6c-.01,1.11-.26,1.97-.74,2.57-.49.6-1.18.9-2.1.9h-1.13v-7.59h1.16-.01Zm.02,9.47c.99,0,1.89-.23,2.68-.69.79-.45,1.4-1.09,1.84-1.91.43-.82.65-1.76.65-2.82v-.52c0-1.06-.22-2-.66-2.83s-1.06-1.47-1.85-1.92-1.68-.68-2.68-.68h-3.5v11.38h3.52Z"/></g><g class="qx"><g class="qm"><g class="it"><g class="og"><g><g class="kn"><rect class="lr" x="258.85" y="239.69" width="80" height="46.11"/></g><rect class="mp" x="259.39" y="243.51" width="78.92" height="78.64" rx="9.66" ry="9.66"/><rect class="hz" x="259.39" y="243.51" width="78.92" height="78.64" rx="9.66" ry="9.66"/></g></g></g></g></g><path class="ir" d="m303.32,297.43v2.18l6.81-2.86v-1.84l-6.81-2.85v2.17l4.54,1.59-4.54,1.61Zm-6.33-5.26l1.43,4.26h-2.84l1.41-4.26Zm2.85,8.5h2.49l-4.26-11.38h-2.17l-4.23,11.38h2.49l.78-2.34h4.11l.79,2.34h0Zm-9.22-6.43v-2.19l-6.73,2.85v1.84l6.73,2.85v-2.19l-4.45-1.57,4.45-1.6h0Z"/><g class="nn"><path class="ir" d="m308.78,270.1h-2.34v11.38h2.34v-11.38Zm-10.47,1.9h2.15c.58.01,1.03.19,1.36.53s.49.79.49,1.35-.16.96-.49,1.25c-.32.29-.8.44-1.42.44h-2.09v-3.57h0Zm2.05,5.47c1.35,0,2.4-.32,3.17-.97.76-.64,1.15-1.52,1.15-2.64,0-.74-.18-1.39-.52-1.97-.35-.58-.85-1.02-1.5-1.33s-1.4-.47-2.25-.47h-4.44v11.38h2.34v-4.01h2.05Zm-10.8-4.48l1.43,4.26h-2.84l1.41-4.26Zm2.85,8.5h2.49l-4.26-11.38h-2.17l-4.23,11.38h2.49l.78-2.34h4.11l.79,2.34h0Z"/></g><g class="nt"><rect class="qw" x="338.48" y="168.69" width="59.96" height="60.72"/></g><g class="ik"><path class="mp" d="m368.46,231.15c16.23,0,29.44-13.33,29.44-29.71s-13.21-29.71-29.44-29.71-29.44,13.33-29.44,29.71,13.21,29.71,29.44,29.71"/></g><g class="of"><path class="hz" d="m368.46,231.15c16.23,0,29.44-13.33,29.44-29.71s-13.21-29.71-29.44-29.71-29.44,13.33-29.44,29.71,13.21,29.71,29.44,29.71Z"/></g><g class="rb"><path class="ir" d="m376.63,201.32c.69,0,1.18.29,1.46.88v3.34c-.29.59-.78.88-1.48.88-.53,0-.93-.21-1.2-.63-.28-.42-.41-1.03-.41-1.82,0-1.77.54-2.65,1.63-2.65m-2.99,5.75c.6.78,1.4,1.18,2.39,1.18.89,0,1.61-.35,2.17-1.05l.11.9h2.04v-12h-2.26v4.31c-.54-.61-1.22-.92-2.04-.92-1.03,0-1.84.39-2.43,1.17s-.89,1.83-.89,3.15c0,1.4.3,2.49.9,3.27m-7.24-5.12c.3-.43.73-.65,1.28-.65s.99.22,1.3.65.46,1.04.46,1.83c0,.92-.15,1.6-.46,2.01-.31.42-.73.63-1.28.63s-.99-.21-1.3-.64-.45-1.04-.45-1.84c0-.9.15-1.57.45-2m-2.71,1.94c0,1.34.36,2.41,1.09,3.19s1.7,1.17,2.92,1.17,2.19-.39,2.91-1.18,1.09-1.82,1.09-3.12v-.58c-.1-1.2-.5-2.15-1.22-2.84-.72-.7-1.65-1.05-2.79-1.05-.8,0-1.51.18-2.11.54-.61.36-1.07.87-1.39,1.52-.32.66-.49,1.4-.49,2.24v.1h-.01Zm-7.38-5.26h2.15c.58,0,1.03.19,1.36.53s.49.79.49,1.35-.16.96-.49,1.25-.8.44-1.42.44h-2.09v-3.57h0Zm2.06,5.47c1.35,0,2.4-.32,3.17-.96.76-.64,1.14-1.52,1.14-2.64,0-.73-.17-1.39-.52-1.96-.35-.58-.85-1.02-1.5-1.33s-1.4-.47-2.25-.47h-4.44v11.38h2.34v-4.01h2.06,0Z"/></g><g class="kb"><path class="ip" d="m608.43,40c-.22-.07-.45-.1-.7-.1-.8,0-1.43.39-1.88,1.16l-.06-1.01h-2.13v8.45h2.26v-5.53c.26-.58.83-.87,1.68-.87.24,0,.51.02.81.06l.03-2.17h-.01Zm-8.69,2.14c.26.27.39.66.41,1.17v.18h-3.14c.08-.57.26-1,.53-1.3.28-.3.64-.45,1.09-.45.48,0,.85.14,1.11.41m1.07,6.13c.58-.27,1.04-.64,1.38-1.12l-1.11-1.24c-.49.63-1.17.95-2.04.95-.56,0-1.03-.17-1.39-.5-.37-.33-.59-.78-.66-1.33h5.38v-.92c0-1.34-.33-2.37-1-3.1-.66-.73-1.57-1.09-2.73-1.09-.77,0-1.46.18-2.06.54s-1.07.88-1.39,1.55c-.33.67-.49,1.43-.49,2.28v.22c0,1.26.39,2.28,1.17,3.04.78.76,1.79,1.14,3.03,1.14.7,0,1.34-.13,1.92-.4m-10.77-10.29v2.08h-1.23v1.66h1.23v4.56c.03,1.6.84,2.4,2.42,2.4.47,0,.93-.07,1.37-.2v-1.71c-.19.04-.41.06-.66.06-.34,0-.57-.07-.69-.2-.12-.14-.18-.36-.18-.67v-4.22h1.45v-1.66h-1.45v-2.08h-2.26v-.02Zm-4.42,8.84c-.22.16-.55.25-.98.25-.46,0-.83-.11-1.11-.32-.28-.21-.43-.52-.45-.92h-2.14c0,.51.16.99.47,1.43s.74.79,1.29,1.04,1.18.38,1.89.38c1.05,0,1.9-.24,2.56-.71.66-.48.99-1.1.99-1.87,0-1.08-.6-1.84-1.79-2.27-.39-.14-.86-.27-1.42-.38s-.96-.25-1.2-.4-.36-.36-.36-.61c0-.27.1-.48.31-.66.21-.17.5-.26.88-.26.44,0,.77.11.98.32.21.21.31.48.31.8h2.26c0-.81-.32-1.46-.97-1.97-.64-.51-1.5-.76-2.58-.76-1.01,0-1.82.25-2.44.75s-.93,1.13-.93,1.88c0,1.29,1.01,2.14,3.02,2.56.6.12,1.04.27,1.32.43.27.16.41.38.41.65s-.11.48-.33.65m-8.08,1.69h2.12v-8.45h-2.26v5.99c-.29.53-.81.8-1.58.8s-1.2-.44-1.2-1.32v-5.47h-2.26v5.54c.01,1,.25,1.77.73,2.29s1.17.78,2.07.78c.99,0,1.76-.34,2.31-1.01l.06.86h.01Zm-6.98-12.01h-2.27v12h2.27v-12Zm-6.12,8.21c-.05.69-.26,1.2-.61,1.53-.36.33-.9.5-1.62.5-.8,0-1.39-.28-1.76-.85s-.56-1.47-.56-2.7v-.86c.01-1.18.21-2.05.6-2.61.39-.56.97-.84,1.75-.84.72,0,1.25.16,1.6.5.35.33.56.86.61,1.6h2.34c-.12-1.27-.59-2.26-1.39-2.96s-1.86-1.05-3.17-1.05c-.95,0-1.78.22-2.5.67-.72.44-1.27,1.08-1.65,1.92-.38.83-.58,1.8-.58,2.89v.7c0,1.71.42,3.06,1.25,4.04.84.98,1.98,1.47,3.44,1.47,1.33,0,2.41-.35,3.22-1.05.82-.7,1.27-1.67,1.36-2.89h-2.34.01Zm-11.77-4.73c-.22-.07-.45-.1-.7-.1-.8,0-1.43.39-1.88,1.16l-.06-1.01h-2.13v8.45h2.26v-5.53c.27-.58.82-.87,1.68-.87.23,0,.51.02.81.06l.03-2.17h-.01Zm-8.69,2.14c.26.27.4.66.41,1.17v.18h-3.14c.08-.57.26-1,.53-1.3.28-.3.64-.45,1.09-.45.48,0,.85.14,1.11.41m1.07,6.13c.58-.27,1.04-.64,1.38-1.12l-1.11-1.24c-.49.63-1.17.95-2.04.95-.56,0-1.03-.17-1.4-.5s-.59-.78-.66-1.33h5.38v-.92c0-1.34-.33-2.37-1-3.1-.66-.73-1.57-1.09-2.73-1.09-.77,0-1.46.18-2.06.54s-1.07.88-1.4,1.55-.49,1.43-.49,2.28v.22c0,1.26.39,2.28,1.17,3.04.78.76,1.79,1.14,3.03,1.14.7,0,1.34-.13,1.92-.4m-11.09-1.42c-.71,0-1.2-.28-1.48-.84v-3.46c.26-.54.75-.81,1.46-.81.53,0,.94.21,1.21.64.28.43.42,1.03.42,1.82,0,1.76-.54,2.65-1.62,2.65m3.88-2.6c0-1.35-.29-2.42-.87-3.19s-1.39-1.16-2.43-1.16c-.88,0-1.59.33-2.14.98l-.08-.83h-2.09v11.7h2.26v-3.98c.53.59,1.22.89,2.07.89,1,0,1.8-.39,2.39-1.18.59-.78.89-1.83.89-3.13v-.12.02Zm-14.3-1.88c.3-.43.73-.64,1.28-.64s.99.22,1.3.65.46,1.04.46,1.83c0,.92-.15,1.6-.46,2.02-.31.42-.74.63-1.28.63s-.99-.21-1.3-.64c-.3-.43-.45-1.04-.45-1.84,0-.9.15-1.57.45-2m-2.71,1.94c0,1.34.36,2.41,1.09,3.19.73.78,1.7,1.17,2.92,1.17s2.19-.39,2.91-1.18c.72-.78,1.09-1.82,1.09-3.12v-.58c-.1-1.2-.5-2.15-1.22-2.84-.72-.7-1.65-1.05-2.79-1.05-.8,0-1.51.18-2.11.54-.61.36-1.07.87-1.39,1.52-.32.66-.49,1.4-.49,2.24v.1h-.01Zm-1.51-7.79h-2.27v12h2.27v-12Zm-6.29,5.62c.26.27.39.66.41,1.17v.18h-3.14c.08-.57.26-1,.54-1.3s.64-.45,1.09-.45c.48,0,.85.14,1.11.41m1.07,6.13c.58-.27,1.04-.64,1.38-1.12l-1.11-1.24c-.49.63-1.17.95-2.04.95-.56,0-1.03-.17-1.39-.5-.37-.33-.59-.78-.66-1.33h5.38v-.92c0-1.34-.33-2.37-1-3.1-.66-.73-1.57-1.09-2.73-1.09-.77,0-1.46.18-2.06.54s-1.07.88-1.39,1.55c-.33.67-.49,1.43-.49,2.28v.22c0,1.26.39,2.28,1.17,3.04.78.76,1.79,1.14,3.03,1.14.7,0,1.34-.13,1.92-.4m-12.31-8.21h-2.36l2.85,8.45h2.16l2.85-8.45h-2.36l-1.57,5.69-1.57-5.69h0Zm-5.4,2.08c.26.27.4.66.41,1.17v.18h-3.14c.08-.57.26-1,.54-1.3s.64-.45,1.09-.45c.48,0,.85.14,1.11.41m1.07,6.13c.58-.27,1.04-.64,1.38-1.12l-1.11-1.24c-.49.63-1.17.95-2.04.95-.56,0-1.03-.17-1.4-.5s-.59-.78-.66-1.33h5.38v-.92c0-1.34-.33-2.37-1-3.1-.66-.73-1.58-1.09-2.73-1.09-.77,0-1.46.18-2.06.54s-1.07.88-1.4,1.55-.49,1.43-.49,2.28v.22c0,1.26.39,2.28,1.17,3.04.78.76,1.79,1.14,3.03,1.14.7,0,1.34-.13,1.92-.4m-12.56-9.23c.92,0,1.62.3,2.1.9.48.6.72,1.47.72,2.63v.6c-.01,1.11-.26,1.97-.74,2.57-.49.6-1.18.9-2.1.9h-1.13v-7.59h1.16-.01Zm.02,9.47c.99,0,1.89-.23,2.68-.69.79-.45,1.4-1.09,1.84-1.92.43-.82.65-1.76.65-2.82v-.52c0-1.06-.22-2-.66-2.83-.44-.83-1.06-1.47-1.85-1.92-.79-.45-1.68-.68-2.68-.68h-3.5v11.38h3.52Z"/></g><g class="ms"><path class="ip" d="m156.77,111.73c.26.28.4.66.41,1.17v.18h-3.14c.08-.57.26-1,.54-1.3s.64-.45,1.09-.45c.48,0,.85.14,1.11.41m1.07,6.13c.58-.27,1.04-.64,1.38-1.12l-1.11-1.24c-.49.63-1.17.95-2.04.95-.56,0-1.03-.17-1.39-.5-.37-.33-.59-.78-.66-1.33h5.38v-.92c0-1.34-.33-2.37-1-3.1-.66-.73-1.57-1.09-2.73-1.09-.77,0-1.46.18-2.06.54-.6.36-1.07.88-1.39,1.55-.33.67-.49,1.43-.49,2.28v.22c0,1.26.39,2.28,1.17,3.04s1.79,1.14,3.03,1.14c.7,0,1.34-.13,1.92-.4m-14.82-8.21v8.45h2.26v-5.96c.32-.54.79-.81,1.43-.81.48,0,.83.11,1.04.32s.31.56.31,1.04v5.41h2.26v-5.46c0-1.05-.23-1.83-.67-2.36s-1.1-.79-2-.79c-1.01,0-1.83.38-2.43,1.13l-.07-.98h-2.13Zm-3.86-1.33c.23.22.54.33.92.33s.69-.11.92-.33.35-.5.35-.84-.11-.62-.34-.84c-.23-.22-.54-.33-.92-.33s-.7.11-.93.33-.34.5-.34.84.12.62.35.84m2.05,1.34h-2.27v8.45h2.27v-8.45Zm-9.13-3.55h-2.26v12h2.26v-6.01c.3-.51.78-.76,1.44-.76.48,0,.83.12,1.04.35.21.23.31.59.31,1.07v5.35h2.26v-5.41c-.03-2.13-.96-3.2-2.79-3.2-.91,0-1.66.36-2.26,1.08v-4.47Zm-8.24,9.77c-.27-.38-.4-1.01-.4-1.88v-.24c0-.86.13-1.48.4-1.87.27-.38.67-.57,1.19-.57.43,0,.77.14,1.03.41.26.28.4.63.41,1.07h2.12c0-1-.33-1.8-.97-2.4s-1.49-.9-2.54-.9c-1.21,0-2.16.39-2.85,1.16-.69.78-1.04,1.82-1.04,3.12v.15c0,1.35.35,2.42,1.05,3.18.7.77,1.65,1.15,2.86,1.15.65,0,1.24-.13,1.77-.39s.96-.63,1.26-1.11c.31-.48.46-1,.47-1.57h-2.12c-.01.38-.15.68-.41.91s-.6.34-1.01.34c-.54,0-.94-.19-1.21-.57m-8.66.39c-.2-.18-.3-.41-.3-.69v-.13c.08-.78.68-1.17,1.81-1.17h.84v1.45c-.13.25-.34.45-.62.6-.28.15-.59.22-.92.22s-.61-.09-.81-.27m4.96,1.84v-.13c-.22-.41-.33-1.02-.34-1.82v-3.66c0-.95-.31-1.68-.92-2.21-.61-.52-1.44-.79-2.48-.79-.69,0-1.31.12-1.86.35s-.98.56-1.28.98c-.3.42-.45.87-.45,1.36h2.26c0-.32.11-.57.32-.75.22-.18.51-.27.89-.27.43,0,.75.12.95.35.2.23.3.55.3.94v.48h-1.04c-1.26,0-2.22.25-2.88.73-.66.48-1,1.17-1,2.06,0,.73.27,1.33.82,1.81.54.48,1.23.72,2.06.72.88,0,1.59-.3,2.13-.91.05.3.12.56.23.76h2.29Zm-21.05-11.38v11.38h2.34v-3.11l-.24-5.36,3.06,8.47h1.61l3.07-8.48-.23,5.37v3.11h2.35v-11.38h-3.08l-2.91,8.25-2.92-8.25h-3.06.01Zm-5.19,2.87c-.22-.07-.45-.1-.7-.1-.8,0-1.43.39-1.88,1.16l-.06-1.01h-2.13v8.45h2.26v-5.53c.27-.58.83-.87,1.68-.87.23,0,.51.02.81.06l.03-2.17h-.01Zm-8.69,2.14c.26.28.4.66.41,1.17v.18h-3.14c.08-.57.26-1,.53-1.3.28-.3.64-.45,1.09-.45.48,0,.85.14,1.11.41m1.07,6.13c.58-.27,1.04-.64,1.38-1.12l-1.11-1.24c-.49.63-1.17.95-2.04.95-.56,0-1.03-.17-1.4-.5s-.59-.78-.66-1.33h5.38v-.92c0-1.34-.33-2.37-1-3.1-.66-.73-1.57-1.09-2.73-1.09-.77,0-1.46.18-2.06.54s-1.07.88-1.4,1.55c-.33.67-.49,1.43-.49,2.28v.22c0,1.26.39,2.28,1.17,3.04s1.79,1.14,3.03,1.14c.7,0,1.34-.13,1.92-.4m-11.09-1.42c-.71,0-1.2-.28-1.48-.84v-3.46c.26-.54.75-.81,1.46-.81.53,0,.94.21,1.21.64.28.43.42,1.03.42,1.82,0,1.76-.54,2.65-1.62,2.65m3.88-2.6c0-1.35-.29-2.42-.87-3.19-.58-.77-1.39-1.16-2.43-1.16-.88,0-1.59.33-2.14.98l-.08-.83h-2.09v11.7h2.26v-3.98c.53.59,1.22.89,2.07.89,1.01,0,1.8-.39,2.4-1.18.59-.78.89-1.83.89-3.13v-.12.02Zm-14.31-1.88c.3-.43.73-.64,1.28-.64s.99.22,1.3.65c.31.43.46,1.04.46,1.83,0,.92-.15,1.6-.46,2.01-.31.42-.74.63-1.28.63s-.99-.21-1.3-.64c-.3-.43-.45-1.04-.45-1.84,0-.9.15-1.57.45-2m-2.71,1.94c0,1.34.36,2.41,1.09,3.19s1.7,1.17,2.92,1.17,2.19-.39,2.91-1.18c.72-.78,1.09-1.82,1.09-3.12v-.58c-.1-1.2-.5-2.15-1.22-2.84-.72-.7-1.65-1.05-2.79-1.05-.8,0-1.51.18-2.11.54-.61.36-1.07.87-1.39,1.52-.32.66-.49,1.4-.49,2.24v.1h0Zm-1.51-7.79h-2.27v12h2.27v-12Zm-6.29,5.62c.26.28.4.66.41,1.17v.18h-3.14c.08-.57.26-1,.53-1.3.28-.3.64-.45,1.09-.45.48,0,.85.14,1.11.41m1.07,6.13c.58-.27,1.04-.64,1.38-1.12l-1.11-1.24c-.49.63-1.17.95-2.04.95-.56,0-1.03-.17-1.39-.5-.37-.33-.59-.78-.66-1.33h5.38v-.92c0-1.34-.33-2.37-1-3.1-.66-.73-1.57-1.09-2.73-1.09-.77,0-1.46.18-2.06.54-.6.36-1.07.88-1.39,1.55-.33.67-.49,1.43-.49,2.28v.22c0,1.26.39,2.28,1.17,3.04s1.79,1.14,3.03,1.14c.7,0,1.34-.13,1.92-.4m-12.3-8.21h-2.36l2.85,8.45h2.16l2.85-8.45h-2.36l-1.57,5.69s-1.57-5.69-1.57-5.69Zm-5.4,2.08c.26.28.4.66.41,1.17v.18h-3.14c.08-.57.26-1,.54-1.3.28-.3.64-.45,1.09-.45.48,0,.85.14,1.11.41m1.07,6.13c.58-.27,1.04-.64,1.38-1.12l-1.11-1.24c-.49.63-1.17.95-2.04.95-.56,0-1.03-.17-1.39-.5-.37-.33-.59-.78-.66-1.33h5.38v-.92c0-1.34-.33-2.37-1-3.1-.66-.73-1.57-1.09-2.73-1.09-.77,0-1.46.18-2.06.54-.6.36-1.07.88-1.4,1.55-.33.67-.49,1.43-.49,2.28v.22c0,1.26.39,2.28,1.17,3.04s1.79,1.14,3.03,1.14c.7,0,1.34-.13,1.92-.4m-12.56-9.23c.92,0,1.62.3,2.1.9s.72,1.47.72,2.63v.6c-.01,1.11-.26,1.97-.74,2.57-.49.6-1.18.9-2.1.9h-1.13v-7.59h1.16-.01Zm.02,9.47c.99,0,1.89-.23,2.68-.69.79-.45,1.41-1.09,1.84-1.91.43-.82.65-1.76.65-2.82v-.52c0-1.06-.22-2-.66-2.83s-1.06-1.47-1.85-1.92-1.68-.68-2.68-.68h-3.5v11.38h3.52Z"/></g><g class="qt"><rect class="nl" x="415.22" y="162.69" width="70" height="46.11"/></g><g class="pp"><rect class="mp" x="415.76" y="166.51" width="68.92" height="78.64" rx="9.66" ry="9.66"/></g><g class="qj"><rect class="hz" x="415.76" y="166.51" width="68.92" height="78.64" rx="9.66" ry="9.66"/></g><g class="na"><path class="ir" d="m473.49,216.29c.26.28.4.66.41,1.17v.18h-3.14c.08-.57.26-1,.54-1.3s.64-.46,1.09-.46c.48,0,.85.14,1.11.41m1.07,6.13c.58-.27,1.04-.64,1.38-1.12l-1.11-1.24c-.49.63-1.17.94-2.04.94-.56,0-1.03-.17-1.4-.5s-.59-.78-.66-1.33h5.38v-.92c0-1.34-.33-2.37-1-3.1-.66-.73-1.57-1.09-2.73-1.09-.77,0-1.46.18-2.06.54s-1.07.88-1.4,1.55-.49,1.43-.49,2.28v.22c0,1.26.39,2.28,1.17,3.04s1.79,1.14,3.03,1.14c.7,0,1.34-.13,1.92-.4m-11.85-1.99c-.27-.38-.4-1.01-.4-1.88v-.24c0-.86.13-1.48.4-1.87.27-.38.67-.58,1.19-.58.43,0,.77.14,1.03.41.26.28.4.63.41,1.07h2.12c-.01-1-.33-1.8-.97-2.4-.64-.6-1.49-.9-2.54-.9-1.21,0-2.16.39-2.85,1.16-.69.78-1.04,1.81-1.04,3.12v.15c0,1.36.35,2.42,1.05,3.18.7.77,1.65,1.15,2.86,1.15.64,0,1.23-.13,1.77-.39.53-.26.96-.63,1.26-1.11.31-.48.46-1,.47-1.57h-2.12c0,.38-.14.68-.41.91-.26.23-.6.34-1.01.34-.54,0-.95-.19-1.21-.57m-6.21-7.56c.23.22.54.33.92.33s.69-.11.92-.33.35-.5.35-.84-.11-.62-.34-.84-.54-.33-.92-.33-.7.11-.93.33c-.23.22-.34.5-.34.84s.12.62.35.84m2.05,1.34h-2.27v8.45h2.27v-8.45Zm-8.88,0h-2.36l2.85,8.45h2.16l2.85-8.45h-2.36l-1.57,5.69-1.57-5.69h0Zm-2.79-.05c-.22-.07-.45-.1-.7-.1-.8,0-1.43.39-1.88,1.16l-.06-1.01h-2.13v8.45h2.26v-5.53c.27-.58.83-.87,1.68-.87.23,0,.51.02.81.06l.03-2.17h0Zm-8.69,2.14c.26.28.4.66.41,1.17v.18h-3.14c.08-.57.26-1,.54-1.3s.64-.46,1.09-.46c.48,0,.85.14,1.11.41m1.07,6.13c.58-.27,1.04-.64,1.38-1.12l-1.11-1.24c-.49.63-1.17.94-2.04.94-.56,0-1.03-.17-1.4-.5s-.59-.78-.66-1.33h5.38v-.92c0-1.34-.33-2.37-1-3.1-.66-.73-1.57-1.09-2.73-1.09-.77,0-1.46.18-2.06.54s-1.07.88-1.4,1.55-.49,1.43-.49,2.28v.22c0,1.26.39,2.28,1.17,3.04s1.79,1.14,3.03,1.14c.7,0,1.34-.13,1.92-.4m-10.07-1.79c-.31.23-.75.34-1.31.34-1.5,0-2.25-.63-2.25-1.88h-2.35c0,.73.19,1.38.57,1.94s.93,1,1.65,1.32,1.51.48,2.39.48c1.26,0,2.26-.28,3.01-.84s1.12-1.33,1.12-2.32c0-.89-.3-1.62-.91-2.22-.61-.59-1.58-1.09-2.91-1.49-.72-.22-1.27-.45-1.64-.7-.37-.25-.56-.56-.56-.93,0-.4.16-.71.48-.96.32-.24.76-.36,1.34-.36s1.05.15,1.38.43.49.69.49,1.21h2.34c0-.68-.17-1.29-.53-1.83-.35-.54-.85-.95-1.48-1.25-.64-.29-1.36-.44-2.17-.44s-1.54.13-2.18.41c-.65.27-1.15.65-1.49,1.13-.35.48-.52,1.03-.52,1.65,0,1.18.65,2.12,1.94,2.82.47.25,1.12.51,1.93.78.81.26,1.38.51,1.69.75s.47.58.47,1.02c0,.41-.16.72-.47.95"/></g><g class="qa"><path class="ir" d="m455.09,195.02h-2.43l2.96,8.48-.26.7c-.12.3-.29.52-.5.65-.21.13-.53.2-.96.2h-.34v1.7c.34.1.67.15,1,.15,1.16,0,1.99-.55,2.5-1.66l.19-.45,3.4-9.77h-2.42l-1.56,5.26-1.57-5.26h0Zm-15.45-2.92v11.38h2.34v-3.11l-.24-5.36,3.06,8.47h1.61l3.07-8.48-.24,5.37v3.11h2.35v-11.38h-3.08l-2.91,8.25-2.92-8.25h-3.06.02Z"/></g><g class="ou"><rect class="qp" x="517.22" y="147.69" width="77" height="46.11"/></g><g class="pv"><path class="mp" d="m527.42,151.51h56.6c5.33,0,9.66,4.33,9.66,9.66v96.31c0,5.33-4.33,9.66-9.66,9.66h-56.6c-5.33,0-9.66-4.33-9.66-9.66v-96.32c0-5.33,4.33-9.66,9.66-9.66h0Z"/></g><g class="ob"><path class="hz" d="m527.42,151.51h56.6c5.33,0,9.66,4.33,9.66,9.66v96.31c0,5.33-4.33,9.66-9.66,9.66h-56.6c-5.33,0-9.66-4.33-9.66-9.66v-96.32c0-5.33,4.33-9.66,9.66-9.66h0Z"/></g><path class="ir" d="m561.32,218.43v2.18l6.81-2.86v-1.84l-6.81-2.85v2.17l4.54,1.59-4.54,1.61h0Zm-6.33-5.26l1.43,4.26h-2.84l1.41-4.26h0Zm2.85,8.5h2.49l-4.26-11.37h-2.17l-4.23,11.37h2.49l.78-2.34h4.11l.79,2.34Zm-9.22-6.43v-2.19l-6.73,2.85v1.84l6.73,2.85v-2.19l-4.45-1.57,4.45-1.6h0Z"/><g class="jy"><path class="ir" d="m578.8,200.78c-.22.16-.55.25-.98.25-.46,0-.83-.11-1.11-.32-.28-.21-.42-.52-.45-.92h-2.14c0,.51.16.99.47,1.43.31.44.74.79,1.29,1.04s1.18.38,1.89.38c1.05,0,1.9-.24,2.56-.71.66-.48.99-1.1.99-1.87,0-1.08-.6-1.84-1.79-2.27-.39-.14-.86-.27-1.42-.38s-.96-.25-1.2-.4-.35-.35-.35-.6c0-.27.1-.49.31-.66s.5-.26.88-.26c.44,0,.77.1.98.32.21.21.31.48.31.8h2.26c0-.81-.32-1.46-.97-1.97-.64-.51-1.5-.76-2.57-.76-1.01,0-1.82.25-2.44.75s-.93,1.13-.93,1.88c0,1.29,1.01,2.14,3.02,2.56.6.12,1.04.27,1.32.43.27.16.41.38.41.65s-.11.48-.33.64m-8.23,0c-.22.16-.55.25-.98.25-.46,0-.83-.11-1.11-.32-.28-.21-.42-.52-.45-.92h-2.14c0,.51.16.99.47,1.43.31.44.74.79,1.29,1.04s1.18.38,1.89.38c1.05,0,1.9-.24,2.56-.71.66-.48.99-1.1.99-1.87,0-1.08-.6-1.84-1.79-2.27-.39-.14-.86-.27-1.42-.38s-.96-.25-1.2-.4-.36-.35-.36-.6c0-.27.1-.49.31-.66s.5-.26.88-.26c.44,0,.77.1.98.32s.31.48.31.8h2.26c0-.81-.32-1.46-.96-1.97s-1.5-.76-2.58-.76c-1.01,0-1.82.25-2.44.75s-.93,1.13-.93,1.88c0,1.29,1.01,2.14,3.02,2.56.6.12,1.04.27,1.32.43.27.16.41.38.41.65s-.11.48-.33.64m-8.15-4.68c.26.27.4.66.41,1.16v.18h-3.14c.08-.57.26-1,.54-1.3.28-.3.64-.46,1.09-.46.48,0,.85.14,1.11.41m1.07,6.13c.58-.27,1.04-.64,1.38-1.12l-1.11-1.24c-.49.63-1.17.95-2.04.95-.56,0-1.03-.17-1.39-.5-.37-.33-.59-.78-.66-1.33h5.38v-.92c0-1.34-.33-2.37-1-3.1-.66-.73-1.57-1.09-2.73-1.09-.77,0-1.46.18-2.06.54s-1.07.88-1.39,1.55c-.33.67-.49,1.43-.49,2.28v.22c0,1.27.39,2.28,1.17,3.04.78.76,1.79,1.14,3.03,1.14.7,0,1.34-.13,1.92-.4m-6.87-8.26c-.22-.07-.45-.1-.7-.1-.8,0-1.43.39-1.88,1.16l-.06-1.01h-2.13v8.45h2.26v-5.53c.27-.58.83-.87,1.68-.87.23,0,.51.02.81.06l.03-2.17h-.01Zm-11.52,2.41c.31-.44.73-.66,1.28-.66.67,0,1.16.26,1.46.77v3.56c-.3.52-.79.78-1.48.78-.54,0-.96-.22-1.27-.65s-.46-1.04-.46-1.8c0-.88.16-1.54.47-1.99m-2.72,1.91c0,1.31.31,2.37.94,3.16.63.79,1.45,1.19,2.46,1.19.85,0,1.53-.29,2.05-.88v.45c0,.59-.17,1.04-.5,1.36s-.8.48-1.4.48c-.8,0-1.48-.32-2.05-.94l-1,1.38c.3.39.75.71,1.34.96s1.19.37,1.81.37c.82,0,1.53-.14,2.14-.43s1.08-.7,1.42-1.25.5-1.19.5-1.93v-8.17h-2.05l-.09.8c-.52-.64-1.24-.95-2.16-.95-1.05,0-1.88.4-2.5,1.19-.62.79-.93,1.84-.93,3.13v.09h.02Zm-8.68-4.27v8.45h2.26v-5.96c.32-.54.79-.81,1.43-.81.48,0,.83.11,1.04.32.21.22.31.56.31,1.04v5.41h2.26v-5.46c-.01-1.05-.23-1.83-.67-2.36s-1.1-.79-2-.79c-1.02,0-1.83.38-2.43,1.13l-.07-.98h-2.13Zm-1.98-2.91h-2.34v11.38h2.34v-11.38Z"/></g><g class="lp"><rect class="ql" x="46.22" y="162.69" width="81" height="46.11"/></g><g class="pj"><rect class="mp" x="46.76" y="166.51" width="79.92" height="78.64" rx="9.66" ry="9.66"/></g><g class="nr"><rect class="hz" x="46.76" y="166.51" width="79.92" height="78.64" rx="9.66" ry="9.66"/></g><g class="lm"><path class="ir" d="m121.36,211.1c-.22-.07-.45-.1-.7-.1-.8,0-1.43.39-1.88,1.16l-.06-1.01h-2.13v8.45h2.26v-5.53c.27-.58.83-.87,1.68-.87.23,0,.51.02.81.06l.03-2.17h-.01Zm-8.69,2.14c.26.28.4.66.41,1.17v.18h-3.14c.08-.57.26-1,.53-1.3.28-.3.64-.46,1.09-.46.48,0,.85.14,1.11.41m1.07,6.13c.58-.27,1.04-.64,1.38-1.12l-1.11-1.24c-.49.63-1.17.94-2.04.94-.56,0-1.03-.17-1.39-.5-.37-.33-.59-.78-.66-1.33h5.38v-.92c0-1.34-.33-2.37-1-3.1-.66-.73-1.57-1.09-2.73-1.09-.77,0-1.46.18-2.06.54s-1.07.88-1.39,1.55c-.33.67-.49,1.43-.49,2.28v.22c0,1.26.39,2.28,1.17,3.04s1.79,1.14,3.03,1.14c.7,0,1.34-.13,1.92-.4m-14.82-8.21v8.45h2.26v-5.96c.32-.54.79-.81,1.43-.81.49,0,.83.11,1.04.32.21.22.31.56.31,1.04v5.41h2.26v-5.46c-.01-1.05-.24-1.83-.67-2.36-.44-.53-1.1-.79-2-.79-1.02,0-1.83.38-2.43,1.13l-.07-.98h-2.13Zm-3.86-1.33c.23.22.54.33.92.33s.69-.11.92-.33c.23-.22.35-.5.35-.84s-.11-.62-.34-.84c-.23-.22-.54-.33-.92-.33s-.7.11-.93.33-.34.5-.34.84.12.62.35.84m2.05,1.34h-2.27v8.45h2.27v-8.45Zm-8.74,6.61c-.2-.18-.3-.41-.3-.7v-.13c.08-.78.68-1.17,1.81-1.17h.84v1.45c-.14.25-.34.45-.62.6-.28.15-.59.22-.92.22s-.61-.09-.81-.27m4.96,1.84v-.13c-.22-.41-.33-1.02-.34-1.82v-3.66c0-.95-.31-1.68-.92-2.21-.61-.52-1.44-.79-2.48-.79-.69,0-1.31.12-1.86.35s-.98.56-1.28.98c-.3.42-.45.87-.45,1.36h2.26c0-.32.11-.57.32-.75.22-.18.51-.27.89-.27.43,0,.75.12.95.35.2.23.3.55.3.94v.48h-1.04c-1.26,0-2.21.25-2.88.73-.66.48-1,1.17-1,2.06,0,.73.27,1.33.82,1.81.54.48,1.23.72,2.06.72.88,0,1.59-.3,2.13-.91.05.3.12.56.23.76h2.29Zm-12.14-10.53v2.08h-1.23v1.66h1.23v4.56c.03,1.6.84,2.4,2.42,2.4.47,0,.93-.07,1.37-.2v-1.71c-.19.04-.41.06-.66.06-.34,0-.57-.07-.69-.2-.12-.14-.18-.36-.18-.67v-4.22h1.45v-1.66h-1.45v-2.08h-2.26v-.02Zm-9.45,2.08v8.45h2.26v-5.96c.32-.54.79-.81,1.43-.81.48,0,.83.11,1.04.32s.31.56.31,1.04v5.41h2.26v-5.46c0-1.05-.23-1.83-.67-2.36-.44-.53-1.1-.79-2-.79-1.01,0-1.82.38-2.43,1.13l-.07-.98h-2.13Zm-6.64,2.32c.3-.43.73-.65,1.28-.65s.99.22,1.3.65c.31.43.46,1.04.46,1.83,0,.92-.15,1.59-.46,2.01s-.74.63-1.28.63-.99-.21-1.3-.64c-.3-.43-.45-1.04-.45-1.84,0-.9.15-1.57.45-2m-2.71,1.94c0,1.34.36,2.41,1.09,3.19s1.7,1.17,2.92,1.17,2.19-.39,2.91-1.18c.72-.78,1.09-1.82,1.09-3.12l-.02-.58c-.08-1.2-.49-2.15-1.21-2.84s-1.65-1.05-2.79-1.05c-.8,0-1.51.18-2.11.54-.61.36-1.07.87-1.4,1.52-.32.66-.48,1.4-.48,2.24v.1h0Zm-3.38.42c-.05.69-.26,1.2-.61,1.54-.36.33-.9.5-1.62.5-.8,0-1.39-.28-1.76-.85s-.56-1.47-.56-2.7v-.86c0-1.18.21-2.05.6-2.6.39-.56.97-.84,1.75-.84.72,0,1.25.16,1.6.5.35.33.56.86.61,1.6h2.34c-.12-1.27-.59-2.26-1.39-2.96-.8-.7-1.86-1.05-3.17-1.05-.95,0-1.78.22-2.5.67-.72.44-1.27,1.08-1.65,1.92-.39.83-.58,1.8-.58,2.89v.7c0,1.71.42,3.06,1.25,4.04.84.98,1.98,1.47,3.44,1.47,1.33,0,2.41-.35,3.22-1.05s1.27-1.67,1.36-2.89h-2.34v-.03Z"/></g><g class="oy"><path class="ir" d="m96.45,198.75c-.71,0-1.2-.28-1.48-.84v-3.46c.27-.54.75-.81,1.46-.81.53,0,.94.21,1.22.64s.42,1.03.42,1.82c0,1.76-.54,2.65-1.62,2.65m3.88-2.6c0-1.35-.29-2.42-.87-3.19s-1.39-1.16-2.43-1.16c-.88,0-1.59.33-2.14.98l-.08-.83h-2.09v11.7h2.26v-3.98c.53.59,1.22.89,2.07.89,1,0,1.8-.39,2.39-1.18.59-.78.89-1.83.89-3.13v-.12.02Zm-12.88,2.6c-.71,0-1.2-.28-1.48-.84v-3.46c.27-.54.75-.81,1.46-.81.53,0,.94.21,1.21.64.28.43.42,1.03.42,1.82,0,1.76-.54,2.65-1.62,2.65m3.88-2.6c0-1.35-.29-2.42-.87-3.19s-1.39-1.16-2.43-1.16c-.88,0-1.59.33-2.14.98l-.08-.83h-2.09v11.7h2.26v-3.98c.53.59,1.22.89,2.07.89,1.01,0,1.8-.39,2.4-1.18.59-.78.89-1.83.89-3.13v-.12.02Zm-13.88-4.23l1.43,4.26h-2.84s1.41-4.26,1.41-4.26Zm2.85,8.5h2.49l-4.26-11.38h-2.17l-4.23,11.38h2.49l.78-2.34h4.11s.79,2.34.79,2.34Z"/></g></g><g id="hk"><g class="ps"><line class="ie" x1="141.15" y1="185.59" x2="256.15" y2="185.59"/></g><g class="lf"><line class="ie" x1="141.15" y1="226.09" x2="256.15" y2="226.09"/></g><g class="kl"><g class="lx"><g class="js"><g class="jf"><rect class="nu" x="137.65" y="185.59" width="122" height="41"/></g></g></g></g><g class="ij"><g class="jc"><g class="mw"><g class="lj"><g><line class="ic" x1="137.6" y1="212.79" x2="276.68" y2="212.79"/><path class="hx" d="m289.46,214.03c6.67,1.52,15.08,4.86,17.5,12.18"/><path class="ib" d="m307.65,230.59h0m-27-17.8h0m-151,0h0"/><path class="nu" d="m307.65,240.44l6.1-16.77s-6.1,6.92-12.21,0l6.1,16.77h0Z"/><line class="hy" x1="295.29" y1="209.89" x2="295.04" y2="210.06"/><path class="if" d="m301.39,204.3c2.85-3.77,5.54-9.74,6.13-19.55"/><path class="ib" d="m307.65,180.59h0m-12.36,29.3h0m-.5.34h0"/><path class="nu" d="m307.65,170.74l-6.1,16.77s6.1-6.92,12.21,0l-6.1-16.77h0Z"/></g></g></g></g></g></g></svg>