<?xml version="1.0" encoding="UTF-8" standalone="no"?>
<svg
   version="1.1"
   id="Ebene_1"
   x="0"
   y="0"
   viewBox="0 0 640 335"
   xml:space="preserve"
   sodipodi:docname="gefyra_run_action_nobg.svg"
   inkscape:version="1.3 (0e150ed6c4, 2023-07-21)"
   width="640"
   height="335"
   xmlns:inkscape="http://www.inkscape.org/namespaces/inkscape"
   xmlns:sodipodi="http://sodipodi.sourceforge.net/DTD/sodipodi-0.dtd"
   xmlns:xlink="http://www.w3.org/1999/xlink"
   xmlns="http://www.w3.org/2000/svg"
   xmlns:svg="http://www.w3.org/2000/svg"><defs
     id="defs458" /><sodipodi:namedview
     id="namedview458"
     pagecolor="#ffffff"
     bordercolor="#000000"
     borderopacity="0.25"
     inkscape:showpageshadow="2"
     inkscape:pageopacity="0.0"
     inkscape:pagecheckerboard="0"
     inkscape:deskcolor="#d1d1d1"
     inkscape:zoom="2.203125"
     inkscape:cx="303.20567"
     inkscape:cy="174.52482"
     inkscape:window-width="1920"
     inkscape:window-height="1129"
     inkscape:window-x="-8"
     inkscape:window-y="-5"
     inkscape:window-maximized="1"
     inkscape:current-layer="Ebene_1" /><style
     id="style1">.st283{fill:#fff}.st289{fill:#2a3a44}</style><g
     id="Ebene_1_00000095336299552625870920000004773431930302372245_"
     transform="matrix(0.78239999,0,0,0.78239999,69.06206,14.256739)"><defs
       id="defs382"><path
         id="SVGID_00000180355934780937430980000003624595155866464432_"
         d="m 253,12 c -6,0 -11,4.9 -11,11 v 42.7 c 0,6 4.9,11 11,11 h 362.1 c 6,0 11,-4.9 11,-11 V 23 c 0,-6 -4.9,-11 -11,-11 z" /></defs><clipPath
       id="SVGID_00000127010348937891711860000001171755355560725946_"><use
         xlink:href="#SVGID_00000180355934780937430980000003624595155866464432_"
         style="overflow:visible"
         id="use382" /></clipPath><linearGradient
       id="SVGID_00000116937787687193153890000011850035099120395707_"
       gradientUnits="userSpaceOnUse"
       x1="1.034"
       y1="-1.118"
       x2="2.0339999"
       y2="-1.118"
       gradientTransform="matrix(384.0277,0,0,384.0277,-155.028,473.658)"><stop
         offset="0"
         style="stop-color:#9b9b9b"
         id="stop382" /><stop
         offset=".114"
         style="stop-color:#dcdcdc"
         id="stop383" /><stop
         offset=".895"
         style="stop-color:#dcdcdc"
         id="stop384" /><stop
         offset="1"
         style="stop-color:#f0f0f0"
         id="stop385" /></linearGradient><path
       style="fill:url(#SVGID_00000116937787687193153890000011850035099120395707_)"
       d="m 242.1,12 h 384 v 64.6 h -384 z"
       clip-path="url(#SVGID_00000127010348937891711860000001171755355560725946_)"
       id="path385" /><defs
       id="defs385"><path
         id="SVGID_00000068656797963651158430000014863914093810881667_"
         d="m 14.1,12 h 612 v 356 h -612 z" /></defs><clipPath
       id="SVGID_00000119812479763844798900000000641914005342563500_"><use
         xlink:href="#SVGID_00000068656797963651158430000014863914093810881667_"
         style="overflow:visible"
         id="use385" /></clipPath><path
       style="fill:#ffffff"
       d="m 253,17.2 c -5.7,0 -10.4,4.7 -10.4,10.4 V 357 c 0,5.7 4.7,10.4 10.4,10.4 h 362.1 c 5.7,0 10.4,-4.7 10.4,-10.4 V 27.6 c 0,-5.7 -4.7,-10.4 -10.4,-10.4 z"
       clip-path="url(#SVGID_00000119812479763844798900000000641914005342563500_)"
       id="path386" /><defs
       id="defs386"><path
         id="SVGID_00000134950364752410603960000016665110738161467021_"
         d="m 14.1,12 h 612 v 356 h -612 z" /></defs><clipPath
       id="SVGID_00000058590649038719329800000014934172949918585762_"><use
         xlink:href="#SVGID_00000134950364752410603960000016665110738161467021_"
         style="overflow:visible"
         id="use386" /></clipPath><path
       style="fill:none;stroke:#2a3a44;stroke-width:1.159"
       d="m 253,17.2 c -5.7,0 -10.4,4.7 -10.4,10.4 V 357 c 0,5.7 4.7,10.4 10.4,10.4 h 362.1 c 5.7,0 10.4,-4.7 10.4,-10.4 V 27.6 c 0,-5.7 -4.7,-10.4 -10.4,-10.4 z"
       clip-path="url(#SVGID_00000058590649038719329800000014934172949918585762_)"
       id="path387" /><defs
       id="defs387"><path
         id="SVGID_00000062188751470757089960000012486513292259384759_"
         d="m 14.1,12 h 612 v 356 h -612 z" /></defs><clipPath
       id="SVGID_00000018922308808415191630000013365250879094097087_"><use
         xlink:href="#SVGID_00000062188751470757089960000012486513292259384759_"
         style="overflow:visible"
         id="use387" /></clipPath><path
       style="fill:#2a3a44"
       d="m 253,16.6 c -6,0 -11,4.9 -11,11 V 67 H 626 V 27.6 c 0,-6 -4.9,-11 -11,-11 z"
       clip-path="url(#SVGID_00000018922308808415191630000013365250879094097087_)"
       id="path388" /><defs
       id="defs388"><path
         id="SVGID_00000148620469374982462790000011670753719035948432_"
         d="m 25,81 c -6,0 -11,4.9 -11,11 v 42.7 c 0,6 4.9,11 11,11 h 163.1 c 6,0 11,-4.9 11,-11 V 92 c 0,-6 -4.9,-11 -11,-11 z" /></defs><clipPath
       id="SVGID_00000164496578526399257290000005369768219993567927_"><use
         xlink:href="#SVGID_00000148620469374982462790000011670753719035948432_"
         style="overflow:visible"
         id="use388" /></clipPath><linearGradient
       id="SVGID_00000116220528410177771300000017101240839992383107_"
       gradientUnits="userSpaceOnUse"
       x1="1.071"
       y1="-1.245"
       x2="2.0710001"
       y2="-1.245"
       gradientTransform="matrix(185.0277,0,0,185.0277,-184.028,343.663)"><stop
         offset="0"
         style="stop-color:#9b9b9b"
         id="stop388" /><stop
         offset=".114"
         style="stop-color:#dcdcdc"
         id="stop389" /><stop
         offset=".895"
         style="stop-color:#dcdcdc"
         id="stop390" /><stop
         offset="1"
         style="stop-color:#f0f0f0"
         id="stop391" /></linearGradient><path
       style="fill:url(#SVGID_00000116220528410177771300000017101240839992383107_)"
       d="m 14.1,81 h 185 v 64.6 h -185 z"
       clip-path="url(#SVGID_00000164496578526399257290000005369768219993567927_)"
       id="path391" /><defs
       id="defs391"><path
         id="SVGID_00000153671573098517567050000006321535042152815029_"
         d="m 14.1,12 h 612 v 356 h -612 z" /></defs><clipPath
       id="SVGID_00000079465104024917237270000003586966138791403447_"><use
         xlink:href="#SVGID_00000153671573098517567050000006321535042152815029_"
         style="overflow:visible"
         id="use391" /></clipPath><path
       style="fill:#ffffff"
       d="m 25,86.2 c -5.7,0 -10.4,4.7 -10.4,10.4 V 259 c 0,5.7 4.7,10.4 10.4,10.4 h 163.1 c 5.7,0 10.4,-4.7 10.4,-10.4 V 96.6 c 0,-5.7 -4.7,-10.4 -10.4,-10.4 z"
       clip-path="url(#SVGID_00000079465104024917237270000003586966138791403447_)"
       id="path392" /><defs
       id="defs392"><path
         id="SVGID_00000049222374936041669280000005929755255459892127_"
         d="m 14.1,12 h 612 v 356 h -612 z" /></defs><clipPath
       id="SVGID_00000022554059282067639970000018430432619360769414_"><use
         xlink:href="#SVGID_00000049222374936041669280000005929755255459892127_"
         style="overflow:visible"
         id="use392" /></clipPath><path
       style="fill:none;stroke:#2a3a44;stroke-width:1.159"
       d="m 25,86.2 c -5.7,0 -10.4,4.7 -10.4,10.4 V 259 c 0,5.7 4.7,10.4 10.4,10.4 h 163.1 c 5.7,0 10.4,-4.7 10.4,-10.4 V 96.6 c 0,-5.7 -4.7,-10.4 -10.4,-10.4 z"
       clip-path="url(#SVGID_00000022554059282067639970000018430432619360769414_)"
       id="path393" /><defs
       id="defs393"><path
         id="SVGID_00000041262678617741654290000011960698951162659980_"
         d="m 14.1,12 h 612 v 356 h -612 z" /></defs><clipPath
       id="SVGID_00000121981091396211366400000010866073480637601416_"><use
         xlink:href="#SVGID_00000041262678617741654290000011960698951162659980_"
         style="overflow:visible"
         id="use393" /></clipPath><path
       style="fill:#2a3a44"
       d="m 25,85.6 c -6,0 -11,4.9 -11,11 V 136 H 199 V 96.6 c 0,-6 -4.9,-11 -11,-11 z"
       clip-path="url(#SVGID_00000121981091396211366400000010866073480637601416_)"
       id="path394" /><defs
       id="defs394"><path
         id="SVGID_00000070105384043063902310000002348674728051171759_"
         d="M 271.5,26.1 H 419 V 57.6 H 271.5 Z" /></defs><clipPath
       id="SVGID_00000178915634266718824070000006645295197169234842_"><use
         xlink:href="#SVGID_00000070105384043063902310000002348674728051171759_"
         style="overflow:visible"
         id="use394" /></clipPath><path
       style="fill:#ffffff"
       d="m 317.4,42.5 c 0.3,-0.3 0.6,-0.6 0.9,-1 0.3,-0.3 0.6,-0.7 0.9,-1 0.3,-0.4 0.6,-0.7 0.8,-1 0.2,-0.3 0.5,-0.6 0.7,-0.8 h 3.4 c -0.7,0.8 -1.3,1.6 -2,2.3 -0.6,0.7 -1.3,1.5 -2.1,2.2 0.4,0.4 0.8,0.8 1.2,1.3 l 1.2,1.5 c 0.4,0.5 0.7,1 1.1,1.6 0.3,0.5 0.6,1 0.8,1.4 H 321 c -0.2,-0.4 -0.5,-0.7 -0.7,-1.1 -0.3,-0.4 -0.5,-0.8 -0.9,-1.2 -0.3,-0.4 -0.6,-0.8 -1,-1.2 -0.3,-0.4 -0.6,-0.7 -1,-1 V 49 h -2.9 V 34.4 l 2.9,-0.5 v 8.6"
       clip-path="url(#SVGID_00000178915634266718824070000006645295197169234842_)"
       id="path395" /><defs
       id="defs395"><path
         id="SVGID_00000139252805938150891920000011639948180488442805_"
         d="M 271.5,26.1 H 419 V 57.6 H 271.5 Z" /></defs><clipPath
       id="SVGID_00000056393717386617213760000007147344646302410661_"><use
         xlink:href="#SVGID_00000139252805938150891920000011639948180488442805_"
         style="overflow:visible"
         id="use395" /></clipPath><path
       style="fill:#ffffff"
       d="m 334.4,48.7 c -0.6,0.2 -1.3,0.3 -1.9,0.4 -0.8,0.1 -1.6,0.2 -2.5,0.2 -0.7,0 -1.5,-0.1 -2.2,-0.4 -1.1,-0.4 -1.9,-1.4 -2.1,-2.5 -0.1,-0.6 -0.2,-1.3 -0.2,-1.9 v -5.7 h 2.9 v 5.4 c 0,0.9 0.1,1.6 0.4,2 0.2,0.4 0.7,0.6 1.4,0.6 h 0.7 c 0.2,0 0.4,0 0.6,-0.1 v -7.9 h 2.9 z"
       clip-path="url(#SVGID_00000056393717386617213760000007147344646302410661_)"
       id="path396" /><defs
       id="defs396"><path
         id="SVGID_00000166642294994585210260000005061524230380260512_"
         d="M 271.5,26.1 H 419 V 57.6 H 271.5 Z" /></defs><clipPath
       id="SVGID_00000106831087127254768670000009513014104727969680_"><use
         xlink:href="#SVGID_00000166642294994585210260000005061524230380260512_"
         style="overflow:visible"
         id="use396" /></clipPath><path
       style="fill:#ffffff"
       d="m 346.7,43.9 c 0,0.8 -0.1,1.5 -0.4,2.2 -0.2,0.6 -0.6,1.2 -1,1.7 -0.5,0.5 -1,0.8 -1.7,1.1 -0.7,0.3 -1.5,0.4 -2.3,0.4 -0.4,0 -0.7,0 -1.1,-0.1 -0.4,0 -0.7,-0.1 -1.1,-0.1 -0.4,0 -0.7,-0.1 -1.1,-0.2 -0.3,-0.1 -0.6,-0.1 -0.9,-0.2 V 34.4 L 340,33.9 V 39 c 0.3,-0.1 0.7,-0.2 1,-0.3 0.4,-0.1 0.8,-0.1 1.1,-0.1 0.7,0 1.3,0.1 1.9,0.4 0.5,0.2 1,0.6 1.4,1.1 0.4,0.5 0.7,1.1 0.9,1.7 0.3,0.7 0.3,1.4 0.4,2.1 m -3,0 c 0,-1.9 -0.7,-2.8 -2.1,-2.8 -0.3,0 -0.6,0 -0.9,0.1 -0.2,0.1 -0.5,0.2 -0.7,0.3 v 5.3 c 0.1,0 0.3,0 0.5,0.1 h 0.7 c 0.7,0 1.4,-0.3 1.8,-0.8 0.5,-0.7 0.7,-1.5 0.7,-2.2"
       clip-path="url(#SVGID_00000106831087127254768670000009513014104727969680_)"
       id="path397" /><defs
       id="defs397"><path
         id="SVGID_00000145049018331041210880000003129870174235767203_"
         d="M 271.5,26.1 H 419 V 57.6 H 271.5 Z" /></defs><clipPath
       id="SVGID_00000008138708765510314070000008232997913457987970_"><use
         xlink:href="#SVGID_00000145049018331041210880000003129870174235767203_"
         style="overflow:visible"
         id="use397" /></clipPath><path
       style="fill:#ffffff"
       d="m 355.2,42.9 c 0,-0.2 -0.1,-0.5 -0.1,-0.7 l -0.3,-0.6 c -0.3,-0.4 -0.9,-0.7 -1.4,-0.6 -0.3,0 -0.6,0.1 -0.9,0.2 -0.2,0.1 -0.4,0.2 -0.6,0.4 -0.2,0.2 -0.3,0.4 -0.4,0.6 -0.1,0.2 -0.1,0.5 -0.2,0.7 h 3.9 m -6.8,1.1 c 0,-0.8 0.1,-1.6 0.4,-2.4 0.3,-0.6 0.6,-1.2 1.1,-1.7 0.4,-0.5 1,-0.8 1.6,-1 0.6,-0.2 1.2,-0.4 1.8,-0.4 1.3,-0.1 2.5,0.4 3.4,1.3 0.9,0.9 1.3,2.2 1.3,3.9 v 1.1 h -6.6 c 0.1,0.6 0.4,1.1 0.9,1.4 0.6,0.4 1.3,0.6 2,0.5 0.5,0 1,0 1.6,-0.1 0.4,-0.1 0.9,-0.2 1.3,-0.4 l 0.4,2.4 c -0.1,0.1 -0.4,0.1 -0.6,0.2 -0.3,0.1 -0.6,0.2 -0.9,0.2 -0.3,0.1 -0.7,0.1 -1,0.1 -0.4,0 -0.7,0.1 -1.1,0.1 -0.8,0 -1.6,-0.1 -2.4,-0.4 -0.6,-0.3 -1.2,-0.6 -1.7,-1.1 -0.4,-0.5 -0.8,-1.1 -1,-1.7 -0.4,-0.5 -0.5,-1.2 -0.5,-2"
       clip-path="url(#SVGID_00000008138708765510314070000008232997913457987970_)"
       id="path398" /><defs
       id="defs398"><path
         id="SVGID_00000137813411326982721140000011585854300619510154_"
         d="M 271.5,26.1 H 419 V 57.6 H 271.5 Z" /></defs><clipPath
       id="SVGID_00000064351817845212919540000001306704167093652626_"><use
         xlink:href="#SVGID_00000137813411326982721140000011585854300619510154_"
         style="overflow:visible"
         id="use398" /></clipPath><path
       style="fill:#ffffff"
       d="m 366.5,41.4 c -0.3,-0.1 -0.6,-0.1 -0.9,-0.2 -0.4,-0.1 -0.8,-0.1 -1.1,-0.1 -0.2,0 -0.5,0 -0.7,0.1 -0.2,0 -0.4,0.1 -0.6,0.1 v 7.8 h -2.9 v -9.8 c 0.6,-0.2 1.2,-0.4 1.8,-0.5 0.8,-0.2 1.6,-0.3 2.4,-0.2 h 0.6 c 0.2,0 0.5,0 0.7,0.1 0.2,0 0.4,0.1 0.7,0.1 0.2,0 0.4,0.1 0.6,0.1 z"
       clip-path="url(#SVGID_00000064351817845212919540000001306704167093652626_)"
       id="path399" /><defs
       id="defs399"><path
         id="SVGID_00000023258490208553841190000002497836626362284190_"
         d="M 271.5,26.1 H 419 V 57.6 H 271.5 Z" /></defs><clipPath
       id="SVGID_00000109031870355116800230000007276809728391049392_"><use
         xlink:href="#SVGID_00000023258490208553841190000002497836626362284190_"
         style="overflow:visible"
         id="use399" /></clipPath><path
       style="fill:#ffffff"
       d="m 368.5,39.2 c 1.4,-0.4 2.9,-0.6 4.4,-0.6 0.7,0 1.5,0.1 2.2,0.4 0.5,0.2 1,0.5 1.4,1 0.3,0.4 0.6,1 0.7,1.5 0.1,0.6 0.2,1.3 0.2,1.9 v 5.8 h -2.9 v -5.4 c 0,-0.9 -0.1,-1.6 -0.4,-2 -0.2,-0.4 -0.7,-0.6 -1.4,-0.6 H 372 c -0.2,0 -0.4,0 -0.6,0.1 v 7.9 h -2.9 z"
       clip-path="url(#SVGID_00000109031870355116800230000007276809728391049392_)"
       id="path400" /><defs
       id="defs400"><path
         id="SVGID_00000096748870548004368130000011471637057549998976_"
         d="M 271.5,26.1 H 419 V 57.6 H 271.5 Z" /></defs><clipPath
       id="SVGID_00000018954345811998022300000003583034372271736716_"><use
         xlink:href="#SVGID_00000096748870548004368130000011471637057549998976_"
         style="overflow:visible"
         id="use400" /></clipPath><path
       style="fill:#ffffff"
       d="m 386.4,42.9 c 0,-0.2 -0.1,-0.5 -0.1,-0.7 L 386,41.6 c -0.3,-0.4 -0.9,-0.7 -1.4,-0.6 -0.3,0 -0.6,0.1 -0.9,0.2 -0.2,0.1 -0.4,0.2 -0.6,0.4 -0.2,0.2 -0.3,0.4 -0.4,0.6 -0.1,0.2 -0.1,0.5 -0.2,0.7 h 3.9 m -6.9,1.1 c 0,-0.8 0.1,-1.6 0.4,-2.4 0.3,-0.6 0.6,-1.2 1.1,-1.7 0.4,-0.5 1,-0.8 1.6,-1 0.6,-0.2 1.2,-0.4 1.8,-0.4 1.3,-0.1 2.5,0.4 3.4,1.3 0.9,0.9 1.3,2.2 1.3,3.9 v 1.1 h -6.6 c 0.1,0.6 0.4,1.1 0.9,1.4 0.6,0.4 1.3,0.6 2,0.5 0.5,0 1,0 1.6,-0.1 0.4,-0.1 0.9,-0.2 1.3,-0.4 l 0.4,2.4 c -0.1,0.1 -0.4,0.1 -0.6,0.2 -0.3,0.1 -0.6,0.2 -0.9,0.2 -0.3,0.1 -0.7,0.1 -1,0.1 -0.4,0 -0.7,0.1 -1.1,0.1 -0.8,0 -1.6,-0.1 -2.4,-0.4 -0.6,-0.3 -1.2,-0.6 -1.7,-1.1 -0.4,-0.5 -0.8,-1.1 -1,-1.7 -0.4,-0.5 -0.5,-1.2 -0.5,-2"
       clip-path="url(#SVGID_00000018954345811998022300000003583034372271736716_)"
       id="path401" /><defs
       id="defs401"><path
         id="SVGID_00000075859021218773681100000006683531893834367917_"
         d="M 271.5,26.1 H 419 V 57.6 H 271.5 Z" /></defs><clipPath
       id="SVGID_00000040570959582778006740000011441526057632135348_"><use
         xlink:href="#SVGID_00000075859021218773681100000006683531893834367917_"
         style="overflow:visible"
         id="use401" /></clipPath><path
       style="fill:#ffffff"
       d="m 391.3,36.3 2.9,-0.5 v 3 h 3.5 v 2.4 h -3.5 v 3.6 c 0,0.5 0.1,1 0.3,1.5 0.2,0.4 0.7,0.5 1.3,0.5 0.3,0 0.6,0 1,-0.1 0.3,-0.1 0.6,-0.1 0.9,-0.2 l 0.4,2.3 c -0.4,0.2 -0.8,0.3 -1.2,0.4 -0.5,0.1 -1.1,0.2 -1.6,0.1 -0.7,0 -1.4,-0.1 -2,-0.3 -0.5,-0.2 -0.9,-0.5 -1.2,-0.9 -0.3,-0.4 -0.6,-0.9 -0.7,-1.4 -0.1,-0.6 -0.2,-1.2 -0.2,-1.8 v -8.6 z"
       clip-path="url(#SVGID_00000040570959582778006740000011441526057632135348_)"
       id="path402" /><defs
       id="defs402"><path
         id="SVGID_00000159428493656074922610000018179811974721439631_"
         d="M 271.5,26.1 H 419 V 57.6 H 271.5 Z" /></defs><clipPath
       id="SVGID_00000057849161739851820550000012956737457318478223_"><use
         xlink:href="#SVGID_00000159428493656074922610000018179811974721439631_"
         style="overflow:visible"
         id="use402" /></clipPath><path
       style="fill:#ffffff"
       d="m 406,42.9 c 0,-0.2 -0.1,-0.5 -0.1,-0.7 l -0.3,-0.6 c -0.3,-0.4 -0.9,-0.7 -1.4,-0.6 -0.3,0 -0.6,0.1 -0.9,0.2 -0.2,0.1 -0.4,0.2 -0.6,0.4 -0.2,0.2 -0.3,0.4 -0.4,0.6 -0.1,0.2 -0.1,0.5 -0.2,0.7 h 3.9 m -6.8,1.1 c 0,-0.8 0.1,-1.6 0.4,-2.4 0.3,-0.6 0.6,-1.2 1.1,-1.7 0.4,-0.5 1,-0.8 1.6,-1 0.6,-0.2 1.2,-0.4 1.8,-0.4 1.3,-0.1 2.5,0.4 3.4,1.3 0.9,0.9 1.3,2.2 1.3,3.9 v 1.1 h -6.6 c 0.1,0.6 0.4,1.1 0.9,1.4 0.6,0.4 1.3,0.6 2,0.5 0.5,0 1,0 1.6,-0.1 0.4,-0.1 0.9,-0.2 1.3,-0.4 l 0.4,2.4 c -0.1,0.1 -0.4,0.1 -0.6,0.2 -0.3,0.1 -0.6,0.2 -0.9,0.2 -0.3,0.1 -0.7,0.1 -1,0.1 -0.4,0 -0.7,0.1 -1.1,0.1 -0.8,0 -1.6,-0.1 -2.4,-0.4 -0.6,-0.3 -1.2,-0.6 -1.7,-1.1 -0.4,-0.5 -0.8,-1.1 -1,-1.7 -0.4,-0.5 -0.5,-1.2 -0.5,-2"
       clip-path="url(#SVGID_00000057849161739851820550000012956737457318478223_)"
       id="path403" /><defs
       id="defs403"><path
         id="SVGID_00000073697244651466257860000017210436090105004694_"
         d="M 271.5,26.1 H 419 V 57.6 H 271.5 Z" /></defs><clipPath
       id="SVGID_00000161632392171603977800000014610627189926500746_"><use
         xlink:href="#SVGID_00000073697244651466257860000017210436090105004694_"
         style="overflow:visible"
         id="use403" /></clipPath><path
       style="fill:#ffffff"
       d="m 414,47 c 0.4,0 0.8,0 1.1,-0.1 0.2,-0.1 0.3,-0.4 0.3,-0.6 0,-0.2 -0.1,-0.4 -0.4,-0.6 -0.4,-0.2 -0.9,-0.5 -1.3,-0.6 -0.5,-0.2 -0.9,-0.4 -1.2,-0.5 -0.3,-0.2 -0.7,-0.4 -0.9,-0.6 -0.3,-0.3 -0.5,-0.6 -0.6,-0.9 -0.2,-0.4 -0.2,-0.8 -0.2,-1.3 0,-0.9 0.4,-1.7 1.1,-2.3 0.7,-0.6 1.7,-0.9 2.9,-0.9 0.6,0 1.2,0.1 1.8,0.2 0.5,0.1 0.9,0.2 1.3,0.4 l -0.5,2.3 c -0.4,-0.1 -0.7,-0.2 -1.1,-0.3 -0.4,-0.1 -0.9,-0.2 -1.3,-0.1 -0.9,0 -1.3,0.2 -1.3,0.7 0,0.1 0,0.2 0.1,0.3 0.1,0.1 0.1,0.2 0.2,0.3 0.1,0.1 0.3,0.2 0.5,0.3 0.2,0.1 0.5,0.2 0.8,0.3 0.5,0.2 1.1,0.4 1.6,0.7 0.4,0.2 0.7,0.4 1,0.7 0.2,0.2 0.4,0.6 0.5,0.9 0.1,0.4 0.2,0.8 0.1,1.1 0,0.9 -0.4,1.8 -1.1,2.3 -0.7,0.5 -1.8,0.8 -3.2,0.8 -0.8,0 -1.5,-0.1 -2.3,-0.2 -0.4,-0.1 -0.8,-0.2 -1.2,-0.4 l 0.5,-2.4 c 0.5,0.2 1,0.3 1.5,0.5 0.3,-0.1 0.8,0 1.3,0"
       clip-path="url(#SVGID_00000161632392171603977800000014610627189926500746_)"
       id="path404" /><defs
       id="defs404"><path
         id="SVGID_00000056405484774671590310000017476499373664273334_"
         d="M 271.5,26.1 H 419 V 57.6 H 271.5 Z" /></defs><clipPath
       id="SVGID_00000100380836668588412690000009694377960896062082_"><use
         xlink:href="#SVGID_00000056405484774671590310000017476499373664273334_"
         style="overflow:visible"
         id="use404" /></clipPath><path
       style="fill:#ffffff"
       d="m 286.7,43.2 1,0.5 1,-0.5 0.2,-1 -0.7,-0.8 h -1.1 l -0.7,0.8 z m -2.5,-1 c 0.3,-0.1 0.5,-0.4 0.4,-0.7 0,-0.1 -0.1,-0.2 -0.2,-0.3 l -2.6,-2.4 c -0.8,1.3 -1.1,2.8 -1,4.4 z m 1.5,-2.6 c 0.3,0.2 0.6,0.1 0.8,-0.1 0.1,-0.1 0.1,-0.2 0.1,-0.3 l 0.2,-3.5 c -0.2,0 -0.5,0.1 -0.7,0.1 -1.3,0.3 -2.4,0.9 -3.3,1.8 z m 3,-0.5 c 0,0.3 0.3,0.6 0.6,0.6 0.1,0 0.2,0 0.3,-0.1 l 2.9,-2 c -1.1,-1.1 -2.5,-1.7 -4,-1.9 z m 4.9,-0.3 -2.6,2.3 c -0.2,0.2 -0.3,0.6 -0.1,0.8 0.1,0.1 0.2,0.2 0.3,0.2 l 3.4,1 c 0.1,-1.4 -0.2,-3 -1,-4.3 z m -5.4,7.2 c -0.2,-0.3 -0.5,-0.4 -0.8,-0.2 -0.1,0.1 -0.2,0.1 -0.2,0.2 l -1.7,3.1 c 1.2,0.4 2.5,0.5 3.8,0.2 0.2,-0.1 0.5,-0.1 0.7,-0.2 z m -2.9,-1.3 c -0.1,-0.3 -0.3,-0.5 -0.6,-0.5 h -0.1 l -3.5,0.6 c 0.5,1.4 1.5,2.7 2.8,3.5 l 1.3,-3.2 c 0.1,-0.2 0.2,-0.3 0.1,-0.4 m 5.4,-0.5 h -0.1 c -0.1,0 -0.2,0 -0.2,0.1 -0.3,0.1 -0.4,0.5 -0.3,0.8 l 1.4,3.3 c 1.3,-0.8 2.3,-2.1 2.8,-3.5 z"
       clip-path="url(#SVGID_00000100380836668588412690000009694377960896062082_)"
       id="path405" /><defs
       id="defs405"><path
         id="SVGID_00000068637113804152589560000017178528018176187048_"
         d="M 271.5,26.1 H 419 V 57.6 H 271.5 Z" /></defs><clipPath
       id="SVGID_00000137844386166309082120000007156268292114023838_"><use
         xlink:href="#SVGID_00000068637113804152589560000017178528018176187048_"
         style="overflow:visible"
         id="use405" /></clipPath><path
       style="fill:#ffffff"
       d="m 292.1,50 c 0,0.1 0.1,0.2 0.1,0.3 -0.1,0.1 -0.1,0.3 -0.1,0.4 0.2,0.4 0.4,0.7 0.6,1.1 0.1,0.2 0.2,0.3 0.4,0.5 0,0.1 0.1,0.1 0.1,0.2 0.2,0.3 0.1,0.7 -0.2,0.9 -0.3,0.2 -0.7,0.1 -0.9,-0.2 0,0 0,-0.1 -0.1,-0.1 0,-0.1 -0.1,-0.1 -0.1,-0.2 -0.1,-0.2 -0.1,-0.4 -0.2,-0.6 -0.1,-0.4 -0.3,-0.8 -0.5,-1.1 -0.1,-0.1 -0.2,-0.2 -0.3,-0.2 0,0 -0.1,-0.2 -0.1,-0.3 -2,0.8 -4.2,0.7 -6.2,0 l -0.2,0.3 c -0.1,0 -0.2,0.1 -0.3,0.1 -0.2,0.4 -0.4,0.8 -0.5,1.2 -0.1,0.2 -0.1,0.4 -0.2,0.6 0,0 -0.1,0.1 -0.1,0.2 -0.1,0.4 -0.5,0.5 -0.9,0.4 -0.3,-0.1 -0.5,-0.5 -0.4,-0.9 0,0 0,-0.1 0.1,-0.1 0,-0.1 0.1,-0.1 0.1,-0.2 0.1,-0.2 0.2,-0.4 0.4,-0.5 0.2,-0.3 0.4,-0.7 0.6,-1.1 0,-0.1 0,-0.3 -0.1,-0.4 l 0.1,-0.3 c -1.8,-1.1 -3.2,-2.8 -3.9,-4.8 H 279 c -0.1,-0.1 -0.2,-0.1 -0.4,-0.1 l -1.2,0.3 c -0.2,0.1 -0.4,0.2 -0.6,0.2 h -0.2 c -0.4,0.1 -0.7,-0.1 -0.8,-0.4 -0.1,-0.4 0.1,-0.7 0.4,-0.8 h 0.3 c 0.2,0 0.4,0 0.6,-0.1 0.4,0 0.8,-0.1 1.2,-0.2 l 0.3,-0.3 0.3,-0.1 c -0.3,-2.1 0.2,-4.3 1.4,-6 l -0.2,-0.2 c 0,-0.1 -0.1,-0.3 -0.1,-0.4 -0.3,-0.3 -0.6,-0.5 -1,-0.7 l -0.6,-0.3 -0.1,-0.1 c -0.3,-0.2 -0.4,-0.7 -0.2,-1 0.1,-0.2 0.3,-0.2 0.5,-0.2 0.2,0 0.3,0.1 0.5,0.2 l 0.1,0.1 c 0.2,0.1 0.3,0.3 0.4,0.5 0.3,0.3 0.6,0.6 0.9,0.8 0.1,0.1 0.3,0.1 0.4,0 0,0 0.2,0.1 0.2,0.2 1.2,-1.2 2.7,-2.1 4.4,-2.5 0.4,-0.1 0.8,-0.2 1.2,-0.2 v -0.3 c 0.1,-0.1 0.2,-0.2 0.2,-0.3 0,-0.4 0,-0.8 -0.1,-1.2 0,-0.2 -0.1,-0.4 -0.1,-0.6 v -0.2 c 0,-0.4 0.2,-0.7 0.6,-0.7 0.4,0 0.7,0.2 0.7,0.6 v 0.3 c 0,0.2 0,0.4 -0.1,0.6 -0.1,0.4 -0.1,0.8 -0.1,1.2 0,0.1 0.1,0.3 0.2,0.3 v 0.3 c 2.1,0.2 4.1,1.1 5.6,2.7 l 0.3,-0.2 h 0.4 c 0.3,-0.2 0.6,-0.5 0.9,-0.8 0.1,-0.2 0.3,-0.3 0.4,-0.5 l 0.1,-0.1 c 0.3,-0.3 0.7,-0.3 1,0 0.3,0.3 0.3,0.7 0,1 l -0.1,0.1 -0.1,0.1 -0.6,0.3 c -0.4,0.2 -0.7,0.4 -1,0.7 -0.1,0.1 -0.1,0.2 -0.1,0.4 0,0 -0.2,0.1 -0.2,0.2 1.2,1.8 1.7,3.9 1.4,6 l 0.3,0.1 0.3,0.3 c 0.4,0.1 0.8,0.2 1.2,0.2 0.2,0 0.4,0 0.6,0.1 h 0.2 c 0.4,0 0.6,0.4 0.6,0.8 0,0.4 -0.4,0.6 -0.8,0.6 h -0.3 c -0.2,-0.1 -0.4,-0.1 -0.6,-0.2 -0.4,-0.2 -0.8,-0.3 -1.2,-0.3 -0.1,0 -0.3,0 -0.4,0.1 h -0.3 c -0.3,1.6 -1.6,3.4 -3.5,4.5 z m 11.6,-4.7 -2.8,-12 c -0.2,-0.6 -0.6,-1.2 -1.2,-1.4 l -11.2,-5.3 c -0.6,-0.3 -1.3,-0.3 -1.9,0 l -11.2,5.3 c -0.6,0.3 -1,0.8 -1.2,1.4 l -2.8,12 c -0.1,0.3 -0.1,0.6 0,0.9 0,0.1 0,0.2 0.1,0.3 0.1,0.2 0.1,0.3 0.2,0.4 0,0.1 0.1,0.1 0.1,0.2 l 7.7,9.6 0.1,0.1 c 0.1,0.1 0.3,0.2 0.4,0.3 l 0.6,0.3 c 0.2,0 0.4,0.1 0.5,0.1 h 12.6 c 0.1,0 0.2,0 0.3,-0.1 0.1,0 0.1,0 0.2,-0.1 0.1,0 0.1,0 0.2,-0.1 0.1,0 0.2,-0.1 0.2,-0.1 0.2,-0.1 0.4,-0.3 0.5,-0.5 l 0.2,-0.3 7.5,-9.3 c 0.1,-0.2 0.3,-0.4 0.3,-0.6 0,-0.1 0.1,-0.2 0.1,-0.3 0.6,-0.2 0.6,-0.5 0.5,-0.8 z"
       clip-path="url(#SVGID_00000137844386166309082120000007156268292114023838_)"
       id="path406" /></g><g
     id="Ebene_2_00000046340349409466023620000003924872180519321495_"
     transform="matrix(0.78239999,0,0,0.78239999,69.06206,14.256739)"><defs
       id="defs406"><path
         id="SVGID_00000031173736224338627250000006598392569023725989_"
         d="m 303.8,85.3 c -5.6,0 -10.2,4.6 -10.2,10.2 v 110.9 c 0,5.6 4.6,10.2 10.2,10.2 h 254.9 c 5.6,0 10.2,-4.6 10.2,-10.2 V 95.5 c 0,-5.6 -4.6,-10.2 -10.2,-10.2 z" /></defs><clipPath
       id="SVGID_00000147938201052933693580000002142502509377763503_"><use
         xlink:href="#SVGID_00000031173736224338627250000006598392569023725989_"
         style="overflow:visible"
         id="use406" /></clipPath><linearGradient
       id="SVGID_00000085929865855362229990000004414987561408287381_"
       gradientUnits="userSpaceOnUse"
       x1="1.02"
       y1="-1.367"
       x2="2.02"
       y2="-1.367"
       gradientTransform="matrix(275.254,0,0,275.254,12.91,527.207)"><stop
         offset="0"
         style="stop-color:#282814"
         id="stop406" /><stop
         offset=".114"
         style="stop-color:#555f69"
         id="stop407" /><stop
         offset=".895"
         style="stop-color:#555f69"
         id="stop408" /><stop
         offset="1"
         style="stop-color:#aaafb4"
         id="stop409" /></linearGradient><path
       style="fill:url(#SVGID_00000085929865855362229990000004414987561408287381_)"
       d="M 293.6,85.3 H 568.9 V 216.6 H 293.6 Z"
       clip-path="url(#SVGID_00000147938201052933693580000002142502509377763503_)"
       id="path409" /><defs
       id="defs409"><path
         id="SVGID_00000018957074298304735850000000219256120884096662_"
         d="m 6.4,13.6 h 633.4 v 332 H 6.4 Z" /></defs><clipPath
       id="SVGID_00000003083976361351024430000001714207233704773022_"><use
         xlink:href="#SVGID_00000018957074298304735850000000219256120884096662_"
         style="overflow:visible"
         id="use409" /></clipPath><path
       style="fill:#2a3a44"
       d="m 303.8,90.6 c -5.3,0 -9.7,4.3 -9.7,9.7 v 235.1 c 0,5.3 4.3,9.7 9.7,9.7 h 254.9 c 5.3,0 9.7,-4.3 9.7,-9.7 V 100.3 c 0,-5.3 -4.3,-9.7 -9.7,-9.7 z"
       clip-path="url(#SVGID_00000003083976361351024430000001714207233704773022_)"
       id="path410" /><defs
       id="defs410"><path
         id="SVGID_00000117646909981426673650000011257178266343921796_"
         d="m 6.4,13.6 h 633.4 v 332 H 6.4 Z" /></defs><clipPath
       id="SVGID_00000023242593340704955400000009956698077383125684_"><use
         xlink:href="#SVGID_00000117646909981426673650000011257178266343921796_"
         style="overflow:visible"
         id="use410" /></clipPath><path
       style="fill:none;stroke:#2a3a44;stroke-width:1.08"
       d="m 303.8,90.6 c -5.3,0 -9.7,4.3 -9.7,9.7 v 235.1 c 0,5.3 4.3,9.7 9.7,9.7 h 254.9 c 5.3,0 9.7,-4.3 9.7,-9.7 V 100.3 c 0,-5.3 -4.3,-9.7 -9.7,-9.7 z"
       clip-path="url(#SVGID_00000023242593340704955400000009956698077383125684_)"
       id="path411" /><path
       class="st283"
       d="m 396.1,332.1 h -2.8 l -5.4,-8.9 v 8.9 h -2.8 v -13.5 h 2.8 l 5.4,8.9 v -8.9 h 2.8 z m 8.1,0 c -0.1,-0.2 -0.2,-0.5 -0.3,-0.9 -0.7,0.7 -1.5,1.1 -2.5,1.1 -1,0 -1.8,-0.3 -2.4,-0.9 -0.6,-0.6 -1,-1.3 -1,-2.2 0,-1.1 0.4,-1.9 1.2,-2.4 0.8,-0.6 1.9,-0.9 3.4,-0.9 h 1.2 v -0.6 c 0,-0.5 -0.1,-0.8 -0.4,-1.1 -0.2,-0.3 -0.6,-0.4 -1.1,-0.4 -0.5,0 -0.8,0.1 -1.1,0.3 -0.3,0.2 -0.4,0.5 -0.4,0.9 h -2.7 c 0,-0.6 0.2,-1.1 0.5,-1.6 0.4,-0.5 0.9,-0.9 1.5,-1.2 0.7,-0.3 1.4,-0.4 2.2,-0.4 1.2,0 2.2,0.3 2.9,0.9 0.7,0.6 1.1,1.5 1.1,2.6 v 4.4 c 0,1 0.1,1.7 0.4,2.2 v 0.2 z m -2.2,-1.9 c 0.4,0 0.8,-0.1 1.1,-0.3 0.3,-0.2 0.6,-0.4 0.7,-0.7 v -1.7 h -1 c -1.3,0 -2.1,0.5 -2.1,1.4 v 0.2 c 0,0.3 0.1,0.6 0.4,0.8 0.2,0.2 0.5,0.3 0.9,0.3 z m 9.1,-8.2 0.1,1.1 c 0.7,-0.9 1.7,-1.3 2.9,-1.3 1.3,0 2.2,0.5 2.7,1.5 0.7,-1 1.7,-1.5 3,-1.5 1.1,0 1.9,0.3 2.4,1 0.5,0.7 0.8,1.6 0.8,2.9 v 6.4 h -2.7 v -6.4 c 0,-0.6 -0.1,-1 -0.3,-1.2 -0.2,-0.3 -0.6,-0.4 -1.2,-0.4 -0.8,0 -1.4,0.4 -1.7,1.2 v 6.9 h -2.7 v -6.4 c 0,-0.6 -0.1,-1 -0.3,-1.3 -0.2,-0.3 -0.6,-0.4 -1.2,-0.4 -0.8,0 -1.3,0.3 -1.7,0.9 v 7.1 h -2.7 v -10 h 2.6 z m 18.5,10.3 c -1.5,0 -2.7,-0.5 -3.6,-1.4 -0.9,-0.9 -1.4,-2.1 -1.4,-3.6 V 327 c 0,-1 0.2,-1.9 0.6,-2.7 0.4,-0.8 0.9,-1.4 1.7,-1.8 0.7,-0.4 1.5,-0.6 2.4,-0.6 1.4,0 2.5,0.4 3.2,1.3 0.8,0.9 1.2,2.1 1.2,3.7 v 1.1 h -6.4 c 0.1,0.7 0.3,1.2 0.8,1.6 0.4,0.4 1,0.6 1.7,0.6 1,0 1.8,-0.4 2.4,-1.1 l 1.3,1.5 c -0.4,0.6 -0.9,1 -1.6,1.3 -0.7,0.2 -1.4,0.4 -2.3,0.4 z m -0.3,-8.3 c -0.5,0 -1,0.2 -1.3,0.5 -0.3,0.4 -0.5,0.9 -0.6,1.5 h 3.7 v -0.2 c 0,-0.6 -0.2,-1.1 -0.5,-1.4 -0.3,-0.3 -0.7,-0.4 -1.3,-0.4 z m 11.4,5.3 c 0,-0.3 -0.2,-0.6 -0.5,-0.8 -0.3,-0.2 -0.8,-0.4 -1.6,-0.5 -2.4,-0.5 -3.6,-1.5 -3.6,-3 0,-0.9 0.4,-1.6 1.1,-2.2 0.7,-0.6 1.7,-0.9 2.9,-0.9 1.3,0 2.3,0.3 3.1,0.9 0.8,0.6 1.1,1.4 1.1,2.3 h -2.7 c 0,-0.4 -0.1,-0.7 -0.4,-1 -0.2,-0.3 -0.6,-0.4 -1.2,-0.4 -0.5,0 -0.8,0.1 -1,0.3 -0.2,0.2 -0.4,0.5 -0.4,0.8 0,0.3 0.1,0.5 0.4,0.7 0.3,0.2 0.8,0.3 1.4,0.5 0.7,0.1 1.2,0.3 1.7,0.5 1.4,0.5 2.1,1.4 2.1,2.7 0,0.9 -0.4,1.7 -1.2,2.2 -0.8,0.6 -1.8,0.8 -3,0.8 -0.8,0 -1.6,-0.2 -2.2,-0.5 -0.6,-0.3 -1.2,-0.7 -1.5,-1.2 -0.3,-0.5 -0.6,-1.1 -0.6,-1.7 h 2.5 c 0,0.5 0.2,0.8 0.5,1.1 0.3,0.3 0.8,0.4 1.3,0.4 0.5,0 0.9,-0.1 1.2,-0.3 0.5,-0.1 0.6,-0.4 0.6,-0.7 z m 13.4,-2.1 c 0,1.5 -0.4,2.8 -1.1,3.7 -0.7,0.9 -1.6,1.4 -2.8,1.4 -1,0 -1.8,-0.4 -2.5,-1.1 v 4.7 H 445 V 322 h 2.5 l 0.1,1 c 0.6,-0.8 1.5,-1.2 2.5,-1.2 1.2,0 2.2,0.5 2.9,1.4 0.7,0.9 1,2.2 1,3.8 v 0.2 z m -2.7,-0.2 c 0,-0.9 -0.2,-1.7 -0.5,-2.2 -0.3,-0.5 -0.8,-0.8 -1.4,-0.8 -0.8,0 -1.4,0.3 -1.7,1 v 4.1 c 0.3,0.7 0.9,1 1.8,1 1.2,0 1.8,-1 1.8,-3.1 z m 10.2,5.1 c -0.1,-0.2 -0.2,-0.5 -0.3,-0.9 -0.7,0.7 -1.5,1.1 -2.5,1.1 -1,0 -1.8,-0.3 -2.4,-0.9 -0.6,-0.6 -1,-1.3 -1,-2.2 0,-1.1 0.4,-1.9 1.2,-2.4 0.8,-0.6 1.9,-0.9 3.4,-0.9 h 1.2 v -0.6 c 0,-0.5 -0.1,-0.8 -0.4,-1.1 -0.2,-0.3 -0.6,-0.4 -1.1,-0.4 -0.5,0 -0.8,0.1 -1.1,0.3 -0.3,0.2 -0.4,0.5 -0.4,0.9 h -2.7 c 0,-0.6 0.2,-1.1 0.5,-1.6 0.4,-0.5 0.9,-0.9 1.5,-1.2 0.7,-0.3 1.4,-0.4 2.2,-0.4 1.2,0 2.2,0.3 2.9,0.9 0.7,0.6 1.1,1.5 1.1,2.6 v 4.4 c 0,1 0.1,1.7 0.4,2.2 v 0.2 z m -2.2,-1.9 c 0.4,0 0.8,-0.1 1.1,-0.3 0.3,-0.2 0.6,-0.4 0.7,-0.7 v -1.7 h -1 c -1.3,0 -2.1,0.5 -2.1,1.4 v 0.2 c 0,0.3 0.1,0.6 0.4,0.8 0.1,0.2 0.5,0.3 0.9,0.3 z m 10.7,-0.1 c 0.5,0 0.9,-0.1 1.2,-0.4 0.3,-0.3 0.5,-0.6 0.5,-1.1 h 2.5 c 0,0.7 -0.2,1.3 -0.6,1.9 -0.4,0.6 -0.9,1 -1.5,1.3 -0.6,0.3 -1.3,0.5 -2.1,0.5 -1.4,0 -2.6,-0.5 -3.4,-1.4 -0.8,-0.9 -1.2,-2.2 -1.2,-3.8 v -0.2 c 0,-1.5 0.4,-2.8 1.2,-3.7 0.8,-0.9 2,-1.4 3.4,-1.4 1.3,0 2.3,0.4 3,1.1 0.8,0.7 1.1,1.7 1.2,2.9 h -2.5 c 0,-0.5 -0.2,-0.9 -0.5,-1.3 -0.3,-0.3 -0.7,-0.5 -1.2,-0.5 -0.6,0 -1.1,0.2 -1.4,0.7 -0.3,0.5 -0.5,1.2 -0.5,2.2 v 0.3 c 0,1 0.2,1.8 0.5,2.2 0.3,0.4 0.8,0.7 1.4,0.7 z m 10.4,2.2 c -1.5,0 -2.7,-0.5 -3.6,-1.4 -0.9,-0.9 -1.4,-2.1 -1.4,-3.6 V 327 c 0,-1 0.2,-1.9 0.6,-2.7 0.4,-0.8 0.9,-1.4 1.7,-1.8 0.7,-0.4 1.5,-0.6 2.4,-0.6 1.4,0 2.5,0.4 3.2,1.3 0.8,0.9 1.2,2.1 1.2,3.7 v 1.1 h -6.4 c 0.1,0.7 0.3,1.2 0.8,1.6 0.4,0.4 1,0.6 1.7,0.6 1,0 1.8,-0.4 2.4,-1.1 l 1.3,1.5 c -0.4,0.6 -0.9,1 -1.6,1.3 -0.7,0.2 -1.5,0.4 -2.3,0.4 z m -0.3,-8.3 c -0.5,0 -1,0.2 -1.3,0.5 -0.3,0.4 -0.5,0.9 -0.6,1.5 h 3.7 v -0.2 c 0,-0.6 -0.2,-1.1 -0.5,-1.4 -0.3,-0.3 -0.8,-0.4 -1.3,-0.4 z"
       id="path412" /><path
       style="fill:none;stroke:#fab900;stroke-width:4"
       d="M 34.6,203.5 H 422.8"
       id="path413" /><defs
       id="defs413"><path
         id="SVGID_00000051341222595243609820000008211851750588155522_"
         d="m 6.4,13.6 h 633.4 v 332 H 6.4 Z" /></defs><clipPath
       id="SVGID_00000046327150467289260180000000957346198863722643_"><use
         xlink:href="#SVGID_00000051341222595243609820000008211851750588155522_"
         style="overflow:visible"
         id="use413" /></clipPath><path
       style="fill:#fab900"
       d="m 34.6,208.3 c 2.7,0 4.8,-2.1 4.8,-4.8 0,-2.7 -2.1,-4.8 -4.8,-4.8 -2.7,0 -4.8,2.1 -4.8,4.8 0,2.7 2.2,4.8 4.8,4.8"
       clip-path="url(#SVGID_00000046327150467289260180000000957346198863722643_)"
       id="path414" /><defs
       id="defs414"><path
         id="SVGID_00000147213818919498393670000004285937974102911624_"
         d="m 331,98.4 c -5.6,0 -10.2,4.6 -10.2,10.2 v 25.7 c 0,5.6 4.6,10.2 10.2,10.2 h 80.6 c 5.6,0 10.2,-4.6 10.2,-10.2 v -25.7 c 0,-5.6 -4.6,-10.2 -10.2,-10.2 z" /></defs><clipPath
       id="SVGID_00000037688138802334266390000010422911115214126725_"><use
         xlink:href="#SVGID_00000147213818919498393670000004285937974102911624_"
         style="overflow:visible"
         id="use414" /></clipPath><linearGradient
       id="SVGID_00000039103448565448847490000014964754300520539288_"
       gradientUnits="userSpaceOnUse"
       x1="1.053"
       y1="-1.5779999"
       x2="2.053"
       y2="-1.5779999"
       gradientTransform="matrix(101,0,0,101,214.419,280.832)"><stop
         offset="0"
         style="stop-color:#fa8700"
         id="stop414" /><stop
         offset=".114"
         style="stop-color:#fab900"
         id="stop415" /><stop
         offset=".895"
         style="stop-color:#fab900"
         id="stop416" /><stop
         offset="1"
         style="stop-color:#ffe6a0"
         id="stop417" /></linearGradient><path
       style="fill:url(#SVGID_00000039103448565448847490000014964754300520539288_)"
       d="m 320.8,98.4 h 101 v 46.1 h -101 z"
       clip-path="url(#SVGID_00000037688138802334266390000010422911115214126725_)"
       id="path417" /><defs
       id="defs417"><path
         id="SVGID_00000001622275344498595850000000436176270227885464_"
         d="m 6.4,13.6 h 633.4 v 332 H 6.4 Z" /></defs><clipPath
       id="SVGID_00000022549273599046206630000006864991805875592843_"><use
         xlink:href="#SVGID_00000001622275344498595850000000436176270227885464_"
         style="overflow:visible"
         id="use417" /></clipPath><path
       style="fill:#fbeaa6"
       d="m 331,102.2 c -5.3,0 -9.7,4.3 -9.7,9.7 v 59.3 c 0,5.3 4.3,9.7 9.7,9.7 h 80.6 c 5.3,0 9.7,-4.3 9.7,-9.7 v -59.3 c 0,-5.3 -4.3,-9.7 -9.7,-9.7 z"
       clip-path="url(#SVGID_00000022549273599046206630000006864991805875592843_)"
       id="path418" /><defs
       id="defs418"><path
         id="SVGID_00000063632632947901144940000015443313911378569384_"
         d="m 6.4,13.6 h 633.4 v 332 H 6.4 Z" /></defs><clipPath
       id="SVGID_00000049900557461658000980000010904955060944568976_"><use
         xlink:href="#SVGID_00000063632632947901144940000015443313911378569384_"
         style="overflow:visible"
         id="use418" /></clipPath><path
       style="fill:none;stroke:#fab900;stroke-width:1.08"
       d="m 331,102.2 c -5.3,0 -9.7,4.3 -9.7,9.7 v 59.3 c 0,5.3 4.3,9.7 9.7,9.7 h 80.6 c 5.3,0 9.7,-4.3 9.7,-9.7 v -59.3 c 0,-5.3 -4.3,-9.7 -9.7,-9.7 z"
       clip-path="url(#SVGID_00000049900557461658000980000010904955060944568976_)"
       id="path419" /><path
       class="st289"
       d="m 331.7,138.9 v -13.5 h 4.2 c 1.2,0 2.2,0.3 3.2,0.8 0.9,0.5 1.7,1.3 2.2,2.3 0.5,1 0.8,2.1 0.8,3.4 v 0.6 c 0,1.3 -0.3,2.4 -0.8,3.3 -0.5,1 -1.2,1.7 -2.2,2.3 -1,0.6 -2,0.8 -3.2,0.8 z m 2.7,-11.2 v 9 h 1.3 c 1.1,0 1.9,-0.4 2.5,-1.1 0.6,-0.7 0.9,-1.7 0.9,-3.1 v -0.7 c 0,-1.4 -0.3,-2.4 -0.9,-3.1 -0.6,-0.7 -1.4,-1.1 -2.5,-1.1 h -1.3 z m 15.2,11.2 c -0.1,-0.2 -0.2,-0.5 -0.3,-0.9 -0.7,0.7 -1.5,1.1 -2.5,1.1 -1,0 -1.8,-0.3 -2.4,-0.9 -0.6,-0.6 -1,-1.3 -1,-2.2 0,-1.1 0.4,-1.9 1.2,-2.4 0.8,-0.6 1.9,-0.9 3.4,-0.9 h 1.2 v -0.6 c 0,-0.5 -0.1,-0.8 -0.4,-1.1 -0.2,-0.3 -0.6,-0.4 -1.1,-0.4 -0.5,0 -0.8,0.1 -1.1,0.3 -0.3,0.2 -0.4,0.5 -0.4,0.9 h -2.7 c 0,-0.6 0.2,-1.1 0.5,-1.6 0.4,-0.5 0.9,-0.9 1.5,-1.2 0.7,-0.3 1.4,-0.4 2.2,-0.4 1.2,0 2.2,0.3 2.9,0.9 0.7,0.6 1.1,1.5 1.1,2.6 v 4.4 c 0,1 0.1,1.7 0.4,2.2 v 0.2 z m -2.2,-1.8 c 0.4,0 0.8,-0.1 1.1,-0.3 0.3,-0.2 0.6,-0.4 0.7,-0.7 v -1.7 h -1 c -1.3,0 -2.1,0.5 -2.1,1.4 v 0.2 c 0,0.3 0.1,0.6 0.4,0.8 0.2,0.1 0.5,0.3 0.9,0.3 z m 9.8,-10.7 v 2.5 h 1.7 v 2 h -1.7 v 5 c 0,0.4 0.1,0.6 0.2,0.8 0.1,0.2 0.4,0.2 0.8,0.2 0.3,0 0.6,0 0.8,-0.1 v 2 c -0.5,0.2 -1.1,0.2 -1.6,0.2 -1.9,0 -2.8,-0.9 -2.9,-2.8 v -5.4 H 353 v -2 h 1.5 v -2.5 h 2.7 z m 9.1,12.5 c -0.1,-0.2 -0.2,-0.5 -0.3,-0.9 -0.7,0.7 -1.5,1.1 -2.5,1.1 -1,0 -1.8,-0.3 -2.4,-0.9 -0.6,-0.6 -1,-1.3 -1,-2.2 0,-1.1 0.4,-1.9 1.2,-2.4 0.8,-0.6 1.9,-0.9 3.4,-0.9 h 1.2 v -0.6 c 0,-0.5 -0.1,-0.8 -0.4,-1.1 -0.2,-0.3 -0.6,-0.4 -1.1,-0.4 -0.5,0 -0.8,0.1 -1.1,0.3 -0.3,0.2 -0.4,0.5 -0.4,0.9 h -2.7 c 0,-0.6 0.2,-1.1 0.5,-1.6 0.4,-0.5 0.9,-0.9 1.5,-1.2 0.7,-0.3 1.4,-0.4 2.2,-0.4 1.2,0 2.2,0.3 2.9,0.9 0.7,0.6 1.1,1.5 1.1,2.6 v 4.4 c 0,1 0.1,1.7 0.4,2.2 v 0.2 z m -2.3,-1.8 c 0.4,0 0.8,-0.1 1.1,-0.3 0.3,-0.2 0.6,-0.4 0.7,-0.7 v -1.7 h -1 c -1.3,0 -2.1,0.5 -2.1,1.4 v 0.2 c 0,0.3 0.1,0.6 0.4,0.8 0.2,0.1 0.5,0.3 0.9,0.3 z m 15.7,-3.1 c 0,1.6 -0.3,2.9 -1,3.8 -0.7,0.9 -1.6,1.3 -2.9,1.3 -1.1,0 -2,-0.4 -2.6,-1.3 l -0.1,1.1 h -2.4 v -14.2 h 2.7 v 5.1 c 0.6,-0.7 1.4,-1.1 2.4,-1.1 1.2,0 2.2,0.5 2.9,1.3 0.7,0.9 1,2.2 1,3.8 z m -2.7,-0.2 c 0,-1 -0.2,-1.8 -0.5,-2.2 -0.3,-0.5 -0.8,-0.7 -1.4,-0.7 -0.9,0 -1.4,0.3 -1.8,1 v 4 c 0.3,0.7 0.9,1.1 1.8,1.1 0.9,0 1.4,-0.4 1.7,-1.3 0.1,-0.4 0.2,-1.1 0.2,-1.9 z m 10.1,5.1 c -0.1,-0.2 -0.2,-0.5 -0.3,-0.9 -0.7,0.7 -1.5,1.1 -2.5,1.1 -1,0 -1.8,-0.3 -2.4,-0.9 -0.6,-0.6 -1,-1.3 -1,-2.2 0,-1.1 0.4,-1.9 1.2,-2.4 0.8,-0.6 1.9,-0.9 3.4,-0.9 h 1.2 v -0.6 c 0,-0.5 -0.1,-0.8 -0.4,-1.1 -0.2,-0.3 -0.6,-0.4 -1.1,-0.4 -0.5,0 -0.8,0.1 -1.1,0.3 -0.3,0.2 -0.4,0.5 -0.4,0.9 H 381 c 0,-0.6 0.2,-1.1 0.5,-1.6 0.4,-0.5 0.9,-0.9 1.5,-1.2 0.7,-0.3 1.4,-0.4 2.2,-0.4 1.2,0 2.2,0.3 2.9,0.9 0.7,0.6 1.1,1.5 1.1,2.6 v 4.4 c 0,1 0.1,1.7 0.4,2.2 v 0.2 z m -2.2,-1.8 c 0.4,0 0.8,-0.1 1.1,-0.3 0.3,-0.2 0.6,-0.4 0.7,-0.7 v -1.7 h -1 c -1.3,0 -2.1,0.5 -2.1,1.4 v 0.2 c 0,0.3 0.1,0.6 0.4,0.8 0.2,0.1 0.5,0.3 0.9,0.3 z m 12,-1 c 0,-0.3 -0.2,-0.6 -0.5,-0.8 -0.3,-0.2 -0.8,-0.4 -1.6,-0.5 -2.4,-0.5 -3.6,-1.5 -3.6,-3 0,-0.9 0.4,-1.6 1.1,-2.2 0.7,-0.6 1.7,-0.9 2.9,-0.9 1.3,0 2.3,0.3 3.1,0.9 0.8,0.6 1.1,1.4 1.1,2.3 h -2.7 c 0,-0.4 -0.1,-0.7 -0.4,-1 -0.2,-0.3 -0.6,-0.4 -1.2,-0.4 -0.5,0 -0.8,0.1 -1,0.3 -0.2,0.2 -0.4,0.5 -0.4,0.8 0,0.3 0.1,0.5 0.4,0.7 0.3,0.2 0.8,0.3 1.4,0.5 0.7,0.1 1.2,0.3 1.7,0.5 1.4,0.5 2.1,1.4 2.1,2.7 0,0.9 -0.4,1.7 -1.2,2.2 -0.8,0.6 -1.8,0.8 -3,0.8 -0.8,0 -1.6,-0.1 -2.2,-0.5 -0.7,-0.3 -1.2,-0.7 -1.5,-1.2 -0.4,-0.5 -0.6,-1.1 -0.6,-1.7 h 2.5 c 0,0.5 0.2,0.8 0.5,1.1 0.3,0.3 0.8,0.4 1.3,0.4 0.5,0 0.9,-0.1 1.2,-0.3 0.5,-0.1 0.6,-0.3 0.6,-0.7 z m 9,3 c -1.5,0 -2.7,-0.5 -3.6,-1.4 -0.9,-0.9 -1.4,-2.1 -1.4,-3.6 v -0.3 c 0,-1 0.2,-1.9 0.6,-2.7 0.4,-0.8 0.9,-1.4 1.7,-1.8 0.7,-0.4 1.5,-0.6 2.4,-0.6 1.4,0 2.5,0.4 3.2,1.3 0.8,0.9 1.2,2.1 1.2,3.7 v 1.1 h -6.4 c 0.1,0.7 0.3,1.2 0.8,1.6 0.4,0.4 1,0.6 1.7,0.6 1,0 1.8,-0.4 2.4,-1.1 l 1.3,1.5 c -0.4,0.6 -0.9,1 -1.6,1.3 -0.7,0.2 -1.5,0.4 -2.3,0.4 z m -0.3,-8.2 c -0.5,0 -1,0.2 -1.3,0.5 -0.3,0.4 -0.5,0.9 -0.6,1.5 h 3.7 v -0.2 c 0,-0.6 -0.2,-1.1 -0.5,-1.4 -0.3,-0.3 -0.7,-0.4 -1.3,-0.4 z m -48,25.1 5.3,1.9 v 2.6 l -8,-3.4 v -2.2 l 8,-3.4 v 2.6 z m 15.3,2.9 H 368 l -0.9,2.8 h -3 l 5,-13.5 h 2.6 l 5.1,13.5 h -3 z m -4.2,-2.2 h 3.4 l -1.7,-5.1 z m 14.6,-0.7 -5.4,-1.9 v -2.6 l 8.1,3.4 v 2.2 l -8.1,3.4 v -2.6 z"
       id="path420" /><defs
       id="defs420"><path
         id="SVGID_00000178899404708865269610000017835484249240480446_"
         d="m 68.2,160.6 c -5.6,0 -10.2,4.6 -10.2,10.2 v 25.7 c 0,5.6 4.6,10.2 10.2,10.2 h 80.6 c 5.6,0 10.2,-4.6 10.2,-10.2 v -25.7 c 0,-5.6 -4.6,-10.2 -10.2,-10.2 z" /></defs><clipPath
       id="SVGID_00000125603987186929498530000012436023228918063757_"><use
         xlink:href="#SVGID_00000178899404708865269610000017835484249240480446_"
         style="overflow:visible"
         id="use420" /></clipPath><linearGradient
       id="SVGID_00000024717635364193270840000012836356308045406366_"
       gradientUnits="userSpaceOnUse"
       x1="1.054"
       y1="-1.579"
       x2="2.0539999"
       y2="-1.579"
       gradientTransform="matrix(101,0,0,101,-48.416,343.098)"><stop
         offset="0"
         style="stop-color:#fa8700"
         id="stop420" /><stop
         offset=".114"
         style="stop-color:#fab900"
         id="stop421" /><stop
         offset=".895"
         style="stop-color:#fab900"
         id="stop422" /><stop
         offset="1"
         style="stop-color:#ffe6a0"
         id="stop423" /></linearGradient><path
       style="fill:url(#SVGID_00000024717635364193270840000012836356308045406366_)"
       d="m 58,160.6 h 101 v 46.1 H 58 Z"
       clip-path="url(#SVGID_00000125603987186929498530000012436023228918063757_)"
       id="path423" /><defs
       id="defs423"><path
         id="SVGID_00000173151944624075464240000000394940312593341101_"
         d="m 6.4,13.6 h 633.4 v 332 H 6.4 Z" /></defs><clipPath
       id="SVGID_00000029741138497714288860000007634941559377468549_"><use
         xlink:href="#SVGID_00000173151944624075464240000000394940312593341101_"
         style="overflow:visible"
         id="use423" /></clipPath><path
       style="fill:#fbeaa6"
       d="m 68.2,164.5 c -5.3,0 -9.7,4.3 -9.7,9.7 v 59.3 c 0,5.3 4.3,9.7 9.7,9.7 h 80.6 c 5.3,0 9.7,-4.3 9.7,-9.7 v -59.3 c 0,-5.3 -4.3,-9.7 -9.7,-9.7 z"
       clip-path="url(#SVGID_00000029741138497714288860000007634941559377468549_)"
       id="path424" /><defs
       id="defs424"><path
         id="SVGID_00000137813444733739848610000014966761863926156467_"
         d="m 6.4,13.6 h 633.4 v 332 H 6.4 Z" /></defs><clipPath
       id="SVGID_00000137810596677705623070000012318345286719697572_"><use
         xlink:href="#SVGID_00000137813444733739848610000014966761863926156467_"
         style="overflow:visible"
         id="use424" /></clipPath><path
       style="fill:none;stroke:#fab900;stroke-width:1.08"
       d="m 68.2,164.5 c -5.3,0 -9.7,4.3 -9.7,9.7 v 59.3 c 0,5.3 4.3,9.7 9.7,9.7 h 80.6 c 5.3,0 9.7,-4.3 9.7,-9.7 v -59.3 c 0,-5.3 -4.3,-9.7 -9.7,-9.7 z"
       clip-path="url(#SVGID_00000137810596677705623070000012318345286719697572_)"
       id="path425" /><path
       class="st289"
       d="m 99.4,198.4 h -4.9 l -0.9,2.8 h -3 l 5,-13.5 h 2.6 l 5.1,13.5 h -3 z m -4.1,-2.3 h 3.4 L 97,191 Z m 18.1,0.2 c 0,1.5 -0.4,2.8 -1.1,3.7 -0.7,0.9 -1.6,1.4 -2.8,1.4 -1,0 -1.8,-0.4 -2.5,-1.1 v 4.7 h -2.7 v -13.9 h 2.5 l 0.1,1 c 0.6,-0.8 1.5,-1.2 2.5,-1.2 1.2,0 2.2,0.5 2.9,1.4 0.7,0.9 1,2.2 1,3.8 z m -2.7,-0.2 c 0,-0.9 -0.2,-1.7 -0.5,-2.2 -0.3,-0.5 -0.8,-0.8 -1.4,-0.8 -0.8,0 -1.4,0.3 -1.7,1 v 4.1 c 0.3,0.7 0.9,1 1.8,1 1.2,0 1.8,-1 1.8,-3.1 z m 13.4,0.2 c 0,1.5 -0.4,2.8 -1.1,3.7 -0.7,0.9 -1.6,1.4 -2.8,1.4 -1,0 -1.8,-0.4 -2.5,-1.1 V 205 H 115 v -13.9 h 2.5 l 0.1,1 c 0.6,-0.8 1.5,-1.2 2.5,-1.2 1.2,0 2.2,0.5 2.9,1.4 0.7,0.9 1,2.2 1,3.8 z m -2.7,-0.2 c 0,-0.9 -0.2,-1.7 -0.5,-2.2 -0.3,-0.5 -0.8,-0.8 -1.4,-0.8 -0.8,0 -1.4,0.3 -1.7,1 v 4.1 c 0.3,0.7 0.9,1 1.8,1 1.2,0 1.8,-1 1.8,-3.1 z m -43.6,23.4 c -0.1,1.5 -0.6,2.6 -1.6,3.4 -1,0.8 -2.2,1.3 -3.8,1.3 -1.7,0 -3.1,-0.6 -4.1,-1.7 -1,-1.2 -1.5,-2.8 -1.5,-4.8 v -0.8 c 0,-1.3 0.2,-2.4 0.7,-3.4 0.5,-1 1.1,-1.7 2,-2.3 0.9,-0.5 1.8,-0.8 3,-0.8 1.6,0 2.8,0.4 3.8,1.3 1,0.8 1.5,2 1.7,3.5 h -3 c -0.1,-0.9 -0.3,-1.5 -0.7,-1.9 -0.4,-0.4 -1.1,-0.6 -1.9,-0.6 -0.9,0 -1.6,0.3 -2.1,1 -0.5,0.7 -0.7,1.7 -0.7,3.1 v 1 c 0,1.5 0.2,2.5 0.7,3.2 0.4,0.7 1.1,1 2.1,1 0.9,0 1.5,-0.2 1.9,-0.6 0.4,-0.4 0.7,-1 0.7,-1.8 z m 1.2,-0.6 c 0,-1 0.2,-1.9 0.6,-2.7 0.4,-0.8 0.9,-1.4 1.7,-1.8 0.7,-0.4 1.6,-0.6 2.5,-0.6 1.4,0 2.5,0.4 3.3,1.2 0.9,0.8 1.3,2 1.4,3.4 v 0.7 c 0,1.5 -0.4,2.8 -1.3,3.7 -0.9,0.9 -2,1.4 -3.5,1.4 -1.5,0 -2.6,-0.5 -3.5,-1.4 -0.9,-0.9 -1.3,-2.2 -1.3,-3.8 v -0.1 z m 2.7,0.2 c 0,1 0.2,1.7 0.5,2.2 0.4,0.5 0.9,0.8 1.5,0.8 0.6,0 1.2,-0.2 1.5,-0.7 0.4,-0.5 0.5,-1.3 0.5,-2.4 0,-0.9 -0.2,-1.7 -0.5,-2.2 -0.4,-0.5 -0.9,-0.8 -1.5,-0.8 -0.7,0 -1.2,0.3 -1.5,0.8 -0.3,0.4 -0.5,1.2 -0.5,2.3 z m 11,-5.2 0.1,1.2 c 0.7,-0.9 1.7,-1.3 2.9,-1.3 1.1,0 1.9,0.3 2.4,0.9 0.5,0.6 0.8,1.6 0.8,2.8 v 6.5 h -2.7 v -6.4 c 0,-0.6 -0.1,-1 -0.4,-1.2 -0.2,-0.3 -0.7,-0.4 -1.2,-0.4 -0.8,0 -1.3,0.3 -1.7,1 v 7.1 h -2.7 v -10 h 2.5 z m 11.4,-2.4 v 2.5 h 1.7 v 2 h -1.7 v 5 c 0,0.4 0.1,0.6 0.2,0.8 0.1,0.2 0.4,0.2 0.8,0.2 0.3,0 0.6,0 0.8,-0.1 v 2 c -0.5,0.2 -1.1,0.2 -1.6,0.2 -1.9,0 -2.8,-0.9 -2.9,-2.8 v -5.4 h -1.5 v -2 h 1.5 v -2.5 h 2.7 z m 9,12.5 c -0.1,-0.2 -0.2,-0.5 -0.3,-0.9 -0.6,0.7 -1.5,1.1 -2.5,1.1 -1,0 -1.8,-0.3 -2.4,-0.9 -0.6,-0.6 -1,-1.3 -1,-2.2 0,-1.1 0.4,-1.9 1.2,-2.4 0.8,-0.6 1.9,-0.9 3.4,-0.9 h 1.2 v -0.6 c 0,-0.5 -0.1,-0.8 -0.4,-1.1 -0.2,-0.3 -0.6,-0.4 -1.1,-0.4 -0.5,0 -0.8,0.1 -1.1,0.3 -0.3,0.2 -0.4,0.5 -0.4,0.9 H 107 c 0,-0.6 0.2,-1.1 0.5,-1.6 0.4,-0.5 0.9,-0.9 1.5,-1.2 0.7,-0.3 1.4,-0.4 2.2,-0.4 1.2,0 2.2,0.3 2.9,0.9 0.7,0.6 1.1,1.5 1.1,2.6 v 4.4 c 0,1 0.1,1.7 0.4,2.2 v 0.2 z m -2.2,-1.9 c 0.4,0 0.8,-0.1 1.1,-0.3 0.3,-0.2 0.6,-0.4 0.7,-0.7 v -1.7 h -1 c -1.3,0 -2.1,0.5 -2.1,1.4 v 0.2 c 0,0.3 0.1,0.6 0.4,0.8 0.1,0.2 0.5,0.3 0.9,0.3 z m 6.5,-10.8 c 0,-0.4 0.1,-0.7 0.4,-1 0.3,-0.3 0.6,-0.4 1.1,-0.4 0.5,0 0.8,0.1 1.1,0.4 0.3,0.3 0.4,0.6 0.4,1 0,0.4 -0.1,0.7 -0.4,1 -0.3,0.3 -0.6,0.4 -1.1,0.4 -0.5,0 -0.8,-0.1 -1.1,-0.4 -0.2,-0.2 -0.4,-0.5 -0.4,-1 z m 2.9,12.7 h -2.7 v -10 h 2.7 z m 4.7,-10.1 0.1,1.2 c 0.7,-0.9 1.7,-1.3 2.9,-1.3 1.1,0 1.9,0.3 2.4,0.9 0.5,0.6 0.8,1.6 0.8,2.8 v 6.5 h -2.7 v -6.4 c 0,-0.6 -0.1,-1 -0.4,-1.2 -0.2,-0.3 -0.7,-0.4 -1.2,-0.4 -0.8,0 -1.3,0.3 -1.7,1 v 7.1 h -2.7 v -10 h 2.5 z m 12.7,10.3 c -1.5,0 -2.7,-0.5 -3.6,-1.4 -0.9,-0.9 -1.4,-2.1 -1.4,-3.6 v -0.3 c 0,-1 0.2,-1.9 0.6,-2.7 0.4,-0.8 0.9,-1.4 1.7,-1.8 0.7,-0.4 1.5,-0.6 2.4,-0.6 1.4,0 2.5,0.4 3.2,1.3 0.8,0.9 1.2,2.1 1.2,3.7 v 1.1 h -6.4 c 0.1,0.7 0.3,1.2 0.8,1.6 0.4,0.4 1,0.6 1.7,0.6 1,0 1.8,-0.4 2.4,-1.1 l 1.3,1.5 c -0.4,0.6 -0.9,1 -1.6,1.3 -0.7,0.3 -1.4,0.4 -2.3,0.4 z m -0.3,-8.3 c -0.5,0 -1,0.2 -1.3,0.5 -0.3,0.4 -0.5,0.9 -0.6,1.5 h 3.7 v -0.2 c 0,-0.6 -0.2,-1.1 -0.5,-1.4 -0.3,-0.2 -0.7,-0.4 -1.3,-0.4 z m 11.6,0.6 c -0.4,0 -0.7,-0.1 -1,-0.1 -1,0 -1.7,0.3 -2,1 v 6.6 h -2.7 v -10 h 2.5 l 0.1,1.2 c 0.5,-0.9 1.3,-1.4 2.2,-1.4 0.3,0 0.6,0 0.8,0.1 z"
       id="path426" /><defs
       id="defs426"><path
         id="SVGID_00000044878627883594860830000001955512411829779900_"
         d="m 331,227.3 c -5.6,0 -10.2,4.6 -10.2,10.2 v 25.7 c 0,5.6 4.6,10.2 10.2,10.2 h 80.6 c 5.6,0 10.2,-4.6 10.2,-10.2 v -25.7 c 0,-5.6 -4.6,-10.2 -10.2,-10.2 z" /></defs><clipPath
       id="SVGID_00000067946025584720244000000001700990704590057856_"><use
         xlink:href="#SVGID_00000044878627883594860830000001955512411829779900_"
         style="overflow:visible"
         id="use426" /></clipPath><linearGradient
       id="SVGID_00000181069314121136513090000013962722535669666179_"
       gradientUnits="userSpaceOnUse"
       x1="1.053"
       y1="-1.579"
       x2="2.053"
       y2="-1.579"
       gradientTransform="matrix(101,0,0,101,214.419,409.8)"><stop
         offset="0"
         style="stop-color:#fa8700"
         id="stop426" /><stop
         offset=".114"
         style="stop-color:#fab900"
         id="stop427" /><stop
         offset=".895"
         style="stop-color:#fab900"
         id="stop428" /><stop
         offset="1"
         style="stop-color:#ffe6a0"
         id="stop429" /></linearGradient><path
       style="fill:url(#SVGID_00000181069314121136513090000013962722535669666179_)"
       d="m 320.8,227.3 h 101 v 46.1 h -101 z"
       clip-path="url(#SVGID_00000067946025584720244000000001700990704590057856_)"
       id="path429" /><defs
       id="defs429"><path
         id="SVGID_00000150090766904300059920000003514889654243630264_"
         d="m 6.4,13.6 h 633.4 v 332 H 6.4 Z" /></defs><clipPath
       id="SVGID_00000021080337112095810050000010706226468301287318_"><use
         xlink:href="#SVGID_00000150090766904300059920000003514889654243630264_"
         style="overflow:visible"
         id="use429" /></clipPath><path
       style="fill:#fbeaa6"
       d="m 331,231.2 c -5.3,0 -9.7,4.3 -9.7,9.7 v 59.3 c 0,5.3 4.3,9.7 9.7,9.7 h 80.6 c 5.3,0 9.7,-4.3 9.7,-9.7 v -59.3 c 0,-5.3 -4.3,-9.7 -9.7,-9.7 z"
       clip-path="url(#SVGID_00000021080337112095810050000010706226468301287318_)"
       id="path430" /><defs
       id="defs430"><path
         id="SVGID_00000057865023038998408780000018102642741489277885_"
         d="m 6.4,13.6 h 633.4 v 332 H 6.4 Z" /></defs><clipPath
       id="SVGID_00000081610546760529817450000016889250346721450160_"><use
         xlink:href="#SVGID_00000057865023038998408780000018102642741489277885_"
         style="overflow:visible"
         id="use430" /></clipPath><path
       style="fill:none;stroke:#fab900;stroke-width:1.08"
       d="m 331,231.2 c -5.3,0 -9.7,4.3 -9.7,9.7 v 59.3 c 0,5.3 4.3,9.7 9.7,9.7 h 80.6 c 5.3,0 9.7,-4.3 9.7,-9.7 v -59.3 c 0,-5.3 -4.3,-9.7 -9.7,-9.7 z"
       clip-path="url(#SVGID_00000081610546760529817450000016889250346721450160_)"
       id="path431" /><path
       class="st289"
       d="m 364,265.1 h -4.9 l -0.9,2.8 h -3 l 5,-13.5 h 2.6 l 5.1,13.5 h -3 z m -4.1,-2.3 h 3.4 l -1.7,-5.1 z m 12.1,0.3 v 4.8 h -2.8 v -13.5 h 5.3 c 1,0 1.9,0.2 2.7,0.6 0.8,0.4 1.4,0.9 1.8,1.6 0.4,0.7 0.6,1.5 0.6,2.3 0,1.3 -0.5,2.4 -1.4,3.1 -0.9,0.8 -2.2,1.1 -3.8,1.1 z m 0,-2.2 h 2.5 c 0.7,0 1.3,-0.2 1.7,-0.5 0.4,-0.3 0.6,-0.8 0.6,-1.5 0,-0.7 -0.2,-1.2 -0.6,-1.6 -0.4,-0.4 -0.9,-0.6 -1.6,-0.6 H 372 Z m 12.4,7 h -2.8 v -13.5 h 2.8 z m -26.8,17.1 5.3,1.9 v 2.6 l -8,-3.4 v -2.2 l 8,-3.4 v 2.6 z m 15.3,2.9 H 368 l -0.9,2.8 h -3 l 5,-13.5 h 2.6 l 5.1,13.5 h -3 z m -4.2,-2.3 h 3.4 l -1.7,-5.1 z m 14.6,-0.7 -5.4,-1.9 v -2.6 l 8.1,3.4 v 2.2 l -8.1,3.4 v -2.6 z"
       id="path432" /><defs
       id="defs432"><path
         id="SVGID_00000168802621218855495820000004339835605423349386_"
         d="m 460,98.4 c -5.6,0 -10.2,4.6 -10.2,10.2 v 25.7 c 0,5.6 4.6,10.2 10.2,10.2 h 80.6 c 5.6,0 10.2,-4.6 10.2,-10.2 v -25.7 c 0,-5.6 -4.6,-10.2 -10.2,-10.2 z" /></defs><clipPath
       id="SVGID_00000040540938207804077610000004264429256590720955_"><use
         xlink:href="#SVGID_00000168802621218855495820000004339835605423349386_"
         style="overflow:visible"
         id="use432" /></clipPath><linearGradient
       id="SVGID_00000162342501482380004090000002231288690565572776_"
       gradientUnits="userSpaceOnUse"
       x1="1.053"
       y1="-1.5779999"
       x2="2.053"
       y2="-1.5779999"
       gradientTransform="matrix(101,0,0,101,343.419,280.832)"><stop
         offset="0"
         style="stop-color:#fa8700"
         id="stop432" /><stop
         offset=".114"
         style="stop-color:#fab900"
         id="stop433" /><stop
         offset=".895"
         style="stop-color:#fab900"
         id="stop434" /><stop
         offset="1"
         style="stop-color:#ffe6a0"
         id="stop435" /></linearGradient><path
       style="fill:url(#SVGID_00000162342501482380004090000002231288690565572776_)"
       d="m 449.8,98.4 h 101 v 46.1 h -101 z"
       clip-path="url(#SVGID_00000040540938207804077610000004264429256590720955_)"
       id="path435" /><defs
       id="defs435"><path
         id="SVGID_00000149355510634362340800000015116381482829987243_"
         d="m 6.4,13.6 h 633.4 v 332 H 6.4 Z" /></defs><clipPath
       id="SVGID_00000037668207433193841250000015199463258431643321_"><use
         xlink:href="#SVGID_00000149355510634362340800000015116381482829987243_"
         style="overflow:visible"
         id="use435" /></clipPath><path
       style="fill:#fbeaa6"
       d="m 460,102.2 c -5.3,0 -9.7,4.3 -9.7,9.7 v 59.3 c 0,5.3 4.3,9.7 9.7,9.7 h 80.6 c 5.3,0 9.7,-4.3 9.7,-9.7 v -59.3 c 0,-5.3 -4.3,-9.7 -9.7,-9.7 z"
       clip-path="url(#SVGID_00000037668207433193841250000015199463258431643321_)"
       id="path436" /><defs
       id="defs436"><path
         id="SVGID_00000018194905620812757260000016837067322084392325_"
         d="m 6.4,13.6 h 633.4 v 332 H 6.4 Z" /></defs><clipPath
       id="SVGID_00000072265479922071100260000002857430107658620041_"><use
         xlink:href="#SVGID_00000018194905620812757260000016837067322084392325_"
         style="overflow:visible"
         id="use436" /></clipPath><path
       style="fill:none;stroke:#fab900;stroke-width:1.08"
       d="m 460,102.2 c -5.3,0 -9.7,4.3 -9.7,9.7 v 59.3 c 0,5.3 4.3,9.7 9.7,9.7 h 80.6 c 5.3,0 9.7,-4.3 9.7,-9.7 v -59.3 c 0,-5.3 -4.3,-9.7 -9.7,-9.7 z"
       clip-path="url(#SVGID_00000072265479922071100260000002857430107658620041_)"
       id="path437" /><path
       class="st289"
       d="m 484.6,134.4 c -0.1,1.5 -0.6,2.6 -1.6,3.4 -1,0.8 -2.2,1.3 -3.8,1.3 -1.7,0 -3.1,-0.6 -4.1,-1.7 -1,-1.2 -1.5,-2.8 -1.5,-4.8 v -0.8 c 0,-1.3 0.2,-2.4 0.7,-3.4 0.5,-1 1.1,-1.7 2,-2.3 0.9,-0.5 1.8,-0.8 3,-0.8 1.6,0 2.8,0.4 3.8,1.3 1,0.8 1.5,2 1.7,3.5 H 482 c -0.1,-0.9 -0.3,-1.5 -0.7,-1.9 -0.4,-0.4 -1.1,-0.6 -1.9,-0.6 -0.9,0 -1.6,0.3 -2.1,1 -0.5,0.7 -0.7,1.7 -0.7,3.1 v 1 c 0,1.5 0.2,2.5 0.7,3.2 0.4,0.7 1.1,1 2.1,1 0.9,0 1.5,-0.2 1.9,-0.6 0.4,-0.4 0.7,-1 0.7,-1.8 h 2.6 z m 7.4,4.5 c -0.1,-0.2 -0.2,-0.5 -0.3,-0.9 -0.7,0.7 -1.5,1.1 -2.5,1.1 -1,0 -1.8,-0.3 -2.4,-0.9 -0.6,-0.6 -1,-1.3 -1,-2.2 0,-1.1 0.4,-1.9 1.2,-2.4 0.8,-0.6 1.9,-0.9 3.4,-0.9 h 1.2 v -0.6 c 0,-0.5 -0.1,-0.8 -0.4,-1.1 -0.2,-0.3 -0.6,-0.4 -1.1,-0.4 -0.5,0 -0.8,0.1 -1.1,0.3 -0.3,0.2 -0.4,0.5 -0.4,0.9 h -2.7 c 0,-0.6 0.2,-1.1 0.5,-1.6 0.4,-0.5 0.9,-0.9 1.5,-1.2 0.7,-0.3 1.4,-0.4 2.2,-0.4 1.2,0 2.2,0.3 2.9,0.9 0.7,0.6 1.1,1.5 1.1,2.6 v 4.4 c 0,1 0.1,1.7 0.4,2.2 v 0.2 z m -2.2,-1.8 c 0.4,0 0.8,-0.1 1.1,-0.3 0.3,-0.2 0.6,-0.4 0.7,-0.7 v -1.7 h -1 c -1.3,0 -2.1,0.5 -2.1,1.4 v 0.2 c 0,0.3 0.1,0.6 0.4,0.8 0.2,0.1 0.5,0.3 0.9,0.3 z m 10.8,-0.2 c 0.5,0 0.9,-0.1 1.2,-0.4 0.3,-0.3 0.5,-0.6 0.5,-1.1 h 2.5 c 0,0.7 -0.2,1.3 -0.6,1.9 -0.4,0.6 -0.9,1 -1.5,1.3 -0.6,0.3 -1.3,0.5 -2.1,0.5 -1.4,0 -2.6,-0.5 -3.4,-1.4 -0.8,-0.9 -1.2,-2.2 -1.2,-3.8 v -0.2 c 0,-1.5 0.4,-2.8 1.2,-3.7 0.8,-0.9 2,-1.4 3.4,-1.4 1.3,0 2.3,0.4 3,1.1 0.8,0.7 1.1,1.7 1.2,2.9 h -2.5 c 0,-0.5 -0.2,-0.9 -0.5,-1.3 -0.3,-0.3 -0.7,-0.5 -1.2,-0.5 -0.6,0 -1.1,0.2 -1.4,0.7 -0.3,0.5 -0.5,1.2 -0.5,2.2 v 0.3 c 0,1 0.2,1.8 0.5,2.2 0.3,0.4 0.8,0.7 1.4,0.7 z m 8.3,-6.9 c 0.7,-0.9 1.6,-1.3 2.7,-1.3 2.2,0 3.3,1.3 3.3,3.8 v 6.4 h -2.7 v -6.4 c 0,-0.6 -0.1,-1 -0.4,-1.3 -0.2,-0.3 -0.7,-0.4 -1.2,-0.4 -0.8,0 -1.4,0.3 -1.7,0.9 v 7.1 h -2.7 v -14.2 h 2.7 z m 12.7,9.1 c -1.5,0 -2.7,-0.5 -3.6,-1.4 -0.9,-0.9 -1.4,-2.1 -1.4,-3.6 v -0.3 c 0,-1 0.2,-1.9 0.6,-2.7 0.4,-0.8 0.9,-1.4 1.7,-1.8 0.7,-0.4 1.5,-0.6 2.4,-0.6 1.4,0 2.5,0.4 3.2,1.3 0.8,0.9 1.2,2.1 1.2,3.7 v 1.1 h -6.4 c 0.1,0.7 0.3,1.2 0.8,1.6 0.4,0.4 1,0.6 1.7,0.6 1,0 1.8,-0.4 2.4,-1.1 l 1.3,1.5 c -0.4,0.6 -0.9,1 -1.6,1.3 -0.7,0.2 -1.5,0.4 -2.3,0.4 z m -0.3,-8.2 c -0.5,0 -1,0.2 -1.3,0.5 -0.3,0.4 -0.5,0.9 -0.6,1.5 h 3.7 v -0.2 c 0,-0.6 -0.2,-1.1 -0.5,-1.4 -0.3,-0.3 -0.8,-0.4 -1.3,-0.4 z m -34.7,25.1 5.3,1.9 v 2.6 l -8,-3.4 v -2.2 l 8,-3.4 v 2.6 z m 15.3,2.9 H 497 l -0.9,2.8 h -3 l 5,-13.5 h 2.6 l 5.1,13.5 h -3 z m -4.2,-2.2 h 3.4 l -1.7,-5.1 z m 14.6,-0.7 -5.4,-1.9 v -2.6 l 8.1,3.4 v 2.2 l -8.1,3.4 v -2.6 z"
       id="path438" /><defs
       id="defs438"><path
         id="SVGID_00000117651771554344814960000017598562126413168046_"
         d="m 460,227.3 c -5.6,0 -10.2,4.6 -10.2,10.2 v 25.7 c 0,5.6 4.6,10.2 10.2,10.2 h 80.6 c 5.6,0 10.2,-4.6 10.2,-10.2 v -25.7 c 0,-5.6 -4.6,-10.2 -10.2,-10.2 z" /></defs><clipPath
       id="SVGID_00000176030449320222144740000004095641459204919460_"><use
         xlink:href="#SVGID_00000117651771554344814960000017598562126413168046_"
         style="overflow:visible"
         id="use438" /></clipPath><linearGradient
       id="SVGID_00000085942549829847170180000005956133137216747939_"
       gradientUnits="userSpaceOnUse"
       x1="1.053"
       y1="-1.579"
       x2="2.053"
       y2="-1.579"
       gradientTransform="matrix(101,0,0,101,343.419,409.8)"><stop
         offset="0"
         style="stop-color:#fa8700"
         id="stop438" /><stop
         offset=".114"
         style="stop-color:#fab900"
         id="stop439" /><stop
         offset=".895"
         style="stop-color:#fab900"
         id="stop440" /><stop
         offset="1"
         style="stop-color:#ffe6a0"
         id="stop441" /></linearGradient><path
       style="fill:url(#SVGID_00000085942549829847170180000005956133137216747939_)"
       d="m 449.8,227.3 h 101 v 46.1 h -101 z"
       clip-path="url(#SVGID_00000176030449320222144740000004095641459204919460_)"
       id="path441" /><defs
       id="defs441"><path
         id="SVGID_00000152225510915455576950000001306347780292854421_"
         d="m 6.4,13.6 h 633.4 v 332 H 6.4 Z" /></defs><clipPath
       id="SVGID_00000130637309422011872350000013293807395819931023_"><use
         xlink:href="#SVGID_00000152225510915455576950000001306347780292854421_"
         style="overflow:visible"
         id="use441" /></clipPath><path
       style="fill:#fbeaa6"
       d="m 460,231.2 c -5.3,0 -9.7,4.3 -9.7,9.7 v 59.3 c 0,5.3 4.3,9.7 9.7,9.7 h 80.6 c 5.3,0 9.7,-4.3 9.7,-9.7 v -59.3 c 0,-5.3 -4.3,-9.7 -9.7,-9.7 z"
       clip-path="url(#SVGID_00000130637309422011872350000013293807395819931023_)"
       id="path442" /><defs
       id="defs442"><path
         id="SVGID_00000149363386664411146310000000024239929580241302_"
         d="m 6.4,13.6 h 633.4 v 332 H 6.4 Z" /></defs><clipPath
       id="SVGID_00000108303732572710734020000006280165352069129101_"><use
         xlink:href="#SVGID_00000149363386664411146310000000024239929580241302_"
         style="overflow:visible"
         id="use442" /></clipPath><path
       style="fill:none;stroke:#fab900;stroke-width:1.08"
       d="m 460,231.2 c -5.3,0 -9.7,4.3 -9.7,9.7 v 59.3 c 0,5.3 4.3,9.7 9.7,9.7 h 80.6 c 5.3,0 9.7,-4.3 9.7,-9.7 v -59.3 c 0,-5.3 -4.3,-9.7 -9.7,-9.7 z"
       clip-path="url(#SVGID_00000108303732572710734020000006280165352069129101_)"
       id="path443" /><path
       class="st289"
       d="m 493,265.1 h -4.9 l -0.9,2.8 h -3 l 5,-13.5 h 2.6 l 5.1,13.5 h -3 z m -4.1,-2.3 h 3.4 l -1.7,-5.1 z m 12.1,0.3 v 4.8 h -2.8 v -13.5 h 5.3 c 1,0 1.9,0.2 2.7,0.6 0.8,0.4 1.4,0.9 1.8,1.6 0.4,0.7 0.6,1.5 0.6,2.3 0,1.3 -0.5,2.4 -1.4,3.1 -0.9,0.8 -2.2,1.1 -3.8,1.1 z m 0,-2.2 h 2.5 c 0.7,0 1.3,-0.2 1.7,-0.5 0.4,-0.3 0.6,-0.8 0.6,-1.5 0,-0.7 -0.2,-1.2 -0.6,-1.6 -0.4,-0.4 -0.9,-0.6 -1.6,-0.6 H 501 Z m 12.4,7 h -2.8 v -13.5 h 2.8 z m -26.5,17.1 5.3,1.9 v 2.6 l -8,-3.4 v -2.2 l 8,-3.4 v 2.6 z m 7.7,5.7 v -13.5 h 4.7 c 1.6,0 2.9,0.3 3.7,0.9 0.8,0.6 1.3,1.5 1.3,2.8 0,0.7 -0.2,1.2 -0.5,1.7 -0.3,0.5 -0.8,0.9 -1.4,1.1 0.7,0.2 1.2,0.5 1.6,1 0.4,0.5 0.6,1.2 0.6,1.9 0,1.3 -0.4,2.3 -1.2,3 -0.8,0.7 -2,1 -3.5,1 h -5.3 z m 2.7,-7.9 h 2.1 c 1.4,0 2.1,-0.6 2.1,-1.7 0,-0.6 -0.2,-1.1 -0.5,-1.3 -0.4,-0.3 -0.9,-0.4 -1.7,-0.4 h -1.9 v 3.4 z m 0,2 v 3.6 h 2.4 c 0.7,0 1.2,-0.2 1.5,-0.5 0.4,-0.3 0.6,-0.7 0.6,-1.3 0,-1.2 -0.6,-1.9 -1.9,-1.9 z m 14.7,0.1 -5.4,-1.9 v -2.6 l 8.1,3.4 v 2.2 l -8.1,3.4 v -2.6 z"
       id="path444" /><path
       class="st283"
       d="M 448.6,51.1 V 37.6 h 4.2 c 1.2,0 2.2,0.3 3.2,0.8 0.9,0.5 1.7,1.3 2.2,2.3 0.5,1 0.8,2.1 0.8,3.4 v 0.6 c 0,1.3 -0.3,2.4 -0.8,3.3 -0.5,1 -1.2,1.7 -2.2,2.3 -1,0.6 -2,0.8 -3.2,0.8 z m 2.8,-11.3 v 9 h 1.3 c 1.1,0 1.9,-0.4 2.5,-1.1 0.6,-0.7 0.9,-1.7 0.9,-3.1 V 44 c 0,-1.4 -0.3,-2.4 -0.9,-3.1 -0.6,-0.7 -1.4,-1.1 -2.5,-1.1 z m 14,11.5 c -1.5,0 -2.7,-0.5 -3.6,-1.4 -0.9,-0.9 -1.4,-2.1 -1.4,-3.6 V 46 c 0,-1 0.2,-1.9 0.6,-2.7 0.4,-0.8 0.9,-1.4 1.7,-1.8 0.7,-0.4 1.5,-0.6 2.4,-0.6 1.4,0 2.5,0.4 3.2,1.3 0.8,0.9 1.2,2.1 1.2,3.7 V 47 h -6.4 c 0.1,0.7 0.3,1.2 0.8,1.6 0.4,0.4 1,0.6 1.7,0.6 1,0 1.8,-0.4 2.4,-1.1 l 1.3,1.5 c -0.4,0.6 -0.9,1 -1.6,1.3 -0.7,0.2 -1.5,0.4 -2.3,0.4 z M 465.1,43 c -0.5,0 -1,0.2 -1.3,0.5 -0.3,0.4 -0.5,0.9 -0.6,1.5 h 3.7 v -0.2 c 0,-0.6 -0.2,-1.1 -0.5,-1.4 -0.3,-0.3 -0.7,-0.4 -1.3,-0.4 z m 9.6,4.8 1.9,-6.8 h 2.8 L 476,51 h -2.6 L 470,41 h 2.8 z m 10.5,3.5 c -1.5,0 -2.7,-0.5 -3.6,-1.4 -0.9,-0.9 -1.4,-2.1 -1.4,-3.6 V 46 c 0,-1 0.2,-1.9 0.6,-2.7 0.4,-0.8 0.9,-1.4 1.7,-1.8 0.7,-0.4 1.5,-0.6 2.4,-0.6 1.4,0 2.5,0.4 3.2,1.3 0.8,0.9 1.2,2.1 1.2,3.7 V 47 h -6.4 c 0.1,0.7 0.3,1.2 0.8,1.6 0.4,0.4 1,0.6 1.7,0.6 1,0 1.8,-0.4 2.4,-1.1 l 1.3,1.5 c -0.4,0.6 -0.9,1 -1.6,1.3 -0.7,0.2 -1.5,0.4 -2.3,0.4 z M 484.9,43 c -0.5,0 -1,0.2 -1.3,0.5 -0.3,0.4 -0.5,0.9 -0.6,1.5 h 3.7 v -0.2 c 0,-0.6 -0.2,-1.1 -0.5,-1.4 -0.3,-0.3 -0.8,-0.4 -1.3,-0.4 z m 8.7,8.1 H 491 V 36.8 h 2.7 v 14.3 z m 1.8,-5.1 c 0,-1 0.2,-1.9 0.6,-2.7 0.4,-0.8 0.9,-1.4 1.7,-1.8 0.7,-0.4 1.6,-0.6 2.5,-0.6 1.4,0 2.5,0.4 3.3,1.2 0.9,0.8 1.3,2 1.4,3.4 v 0.7 c 0,1.5 -0.4,2.8 -1.3,3.7 -0.9,0.9 -2,1.4 -3.5,1.4 -1.5,0 -2.6,-0.5 -3.5,-1.4 -0.9,-0.9 -1.3,-2.2 -1.3,-3.8 z m 2.7,0.2 c 0,1 0.2,1.7 0.5,2.2 0.4,0.5 0.9,0.8 1.5,0.8 0.7,0 1.2,-0.2 1.5,-0.7 0.4,-0.5 0.5,-1.3 0.5,-2.4 0,-0.9 -0.2,-1.7 -0.5,-2.2 -0.4,-0.5 -0.9,-0.8 -1.5,-0.8 -0.7,0 -1.2,0.3 -1.5,0.8 -0.3,0.4 -0.5,1.2 -0.5,2.3 z m 17.5,0 c 0,1.5 -0.4,2.8 -1.1,3.7 -0.7,0.9 -1.6,1.4 -2.8,1.4 -1,0 -1.8,-0.4 -2.5,-1.1 v 4.7 h -2.7 V 41 h 2.5 l 0.1,1 c 0.6,-0.8 1.5,-1.2 2.5,-1.2 1.2,0 2.2,0.5 2.9,1.4 0.7,0.9 1,2.2 1,3.8 z M 513,46 c 0,-0.9 -0.2,-1.7 -0.5,-2.2 -0.3,-0.5 -0.8,-0.8 -1.4,-0.8 -0.8,0 -1.4,0.3 -1.7,1 v 4.1 c 0.3,0.7 0.9,1 1.8,1 1.1,0 1.8,-1 1.8,-3.1 z m 8.9,5.3 c -1.5,0 -2.7,-0.5 -3.6,-1.4 -0.9,-0.9 -1.4,-2.1 -1.4,-3.6 V 46 c 0,-1 0.2,-1.9 0.6,-2.7 0.4,-0.8 0.9,-1.4 1.7,-1.8 0.7,-0.4 1.5,-0.6 2.4,-0.6 1.4,0 2.5,0.4 3.2,1.3 0.8,0.9 1.2,2.1 1.2,3.7 V 47 h -6.4 c 0.1,0.7 0.3,1.2 0.8,1.6 0.4,0.4 1,0.6 1.7,0.6 1,0 1.8,-0.4 2.4,-1.1 l 1.3,1.5 c -0.4,0.6 -0.9,1 -1.6,1.3 -0.7,0.2 -1.4,0.4 -2.3,0.4 z M 521.6,43 c -0.5,0 -1,0.2 -1.3,0.5 -0.3,0.4 -0.5,0.9 -0.6,1.5 h 3.7 v -0.2 c 0,-0.6 -0.2,-1.1 -0.5,-1.4 -0.3,-0.3 -0.7,-0.4 -1.3,-0.4 z m 11.6,0.6 c -0.4,0 -0.7,-0.1 -1,-0.1 -1,0 -1.7,0.3 -2,1 v 6.6 h -2.7 V 41 h 2.5 l 0.1,1.2 c 0.5,-0.9 1.3,-1.4 2.2,-1.4 0.3,0 0.6,0 0.8,0.1 z m 16.8,3 c -0.1,1.5 -0.6,2.6 -1.6,3.4 -1,0.8 -2.2,1.3 -3.8,1.3 -1.7,0 -3.1,-0.6 -4.1,-1.7 -1,-1.2 -1.5,-2.8 -1.5,-4.8 V 44 c 0,-1.3 0.2,-2.4 0.7,-3.4 0.5,-1 1.1,-1.7 2,-2.3 0.9,-0.5 1.8,-0.8 3,-0.8 1.6,0 2.8,0.4 3.8,1.3 1,0.8 1.5,2 1.7,3.5 h -2.8 c -0.1,-0.9 -0.3,-1.5 -0.7,-1.9 -0.4,-0.4 -1.1,-0.6 -1.9,-0.6 -0.9,0 -1.6,0.3 -2.1,1 -0.5,0.7 -0.7,1.7 -0.7,3.1 v 1 c 0,1.5 0.2,2.5 0.7,3.2 0.4,0.7 1.1,1 2.1,1 0.9,0 1.5,-0.2 1.9,-0.6 0.4,-0.4 0.7,-1 0.7,-1.8 h 2.6 z m 4.5,4.5 h -2.7 V 36.8 h 2.7 z m 8.2,-1 c -0.7,0.8 -1.6,1.2 -2.7,1.2 -1.1,0 -1.9,-0.3 -2.5,-0.9 -0.6,-0.6 -0.9,-1.5 -0.9,-2.7 V 41 h 2.7 v 6.5 c 0,1 0.5,1.6 1.4,1.6 0.9,0 1.5,-0.3 1.9,-0.9 V 41 h 2.7 v 10 h -2.5 z m 10.1,-1.8 c 0,-0.3 -0.2,-0.6 -0.5,-0.8 -0.3,-0.2 -0.8,-0.4 -1.6,-0.5 -2.4,-0.5 -3.6,-1.5 -3.6,-3 0,-0.9 0.4,-1.6 1.1,-2.2 0.7,-0.6 1.7,-0.9 2.9,-0.9 1.3,0 2.3,0.3 3.1,0.9 0.8,0.6 1.1,1.4 1.1,2.3 h -2.7 c 0,-0.4 -0.1,-0.7 -0.4,-1 -0.2,-0.3 -0.6,-0.4 -1.2,-0.4 -0.5,0 -0.8,0.1 -1,0.3 -0.2,0.2 -0.4,0.5 -0.4,0.8 0,0.3 0.1,0.5 0.4,0.7 0.3,0.2 0.8,0.3 1.4,0.5 0.7,0.1 1.2,0.3 1.7,0.5 1.4,0.5 2.1,1.4 2.1,2.7 0,0.9 -0.4,1.7 -1.2,2.2 -0.8,0.6 -1.8,0.8 -3,0.8 -0.8,0 -1.6,-0.1 -2.2,-0.5 -0.7,-0.3 -1.2,-0.7 -1.5,-1.2 -0.4,-0.5 -0.6,-1.1 -0.6,-1.7 h 2.5 c 0,0.5 0.2,0.8 0.5,1.1 0.3,0.3 0.8,0.4 1.3,0.4 0.5,0 0.9,-0.1 1.2,-0.3 0.4,-0.1 0.6,-0.4 0.6,-0.7 z m 7.5,-9.7 V 41 h 1.7 v 2 h -1.7 v 5 c 0,0.4 0.1,0.6 0.2,0.8 0.1,0.2 0.4,0.2 0.8,0.2 0.3,0 0.6,0 0.8,-0.1 v 2 c -0.5,0.2 -1.1,0.2 -1.6,0.2 -1.9,0 -2.8,-0.9 -2.9,-2.8 V 43 h -1.5 v -2 h 1.5 v -2.5 z m 7.8,12.7 c -1.5,0 -2.7,-0.5 -3.6,-1.4 -0.9,-0.9 -1.4,-2.1 -1.4,-3.6 V 46 c 0,-1 0.2,-1.9 0.6,-2.7 0.4,-0.8 0.9,-1.4 1.7,-1.8 0.7,-0.4 1.5,-0.6 2.4,-0.6 1.4,0 2.5,0.4 3.2,1.3 0.8,0.9 1.2,2.1 1.2,3.7 V 47 h -6.4 c 0.1,0.7 0.3,1.2 0.8,1.6 0.4,0.4 1,0.6 1.7,0.6 1,0 1.8,-0.4 2.4,-1.1 l 1.3,1.5 c -0.4,0.6 -0.9,1 -1.6,1.3 -0.7,0.2 -1.4,0.4 -2.3,0.4 z M 587.8,43 c -0.5,0 -1,0.2 -1.3,0.5 -0.3,0.4 -0.5,0.9 -0.6,1.5 h 3.7 v -0.2 c 0,-0.6 -0.2,-1.1 -0.5,-1.4 -0.3,-0.3 -0.7,-0.4 -1.3,-0.4 z m 11.6,0.6 c -0.4,0 -0.7,-0.1 -1,-0.1 -1,0 -1.7,0.3 -2,1 v 6.6 h -2.7 V 41 h 2.5 l 0.1,1.2 c 0.5,-0.9 1.3,-1.4 2.2,-1.4 0.3,0 0.6,0 0.8,0.1 z M 26,120.7 v -13.5 h 4.2 c 1.2,0 2.2,0.3 3.2,0.8 0.9,0.5 1.7,1.3 2.2,2.3 0.5,1 0.8,2.1 0.8,3.4 v 0.6 c 0,1.3 -0.3,2.4 -0.8,3.3 -0.5,1 -1.2,1.7 -2.2,2.3 -0.9,0.5 -2,0.8 -3.2,0.8 H 26 Z m 2.7,-11.3 v 9 H 30 c 1.1,0 1.9,-0.4 2.5,-1.1 0.6,-0.7 0.9,-1.7 0.9,-3.1 v -0.7 c 0,-1.4 -0.3,-2.4 -0.9,-3.1 -0.6,-0.7 -1.4,-1.1 -2.5,-1.1 z m 14.1,11.5 c -1.5,0 -2.7,-0.5 -3.6,-1.4 -0.9,-0.9 -1.4,-2.1 -1.4,-3.6 v -0.3 c 0,-1 0.2,-1.9 0.6,-2.7 0.4,-0.8 0.9,-1.4 1.7,-1.8 0.7,-0.4 1.5,-0.6 2.4,-0.6 1.4,0 2.5,0.4 3.2,1.3 0.8,0.9 1.2,2.1 1.2,3.7 v 1.1 h -6.4 c 0.1,0.7 0.3,1.2 0.8,1.6 0.4,0.4 1,0.6 1.7,0.6 1,0 1.8,-0.4 2.4,-1.1 l 1.3,1.5 c -0.4,0.6 -0.9,1 -1.6,1.3 -0.7,0.2 -1.5,0.4 -2.3,0.4 z m -0.4,-8.3 c -0.5,0 -1,0.2 -1.3,0.5 -0.3,0.4 -0.5,0.9 -0.6,1.5 h 3.7 v -0.2 c 0,-0.6 -0.2,-1.1 -0.5,-1.4 -0.2,-0.2 -0.7,-0.4 -1.3,-0.4 z m 9.6,4.8 1.9,-6.8 h 2.8 l -3.4,10 h -2.6 l -3.4,-10 h 2.8 z m 10.5,3.5 c -1.5,0 -2.7,-0.5 -3.6,-1.4 -0.9,-0.9 -1.4,-2.1 -1.4,-3.6 v -0.3 c 0,-1 0.2,-1.9 0.6,-2.7 0.4,-0.8 0.9,-1.4 1.7,-1.8 0.7,-0.4 1.5,-0.6 2.4,-0.6 1.4,0 2.5,0.4 3.2,1.3 0.8,0.9 1.2,2.1 1.2,3.7 v 1.1 h -6.4 c 0.1,0.7 0.3,1.2 0.8,1.6 0.4,0.4 1,0.6 1.7,0.6 1,0 1.8,-0.4 2.4,-1.1 l 1.3,1.5 c -0.4,0.6 -0.9,1 -1.6,1.3 -0.7,0.2 -1.5,0.4 -2.3,0.4 z m -0.3,-8.3 c -0.5,0 -1,0.2 -1.3,0.5 -0.3,0.4 -0.5,0.9 -0.6,1.5 H 64 v -0.2 c 0,-0.6 -0.2,-1.1 -0.5,-1.4 -0.3,-0.2 -0.7,-0.4 -1.3,-0.4 z m 8.8,8.1 H 68.3 V 106.5 H 71 Z m 1.8,-5.1 c 0,-1 0.2,-1.9 0.6,-2.7 0.4,-0.8 0.9,-1.4 1.7,-1.8 0.7,-0.4 1.6,-0.6 2.5,-0.6 1.4,0 2.5,0.4 3.3,1.2 0.9,0.8 1.3,2 1.4,3.4 v 0.7 c 0,1.5 -0.4,2.8 -1.3,3.7 -0.9,0.9 -2,1.4 -3.5,1.4 -1.5,0 -2.6,-0.5 -3.5,-1.4 -0.9,-0.9 -1.3,-2.2 -1.3,-3.8 v -0.1 z m 2.7,0.2 c 0,1 0.2,1.7 0.5,2.2 0.4,0.5 0.9,0.8 1.5,0.8 0.6,0 1.2,-0.2 1.5,-0.7 0.4,-0.5 0.5,-1.3 0.5,-2.4 0,-0.9 -0.2,-1.7 -0.5,-2.2 -0.4,-0.5 -0.9,-0.8 -1.5,-0.8 -0.7,0 -1.2,0.3 -1.5,0.8 -0.4,0.4 -0.5,1.2 -0.5,2.3 z M 93,115.7 c 0,1.5 -0.4,2.8 -1.1,3.7 -0.7,0.9 -1.6,1.4 -2.8,1.4 -1,0 -1.8,-0.4 -2.5,-1.1 v 4.7 h -2.7 v -13.9 h 2.5 l 0.1,1 c 0.6,-0.8 1.5,-1.2 2.5,-1.2 1.2,0 2.2,0.5 2.9,1.4 0.7,0.9 1,2.2 1,3.8 z m -2.7,-0.1 c 0,-0.9 -0.2,-1.7 -0.5,-2.2 -0.3,-0.5 -0.8,-0.8 -1.4,-0.8 -0.8,0 -1.4,0.3 -1.7,1 v 4.1 c 0.3,0.7 0.9,1 1.8,1 1.2,0 1.8,-1.1 1.8,-3.1 z m 9,5.3 c -1.5,0 -2.7,-0.5 -3.6,-1.4 -0.9,-0.9 -1.4,-2.1 -1.4,-3.6 v -0.3 c 0,-1 0.2,-1.9 0.6,-2.7 0.4,-0.8 0.9,-1.4 1.7,-1.8 0.7,-0.4 1.5,-0.6 2.4,-0.6 1.4,0 2.5,0.4 3.2,1.3 0.8,0.9 1.2,2.1 1.2,3.7 v 1.1 H 97 c 0.1,0.7 0.3,1.2 0.8,1.6 0.4,0.4 1,0.6 1.7,0.6 1,0 1.8,-0.4 2.4,-1.1 l 1.3,1.5 c -0.4,0.6 -0.9,1 -1.6,1.3 -0.7,0.2 -1.5,0.4 -2.3,0.4 z M 99,112.6 c -0.5,0 -1,0.2 -1.3,0.5 -0.3,0.4 -0.5,0.9 -0.6,1.5 h 3.7 v -0.2 c 0,-0.6 -0.2,-1.1 -0.5,-1.4 -0.3,-0.2 -0.8,-0.4 -1.3,-0.4 z m 11.6,0.6 c -0.4,0 -0.7,-0.1 -1,-0.1 -1,0 -1.7,0.3 -2,1 v 6.6 h -2.7 v -10 h 2.5 l 0.1,1.2 c 0.5,-0.9 1.3,-1.4 2.2,-1.4 0.3,0 0.6,0 0.8,0.1 z m 9.8,-6 3.5,9.8 3.5,-9.8 h 3.7 v 13.5 h -2.8 V 117 l 0.3,-6.4 -3.6,10.1 h -1.9 l -3.6,-10.1 0.3,6.4 v 3.7 H 117 v -13.5 z m 18.6,13.5 c -0.1,-0.2 -0.2,-0.5 -0.3,-0.9 -0.6,0.7 -1.5,1.1 -2.5,1.1 -1,0 -1.8,-0.3 -2.4,-0.9 -0.6,-0.6 -1,-1.3 -1,-2.2 0,-1.1 0.4,-1.9 1.2,-2.4 0.8,-0.6 1.9,-0.9 3.4,-0.9 h 1.2 V 114 c 0,-0.5 -0.1,-0.8 -0.4,-1.1 -0.2,-0.3 -0.6,-0.4 -1.1,-0.4 -0.5,0 -0.8,0.1 -1.1,0.3 -0.3,0.2 -0.4,0.5 -0.4,0.9 H 133 c 0,-0.6 0.2,-1.1 0.5,-1.6 0.4,-0.5 0.9,-0.9 1.5,-1.2 0.7,-0.3 1.4,-0.4 2.2,-0.4 1.2,0 2.2,0.3 2.9,0.9 0.7,0.6 1.1,1.5 1.1,2.6 v 4.4 c 0,1 0.1,1.7 0.4,2.2 v 0.2 H 139 Z m -2.2,-1.9 c 0.4,0 0.8,-0.1 1.1,-0.3 0.3,-0.2 0.6,-0.4 0.7,-0.7 v -1.7 h -1 c -1.3,0 -2.1,0.5 -2.1,1.4 v 0.2 c 0,0.3 0.1,0.6 0.4,0.8 0.2,0.2 0.5,0.3 0.9,0.3 z m 10.8,-0.1 c 0.5,0 0.9,-0.1 1.2,-0.4 0.3,-0.3 0.5,-0.6 0.5,-1.1 h 2.5 c 0,0.7 -0.2,1.3 -0.6,1.9 -0.4,0.6 -0.9,1 -1.5,1.3 -0.6,0.3 -1.3,0.5 -2.1,0.5 -1.4,0 -2.6,-0.5 -3.4,-1.4 -0.8,-0.9 -1.2,-2.2 -1.2,-3.8 v -0.2 c 0,-1.5 0.4,-2.8 1.2,-3.7 0.8,-0.9 2,-1.4 3.4,-1.4 1.3,0 2.3,0.4 3,1.1 0.8,0.7 1.1,1.7 1.2,2.9 h -2.5 c 0,-0.5 -0.2,-0.9 -0.5,-1.3 -0.3,-0.3 -0.7,-0.5 -1.2,-0.5 -0.6,0 -1.1,0.2 -1.4,0.7 -0.3,0.5 -0.5,1.2 -0.5,2.2 v 0.3 c 0,1 0.2,1.8 0.5,2.2 0.3,0.4 0.7,0.7 1.4,0.7 z m 8.3,-7 c 0.7,-0.9 1.6,-1.3 2.7,-1.3 2.2,0 3.3,1.3 3.3,3.8 v 6.4 h -2.7 v -6.4 c 0,-0.6 -0.1,-1 -0.4,-1.3 -0.2,-0.3 -0.7,-0.4 -1.2,-0.4 -0.8,0 -1.4,0.3 -1.7,0.9 v 7.1 h -2.7 v -14.2 h 2.7 z m 8,-3.7 c 0,-0.4 0.1,-0.7 0.4,-1 0.3,-0.3 0.6,-0.4 1.1,-0.4 0.5,0 0.8,0.1 1.1,0.4 0.3,0.3 0.4,0.6 0.4,1 0,0.4 -0.1,0.7 -0.4,1 -0.3,0.3 -0.6,0.4 -1.1,0.4 -0.5,0 -0.8,-0.1 -1.1,-0.4 -0.2,-0.2 -0.4,-0.6 -0.4,-1 z m 2.9,12.7 h -2.7 v -10 h 2.7 z m 4.6,-10.1 0.1,1.2 c 0.7,-0.9 1.7,-1.3 2.9,-1.3 1.1,0 1.9,0.3 2.4,0.9 0.5,0.6 0.8,1.6 0.8,2.8 v 6.5 h -2.7 v -6.4 c 0,-0.6 -0.1,-1 -0.4,-1.2 -0.2,-0.3 -0.7,-0.4 -1.2,-0.4 -0.8,0 -1.3,0.3 -1.7,1 v 7.1 h -2.7 v -10 h 2.5 z m 12.8,10.3 c -1.5,0 -2.7,-0.5 -3.6,-1.4 -0.9,-0.9 -1.4,-2.1 -1.4,-3.6 v -0.3 c 0,-1 0.2,-1.9 0.6,-2.7 0.4,-0.8 0.9,-1.4 1.7,-1.8 0.7,-0.4 1.5,-0.6 2.4,-0.6 1.4,0 2.5,0.4 3.2,1.3 0.8,0.9 1.2,2.1 1.2,3.7 v 1.1 H 182 c 0.1,0.7 0.3,1.2 0.8,1.6 0.4,0.4 1,0.6 1.7,0.6 1,0 1.8,-0.4 2.4,-1.1 l 1.3,1.5 c -0.4,0.6 -0.9,1 -1.6,1.3 -0.8,0.2 -1.5,0.4 -2.4,0.4 z m -0.3,-8.3 c -0.5,0 -1,0.2 -1.3,0.5 -0.3,0.4 -0.5,0.9 -0.6,1.5 h 3.7 v -0.2 c 0,-0.6 -0.2,-1.1 -0.5,-1.4 -0.3,-0.2 -0.7,-0.4 -1.3,-0.4 z"
       id="path445" /><defs
       id="defs445"><path
         id="SVGID_00000183218677336790730000000009025796299788733067_"
         d="m 6.4,13.6 h 633.4 v 332 H 6.4 Z" /></defs><clipPath
       id="SVGID_00000075142982492710358910000002529570303331219844_"><use
         xlink:href="#SVGID_00000183218677336790730000000009025796299788733067_"
         style="overflow:visible"
         id="use445" /></clipPath><path
       style="fill:none;stroke:#fab900;stroke-width:4"
       d="m 422.8,203.5 c 0,0 58,0.2 72,14.2"
       clip-path="url(#SVGID_00000075142982492710358910000002529570303331219844_)"
       id="path446" /><defs
       id="defs446"><path
         id="SVGID_00000052071867766971407340000016537771135398220479_"
         d="m 6.4,13.6 h 633.4 v 332 H 6.4 Z" /></defs><clipPath
       id="SVGID_00000132072277322953940920000010717390211601705876_"><use
         xlink:href="#SVGID_00000052071867766971407340000016537771135398220479_"
         style="overflow:visible"
         id="use446" /></clipPath><path
       style="fill:#fab900"
       d="m 501.8,224.6 -7.5,-16.2 c 0,0 0.6,9.2 -8.6,8.6 z"
       clip-path="url(#SVGID_00000132072277322953940920000010717390211601705876_)"
       id="path447" /><defs
       id="defs447"><path
         id="SVGID_00000121274607532069116390000017511428789959651496_"
         d="m 6.4,13.6 h 633.4 v 332 H 6.4 Z" /></defs><clipPath
       id="SVGID_00000030478814199471565950000016552065573545206971_"><use
         xlink:href="#SVGID_00000121274607532069116390000017511428789959651496_"
         style="overflow:visible"
         id="use447" /></clipPath><path
       style="fill:none;stroke:#fab900;stroke-width:4"
       d="m 313.9,203.5 c 0,0 58,0.2 72,14.2"
       clip-path="url(#SVGID_00000030478814199471565950000016552065573545206971_)"
       id="path448" /><defs
       id="defs448"><path
         id="SVGID_00000137123652541246113120000008044994269510008751_"
         d="m 6.4,13.6 h 633.4 v 332 H 6.4 Z" /></defs><clipPath
       id="SVGID_00000052090304575748803030000012447929847158418842_"><use
         xlink:href="#SVGID_00000137123652541246113120000008044994269510008751_"
         style="overflow:visible"
         id="use448" /></clipPath><path
       style="fill:#fab900"
       d="m 392.9,224.6 -7.5,-16.2 c 0,0 0.6,9.2 -8.6,8.6 z"
       clip-path="url(#SVGID_00000052090304575748803030000012447929847158418842_)"
       id="path449" /><defs
       id="defs449"><path
         id="SVGID_00000147189456190573486330000014194219158379316352_"
         d="m 6.4,13.6 h 633.4 v 332 H 6.4 Z" /></defs><clipPath
       id="SVGID_00000100366111965578736520000015603837070500592768_"><use
         xlink:href="#SVGID_00000147189456190573486330000014194219158379316352_"
         style="overflow:visible"
         id="use449" /></clipPath><path
       style="fill:none;stroke:#fab900;stroke-width:4"
       d="m 422.8,203.5 c 0,0 58,1 72,-13"
       clip-path="url(#SVGID_00000100366111965578736520000015603837070500592768_)"
       id="path450" /><defs
       id="defs450"><path
         id="SVGID_00000033331611079284525480000014184875003315892631_"
         d="m 6.4,13.6 h 633.4 v 332 H 6.4 Z" /></defs><clipPath
       id="SVGID_00000152947283698465934150000012999139153719004296_"><use
         xlink:href="#SVGID_00000033331611079284525480000014184875003315892631_"
         style="overflow:visible"
         id="use450" /></clipPath><path
       style="fill:#fab900"
       d="m 501.8,183.5 -7.5,16.2 c 0,0 0.6,-9.2 -8.6,-8.6 z"
       clip-path="url(#SVGID_00000152947283698465934150000012999139153719004296_)"
       id="path451" /><defs
       id="defs451"><path
         id="SVGID_00000145048566559084489990000015232446068099554975_"
         d="m 6.4,13.6 h 633.4 v 332 H 6.4 Z" /></defs><clipPath
       id="SVGID_00000083797608515382311260000006864197244167265467_"><use
         xlink:href="#SVGID_00000145048566559084489990000015232446068099554975_"
         style="overflow:visible"
         id="use451" /></clipPath><path
       style="fill:none;stroke:#fab900;stroke-width:4"
       d="m 313.9,203.5 c 0,0 58,1 72,-13"
       clip-path="url(#SVGID_00000083797608515382311260000006864197244167265467_)"
       id="path452" /><defs
       id="defs452"><path
         id="SVGID_00000178902336026720057770000010023614819153809587_"
         d="m 6.4,13.6 h 633.4 v 332 H 6.4 Z" /></defs><clipPath
       id="SVGID_00000065787573695153306590000010703468950255886478_"><use
         xlink:href="#SVGID_00000178902336026720057770000010023614819153809587_"
         style="overflow:visible"
         id="use452" /></clipPath><path
       style="fill:#fab900"
       d="m 392.9,183.5 -7.5,16.2 c 0,0 0.6,-9.2 -8.6,-8.6 z"
       clip-path="url(#SVGID_00000065787573695153306590000010703468950255886478_)"
       id="path453" /></g><g
     id="Ebene_3"
     transform="matrix(0.78239999,0,0,0.78239999,69.06206,14.256739)"><defs
       id="defs453"><path
         id="SVGID_00000160883866795211422000000011294819576549544341_"
         d="m 163.6,184 h 153 v 39.5 h -153 z" /></defs><clipPath
       id="SVGID_00000161618494731004428450000010153882929172194491_"><use
         xlink:href="#SVGID_00000160883866795211422000000011294819576549544341_"
         style="overflow:visible"
         id="use453" /></clipPath><path
       style="fill:none;stroke:#fab900;stroke-width:7;stroke-linecap:round"
       d="m 167.1,187.5 h 146"
       clip-path="url(#SVGID_00000161618494731004428450000010153882929172194491_)"
       id="path454" /><defs
       id="defs454"><path
         id="SVGID_00000149378668435959004420000014381553348471204236_"
         d="m 163.6,184 h 153 v 39.5 h -153 z" /></defs><clipPath
       id="SVGID_00000048500616871412845060000008413816382134954120_"><use
         xlink:href="#SVGID_00000149378668435959004420000014381553348471204236_"
         style="overflow:visible"
         id="use454" /></clipPath><path
       style="fill:none;stroke:#fab900;stroke-width:7;stroke-linecap:round"
       d="m 167.1,220 h 146"
       clip-path="url(#SVGID_00000048500616871412845060000008413816382134954120_)"
       id="path455" /><defs
       id="defs455"><path
         id="SVGID_00000034050548337767221610000009645250816738059171_"
         d="m 163.6,184 h 153 v 39.5 h -153 z" /></defs><clipPath
       id="SVGID_00000039823366241307891380000011575148354899221639_"><use
         xlink:href="#SVGID_00000034050548337767221610000009645250816738059171_"
         style="overflow:visible"
         id="use455" /></clipPath><g
       clip-path="url(#SVGID_00000039823366241307891380000011575148354899221639_)"
       id="g458"><defs
         id="defs456"><path
           id="SVGID_00000090260772336127969060000011095529997327474324_"
           d="m 163.6,184 h 153 v 39.5 h -153 z" /></defs><clipPath
         id="SVGID_00000143579336251806434080000016726344500129064837_"><use
           xlink:href="#SVGID_00000090260772336127969060000011095529997327474324_"
           style="overflow:visible"
           id="use456" /></clipPath><g
         style="opacity:0.24"
         clip-path="url(#SVGID_00000143579336251806434080000016726344500129064837_)"
         id="g457"><defs
           id="defs457"><path
             id="SVGID_00000168821360282086916220000012280291845457728640_"
             d="m 154.6,180.5 h 171 V 221 h -171 z" /></defs><clipPath
           id="SVGID_00000156590139496973544830000003255393446576362892_"><use
             xlink:href="#SVGID_00000168821360282086916220000012280291845457728640_"
             style="overflow:visible"
             id="use457" /></clipPath><path
           style="fill:#fab900"
           d="m 163.6,187.5 h 153 V 220 h -153 z"
           clip-path="url(#SVGID_00000156590139496973544830000003255393446576362892_)"
           id="path457" /></g></g></g></svg>
